<svg xmlns="http://www.w3.org/2000/svg" width="720" height="280" viewBox="0 0 720 280">
      <defs>
        <radialGradient id="vignette" cx="50%" cy="50%" r="75%">
          <stop offset="0%" stop-color="#ffffff" stop-opacity="1"/>
          <stop offset="100%" stop-color="#ffffff" stop-opacity="0.7"/>
        </radialGradient>
        <linearGradient id="edgeGlow" x1="0%" y1="0%" x2="100%" y2="0%">
          <stop offset="0%" stop-color="#ffffff" stop-opacity="0"/>
          <stop offset="100%" stop-color="#ffffff" stop-opacity="0.45"/>
        </linearGradient>
      </defs>
    <rect x="0" y="0" width="720" height="280" fill="url(#vignette)"/>
<rect x="689" y="17" width="6" height="6" rx="1" ry="1" fill="#3B82F6" fill-opacity="0.622"/>
<rect x="43" y="193" width="10" height="10" rx="1" ry="1" fill="#D1E2FC" fill-opacity="0.124"/>
<rect x="589" y="23" width="9" height="9" rx="1" ry="1" fill="#4D8DF6" fill-opacity="0.452"/>
<rect x="68" y="262" width="11" height="11" rx="1" ry="1" fill="#CDDFFC" fill-opacity="0.137"/>
<rect x="459" y="202" width="6" height="6" rx="1" ry="1" fill="#71A4F8" fill-opacity="0.362"/>
<rect x="278" y="196" width="6" height="6" rx="1" ry="1" fill="#9FC2FA" fill-opacity="0.241"/>
<rect x="251" y="6" width="8" height="8" rx="1" ry="1" fill="#A5C6FA" fill-opacity="0.255"/>
<rect x="578" y="111" width="6" height="6" rx="1" ry="1" fill="#508FF6" fill-opacity="0.458"/>
<rect x="70" y="110" width="11" height="11" rx="1" ry="1" fill="#CDDFFC" fill-opacity="0.142"/>
<rect x="696" y="154" width="11" height="11" rx="1" ry="1" fill="#3B82F6" fill-opacity="0.629"/>
<rect x="548" y="110" width="9" height="9" rx="1" ry="1" fill="#5894F7" fill-opacity="0.472"/>
<rect x="380" y="152" width="10" height="10" rx="1" ry="1" fill="#85B1F9" fill-opacity="0.324"/>
<rect x="488" y="239" width="9" height="9" rx="1" ry="1" fill="#699FF8" fill-opacity="0.425"/>
<rect x="683" y="121" width="11" height="11" rx="1" ry="1" fill="#3B82F6" fill-opacity="0.470"/>
<rect x="281" y="151" width="8" height="8" rx="1" ry="1" fill="#9EC1FA" fill-opacity="0.275"/>
<rect x="403" y="46" width="8" height="8" rx="1" ry="1" fill="#7FADF9" fill-opacity="0.331"/>
<rect x="270" y="34" width="11" height="11" rx="1" ry="1" fill="#A1C3FA" fill-opacity="0.273"/>
<rect x="346" y="191" width="9" height="9" rx="1" ry="1" fill="#8EB7F9" fill-opacity="0.330"/>
<rect x="64" y="116" width="11" height="11" rx="1" ry="1" fill="#CEDFFC" fill-opacity="0.130"/>
<rect x="558" y="66" width="8" height="8" rx="1" ry="1" fill="#5593F7" fill-opacity="0.492"/>
<rect x="533" y="178" width="8" height="8" rx="1" ry="1" fill="#5C97F7" fill-opacity="0.459"/>
<rect x="557" y="166" width="6" height="6" rx="1" ry="1" fill="#5693F7" fill-opacity="0.497"/>
<rect x="405" y="99" width="7" height="7" rx="1" ry="1" fill="#7FADF9" fill-opacity="0.388"/>
<rect x="194" y="22" width="10" height="10" rx="1" ry="1" fill="#B3CEFB" fill-opacity="0.207"/>
<rect x="590" y="36" width="7" height="7" rx="1" ry="1" fill="#4C8DF6" fill-opacity="0.434"/>
<rect x="507" y="79" width="9" height="9" rx="1" ry="1" fill="#639CF7" fill-opacity="0.448"/>
<rect x="108" y="210" width="10" height="10" rx="1" ry="1" fill="#C5DAFC" fill-opacity="0.161"/>
<rect x="125" y="261" width="11" height="11" rx="1" ry="1" fill="#C2D8FC" fill-opacity="0.175"/>
<rect x="582" y="191" width="8" height="8" rx="1" ry="1" fill="#4F8EF6" fill-opacity="0.442"/>
<rect x="343" y="122" width="9" height="9" rx="1" ry="1" fill="#8FB7F9" fill-opacity="0.295"/>
<rect x="387" y="62" width="8" height="8" rx="1" ry="1" fill="#3574DA" fill-opacity="0.295"/>
<rect x="709" y="9" width="8" height="8" rx="1" ry="1" fill="#3574DA" fill-opacity="0.480"/>
<rect x="691" y="92" width="9" height="9" rx="1" ry="1" fill="#3B82F6" fill-opacity="0.484"/>
<rect x="25" y="53" width="11" height="11" rx="1" ry="1" fill="#D4E4FD" fill-opacity="0.110"/>
<rect x="126" y="114" width="9" height="9" rx="1" ry="1" fill="#C2D8FC" fill-opacity="0.163"/>
<rect x="260" y="237" width="7" height="7" rx="1" ry="1" fill="#A3C4FA" fill-opacity="0.236"/>
<rect x="361" y="169" width="8" height="8" rx="1" ry="1" fill="#8AB4F9" fill-opacity="0.323"/>
<rect x="303" y="124" width="10" height="10" rx="1" ry="1" fill="#99BEFA" fill-opacity="0.279"/>
<rect x="293" y="172" width="10" height="10" rx="1" ry="1" fill="#3574DA" fill-opacity="0.297"/>
<rect x="177" y="266" width="6" height="6" rx="1" ry="1" fill="#B7D1FB" fill-opacity="0.208"/>
<rect x="89" y="183" width="8" height="8" rx="1" ry="1" fill="#C9DCFC" fill-opacity="0.153"/>
<rect x="642" y="32" width="9" height="9" rx="1" ry="1" fill="#3E83F6" fill-opacity="0.535"/>
<rect x="172" y="252" width="11" height="11" rx="1" ry="1" fill="#B8D1FB" fill-opacity="0.188"/>
<rect x="471" y="166" width="9" height="9" rx="1" ry="1" fill="#6DA2F8" fill-opacity="0.367"/>
<rect x="630" y="73" width="9" height="9" rx="1" ry="1" fill="#4186F6" fill-opacity="0.483"/>
<rect x="434" y="54" width="7" height="7" rx="1" ry="1" fill="#77A8F8" fill-opacity="0.408"/>
<rect x="254" y="67" width="10" height="10" rx="1" ry="1" fill="#A5C5FA" fill-opacity="0.256"/>
<rect x="32" y="213" width="7" height="7" rx="1" ry="1" fill="#D3E3FD" fill-opacity="0.116"/>
<rect x="416" y="229" width="9" height="9" rx="1" ry="1" fill="#3574DA" fill-opacity="0.375"/>
<rect x="710" y="0" width="10" height="10" rx="1" ry="1" fill="#3574DA" fill-opacity="0.503"/>
<rect x="15" y="58" width="6" height="6" rx="1" ry="1" fill="#D6E4FD" fill-opacity="0.107"/>
<rect x="327" y="145" width="9" height="9" rx="1" ry="1" fill="#93BAFA" fill-opacity="0.274"/>
<rect x="161" y="269" width="9" height="9" rx="1" ry="1" fill="#BAD3FB" fill-opacity="0.199"/>
<rect x="595" y="1" width="6" height="6" rx="1" ry="1" fill="#4B8CF6" fill-opacity="0.495"/>
<rect x="254" y="147" width="9" height="9" rx="1" ry="1" fill="#A5C5FA" fill-opacity="0.254"/>
<rect x="51" y="128" width="6" height="6" rx="1" ry="1" fill="#D0E1FC" fill-opacity="0.121"/>
<rect x="149" y="92" width="10" height="10" rx="1" ry="1" fill="#BDD5FB" fill-opacity="0.191"/>
<rect x="611" y="253" width="10" height="10" rx="1" ry="1" fill="#4689F6" fill-opacity="0.447"/>
<rect x="463" y="196" width="6" height="6" rx="1" ry="1" fill="#3574DA" fill-opacity="0.425"/>
<rect x="142" y="229" width="10" height="10" rx="1" ry="1" fill="#BED5FC" fill-opacity="0.187"/>
<rect x="122" y="134" width="6" height="6" rx="1" ry="1" fill="#C2D8FC" fill-opacity="0.169"/>
<rect x="462" y="243" width="7" height="7" rx="1" ry="1" fill="#70A3F8" fill-opacity="0.413"/>
<rect x="354" y="66" width="8" height="8" rx="1" ry="1" fill="#8CB6F9" fill-opacity="0.304"/>
<rect x="336" y="136" width="9" height="9" rx="1" ry="1" fill="#3574DA" fill-opacity="0.300"/>
<rect x="679" y="81" width="9" height="9" rx="1" ry="1" fill="#3B82F6" fill-opacity="0.524"/>
<rect x="595" y="136" width="6" height="6" rx="1" ry="1" fill="#4B8CF6" fill-opacity="0.478"/>
<rect x="493" y="54" width="7" height="7" rx="1" ry="1" fill="#679EF8" fill-opacity="0.363"/>
<rect x="717" y="138" width="7" height="7" rx="1" ry="1" fill="#3B82F6" fill-opacity="0.495"/>
<rect x="561" y="179" width="6" height="6" rx="1" ry="1" fill="#5592F7" fill-opacity="0.412"/>
<rect x="661" y="74" width="6" height="6" rx="1" ry="1" fill="#3B82F6" fill-opacity="0.548"/>
<rect x="115" y="203" width="9" height="9" rx="1" ry="1" fill="#C4D9FC" fill-opacity="0.167"/>
<rect x="305" y="120" width="11" height="11" rx="1" ry="1" fill="#3574DA" fill-opacity="0.257"/>
<rect x="338" y="82" width="11" height="11" rx="1" ry="1" fill="#90B8F9" fill-opacity="0.328"/>
<rect x="663" y="49" width="6" height="6" rx="1" ry="1" fill="#3B82F6" fill-opacity="0.555"/>
<rect x="353" y="26" width="9" height="9" rx="1" ry="1" fill="#8CB6F9" fill-opacity="0.290"/>
<rect x="241" y="67" width="6" height="6" rx="1" ry="1" fill="#A8C7FB" fill-opacity="0.236"/>
<rect x="645" y="182" width="8" height="8" rx="1" ry="1" fill="#3D83F6" fill-opacity="0.497"/>
<rect x="142" y="220" width="11" height="11" rx="1" ry="1" fill="#BED5FC" fill-opacity="0.168"/>
<rect x="682" y="213" width="11" height="11" rx="1" ry="1" fill="#3B82F6" fill-opacity="0.523"/>
<rect x="227" y="247" width="9" height="9" rx="1" ry="1" fill="#ABC9FB" fill-opacity="0.238"/>
<rect x="675" y="135" width="6" height="6" rx="1" ry="1" fill="#3B82F6" fill-opacity="0.562"/>
<rect x="338" y="190" width="7" height="7" rx="1" ry="1" fill="#90B8F9" fill-opacity="0.269"/>
<rect x="86" y="23" width="6" height="6" rx="1" ry="1" fill="#CADDFC" fill-opacity="0.148"/>
<rect x="202" y="51" width="10" height="10" rx="1" ry="1" fill="#B1CDFB" fill-opacity="0.210"/>
<rect x="435" y="86" width="7" height="7" rx="1" ry="1" fill="#77A8F8" fill-opacity="0.341"/>
<rect x="695" y="186" width="8" height="8" rx="1" ry="1" fill="#3B82F6" fill-opacity="0.564"/>
<rect x="696" y="130" width="6" height="6" rx="1" ry="1" fill="#3B82F6" fill-opacity="0.569"/>
<rect x="40" y="226" width="7" height="7" rx="1" ry="1" fill="#D2E2FC" fill-opacity="0.119"/>
<rect x="375" y="227" width="6" height="6" rx="1" ry="1" fill="#87B2F9" fill-opacity="0.308"/>
<rect x="712" y="204" width="10" height="10" rx="1" ry="1" fill="#3B82F6" fill-opacity="0.594"/>
<rect x="451" y="242" width="6" height="6" rx="1" ry="1" fill="#73A5F8" fill-opacity="0.425"/>
<rect x="600" y="47" width="8" height="8" rx="1" ry="1" fill="#4A8BF6" fill-opacity="0.478"/>
<rect x="158" y="109" width="7" height="7" rx="1" ry="1" fill="#BBD3FB" fill-opacity="0.176"/>
<rect x="174" y="238" width="9" height="9" rx="1" ry="1" fill="#B7D1FB" fill-opacity="0.204"/>
<rect x="546" y="71" width="8" height="8" rx="1" ry="1" fill="#5995F7" fill-opacity="0.436"/>
<rect x="301" y="37" width="10" height="10" rx="1" ry="1" fill="#99BEFA" fill-opacity="0.279"/>
<rect x="464" y="256" width="8" height="8" rx="1" ry="1" fill="#6FA3F8" fill-opacity="0.345"/>
<rect x="505" y="197" width="7" height="7" rx="1" ry="1" fill="#649CF7" fill-opacity="0.423"/>
<rect x="524" y="107" width="11" height="11" rx="1" ry="1" fill="#5F99F7" fill-opacity="0.419"/>
<rect x="335" y="111" width="9" height="9" rx="1" ry="1" fill="#91B9F9" fill-opacity="0.305"/>
<rect x="203" y="145" width="10" height="10" rx="1" ry="1" fill="#B1CDFB" fill-opacity="0.197"/>
<rect x="290" y="126" width="7" height="7" rx="1" ry="1" fill="#3574DA" fill-opacity="0.298"/>
<rect x="680" y="180" width="10" height="10" rx="1" ry="1" fill="#3B82F6" fill-opacity="0.525"/>
<rect x="717" y="187" width="10" height="10" rx="1" ry="1" fill="#3574DA" fill-opacity="0.617"/>
<rect x="106" y="88" width="7" height="7" rx="1" ry="1" fill="#C6DAFC" fill-opacity="0.165"/>
<rect x="637" y="218" width="11" height="11" rx="1" ry="1" fill="#3F84F6" fill-opacity="0.528"/>
<rect x="439" y="17" width="9" height="9" rx="1" ry="1" fill="#76A7F8" fill-opacity="0.365"/>
<rect x="279" y="213" width="6" height="6" rx="1" ry="1" fill="#9FC1FA" fill-opacity="0.242"/>
<rect x="585" y="247" width="9" height="9" rx="1" ry="1" fill="#4E8EF6" fill-opacity="0.448"/>
<rect x="453" y="8" width="8" height="8" rx="1" ry="1" fill="#72A5F8" fill-opacity="0.397"/>
<rect x="516" y="96" width="11" height="11" rx="1" ry="1" fill="#619AF7" fill-opacity="0.416"/>
<rect x="144" y="68" width="8" height="8" rx="1" ry="1" fill="#BED5FC" fill-opacity="0.187"/>
<rect x="293" y="214" width="6" height="6" rx="1" ry="1" fill="#9BBFFA" fill-opacity="0.288"/>
<rect x="326" y="271" width="11" height="11" rx="1" ry="1" fill="#93BAFA" fill-opacity="0.309"/>
<rect x="320" y="213" width="11" height="11" rx="1" ry="1" fill="#95BBFA" fill-opacity="0.320"/>
<rect x="253" y="122" width="10" height="10" rx="1" ry="1" fill="#A5C5FA" fill-opacity="0.230"/>
<rect x="706" y="210" width="11" height="11" rx="1" ry="1" fill="#3574DA" fill-opacity="0.603"/>
<rect x="307" y="88" width="10" height="10" rx="1" ry="1" fill="#98BDFA" fill-opacity="0.288"/>
<rect x="480" y="167" width="7" height="7" rx="1" ry="1" fill="#6BA0F8" fill-opacity="0.396"/>
<rect x="355" y="254" width="8" height="8" rx="1" ry="1" fill="#8CB5F9" fill-opacity="0.329"/>
<rect x="311" y="23" width="10" height="10" rx="1" ry="1" fill="#97BCFA" fill-opacity="0.289"/>
<rect x="468" y="61" width="6" height="6" rx="1" ry="1" fill="#6EA2F8" fill-opacity="0.394"/>
<rect x="203" y="0" width="6" height="6" rx="1" ry="1" fill="#B1CDFB" fill-opacity="0.232"/>
<rect x="611" y="176" width="6" height="6" rx="1" ry="1" fill="#4689F6" fill-opacity="0.554"/>
<rect x="198" y="157" width="11" height="11" rx="1" ry="1" fill="#B2CEFB" fill-opacity="0.196"/>
<rect x="519" y="237" width="6" height="6" rx="1" ry="1" fill="#609AF7" fill-opacity="0.412"/>
<rect x="157" y="32" width="10" height="10" rx="1" ry="1" fill="#BBD3FB" fill-opacity="0.203"/>
<rect x="667" y="222" width="11" height="11" rx="1" ry="1" fill="#3B82F6" fill-opacity="0.542"/>
<rect x="539" y="149" width="9" height="9" rx="1" ry="1" fill="#5B96F7" fill-opacity="0.447"/>
<rect x="309" y="15" width="7" height="7" rx="1" ry="1" fill="#97BDFA" fill-opacity="0.259"/>
<rect x="267" y="73" width="6" height="6" rx="1" ry="1" fill="#A2C3FA" fill-opacity="0.266"/>
<rect x="419" y="128" width="10" height="10" rx="1" ry="1" fill="#7BABF8" fill-opacity="0.368"/>
<rect x="198" y="224" width="6" height="6" rx="1" ry="1" fill="#B2CEFB" fill-opacity="0.231"/>
<rect x="222" y="82" width="8" height="8" rx="1" ry="1" fill="#ACCAFB" fill-opacity="0.215"/>
<rect x="413" y="149" width="8" height="8" rx="1" ry="1" fill="#7DACF9" fill-opacity="0.331"/>
<rect x="33" y="7" width="9" height="9" rx="1" ry="1" fill="#D3E3FC" fill-opacity="0.113"/>
<rect x="623" y="92" width="8" height="8" rx="1" ry="1" fill="#3574DA" fill-opacity="0.508"/>
<rect x="569" y="190" width="7" height="7" rx="1" ry="1" fill="#5291F7" fill-opacity="0.453"/>
<rect x="219" y="204" width="8" height="8" rx="1" ry="1" fill="#ADCBFB" fill-opacity="0.208"/>
<rect x="650" y="8" width="11" height="11" rx="1" ry="1" fill="#3B82F6" fill-opacity="0.456"/>
<rect x="630" y="170" width="9" height="9" rx="1" ry="1" fill="#4186F6" fill-opacity="0.447"/>
<rect x="575" y="213" width="8" height="8" rx="1" ry="1" fill="#3574DA" fill-opacity="0.436"/>
<rect x="64" y="52" width="7" height="7" rx="1" ry="1" fill="#CEDFFC" fill-opacity="0.128"/>
<rect x="545" y="80" width="7" height="7" rx="1" ry="1" fill="#5995F7" fill-opacity="0.427"/>
<rect x="546" y="54" width="8" height="8" rx="1" ry="1" fill="#5995F7" fill-opacity="0.488"/>
<rect x="717" y="203" width="8" height="8" rx="1" ry="1" fill="#3B82F6" fill-opacity="0.597"/>
<rect x="432" y="91" width="7" height="7" rx="1" ry="1" fill="#78A9F8" fill-opacity="0.382"/>
<rect x="86" y="174" width="9" height="9" rx="1" ry="1" fill="#CADDFC" fill-opacity="0.143"/>
<rect x="179" y="227" width="10" height="10" rx="1" ry="1" fill="#3574DA" fill-opacity="0.190"/>
<rect x="74" y="139" width="11" height="11" rx="1" ry="1" fill="#CCDEFC" fill-opacity="0.144"/>
<rect x="417" y="196" width="8" height="8" rx="1" ry="1" fill="#3574DA" fill-opacity="0.311"/>
<rect x="624" y="10" width="10" height="10" rx="1" ry="1" fill="#4387F6" fill-opacity="0.514"/>
<rect x="648" y="209" width="11" height="11" rx="1" ry="1" fill="#3C82F6" fill-opacity="0.470"/>
<rect x="179" y="262" width="11" height="11" rx="1" ry="1" fill="#3574DA" fill-opacity="0.188"/>
<rect x="647" y="240" width="6" height="6" rx="1" ry="1" fill="#3C83F6" fill-opacity="0.499"/>
<rect x="685" y="267" width="10" height="10" rx="1" ry="1" fill="#3B82F6" fill-opacity="0.573"/>
<rect x="307" y="207" width="10" height="10" rx="1" ry="1" fill="#98BDFA" fill-opacity="0.290"/>
<rect x="34" y="129" width="8" height="8" rx="1" ry="1" fill="#D3E3FC" fill-opacity="0.118"/>
<rect x="194" y="221" width="10" height="10" rx="1" ry="1" fill="#B3CEFB" fill-opacity="0.219"/>
<rect x="675" y="247" width="10" height="10" rx="1" ry="1" fill="#3B82F6" fill-opacity="0.540"/>
<rect x="256" y="65" width="11" height="11" rx="1" ry="1" fill="#A4C5FA" fill-opacity="0.242"/>
<rect x="370" y="220" width="7" height="7" rx="1" ry="1" fill="#88B3F9" fill-opacity="0.313"/>
<rect x="325" y="95" width="8" height="8" rx="1" ry="1" fill="#93BAFA" fill-opacity="0.262"/>
<rect x="430" y="212" width="8" height="8" rx="1" ry="1" fill="#78A9F8" fill-opacity="0.356"/>
<rect x="51" y="43" width="9" height="9" rx="1" ry="1" fill="#D0E1FC" fill-opacity="0.128"/>
<rect x="172" y="170" width="10" height="10" rx="1" ry="1" fill="#B8D1FB" fill-opacity="0.197"/>
<rect x="516" y="53" width="8" height="8" rx="1" ry="1" fill="#619AF7" fill-opacity="0.372"/>
<rect x="299" y="98" width="10" height="10" rx="1" ry="1" fill="#9ABEFA" fill-opacity="0.258"/>
<rect x="667" y="36" width="11" height="11" rx="1" ry="1" fill="#3B82F6" fill-opacity="0.561"/>
<rect x="372" y="194" width="9" height="9" rx="1" ry="1" fill="#3574DA" fill-opacity="0.330"/>
<rect x="260" y="183" width="9" height="9" rx="1" ry="1" fill="#A3C4FA" fill-opacity="0.254"/>
<rect x="564" y="58" width="10" height="10" rx="1" ry="1" fill="#3574DA" fill-opacity="0.445"/>
<rect x="618" y="182" width="10" height="10" rx="1" ry="1" fill="#4488F6" fill-opacity="0.502"/>
<rect x="474" y="186" width="9" height="9" rx="1" ry="1" fill="#6CA1F8" fill-opacity="0.438"/>
<rect x="458" y="135" width="8" height="8" rx="1" ry="1" fill="#71A4F8" fill-opacity="0.389"/>
<rect x="688" y="37" width="10" height="10" rx="1" ry="1" fill="#3B82F6" fill-opacity="0.486"/>
<rect x="593" y="197" width="7" height="7" rx="1" ry="1" fill="#4C8CF6" fill-opacity="0.470"/>
<rect x="602" y="194" width="8" height="8" rx="1" ry="1" fill="#498BF6" fill-opacity="0.535"/>
<rect x="610" y="77" width="10" height="10" rx="1" ry="1" fill="#4789F6" fill-opacity="0.476"/>
<rect x="385" y="264" width="10" height="10" rx="1" ry="1" fill="#84B0F9" fill-opacity="0.374"/>
<rect x="383" y="65" width="10" height="10" rx="1" ry="1" fill="#85B1F9" fill-opacity="0.329"/>
<rect x="478" y="87" width="7" height="7" rx="1" ry="1" fill="#6BA1F8" fill-opacity="0.387"/>
<rect x="93" y="249" width="9" height="9" rx="1" ry="1" fill="#C8DCFC" fill-opacity="0.158"/>
<rect x="685" y="88" width="11" height="11" rx="1" ry="1" fill="#3B82F6" fill-opacity="0.584"/>
<rect x="229" y="57" width="11" height="11" rx="1" ry="1" fill="#ABC9FB" fill-opacity="0.248"/>
<rect x="246" y="34" width="9" height="9" rx="1" ry="1" fill="#A7C6FA" fill-opacity="0.223"/>
<rect x="298" y="138" width="11" height="11" rx="1" ry="1" fill="#9ABEFA" fill-opacity="0.252"/>
<rect x="432" y="209" width="11" height="11" rx="1" ry="1" fill="#78A9F8" fill-opacity="0.378"/>
<rect x="347" y="166" width="7" height="7" rx="1" ry="1" fill="#8EB7F9" fill-opacity="0.283"/>
<rect x="347" y="77" width="8" height="8" rx="1" ry="1" fill="#8EB7F9" fill-opacity="0.346"/>
<rect x="458" y="247" width="8" height="8" rx="1" ry="1" fill="#71A4F8" fill-opacity="0.359"/>
<rect x="617" y="12" width="11" height="11" rx="1" ry="1" fill="#3574DA" fill-opacity="0.487"/>
<rect x="526" y="216" width="9" height="9" rx="1" ry="1" fill="#5E98F7" fill-opacity="0.462"/>
<rect x="708" y="268" width="8" height="8" rx="1" ry="1" fill="#3B82F6" fill-opacity="0.500"/>
<rect x="376" y="5" width="11" height="11" rx="1" ry="1" fill="#86B2F9" fill-opacity="0.362"/>
<rect x="595" y="179" width="6" height="6" rx="1" ry="1" fill="#3574DA" fill-opacity="0.508"/>
<rect x="622" y="167" width="8" height="8" rx="1" ry="1" fill="#4387F6" fill-opacity="0.532"/>
<rect x="697" y="131" width="9" height="9" rx="1" ry="1" fill="#3B82F6" fill-opacity="0.560"/>
<rect x="110" y="65" width="8" height="8" rx="1" ry="1" fill="#C5DAFC" fill-opacity="0.158"/>
<rect x="61" y="169" width="11" height="11" rx="1" ry="1" fill="#CEE0FC" fill-opacity="0.128"/>
<rect x="484" y="67" width="10" height="10" rx="1" ry="1" fill="#6AA0F8" fill-opacity="0.393"/>
<rect x="23" y="128" width="11" height="11" rx="1" ry="1" fill="#D4E4FD" fill-opacity="0.111"/>
<rect x="375" y="93" width="11" height="11" rx="1" ry="1" fill="#87B2F9" fill-opacity="0.367"/>
<rect x="146" y="242" width="9" height="9" rx="1" ry="1" fill="#BDD5FC" fill-opacity="0.176"/>
<rect x="55" y="134" width="8" height="8" rx="1" ry="1" fill="#CFE0FC" fill-opacity="0.132"/>
<rect x="622" y="250" width="7" height="7" rx="1" ry="1" fill="#4387F6" fill-opacity="0.429"/>
<rect x="287" y="22" width="6" height="6" rx="1" ry="1" fill="#9DC0FA" fill-opacity="0.281"/>
<rect x="698" y="201" width="7" height="7" rx="1" ry="1" fill="#3B82F6" fill-opacity="0.515"/>
<rect x="331" y="124" width="8" height="8" rx="1" ry="1" fill="#92B9FA" fill-opacity="0.287"/>
<rect x="527" y="263" width="6" height="6" rx="1" ry="1" fill="#5E98F7" fill-opacity="0.420"/>
<rect x="134" y="63" width="10" height="10" rx="1" ry="1" fill="#C0D7FC" fill-opacity="0.173"/>
<rect x="656" y="257" width="10" height="10" rx="1" ry="1" fill="#3B82F6" fill-opacity="0.451"/>
<rect x="463" y="146" width="6" height="6" rx="1" ry="1" fill="#6FA3F8" fill-opacity="0.409"/>
<rect x="446" y="109" width="11" height="11" rx="1" ry="1" fill="#74A6F8" fill-opacity="0.348"/>
<rect x="551" y="265" width="10" height="10" rx="1" ry="1" fill="#5794F7" fill-opacity="0.403"/>
<rect x="586" y="146" width="7" height="7" rx="1" ry="1" fill="#4E8EF6" fill-opacity="0.526"/>
<rect x="639" y="79" width="8" height="8" rx="1" ry="1" fill="#3E84F6" fill-opacity="0.474"/>
<rect x="690" y="208" width="9" height="9" rx="1" ry="1" fill="#3B82F6" fill-opacity="0.498"/>
<rect x="564" y="40" width="7" height="7" rx="1" ry="1" fill="#3574DA" fill-opacity="0.423"/>
<rect x="567" y="74" width="10" height="10" rx="1" ry="1" fill="#5391F7" fill-opacity="0.437"/>
<rect x="249" y="91" width="8" height="8" rx="1" ry="1" fill="#A6C6FA" fill-opacity="0.232"/>
<rect x="341" y="102" width="6" height="6" rx="1" ry="1" fill="#8FB8F9" fill-opacity="0.324"/>
<rect x="504" y="97" width="10" height="10" rx="1" ry="1" fill="#649CF7" fill-opacity="0.436"/>
<rect x="672" y="104" width="6" height="6" rx="1" ry="1" fill="#3B82F6" fill-opacity="0.495"/>
<rect x="421" y="164" width="9" height="9" rx="1" ry="1" fill="#7BAAF8" fill-opacity="0.332"/>
<rect x="104" y="13" width="9" height="9" rx="1" ry="1" fill="#C6DAFC" fill-opacity="0.152"/>
<rect x="380" y="145" width="6" height="6" rx="1" ry="1" fill="#85B1F9" fill-opacity="0.308"/>
<rect x="679" y="138" width="7" height="7" rx="1" ry="1" fill="#3B82F6" fill-opacity="0.465"/>
<rect x="715" y="24" width="7" height="7" rx="1" ry="1" fill="#3B82F6" fill-opacity="0.591"/>
<rect x="322" y="183" width="6" height="6" rx="1" ry="1" fill="#94BBFA" fill-opacity="0.310"/>
<rect x="441" y="186" width="11" height="11" rx="1" ry="1" fill="#75A7F8" fill-opacity="0.396"/>
<rect x="566" y="187" width="6" height="6" rx="1" ry="1" fill="#5391F7" fill-opacity="0.482"/>
<rect x="356" y="116" width="8" height="8" rx="1" ry="1" fill="#8CB5F9" fill-opacity="0.350"/>
<rect x="368" y="16" width="10" height="10" rx="1" ry="1" fill="#88B3F9" fill-opacity="0.295"/>
<rect x="675" y="272" width="8" height="8" rx="1" ry="1" fill="#3B82F6" fill-opacity="0.481"/>
<rect x="498" y="270" width="11" height="11" rx="1" ry="1" fill="#3574DA" fill-opacity="0.358"/>
<rect x="633" y="33" width="11" height="11" rx="1" ry="1" fill="#4085F6" fill-opacity="0.520"/>
<rect x="498" y="116" width="6" height="6" rx="1" ry="1" fill="#669DF7" fill-opacity="0.423"/>
<rect x="334" y="63" width="10" height="10" rx="1" ry="1" fill="#91B9F9" fill-opacity="0.305"/>
<rect x="580" y="90" width="6" height="6" rx="1" ry="1" fill="#4F8FF6" fill-opacity="0.531"/>
<rect x="152" y="47" width="6" height="6" rx="1" ry="1" fill="#BCD4FB" fill-opacity="0.186"/>
<rect x="117" y="33" width="10" height="10" rx="1" ry="1" fill="#C3D9FC" fill-opacity="0.162"/>
<rect x="571" y="137" width="11" height="11" rx="1" ry="1" fill="#5290F7" fill-opacity="0.398"/>
<rect x="663" y="166" width="8" height="8" rx="1" ry="1" fill="#3574DA" fill-opacity="0.471"/>
<rect x="577" y="29" width="7" height="7" rx="1" ry="1" fill="#3574DA" fill-opacity="0.527"/>
<rect x="514" y="51" width="6" height="6" rx="1" ry="1" fill="#629AF7" fill-opacity="0.476"/>
<rect x="203" y="115" width="9" height="9" rx="1" ry="1" fill="#B1CDFB" fill-opacity="0.222"/>
<rect x="608" y="201" width="11" height="11" rx="1" ry="1" fill="#478AF6" fill-opacity="0.549"/>
<rect x="304" y="265" width="10" height="10" rx="1" ry="1" fill="#99BEFA" fill-opacity="0.263"/>
<rect x="502" y="255" width="6" height="6" rx="1" ry="1" fill="#659DF7" fill-opacity="0.452"/>
<rect x="566" y="183" width="6" height="6" rx="1" ry="1" fill="#3574DA" fill-opacity="0.454"/>
<rect x="652" y="268" width="6" height="6" rx="1" ry="1" fill="#3B82F6" fill-opacity="0.576"/>
<rect x="689" y="166" width="10" height="10" rx="1" ry="1" fill="#3B82F6" fill-opacity="0.534"/>
<rect x="591" y="133" width="8" height="8" rx="1" ry="1" fill="#4C8DF6" fill-opacity="0.511"/>
<rect x="675" y="24" width="8" height="8" rx="1" ry="1" fill="#3B82F6" fill-opacity="0.554"/>
<rect x="709" y="201" width="10" height="10" rx="1" ry="1" fill="#3B82F6" fill-opacity="0.582"/>
<rect x="708" y="258" width="8" height="8" rx="1" ry="1" fill="#3B82F6" fill-opacity="0.543"/>
<rect x="124" y="77" width="6" height="6" rx="1" ry="1" fill="#C2D8FC" fill-opacity="0.170"/>
<rect x="457" y="116" width="8" height="8" rx="1" ry="1" fill="#71A4F8" fill-opacity="0.428"/>
<rect x="620" y="169" width="10" height="10" rx="1" ry="1" fill="#4487F6" fill-opacity="0.556"/>
<rect x="248" y="183" width="6" height="6" rx="1" ry="1" fill="#A6C6FA" fill-opacity="0.237"/>
<rect x="618" y="118" width="7" height="7" rx="1" ry="1" fill="#4488F6" fill-opacity="0.471"/>
<rect x="196" y="115" width="11" height="11" rx="1" ry="1" fill="#B2CEFB" fill-opacity="0.230"/>
<rect x="293" y="168" width="10" height="10" rx="1" ry="1" fill="#9BBFFA" fill-opacity="0.303"/>
<rect x="195" y="4" width="11" height="11" rx="1" ry="1" fill="#B3CEFB" fill-opacity="0.216"/>
<rect x="633" y="110" width="9" height="9" rx="1" ry="1" fill="#4085F6" fill-opacity="0.444"/>
<rect x="350" y="44" width="6" height="6" rx="1" ry="1" fill="#8DB6F9" fill-opacity="0.290"/>
<rect x="71" y="171" width="9" height="9" rx="1" ry="1" fill="#CCDFFC" fill-opacity="0.133"/>
<rect x="570" y="198" width="11" height="11" rx="1" ry="1" fill="#5291F7" fill-opacity="0.474"/>
<rect x="221" y="167" width="10" height="10" rx="1" ry="1" fill="#ADCAFB" fill-opacity="0.221"/>
<rect x="68" y="209" width="10" height="10" rx="1" ry="1" fill="#CDDFFC" fill-opacity="0.136"/>
<rect x="454" y="185" width="8" height="8" rx="1" ry="1" fill="#72A5F8" fill-opacity="0.337"/>
<rect x="472" y="268" width="10" height="10" rx="1" ry="1" fill="#6DA2F8" fill-opacity="0.431"/>
<rect x="429" y="216" width="11" height="11" rx="1" ry="1" fill="#79A9F8" fill-opacity="0.320"/>
<rect x="395" y="36" width="7" height="7" rx="1" ry="1" fill="#81AFF9" fill-opacity="0.360"/>
<rect x="445" y="182" width="11" height="11" rx="1" ry="1" fill="#74A6F8" fill-opacity="0.372"/>
<rect x="236" y="101" width="9" height="9" rx="1" ry="1" fill="#A9C8FB" fill-opacity="0.224"/>
<rect x="706" y="165" width="10" height="10" rx="1" ry="1" fill="#3B82F6" fill-opacity="0.481"/>
<rect x="509" y="233" width="10" height="10" rx="1" ry="1" fill="#639BF7" fill-opacity="0.428"/>
<rect x="716" y="47" width="9" height="9" rx="1" ry="1" fill="#3B82F6" fill-opacity="0.618"/>
<rect x="382" y="103" width="8" height="8" rx="1" ry="1" fill="#85B1F9" fill-opacity="0.335"/>
<rect x="254" y="170" width="7" height="7" rx="1" ry="1" fill="#A5C5FA" fill-opacity="0.269"/>
<rect x="598" y="152" width="6" height="6" rx="1" ry="1" fill="#4A8BF6" fill-opacity="0.426"/>
<rect x="532" y="256" width="8" height="8" rx="1" ry="1" fill="#5D97F7" fill-opacity="0.454"/>
<rect x="401" y="78" width="8" height="8" rx="1" ry="1" fill="#80AEF9" fill-opacity="0.372"/>
<rect x="544" y="60" width="8" height="8" rx="1" ry="1" fill="#5995F7" fill-opacity="0.447"/>
<rect x="185" y="24" width="8" height="8" rx="1" ry="1" fill="#B5CFFB" fill-opacity="0.212"/>
<rect x="686" y="80" width="6" height="6" rx="1" ry="1" fill="#3B82F6" fill-opacity="0.591"/>
<rect x="652" y="224" width="11" height="11" rx="1" ry="1" fill="#3B82F6" fill-opacity="0.490"/>
<rect x="302" y="211" width="10" height="10" rx="1" ry="1" fill="#99BEFA" fill-opacity="0.252"/>
<rect x="716" y="61" width="6" height="6" rx="1" ry="1" fill="#3B82F6" fill-opacity="0.563"/>
<rect x="510" y="186" width="11" height="11" rx="1" ry="1" fill="#639BF7" fill-opacity="0.437"/>
<rect x="592" y="101" width="6" height="6" rx="1" ry="1" fill="#4C8DF6" fill-opacity="0.428"/>
<rect x="49" y="176" width="8" height="8" rx="1" ry="1" fill="#D0E1FC" fill-opacity="0.125"/>
<rect x="635" y="16" width="6" height="6" rx="1" ry="1" fill="#4085F6" fill-opacity="0.513"/>
<rect x="669" y="152" width="11" height="11" rx="1" ry="1" fill="#3B82F6" fill-opacity="0.529"/>
<rect x="582" y="177" width="6" height="6" rx="1" ry="1" fill="#4F8EF6" fill-opacity="0.506"/>
<rect x="133" y="131" width="9" height="9" rx="1" ry="1" fill="#C0D7FC" fill-opacity="0.182"/>
<rect x="185" y="219" width="10" height="10" rx="1" ry="1" fill="#B5CFFB" fill-opacity="0.202"/>
<rect x="409" y="58" width="8" height="8" rx="1" ry="1" fill="#7EACF9" fill-opacity="0.358"/>
<rect x="343" y="209" width="8" height="8" rx="1" ry="1" fill="#8FB7F9" fill-opacity="0.292"/>
<rect x="96" y="46" width="8" height="8" rx="1" ry="1" fill="#C8DBFC" fill-opacity="0.154"/>
<rect x="559" y="99" width="10" height="10" rx="1" ry="1" fill="#5592F7" fill-opacity="0.480"/>
<rect x="676" y="236" width="10" height="10" rx="1" ry="1" fill="#3B82F6" fill-opacity="0.527"/>
<rect x="613" y="119" width="6" height="6" rx="1" ry="1" fill="#4689F6" fill-opacity="0.525"/>
<rect x="205" y="229" width="6" height="6" rx="1" ry="1" fill="#B0CDFB" fill-opacity="0.228"/>
<rect x="588" y="175" width="11" height="11" rx="1" ry="1" fill="#4D8DF6" fill-opacity="0.478"/>
<rect x="661" y="158" width="10" height="10" rx="1" ry="1" fill="#3B82F6" fill-opacity="0.546"/>
<rect x="392" y="256" width="11" height="11" rx="1" ry="1" fill="#82AFF9" fill-opacity="0.358"/>
<rect x="712" y="66" width="8" height="8" rx="1" ry="1" fill="#3B82F6" fill-opacity="0.593"/>
<rect x="471" y="39" width="10" height="10" rx="1" ry="1" fill="#6DA2F8" fill-opacity="0.437"/>
<rect x="718" y="265" width="8" height="8" rx="1" ry="1" fill="#3574DA" fill-opacity="0.590"/>
<rect x="517" y="70" width="7" height="7" rx="1" ry="1" fill="#619AF7" fill-opacity="0.375"/>
<rect x="567" y="2" width="8" height="8" rx="1" ry="1" fill="#3574DA" fill-opacity="0.486"/>
<rect x="221" y="173" width="9" height="9" rx="1" ry="1" fill="#ADCAFB" fill-opacity="0.241"/>
<rect x="395" y="204" width="9" height="9" rx="1" ry="1" fill="#81AFF9" fill-opacity="0.374"/>
<rect x="665" y="40" width="6" height="6" rx="1" ry="1" fill="#3B82F6" fill-opacity="0.491"/>
<rect x="560" y="19" width="10" height="10" rx="1" ry="1" fill="#5592F7" fill-opacity="0.484"/>
<rect x="491" y="91" width="9" height="9" rx="1" ry="1" fill="#689EF8" fill-opacity="0.388"/>
<rect x="542" y="73" width="9" height="9" rx="1" ry="1" fill="#5A95F7" fill-opacity="0.416"/>
<rect x="470" y="11" width="9" height="9" rx="1" ry="1" fill="#6EA2F8" fill-opacity="0.341"/>
<rect x="631" y="210" width="11" height="11" rx="1" ry="1" fill="#4185F6" fill-opacity="0.554"/>
<rect x="53" y="262" width="9" height="9" rx="1" ry="1" fill="#D0E1FC" fill-opacity="0.130"/>
<rect x="144" y="109" width="7" height="7" rx="1" ry="1" fill="#BED5FC" fill-opacity="0.185"/>
<rect x="205" y="147" width="6" height="6" rx="1" ry="1" fill="#B0CDFB" fill-opacity="0.199"/>
<rect x="497" y="99" width="8" height="8" rx="1" ry="1" fill="#669DF8" fill-opacity="0.401"/>
<rect x="316" y="156" width="6" height="6" rx="1" ry="1" fill="#96BCFA" fill-opacity="0.284"/>
<rect x="249" y="49" width="9" height="9" rx="1" ry="1" fill="#A6C6FA" fill-opacity="0.267"/>
<rect x="545" y="56" width="7" height="7" rx="1" ry="1" fill="#5995F7" fill-opacity="0.477"/>
<rect x="618" y="28" width="10" height="10" rx="1" ry="1" fill="#4488F6" fill-opacity="0.500"/>
<rect x="460" y="93" width="8" height="8" rx="1" ry="1" fill="#70A4F8" fill-opacity="0.419"/>
<rect x="512" y="13" width="8" height="8" rx="1" ry="1" fill="#629BF7" fill-opacity="0.413"/>
<rect x="459" y="172" width="7" height="7" rx="1" ry="1" fill="#71A4F8" fill-opacity="0.380"/>
<rect x="582" y="63" width="6" height="6" rx="1" ry="1" fill="#4F8EF6" fill-opacity="0.483"/>
<rect x="321" y="148" width="10" height="10" rx="1" ry="1" fill="#94BBFA" fill-opacity="0.309"/>
<rect x="652" y="133" width="6" height="6" rx="1" ry="1" fill="#3B82F6" fill-opacity="0.516"/>
<rect x="515" y="158" width="9" height="9" rx="1" ry="1" fill="#619AF7" fill-opacity="0.376"/>
<rect x="307" y="6" width="8" height="8" rx="1" ry="1" fill="#98BDFA" fill-opacity="0.270"/>
<rect x="451" y="221" width="6" height="6" rx="1" ry="1" fill="#73A5F8" fill-opacity="0.423"/>
<rect x="249" y="114" width="9" height="9" rx="1" ry="1" fill="#A6C6FA" fill-opacity="0.270"/>
<rect x="491" y="249" width="11" height="11" rx="1" ry="1" fill="#689EF8" fill-opacity="0.429"/>
<rect x="512" y="170" width="7" height="7" rx="1" ry="1" fill="#629BF7" fill-opacity="0.457"/>
<rect x="412" y="177" width="8" height="8" rx="1" ry="1" fill="#7DACF9" fill-opacity="0.374"/>
<rect x="512" y="62" width="7" height="7" rx="1" ry="1" fill="#629BF7" fill-opacity="0.410"/>
<rect x="633" y="106" width="10" height="10" rx="1" ry="1" fill="#4085F6" fill-opacity="0.558"/>
<rect x="644" y="109" width="8" height="8" rx="1" ry="1" fill="#3D83F6" fill-opacity="0.493"/>
<rect x="293" y="205" width="9" height="9" rx="1" ry="1" fill="#9BBFFA" fill-opacity="0.274"/>
<rect x="386" y="95" width="10" height="10" rx="1" ry="1" fill="#84B0F9" fill-opacity="0.350"/>
<rect x="686" y="236" width="11" height="11" rx="1" ry="1" fill="#3B82F6" fill-opacity="0.619"/>
<rect x="436" y="171" width="10" height="10" rx="1" ry="1" fill="#77A8F8" fill-opacity="0.378"/>
<rect x="23" y="45" width="10" height="10" rx="1" ry="1" fill="#D4E4FD" fill-opacity="0.110"/>
<rect x="630" y="60" width="6" height="6" rx="1" ry="1" fill="#4186F6" fill-opacity="0.531"/>
<rect x="443" y="250" width="11" height="11" rx="1" ry="1" fill="#75A7F8" fill-opacity="0.351"/>
<rect x="292" y="184" width="10" height="10" rx="1" ry="1" fill="#9CBFFA" fill-opacity="0.249"/>
<rect x="379" y="2" width="6" height="6" rx="1" ry="1" fill="#86B1F9" fill-opacity="0.300"/>
<rect x="595" y="49" width="8" height="8" rx="1" ry="1" fill="#4B8CF6" fill-opacity="0.520"/>
<rect x="329" y="271" width="7" height="7" rx="1" ry="1" fill="#92BAFA" fill-opacity="0.298"/>
<rect x="167" y="135" width="8" height="8" rx="1" ry="1" fill="#B9D2FB" fill-opacity="0.206"/>
<rect x="455" y="200" width="7" height="7" rx="1" ry="1" fill="#72A5F8" fill-opacity="0.359"/>
<rect x="53" y="239" width="9" height="9" rx="1" ry="1" fill="#D0E1FC" fill-opacity="0.130"/>
<rect x="509" y="66" width="8" height="8" rx="1" ry="1" fill="#639BF7" fill-opacity="0.433"/>
<rect x="692" y="248" width="6" height="6" rx="1" ry="1" fill="#3B82F6" fill-opacity="0.553"/>
<rect x="473" y="69" width="9" height="9" rx="1" ry="1" fill="#6DA2F8" fill-opacity="0.391"/>
<rect x="210" y="137" width="7" height="7" rx="1" ry="1" fill="#AFCCFB" fill-opacity="0.226"/>
<rect x="493" y="211" width="8" height="8" rx="1" ry="1" fill="#679EF8" fill-opacity="0.446"/>
<rect x="226" y="107" width="9" height="9" rx="1" ry="1" fill="#ABC9FB" fill-opacity="0.214"/>
<rect x="154" y="158" width="11" height="11" rx="1" ry="1" fill="#BCD4FB" fill-opacity="0.199"/>
<rect x="656" y="201" width="9" height="9" rx="1" ry="1" fill="#3B82F6" fill-opacity="0.529"/>
<rect x="557" y="211" width="7" height="7" rx="1" ry="1" fill="#5693F7" fill-opacity="0.419"/>
<rect x="473" y="90" width="9" height="9" rx="1" ry="1" fill="#6DA2F8" fill-opacity="0.346"/>
<rect x="40" y="116" width="6" height="6" rx="1" ry="1" fill="#D2E2FC" fill-opacity="0.117"/>
<rect x="41" y="71" width="6" height="6" rx="1" ry="1" fill="#D2E2FC" fill-opacity="0.121"/>
<rect x="467" y="9" width="6" height="6" rx="1" ry="1" fill="#3574DA" fill-opacity="0.403"/>
<rect x="186" y="270" width="8" height="8" rx="1" ry="1" fill="#B5CFFB" fill-opacity="0.199"/>
<rect x="200" y="178" width="6" height="6" rx="1" ry="1" fill="#B1CDFB" fill-opacity="0.216"/>
<rect x="297" y="35" width="9" height="9" rx="1" ry="1" fill="#3574DA" fill-opacity="0.283"/>
<rect x="3" y="16" width="10" height="10" rx="1" ry="1" fill="#D7E5FD" fill-opacity="0.101"/>
<rect x="435" y="170" width="6" height="6" rx="1" ry="1" fill="#77A8F8" fill-opacity="0.329"/>
<rect x="379" y="166" width="6" height="6" rx="1" ry="1" fill="#86B1F9" fill-opacity="0.349"/>
<rect x="411" y="191" width="9" height="9" rx="1" ry="1" fill="#7DACF9" fill-opacity="0.356"/>
<rect x="170" y="73" width="8" height="8" rx="1" ry="1" fill="#B8D2FB" fill-opacity="0.204"/>
<rect x="631" y="57" width="10" height="10" rx="1" ry="1" fill="#3574DA" fill-opacity="0.486"/>
<rect x="27" y="230" width="8" height="8" rx="1" ry="1" fill="#D4E3FD" fill-opacity="0.113"/>
<rect x="714" y="252" width="10" height="10" rx="1" ry="1" fill="#3B82F6" fill-opacity="0.535"/>
<rect x="385" y="151" width="10" height="10" rx="1" ry="1" fill="#84B0F9" fill-opacity="0.375"/>
<rect x="592" y="6" width="10" height="10" rx="1" ry="1" fill="#4C8DF6" fill-opacity="0.491"/>
<rect x="565" y="37" width="8" height="8" rx="1" ry="1" fill="#3574DA" fill-opacity="0.416"/>
<rect x="577" y="252" width="8" height="8" rx="1" ry="1" fill="#3574DA" fill-opacity="0.465"/>
<rect x="623" y="156" width="10" height="10" rx="1" ry="1" fill="#4387F6" fill-opacity="0.565"/>
<rect x="170" y="71" width="9" height="9" rx="1" ry="1" fill="#B8D2FB" fill-opacity="0.207"/>
<rect x="268" y="272" width="7" height="7" rx="1" ry="1" fill="#A1C3FA" fill-opacity="0.240"/>
<rect x="709" y="271" width="7" height="7" rx="1" ry="1" fill="#3B82F6" fill-opacity="0.626"/>
<rect x="431" y="142" width="10" height="10" rx="1" ry="1" fill="#78A9F8" fill-opacity="0.405"/>
<rect x="647" y="208" width="9" height="9" rx="1" ry="1" fill="#3C83F6" fill-opacity="0.550"/>
<rect x="248" y="63" width="10" height="10" rx="1" ry="1" fill="#A6C6FA" fill-opacity="0.224"/>
<rect x="368" y="89" width="7" height="7" rx="1" ry="1" fill="#88B3F9" fill-opacity="0.359"/>
<rect x="14" y="189" width="11" height="11" rx="1" ry="1" fill="#D6E5FD" fill-opacity="0.107"/>
<rect x="604" y="244" width="10" height="10" rx="1" ry="1" fill="#488AF6" fill-opacity="0.480"/>
<rect x="605" y="198" width="10" height="10" rx="1" ry="1" fill="#488AF6" fill-opacity="0.464"/>
<rect x="501" y="91" width="6" height="6" rx="1" ry="1" fill="#659DF7" fill-opacity="0.453"/>
<rect x="596" y="191" width="6" height="6" rx="1" ry="1" fill="#4B8CF6" fill-opacity="0.432"/>
<rect x="710" y="37" width="9" height="9" rx="1" ry="1" fill="#3574DA" fill-opacity="0.539"/>
<rect x="390" y="270" width="9" height="9" rx="1" ry="1" fill="#83B0F9" fill-opacity="0.346"/>
<rect x="193" y="11" width="9" height="9" rx="1" ry="1" fill="#B3CEFB" fill-opacity="0.221"/>
<rect x="686" y="271" width="6" height="6" rx="1" ry="1" fill="#3B82F6" fill-opacity="0.584"/>
<rect x="608" y="121" width="10" height="10" rx="1" ry="1" fill="#3574DA" fill-opacity="0.474"/>
<rect x="536" y="198" width="10" height="10" rx="1" ry="1" fill="#5C97F7" fill-opacity="0.381"/>
<rect x="164" y="45" width="10" height="10" rx="1" ry="1" fill="#B9D2FB" fill-opacity="0.176"/>
<rect x="468" y="8" width="10" height="10" rx="1" ry="1" fill="#6EA2F8" fill-opacity="0.387"/>
<rect x="338" y="21" width="10" height="10" rx="1" ry="1" fill="#90B8F9" fill-opacity="0.288"/>
<rect x="104" y="23" width="10" height="10" rx="1" ry="1" fill="#C6DAFC" fill-opacity="0.165"/>
<rect x="644" y="232" width="9" height="9" rx="1" ry="1" fill="#3574DA" fill-opacity="0.533"/>
<rect x="625" y="166" width="11" height="11" rx="1" ry="1" fill="#3574DA" fill-opacity="0.503"/>
<rect x="644" y="168" width="10" height="10" rx="1" ry="1" fill="#3D83F6" fill-opacity="0.456"/>
<rect x="376" y="36" width="11" height="11" rx="1" ry="1" fill="#86B2F9" fill-opacity="0.336"/>
<rect x="520" y="18" width="6" height="6" rx="1" ry="1" fill="#6099F7" fill-opacity="0.402"/>
<rect x="538" y="160" width="7" height="7" rx="1" ry="1" fill="#5B96F7" fill-opacity="0.449"/>
<rect x="617" y="143" width="6" height="6" rx="1" ry="1" fill="#3574DA" fill-opacity="0.535"/>
<rect x="129" y="268" width="9" height="9" rx="1" ry="1" fill="#C1D7FC" fill-opacity="0.178"/>
<rect x="199" y="81" width="8" height="8" rx="1" ry="1" fill="#B2CDFB" fill-opacity="0.231"/>
<rect x="660" y="0" width="60" height="280" fill="url(#edgeGlow)"/>
</svg>