<svg xmlns="http://www.w3.org/2000/svg" width="720" height="280" viewBox="0 0 720 280">
      <defs>
        <radialGradient id="vignette" cx="50%" cy="50%" r="75%">
          <stop offset="0%" stop-color="#ffffff" stop-opacity="1"/>
          <stop offset="100%" stop-color="#ffffff" stop-opacity="0.7"/>
        </radialGradient>
        <linearGradient id="edgeGlow" x1="0%" y1="0%" x2="100%" y2="0%">
          <stop offset="0%" stop-color="#ffffff" stop-opacity="0"/>
          <stop offset="100%" stop-color="#ffffff" stop-opacity="0.45"/>
        </linearGradient>
      </defs>
    <rect x="0" y="0" width="720" height="280" fill="url(#vignette)"/>
<rect x="623" y="176" width="8" height="8" rx="1" ry="1" fill="#3CD49D" fill-opacity="0.430"/>
<rect x="343" y="112" width="10" height="10" rx="1" ry="1" fill="#8BE5C4" fill-opacity="0.325"/>
<rect x="322" y="6" width="6" height="6" rx="1" ry="1" fill="#90E7C7" fill-opacity="0.260"/>
<rect x="553" y="153" width="10" height="10" rx="1" ry="1" fill="#51D9A7" fill-opacity="0.446"/>
<rect x="600" y="140" width="8" height="8" rx="1" ry="1" fill="#43D6A0" fill-opacity="0.535"/>
<rect x="675" y="115" width="10" height="10" rx="1" ry="1" fill="#34D399" fill-opacity="0.549"/>
<rect x="336" y="183" width="6" height="6" rx="1" ry="1" fill="#8DE6C5" fill-opacity="0.330"/>
<rect x="419" y="159" width="7" height="7" rx="1" ry="1" fill="#76E1BA" fill-opacity="0.375"/>
<rect x="302" y="127" width="10" height="10" rx="1" ry="1" fill="#95E8CA" fill-opacity="0.285"/>
<rect x="383" y="95" width="10" height="10" rx="1" ry="1" fill="#80E3BF" fill-opacity="0.328"/>
<rect x="493" y="205" width="8" height="8" rx="1" ry="1" fill="#62DDB0" fill-opacity="0.402"/>
<rect x="185" y="74" width="11" height="11" rx="1" ry="1" fill="#B2EED8" fill-opacity="0.223"/>
<rect x="636" y="12" width="10" height="10" rx="1" ry="1" fill="#38D49B" fill-opacity="0.550"/>
<rect x="715" y="217" width="7" height="7" rx="1" ry="1" fill="#34D399" fill-opacity="0.616"/>
<rect x="452" y="197" width="11" height="11" rx="1" ry="1" fill="#6DDFB6" fill-opacity="0.353"/>
<rect x="670" y="114" width="6" height="6" rx="1" ry="1" fill="#34D399" fill-opacity="0.476"/>
<rect x="586" y="270" width="11" height="11" rx="1" ry="1" fill="#47D7A2" fill-opacity="0.534"/>
<rect x="277" y="62" width="6" height="6" rx="1" ry="1" fill="#9CE9CD" fill-opacity="0.284"/>
<rect x="160" y="193" width="7" height="7" rx="1" ry="1" fill="#B8EFDB" fill-opacity="0.203"/>
<rect x="115" y="210" width="10" height="10" rx="1" ry="1" fill="#C2F1E0" fill-opacity="0.158"/>
<rect x="648" y="104" width="9" height="9" rx="1" ry="1" fill="#2FBB88" fill-opacity="0.566"/>
<rect x="640" y="43" width="11" height="11" rx="1" ry="1" fill="#37D39A" fill-opacity="0.472"/>
<rect x="648" y="87" width="8" height="8" rx="1" ry="1" fill="#35D399" fill-opacity="0.520"/>
<rect x="716" y="162" width="7" height="7" rx="1" ry="1" fill="#34D399" fill-opacity="0.555"/>
<rect x="528" y="57" width="8" height="8" rx="1" ry="1" fill="#58DAAB" fill-opacity="0.415"/>
<rect x="305" y="200" width="8" height="8" rx="1" ry="1" fill="#95E8C9" fill-opacity="0.310"/>
<rect x="542" y="30" width="9" height="9" rx="1" ry="1" fill="#54DAA9" fill-opacity="0.501"/>
<rect x="499" y="69" width="8" height="8" rx="1" ry="1" fill="#60DCAF" fill-opacity="0.368"/>
<rect x="402" y="98" width="9" height="9" rx="1" ry="1" fill="#7BE2BC" fill-opacity="0.346"/>
<rect x="320" y="102" width="11" height="11" rx="1" ry="1" fill="#91E7C7" fill-opacity="0.291"/>
<rect x="714" y="236" width="10" height="10" rx="1" ry="1" fill="#34D399" fill-opacity="0.563"/>
<rect x="595" y="46" width="9" height="9" rx="1" ry="1" fill="#45D6A1" fill-opacity="0.439"/>
<rect x="228" y="170" width="10" height="10" rx="1" ry="1" fill="#A8ECD3" fill-opacity="0.239"/>
<rect x="476" y="129" width="6" height="6" rx="1" ry="1" fill="#67DEB2" fill-opacity="0.387"/>
<rect x="330" y="168" width="11" height="11" rx="1" ry="1" fill="#8EE6C6" fill-opacity="0.290"/>
<rect x="453" y="20" width="9" height="9" rx="1" ry="1" fill="#6DDFB5" fill-opacity="0.373"/>
<rect x="610" y="138" width="6" height="6" rx="1" ry="1" fill="#40D59F" fill-opacity="0.533"/>
<rect x="649" y="172" width="9" height="9" rx="1" ry="1" fill="#35D399" fill-opacity="0.496"/>
<rect x="342" y="189" width="9" height="9" rx="1" ry="1" fill="#8BE5C5" fill-opacity="0.293"/>
<rect x="572" y="174" width="8" height="8" rx="1" ry="1" fill="#4BD8A4" fill-opacity="0.434"/>
<rect x="424" y="13" width="8" height="8" rx="1" ry="1" fill="#75E1B9" fill-opacity="0.355"/>
<rect x="417" y="221" width="6" height="6" rx="1" ry="1" fill="#77E1BA" fill-opacity="0.382"/>
<rect x="527" y="245" width="8" height="8" rx="1" ry="1" fill="#2FBB88" fill-opacity="0.435"/>
<rect x="16" y="41" width="9" height="9" rx="1" ry="1" fill="#D4F5E9" fill-opacity="0.106"/>
<rect x="261" y="88" width="11" height="11" rx="1" ry="1" fill="#A0EACF" fill-opacity="0.252"/>
<rect x="478" y="217" width="6" height="6" rx="1" ry="1" fill="#66DDB2" fill-opacity="0.415"/>
<rect x="592" y="208" width="8" height="8" rx="1" ry="1" fill="#2FBB88" fill-opacity="0.441"/>
<rect x="466" y="11" width="7" height="7" rx="1" ry="1" fill="#6ADEB4" fill-opacity="0.340"/>
<rect x="685" y="189" width="7" height="7" rx="1" ry="1" fill="#34D399" fill-opacity="0.554"/>
<rect x="352" y="199" width="10" height="10" rx="1" ry="1" fill="#88E5C3" fill-opacity="0.290"/>
<rect x="256" y="16" width="10" height="10" rx="1" ry="1" fill="#A1EAD0" fill-opacity="0.258"/>
<rect x="521" y="102" width="10" height="10" rx="1" ry="1" fill="#5ADBAC" fill-opacity="0.422"/>
<rect x="562" y="184" width="8" height="8" rx="1" ry="1" fill="#2FBB88" fill-opacity="0.413"/>
<rect x="371" y="64" width="11" height="11" rx="1" ry="1" fill="#83E4C1" fill-opacity="0.310"/>
<rect x="591" y="123" width="7" height="7" rx="1" ry="1" fill="#46D6A2" fill-opacity="0.454"/>
<rect x="601" y="162" width="9" height="9" rx="1" ry="1" fill="#43D6A0" fill-opacity="0.542"/>
<rect x="372" y="67" width="11" height="11" rx="1" ry="1" fill="#83E4C1" fill-opacity="0.300"/>
<rect x="654" y="159" width="9" height="9" rx="1" ry="1" fill="#34D399" fill-opacity="0.449"/>
<rect x="421" y="155" width="8" height="8" rx="1" ry="1" fill="#76E1BA" fill-opacity="0.379"/>
<rect x="482" y="194" width="8" height="8" rx="1" ry="1" fill="#65DDB1" fill-opacity="0.438"/>
<rect x="600" y="246" width="8" height="8" rx="1" ry="1" fill="#43D6A0" fill-opacity="0.421"/>
<rect x="710" y="38" width="9" height="9" rx="1" ry="1" fill="#34D399" fill-opacity="0.570"/>
<rect x="107" y="85" width="7" height="7" rx="1" ry="1" fill="#C3F2E1" fill-opacity="0.160"/>
<rect x="624" y="101" width="6" height="6" rx="1" ry="1" fill="#3CD49D" fill-opacity="0.476"/>
<rect x="535" y="215" width="6" height="6" rx="1" ry="1" fill="#56DAAA" fill-opacity="0.462"/>
<rect x="172" y="215" width="10" height="10" rx="1" ry="1" fill="#B5EFDA" fill-opacity="0.204"/>
<rect x="101" y="167" width="6" height="6" rx="1" ry="1" fill="#C5F2E1" fill-opacity="0.154"/>
<rect x="554" y="235" width="7" height="7" rx="1" ry="1" fill="#51D9A7" fill-opacity="0.481"/>
<rect x="683" y="139" width="10" height="10" rx="1" ry="1" fill="#34D399" fill-opacity="0.524"/>
<rect x="283" y="93" width="11" height="11" rx="1" ry="1" fill="#9AE9CC" fill-opacity="0.277"/>
<rect x="39" y="19" width="8" height="8" rx="1" ry="1" fill="#D0F5E7" fill-opacity="0.117"/>
<rect x="282" y="106" width="11" height="11" rx="1" ry="1" fill="#9BE9CC" fill-opacity="0.261"/>
<rect x="420" y="62" width="11" height="11" rx="1" ry="1" fill="#76E1BA" fill-opacity="0.364"/>
<rect x="652" y="147" width="11" height="11" rx="1" ry="1" fill="#34D399" fill-opacity="0.461"/>
<rect x="590" y="104" width="8" height="8" rx="1" ry="1" fill="#46D7A2" fill-opacity="0.436"/>
<rect x="372" y="82" width="10" height="10" rx="1" ry="1" fill="#83E4C1" fill-opacity="0.292"/>
<rect x="422" y="224" width="9" height="9" rx="1" ry="1" fill="#76E1BA" fill-opacity="0.353"/>
<rect x="161" y="58" width="10" height="10" rx="1" ry="1" fill="#B8EFDB" fill-opacity="0.180"/>
<rect x="109" y="115" width="9" height="9" rx="1" ry="1" fill="#C3F2E1" fill-opacity="0.161"/>
<rect x="316" y="164" width="9" height="9" rx="1" ry="1" fill="#92E7C8" fill-opacity="0.264"/>
<rect x="705" y="140" width="7" height="7" rx="1" ry="1" fill="#34D399" fill-opacity="0.529"/>
<rect x="678" y="65" width="10" height="10" rx="1" ry="1" fill="#34D399" fill-opacity="0.557"/>
<rect x="436" y="19" width="8" height="8" rx="1" ry="1" fill="#72E0B8" fill-opacity="0.325"/>
<rect x="436" y="76" width="9" height="9" rx="1" ry="1" fill="#2FBB88" fill-opacity="0.393"/>
<rect x="439" y="114" width="10" height="10" rx="1" ry="1" fill="#2FBB88" fill-opacity="0.359"/>
<rect x="290" y="207" width="10" height="10" rx="1" ry="1" fill="#99E8CB" fill-opacity="0.281"/>
<rect x="533" y="214" width="7" height="7" rx="1" ry="1" fill="#57DAAA" fill-opacity="0.448"/>
<rect x="463" y="75" width="11" height="11" rx="1" ry="1" fill="#6ADEB4" fill-opacity="0.364"/>
<rect x="512" y="51" width="11" height="11" rx="1" ry="1" fill="#2FBB88" fill-opacity="0.419"/>
<rect x="309" y="241" width="10" height="10" rx="1" ry="1" fill="#94E7C9" fill-opacity="0.285"/>
<rect x="380" y="64" width="10" height="10" rx="1" ry="1" fill="#2FBB88" fill-opacity="0.305"/>
<rect x="187" y="150" width="6" height="6" rx="1" ry="1" fill="#B2EED8" fill-opacity="0.190"/>
<rect x="206" y="30" width="11" height="11" rx="1" ry="1" fill="#ADEDD6" fill-opacity="0.230"/>
<rect x="657" y="178" width="11" height="11" rx="1" ry="1" fill="#34D399" fill-opacity="0.496"/>
<rect x="674" y="105" width="10" height="10" rx="1" ry="1" fill="#34D399" fill-opacity="0.531"/>
<rect x="659" y="133" width="9" height="9" rx="1" ry="1" fill="#34D399" fill-opacity="0.587"/>
<rect x="360" y="14" width="7" height="7" rx="1" ry="1" fill="#86E4C2" fill-opacity="0.316"/>
<rect x="500" y="231" width="8" height="8" rx="1" ry="1" fill="#2FBB88" fill-opacity="0.437"/>
<rect x="660" y="157" width="11" height="11" rx="1" ry="1" fill="#34D399" fill-opacity="0.569"/>
<rect x="264" y="226" width="8" height="8" rx="1" ry="1" fill="#9FEACF" fill-opacity="0.251"/>
<rect x="561" y="23" width="11" height="11" rx="1" ry="1" fill="#4ED8A6" fill-opacity="0.472"/>
<rect x="486" y="267" width="8" height="8" rx="1" ry="1" fill="#64DDB1" fill-opacity="0.403"/>
<rect x="647" y="85" width="7" height="7" rx="1" ry="1" fill="#35D399" fill-opacity="0.570"/>
<rect x="674" y="13" width="6" height="6" rx="1" ry="1" fill="#34D399" fill-opacity="0.596"/>
<rect x="606" y="16" width="6" height="6" rx="1" ry="1" fill="#41D59F" fill-opacity="0.420"/>
<rect x="626" y="153" width="9" height="9" rx="1" ry="1" fill="#3BD49C" fill-opacity="0.555"/>
<rect x="444" y="52" width="9" height="9" rx="1" ry="1" fill="#2FBB88" fill-opacity="0.416"/>
<rect x="375" y="224" width="7" height="7" rx="1" ry="1" fill="#82E4C0" fill-opacity="0.366"/>
<rect x="594" y="150" width="6" height="6" rx="1" ry="1" fill="#45D6A1" fill-opacity="0.444"/>
<rect x="237" y="88" width="11" height="11" rx="1" ry="1" fill="#A6EBD2" fill-opacity="0.241"/>
<rect x="219" y="157" width="7" height="7" rx="1" ry="1" fill="#AAECD4" fill-opacity="0.221"/>
<rect x="358" y="119" width="7" height="7" rx="1" ry="1" fill="#87E5C2" fill-opacity="0.310"/>
<rect x="248" y="58" width="9" height="9" rx="1" ry="1" fill="#2FBB88" fill-opacity="0.243"/>
<rect x="412" y="169" width="9" height="9" rx="1" ry="1" fill="#78E1BB" fill-opacity="0.361"/>
<rect x="292" y="58" width="7" height="7" rx="1" ry="1" fill="#98E8CB" fill-opacity="0.299"/>
<rect x="241" y="207" width="10" height="10" rx="1" ry="1" fill="#A5EBD1" fill-opacity="0.265"/>
<rect x="122" y="61" width="9" height="9" rx="1" ry="1" fill="#C0F1DF" fill-opacity="0.160"/>
<rect x="455" y="94" width="8" height="8" rx="1" ry="1" fill="#6DDFB5" fill-opacity="0.357"/>
<rect x="698" y="34" width="8" height="8" rx="1" ry="1" fill="#34D399" fill-opacity="0.620"/>
<rect x="395" y="21" width="6" height="6" rx="1" ry="1" fill="#7DE2BD" fill-opacity="0.370"/>
<rect x="527" y="117" width="6" height="6" rx="1" ry="1" fill="#58DAAB" fill-opacity="0.430"/>
<rect x="125" y="62" width="11" height="11" rx="1" ry="1" fill="#C0F1DF" fill-opacity="0.163"/>
<rect x="585" y="138" width="11" height="11" rx="1" ry="1" fill="#47D7A3" fill-opacity="0.512"/>
<rect x="312" y="221" width="7" height="7" rx="1" ry="1" fill="#93E7C8" fill-opacity="0.304"/>
<rect x="181" y="222" width="10" height="10" rx="1" ry="1" fill="#B3EED9" fill-opacity="0.192"/>
<rect x="603" y="248" width="6" height="6" rx="1" ry="1" fill="#42D6A0" fill-opacity="0.434"/>
<rect x="711" y="266" width="7" height="7" rx="1" ry="1" fill="#34D399" fill-opacity="0.575"/>
<rect x="178" y="4" width="7" height="7" rx="1" ry="1" fill="#B4EED9" fill-opacity="0.197"/>
<rect x="336" y="54" width="11" height="11" rx="1" ry="1" fill="#2FBB88" fill-opacity="0.312"/>
<rect x="644" y="181" width="9" height="9" rx="1" ry="1" fill="#36D39A" fill-opacity="0.557"/>
<rect x="678" y="89" width="7" height="7" rx="1" ry="1" fill="#34D399" fill-opacity="0.488"/>
<rect x="561" y="229" width="9" height="9" rx="1" ry="1" fill="#4ED8A6" fill-opacity="0.396"/>
<rect x="365" y="207" width="6" height="6" rx="1" ry="1" fill="#85E4C1" fill-opacity="0.346"/>
<rect x="125" y="37" width="8" height="8" rx="1" ry="1" fill="#C0F1DF" fill-opacity="0.159"/>
<rect x="335" y="84" width="7" height="7" rx="1" ry="1" fill="#8DE6C5" fill-opacity="0.314"/>
<rect x="408" y="144" width="8" height="8" rx="1" ry="1" fill="#79E2BC" fill-opacity="0.326"/>
<rect x="535" y="172" width="9" height="9" rx="1" ry="1" fill="#56DAAA" fill-opacity="0.464"/>
<rect x="168" y="147" width="7" height="7" rx="1" ry="1" fill="#B6EFDA" fill-opacity="0.202"/>
<rect x="267" y="168" width="11" height="11" rx="1" ry="1" fill="#9EEACE" fill-opacity="0.282"/>
<rect x="316" y="178" width="10" height="10" rx="1" ry="1" fill="#92E7C8" fill-opacity="0.273"/>
<rect x="696" y="15" width="7" height="7" rx="1" ry="1" fill="#34D399" fill-opacity="0.474"/>
<rect x="548" y="96" width="10" height="10" rx="1" ry="1" fill="#52D9A8" fill-opacity="0.425"/>
<rect x="644" y="214" width="11" height="11" rx="1" ry="1" fill="#36D39A" fill-opacity="0.501"/>
<rect x="166" y="82" width="7" height="7" rx="1" ry="1" fill="#B6EFDA" fill-opacity="0.199"/>
<rect x="209" y="5" width="11" height="11" rx="1" ry="1" fill="#ACEDD5" fill-opacity="0.212"/>
<rect x="620" y="50" width="6" height="6" rx="1" ry="1" fill="#3DD59D" fill-opacity="0.560"/>
<rect x="453" y="0" width="11" height="11" rx="1" ry="1" fill="#6DDFB5" fill-opacity="0.409"/>
<rect x="526" y="1" width="10" height="10" rx="1" ry="1" fill="#59DBAB" fill-opacity="0.375"/>
<rect x="150" y="135" width="6" height="6" rx="1" ry="1" fill="#BAF0DC" fill-opacity="0.175"/>
<rect x="673" y="48" width="11" height="11" rx="1" ry="1" fill="#34D399" fill-opacity="0.569"/>
<rect x="425" y="237" width="7" height="7" rx="1" ry="1" fill="#75E1B9" fill-opacity="0.389"/>
<rect x="700" y="239" width="11" height="11" rx="1" ry="1" fill="#34D399" fill-opacity="0.497"/>
<rect x="312" y="29" width="10" height="10" rx="1" ry="1" fill="#93E7C8" fill-opacity="0.284"/>
<rect x="506" y="60" width="6" height="6" rx="1" ry="1" fill="#5EDCAE" fill-opacity="0.380"/>
<rect x="128" y="119" width="10" height="10" rx="1" ry="1" fill="#BFF1DF" fill-opacity="0.169"/>
<rect x="542" y="51" width="8" height="8" rx="1" ry="1" fill="#54DAA9" fill-opacity="0.488"/>
<rect x="526" y="84" width="7" height="7" rx="1" ry="1" fill="#59DBAB" fill-opacity="0.385"/>
<rect x="47" y="186" width="10" height="10" rx="1" ry="1" fill="#CFF4E7" fill-opacity="0.125"/>
<rect x="535" y="34" width="7" height="7" rx="1" ry="1" fill="#56DAAA" fill-opacity="0.438"/>
<rect x="591" y="213" width="10" height="10" rx="1" ry="1" fill="#46D6A2" fill-opacity="0.448"/>
<rect x="666" y="68" width="9" height="9" rx="1" ry="1" fill="#34D399" fill-opacity="0.525"/>
<rect x="203" y="264" width="7" height="7" rx="1" ry="1" fill="#AEEDD6" fill-opacity="0.204"/>
<rect x="101" y="34" width="10" height="10" rx="1" ry="1" fill="#C5F2E1" fill-opacity="0.154"/>
<rect x="371" y="38" width="10" height="10" rx="1" ry="1" fill="#83E4C1" fill-opacity="0.313"/>
<rect x="617" y="2" width="10" height="10" rx="1" ry="1" fill="#3ED59E" fill-opacity="0.525"/>
<rect x="212" y="175" width="9" height="9" rx="1" ry="1" fill="#ACEDD5" fill-opacity="0.239"/>
<rect x="713" y="216" width="11" height="11" rx="1" ry="1" fill="#34D399" fill-opacity="0.558"/>
<rect x="544" y="228" width="11" height="11" rx="1" ry="1" fill="#53D9A9" fill-opacity="0.493"/>
<rect x="469" y="194" width="11" height="11" rx="1" ry="1" fill="#69DEB3" fill-opacity="0.395"/>
<rect x="241" y="166" width="6" height="6" rx="1" ry="1" fill="#A5EBD1" fill-opacity="0.220"/>
<rect x="360" y="40" width="9" height="9" rx="1" ry="1" fill="#2FBB88" fill-opacity="0.289"/>
<rect x="500" y="224" width="6" height="6" rx="1" ry="1" fill="#2FBB88" fill-opacity="0.383"/>
<rect x="568" y="220" width="10" height="10" rx="1" ry="1" fill="#4CD8A5" fill-opacity="0.453"/>
<rect x="431" y="270" width="7" height="7" rx="1" ry="1" fill="#73E0B9" fill-opacity="0.343"/>
<rect x="274" y="256" width="8" height="8" rx="1" ry="1" fill="#2FBB88" fill-opacity="0.234"/>
<rect x="351" y="142" width="7" height="7" rx="1" ry="1" fill="#89E5C3" fill-opacity="0.336"/>
<rect x="211" y="203" width="9" height="9" rx="1" ry="1" fill="#ACEDD5" fill-opacity="0.207"/>
<rect x="159" y="78" width="6" height="6" rx="1" ry="1" fill="#B8EFDB" fill-opacity="0.198"/>
<rect x="141" y="70" width="8" height="8" rx="1" ry="1" fill="#BCF0DD" fill-opacity="0.166"/>
<rect x="715" y="18" width="9" height="9" rx="1" ry="1" fill="#34D399" fill-opacity="0.495"/>
<rect x="685" y="152" width="11" height="11" rx="1" ry="1" fill="#34D399" fill-opacity="0.600"/>
<rect x="415" y="23" width="11" height="11" rx="1" ry="1" fill="#78E1BB" fill-opacity="0.362"/>
<rect x="126" y="15" width="10" height="10" rx="1" ry="1" fill="#BFF1DF" fill-opacity="0.165"/>
<rect x="214" y="139" width="9" height="9" rx="1" ry="1" fill="#ABECD5" fill-opacity="0.223"/>
<rect x="587" y="16" width="10" height="10" rx="1" ry="1" fill="#47D7A2" fill-opacity="0.413"/>
<rect x="220" y="79" width="8" height="8" rx="1" ry="1" fill="#AAECD4" fill-opacity="0.249"/>
<rect x="588" y="184" width="7" height="7" rx="1" ry="1" fill="#47D7A2" fill-opacity="0.432"/>
<rect x="221" y="128" width="10" height="10" rx="1" ry="1" fill="#AAECD4" fill-opacity="0.223"/>
<rect x="456" y="2" width="11" height="11" rx="1" ry="1" fill="#6CDFB5" fill-opacity="0.362"/>
<rect x="382" y="181" width="8" height="8" rx="1" ry="1" fill="#2FBB88" fill-opacity="0.326"/>
<rect x="134" y="83" width="11" height="11" rx="1" ry="1" fill="#BEF0DE" fill-opacity="0.176"/>
<rect x="72" y="189" width="7" height="7" rx="1" ry="1" fill="#CAF3E4" fill-opacity="0.141"/>
<rect x="473" y="244" width="10" height="10" rx="1" ry="1" fill="#68DEB3" fill-opacity="0.416"/>
<rect x="382" y="111" width="7" height="7" rx="1" ry="1" fill="#81E3BF" fill-opacity="0.327"/>
<rect x="158" y="70" width="11" height="11" rx="1" ry="1" fill="#B8EFDB" fill-opacity="0.174"/>
<rect x="216" y="187" width="11" height="11" rx="1" ry="1" fill="#ABECD4" fill-opacity="0.226"/>
<rect x="398" y="92" width="10" height="10" rx="1" ry="1" fill="#7CE2BD" fill-opacity="0.344"/>
<rect x="366" y="84" width="11" height="11" rx="1" ry="1" fill="#85E4C1" fill-opacity="0.356"/>
<rect x="461" y="74" width="7" height="7" rx="1" ry="1" fill="#6BDFB4" fill-opacity="0.371"/>
<rect x="417" y="120" width="9" height="9" rx="1" ry="1" fill="#77E1BA" fill-opacity="0.386"/>
<rect x="672" y="118" width="7" height="7" rx="1" ry="1" fill="#34D399" fill-opacity="0.597"/>
<rect x="242" y="86" width="7" height="7" rx="1" ry="1" fill="#A5EBD1" fill-opacity="0.251"/>
<rect x="163" y="44" width="6" height="6" rx="1" ry="1" fill="#B7EFDB" fill-opacity="0.176"/>
<rect x="158" y="104" width="9" height="9" rx="1" ry="1" fill="#B8EFDB" fill-opacity="0.180"/>
<rect x="338" y="70" width="6" height="6" rx="1" ry="1" fill="#8CE6C5" fill-opacity="0.302"/>
<rect x="559" y="17" width="6" height="6" rx="1" ry="1" fill="#4FD8A6" fill-opacity="0.397"/>
<rect x="483" y="38" width="9" height="9" rx="1" ry="1" fill="#65DDB1" fill-opacity="0.445"/>
<rect x="492" y="159" width="6" height="6" rx="1" ry="1" fill="#62DDB0" fill-opacity="0.405"/>
<rect x="594" y="248" width="11" height="11" rx="1" ry="1" fill="#45D6A1" fill-opacity="0.524"/>
<rect x="654" y="1" width="7" height="7" rx="1" ry="1" fill="#34D399" fill-opacity="0.569"/>
<rect x="466" y="110" width="7" height="7" rx="1" ry="1" fill="#6ADEB4" fill-opacity="0.401"/>
<rect x="604" y="161" width="6" height="6" rx="1" ry="1" fill="#2FBB88" fill-opacity="0.433"/>
<rect x="247" y="97" width="6" height="6" rx="1" ry="1" fill="#A3EBD1" fill-opacity="0.263"/>
<rect x="513" y="131" width="11" height="11" rx="1" ry="1" fill="#5CDBAD" fill-opacity="0.476"/>
<rect x="669" y="248" width="10" height="10" rx="1" ry="1" fill="#34D399" fill-opacity="0.568"/>
<rect x="700" y="103" width="6" height="6" rx="1" ry="1" fill="#34D399" fill-opacity="0.541"/>
<rect x="175" y="172" width="11" height="11" rx="1" ry="1" fill="#B4EED9" fill-opacity="0.205"/>
<rect x="476" y="5" width="11" height="11" rx="1" ry="1" fill="#67DEB2" fill-opacity="0.400"/>
<rect x="250" y="208" width="10" height="10" rx="1" ry="1" fill="#A3EBD0" fill-opacity="0.260"/>
<rect x="123" y="24" width="6" height="6" rx="1" ry="1" fill="#C0F1DF" fill-opacity="0.175"/>
<rect x="269" y="135" width="8" height="8" rx="1" ry="1" fill="#9EEACE" fill-opacity="0.237"/>
<rect x="387" y="181" width="10" height="10" rx="1" ry="1" fill="#7FE3BF" fill-opacity="0.305"/>
<rect x="568" y="23" width="6" height="6" rx="1" ry="1" fill="#4CD8A5" fill-opacity="0.435"/>
<rect x="367" y="101" width="7" height="7" rx="1" ry="1" fill="#85E4C1" fill-opacity="0.321"/>
<rect x="281" y="34" width="10" height="10" rx="1" ry="1" fill="#9BE9CC" fill-opacity="0.261"/>
<rect x="327" y="69" width="9" height="9" rx="1" ry="1" fill="#8FE6C6" fill-opacity="0.264"/>
<rect x="335" y="200" width="7" height="7" rx="1" ry="1" fill="#8DE6C5" fill-opacity="0.285"/>
<rect x="311" y="56" width="7" height="7" rx="1" ry="1" fill="#2FBB88" fill-opacity="0.300"/>
<rect x="250" y="88" width="11" height="11" rx="1" ry="1" fill="#A3EBD0" fill-opacity="0.260"/>
<rect x="480" y="176" width="6" height="6" rx="1" ry="1" fill="#66DDB2" fill-opacity="0.389"/>
<rect x="321" y="231" width="10" height="10" rx="1" ry="1" fill="#91E7C7" fill-opacity="0.323"/>
<rect x="354" y="133" width="11" height="11" rx="1" ry="1" fill="#88E5C3" fill-opacity="0.315"/>
<rect x="377" y="59" width="6" height="6" rx="1" ry="1" fill="#82E3C0" fill-opacity="0.330"/>
<rect x="103" y="196" width="9" height="9" rx="1" ry="1" fill="#C4F2E1" fill-opacity="0.146"/>
<rect x="339" y="254" width="10" height="10" rx="1" ry="1" fill="#8CE6C5" fill-opacity="0.287"/>
<rect x="203" y="79" width="11" height="11" rx="1" ry="1" fill="#AEEDD6" fill-opacity="0.236"/>
<rect x="682" y="199" width="11" height="11" rx="1" ry="1" fill="#2FBB88" fill-opacity="0.505"/>
<rect x="691" y="119" width="11" height="11" rx="1" ry="1" fill="#34D399" fill-opacity="0.608"/>
<rect x="512" y="36" width="6" height="6" rx="1" ry="1" fill="#5DDBAD" fill-opacity="0.401"/>
<rect x="492" y="261" width="8" height="8" rx="1" ry="1" fill="#2FBB88" fill-opacity="0.453"/>
<rect x="682" y="78" width="9" height="9" rx="1" ry="1" fill="#34D399" fill-opacity="0.594"/>
<rect x="460" y="77" width="9" height="9" rx="1" ry="1" fill="#6BDFB4" fill-opacity="0.409"/>
<rect x="206" y="240" width="7" height="7" rx="1" ry="1" fill="#ADEDD6" fill-opacity="0.234"/>
<rect x="310" y="156" width="9" height="9" rx="1" ry="1" fill="#93E7C9" fill-opacity="0.274"/>
<rect x="527" y="220" width="9" height="9" rx="1" ry="1" fill="#58DAAB" fill-opacity="0.441"/>
<rect x="69" y="215" width="11" height="11" rx="1" ry="1" fill="#CBF3E5" fill-opacity="0.135"/>
<rect x="311" y="66" width="11" height="11" rx="1" ry="1" fill="#93E7C9" fill-opacity="0.292"/>
<rect x="562" y="118" width="10" height="10" rx="1" ry="1" fill="#4ED8A6" fill-opacity="0.489"/>
<rect x="515" y="134" width="10" height="10" rx="1" ry="1" fill="#5CDBAD" fill-opacity="0.396"/>
<rect x="115" y="68" width="10" height="10" rx="1" ry="1" fill="#C2F1E0" fill-opacity="0.158"/>
<rect x="569" y="168" width="7" height="7" rx="1" ry="1" fill="#4CD8A5" fill-opacity="0.443"/>
<rect x="564" y="249" width="8" height="8" rx="1" ry="1" fill="#4ED8A6" fill-opacity="0.483"/>
<rect x="605" y="72" width="9" height="9" rx="1" ry="1" fill="#42D6A0" fill-opacity="0.471"/>
<rect x="225" y="3" width="11" height="11" rx="1" ry="1" fill="#A9ECD3" fill-opacity="0.217"/>
<rect x="442" y="105" width="8" height="8" rx="1" ry="1" fill="#70E0B7" fill-opacity="0.374"/>
<rect x="661" y="16" width="7" height="7" rx="1" ry="1" fill="#34D399" fill-opacity="0.586"/>
<rect x="501" y="269" width="7" height="7" rx="1" ry="1" fill="#60DCAF" fill-opacity="0.364"/>
<rect x="615" y="104" width="6" height="6" rx="1" ry="1" fill="#3FD59E" fill-opacity="0.450"/>
<rect x="343" y="32" width="6" height="6" rx="1" ry="1" fill="#8BE5C4" fill-opacity="0.271"/>
<rect x="234" y="259" width="11" height="11" rx="1" ry="1" fill="#A6EBD2" fill-opacity="0.214"/>
<rect x="554" y="263" width="10" height="10" rx="1" ry="1" fill="#51D9A7" fill-opacity="0.401"/>
<rect x="713" y="34" width="9" height="9" rx="1" ry="1" fill="#34D399" fill-opacity="0.505"/>
<rect x="179" y="82" width="9" height="9" rx="1" ry="1" fill="#B4EED9" fill-opacity="0.199"/>
<rect x="569" y="33" width="11" height="11" rx="1" ry="1" fill="#2FBB88" fill-opacity="0.500"/>
<rect x="660" y="78" width="9" height="9" rx="1" ry="1" fill="#34D399" fill-opacity="0.471"/>
<rect x="573" y="171" width="11" height="11" rx="1" ry="1" fill="#4BD8A4" fill-opacity="0.416"/>
<rect x="309" y="119" width="6" height="6" rx="1" ry="1" fill="#94E7C9" fill-opacity="0.285"/>
<rect x="575" y="12" width="6" height="6" rx="1" ry="1" fill="#4AD7A4" fill-opacity="0.429"/>
<rect x="473" y="167" width="6" height="6" rx="1" ry="1" fill="#68DEB3" fill-opacity="0.390"/>
<rect x="58" y="121" width="11" height="11" rx="1" ry="1" fill="#CDF4E6" fill-opacity="0.127"/>
<rect x="55" y="0" width="8" height="8" rx="1" ry="1" fill="#CEF4E6" fill-opacity="0.128"/>
<rect x="219" y="203" width="10" height="10" rx="1" ry="1" fill="#2FBB88" fill-opacity="0.226"/>
<rect x="236" y="47" width="9" height="9" rx="1" ry="1" fill="#A6EBD2" fill-opacity="0.247"/>
<rect x="128" y="213" width="10" height="10" rx="1" ry="1" fill="#BFF1DF" fill-opacity="0.166"/>
<rect x="186" y="194" width="10" height="10" rx="1" ry="1" fill="#B2EED8" fill-opacity="0.194"/>
<rect x="360" y="265" width="9" height="9" rx="1" ry="1" fill="#86E4C2" fill-opacity="0.345"/>
<rect x="463" y="143" width="6" height="6" rx="1" ry="1" fill="#6ADEB4" fill-opacity="0.352"/>
<rect x="474" y="11" width="10" height="10" rx="1" ry="1" fill="#67DEB3" fill-opacity="0.364"/>
<rect x="281" y="155" width="10" height="10" rx="1" ry="1" fill="#9BE9CC" fill-opacity="0.277"/>
<rect x="427" y="139" width="6" height="6" rx="1" ry="1" fill="#74E1B9" fill-opacity="0.355"/>
<rect x="444" y="66" width="8" height="8" rx="1" ry="1" fill="#70E0B7" fill-opacity="0.345"/>
<rect x="261" y="213" width="6" height="6" rx="1" ry="1" fill="#A0EACF" fill-opacity="0.227"/>
<rect x="671" y="196" width="7" height="7" rx="1" ry="1" fill="#34D399" fill-opacity="0.561"/>
<rect x="649" y="16" width="8" height="8" rx="1" ry="1" fill="#35D399" fill-opacity="0.509"/>
<rect x="541" y="269" width="6" height="6" rx="1" ry="1" fill="#54DAA9" fill-opacity="0.455"/>
<rect x="431" y="230" width="10" height="10" rx="1" ry="1" fill="#73E0B9" fill-opacity="0.350"/>
<rect x="290" y="202" width="11" height="11" rx="1" ry="1" fill="#99E8CB" fill-opacity="0.262"/>
<rect x="103" y="32" width="7" height="7" rx="1" ry="1" fill="#C4F2E1" fill-opacity="0.164"/>
<rect x="704" y="114" width="6" height="6" rx="1" ry="1" fill="#34D399" fill-opacity="0.559"/>
<rect x="688" y="79" width="9" height="9" rx="1" ry="1" fill="#34D399" fill-opacity="0.518"/>
<rect x="569" y="50" width="7" height="7" rx="1" ry="1" fill="#4CD8A5" fill-opacity="0.399"/>
<rect x="429" y="138" width="10" height="10" rx="1" ry="1" fill="#74E0B9" fill-opacity="0.383"/>
<rect x="686" y="34" width="11" height="11" rx="1" ry="1" fill="#34D399" fill-opacity="0.470"/>
<rect x="232" y="39" width="8" height="8" rx="1" ry="1" fill="#A7ECD3" fill-opacity="0.244"/>
<rect x="657" y="141" width="10" height="10" rx="1" ry="1" fill="#34D399" fill-opacity="0.586"/>
<rect x="705" y="248" width="10" height="10" rx="1" ry="1" fill="#34D399" fill-opacity="0.589"/>
<rect x="175" y="64" width="7" height="7" rx="1" ry="1" fill="#B4EED9" fill-opacity="0.214"/>
<rect x="165" y="235" width="8" height="8" rx="1" ry="1" fill="#B7EFDA" fill-opacity="0.200"/>
<rect x="25" y="82" width="6" height="6" rx="1" ry="1" fill="#D3F5E8" fill-opacity="0.112"/>
<rect x="527" y="261" width="6" height="6" rx="1" ry="1" fill="#58DAAB" fill-opacity="0.469"/>
<rect x="604" y="92" width="9" height="9" rx="1" ry="1" fill="#42D6A0" fill-opacity="0.552"/>
<rect x="345" y="198" width="9" height="9" rx="1" ry="1" fill="#8AE5C4" fill-opacity="0.304"/>
<rect x="561" y="248" width="7" height="7" rx="1" ry="1" fill="#4ED8A6" fill-opacity="0.509"/>
<rect x="713" y="14" width="9" height="9" rx="1" ry="1" fill="#34D399" fill-opacity="0.491"/>
<rect x="203" y="165" width="10" height="10" rx="1" ry="1" fill="#AEEDD6" fill-opacity="0.224"/>
<rect x="143" y="218" width="11" height="11" rx="1" ry="1" fill="#BCF0DD" fill-opacity="0.187"/>
<rect x="661" y="113" width="6" height="6" rx="1" ry="1" fill="#34D399" fill-opacity="0.485"/>
<rect x="677" y="128" width="10" height="10" rx="1" ry="1" fill="#34D399" fill-opacity="0.598"/>
<rect x="487" y="49" width="9" height="9" rx="1" ry="1" fill="#64DDB1" fill-opacity="0.361"/>
<rect x="603" y="92" width="6" height="6" rx="1" ry="1" fill="#42D6A0" fill-opacity="0.512"/>
<rect x="629" y="171" width="8" height="8" rx="1" ry="1" fill="#3BD49C" fill-opacity="0.482"/>
<rect x="501" y="246" width="11" height="11" rx="1" ry="1" fill="#2FBB88" fill-opacity="0.395"/>
<rect x="541" y="3" width="7" height="7" rx="1" ry="1" fill="#54DAA9" fill-opacity="0.499"/>
<rect x="438" y="264" width="11" height="11" rx="1" ry="1" fill="#71E0B8" fill-opacity="0.381"/>
<rect x="270" y="172" width="9" height="9" rx="1" ry="1" fill="#9EE9CE" fill-opacity="0.236"/>
<rect x="452" y="188" width="11" height="11" rx="1" ry="1" fill="#6DDFB6" fill-opacity="0.399"/>
<rect x="458" y="93" width="6" height="6" rx="1" ry="1" fill="#2FBB88" fill-opacity="0.397"/>
<rect x="110" y="211" width="8" height="8" rx="1" ry="1" fill="#C3F2E0" fill-opacity="0.169"/>
<rect x="575" y="211" width="6" height="6" rx="1" ry="1" fill="#4AD7A4" fill-opacity="0.408"/>
<rect x="650" y="57" width="11" height="11" rx="1" ry="1" fill="#34D399" fill-opacity="0.512"/>
<rect x="515" y="236" width="10" height="10" rx="1" ry="1" fill="#2FBB88" fill-opacity="0.392"/>
<rect x="662" y="27" width="8" height="8" rx="1" ry="1" fill="#34D399" fill-opacity="0.467"/>
<rect x="704" y="248" width="6" height="6" rx="1" ry="1" fill="#34D399" fill-opacity="0.582"/>
<rect x="586" y="237" width="6" height="6" rx="1" ry="1" fill="#47D7A2" fill-opacity="0.531"/>
<rect x="626" y="71" width="9" height="9" rx="1" ry="1" fill="#3BD49C" fill-opacity="0.545"/>
<rect x="446" y="200" width="8" height="8" rx="1" ry="1" fill="#6FDFB6" fill-opacity="0.344"/>
<rect x="688" y="166" width="7" height="7" rx="1" ry="1" fill="#2FBB88" fill-opacity="0.573"/>
<rect x="660" y="169" width="11" height="11" rx="1" ry="1" fill="#34D399" fill-opacity="0.537"/>
<rect x="478" y="2" width="9" height="9" rx="1" ry="1" fill="#66DDB2" fill-opacity="0.370"/>
<rect x="684" y="185" width="11" height="11" rx="1" ry="1" fill="#34D399" fill-opacity="0.487"/>
<rect x="456" y="137" width="6" height="6" rx="1" ry="1" fill="#6CDFB5" fill-opacity="0.432"/>
<rect x="220" y="162" width="11" height="11" rx="1" ry="1" fill="#AAECD4" fill-opacity="0.210"/>
<rect x="259" y="50" width="8" height="8" rx="1" ry="1" fill="#A0EACF" fill-opacity="0.238"/>
<rect x="390" y="249" width="8" height="8" rx="1" ry="1" fill="#7EE3BE" fill-opacity="0.321"/>
<rect x="686" y="123" width="6" height="6" rx="1" ry="1" fill="#34D399" fill-opacity="0.557"/>
<rect x="384" y="102" width="8" height="8" rx="1" ry="1" fill="#80E3BF" fill-opacity="0.349"/>
<rect x="425" y="53" width="6" height="6" rx="1" ry="1" fill="#75E1B9" fill-opacity="0.383"/>
<rect x="181" y="252" width="10" height="10" rx="1" ry="1" fill="#B3EED9" fill-opacity="0.205"/>
<rect x="460" y="196" width="6" height="6" rx="1" ry="1" fill="#6BDFB4" fill-opacity="0.377"/>
<rect x="403" y="226" width="6" height="6" rx="1" ry="1" fill="#7BE2BC" fill-opacity="0.343"/>
<rect x="525" y="35" width="10" height="10" rx="1" ry="1" fill="#59DBAB" fill-opacity="0.426"/>
<rect x="632" y="241" width="11" height="11" rx="1" ry="1" fill="#3AD49C" fill-opacity="0.523"/>
<rect x="581" y="169" width="10" height="10" rx="1" ry="1" fill="#49D7A3" fill-opacity="0.512"/>
<rect x="585" y="69" width="9" height="9" rx="1" ry="1" fill="#47D7A3" fill-opacity="0.537"/>
<rect x="654" y="12" width="8" height="8" rx="1" ry="1" fill="#34D399" fill-opacity="0.531"/>
<rect x="296" y="109" width="11" height="11" rx="1" ry="1" fill="#97E8CB" fill-opacity="0.249"/>
<rect x="411" y="85" width="10" height="10" rx="1" ry="1" fill="#79E1BB" fill-opacity="0.318"/>
<rect x="489" y="50" width="8" height="8" rx="1" ry="1" fill="#63DDB0" fill-opacity="0.409"/>
<rect x="569" y="183" width="9" height="9" rx="1" ry="1" fill="#4CD8A5" fill-opacity="0.456"/>
<rect x="88" y="44" width="8" height="8" rx="1" ry="1" fill="#C7F3E3" fill-opacity="0.153"/>
<rect x="318" y="219" width="6" height="6" rx="1" ry="1" fill="#91E7C8" fill-opacity="0.258"/>
<rect x="253" y="63" width="7" height="7" rx="1" ry="1" fill="#A2EAD0" fill-opacity="0.244"/>
<rect x="540" y="25" width="8" height="8" rx="1" ry="1" fill="#55DAA9" fill-opacity="0.501"/>
<rect x="620" y="165" width="10" height="10" rx="1" ry="1" fill="#3DD59D" fill-opacity="0.457"/>
<rect x="473" y="147" width="8" height="8" rx="1" ry="1" fill="#68DEB3" fill-opacity="0.403"/>
<rect x="374" y="101" width="6" height="6" rx="1" ry="1" fill="#83E4C0" fill-opacity="0.366"/>
<rect x="181" y="18" width="9" height="9" rx="1" ry="1" fill="#B3EED9" fill-opacity="0.207"/>
<rect x="19" y="102" width="10" height="10" rx="1" ry="1" fill="#D4F5E9" fill-opacity="0.108"/>
<rect x="530" y="152" width="10" height="10" rx="1" ry="1" fill="#57DAAB" fill-opacity="0.477"/>
<rect x="659" y="223" width="6" height="6" rx="1" ry="1" fill="#34D399" fill-opacity="0.573"/>
<rect x="304" y="175" width="10" height="10" rx="1" ry="1" fill="#95E8C9" fill-opacity="0.304"/>
<rect x="123" y="217" width="9" height="9" rx="1" ry="1" fill="#C0F1DF" fill-opacity="0.178"/>
<rect x="261" y="36" width="9" height="9" rx="1" ry="1" fill="#A0EACF" fill-opacity="0.257"/>
<rect x="640" y="180" width="9" height="9" rx="1" ry="1" fill="#37D39A" fill-opacity="0.453"/>
<rect x="591" y="168" width="6" height="6" rx="1" ry="1" fill="#46D6A2" fill-opacity="0.440"/>
<rect x="390" y="40" width="6" height="6" rx="1" ry="1" fill="#7EE3BE" fill-opacity="0.345"/>
<rect x="298" y="260" width="6" height="6" rx="1" ry="1" fill="#97E8CA" fill-opacity="0.290"/>
<rect x="527" y="194" width="11" height="11" rx="1" ry="1" fill="#58DAAB" fill-opacity="0.436"/>
<rect x="377" y="3" width="10" height="10" rx="1" ry="1" fill="#82E3C0" fill-opacity="0.303"/>
<rect x="184" y="81" width="11" height="11" rx="1" ry="1" fill="#B2EED8" fill-opacity="0.196"/>
<rect x="379" y="211" width="7" height="7" rx="1" ry="1" fill="#2FBB88" fill-opacity="0.339"/>
<rect x="260" y="137" width="6" height="6" rx="1" ry="1" fill="#A0EACF" fill-opacity="0.273"/>
<rect x="638" y="258" width="10" height="10" rx="1" ry="1" fill="#38D39B" fill-opacity="0.490"/>
<rect x="516" y="185" width="10" height="10" rx="1" ry="1" fill="#5BDBAD" fill-opacity="0.400"/>
<rect x="204" y="188" width="11" height="11" rx="1" ry="1" fill="#AEEDD6" fill-opacity="0.212"/>
<rect x="631" y="197" width="7" height="7" rx="1" ry="1" fill="#3AD49C" fill-opacity="0.558"/>
<rect x="492" y="72" width="11" height="11" rx="1" ry="1" fill="#62DDB0" fill-opacity="0.360"/>
<rect x="476" y="41" width="10" height="10" rx="1" ry="1" fill="#2FBB88" fill-opacity="0.415"/>
<rect x="423" y="138" width="8" height="8" rx="1" ry="1" fill="#75E1BA" fill-opacity="0.397"/>
<rect x="252" y="130" width="11" height="11" rx="1" ry="1" fill="#A2EAD0" fill-opacity="0.232"/>
<rect x="53" y="105" width="6" height="6" rx="1" ry="1" fill="#CEF4E6" fill-opacity="0.123"/>
<rect x="332" y="189" width="8" height="8" rx="1" ry="1" fill="#8EE6C6" fill-opacity="0.302"/>
<rect x="129" y="73" width="8" height="8" rx="1" ry="1" fill="#BFF1DE" fill-opacity="0.164"/>
<rect x="29" y="149" width="6" height="6" rx="1" ry="1" fill="#D2F5E8" fill-opacity="0.116"/>
<rect x="136" y="231" width="8" height="8" rx="1" ry="1" fill="#BDF0DE" fill-opacity="0.163"/>
<rect x="432" y="87" width="6" height="6" rx="1" ry="1" fill="#73E0B8" fill-opacity="0.400"/>
<rect x="179" y="178" width="7" height="7" rx="1" ry="1" fill="#B4EED9" fill-opacity="0.215"/>
<rect x="490" y="3" width="6" height="6" rx="1" ry="1" fill="#63DDB0" fill-opacity="0.369"/>
<rect x="437" y="90" width="9" height="9" rx="1" ry="1" fill="#72E0B8" fill-opacity="0.330"/>
<rect x="559" y="147" width="9" height="9" rx="1" ry="1" fill="#4FD8A6" fill-opacity="0.463"/>
<rect x="458" y="96" width="10" height="10" rx="1" ry="1" fill="#6CDFB5" fill-opacity="0.337"/>
<rect x="670" y="43" width="9" height="9" rx="1" ry="1" fill="#34D399" fill-opacity="0.574"/>
<rect x="345" y="65" width="9" height="9" rx="1" ry="1" fill="#8AE5C4" fill-opacity="0.280"/>
<rect x="276" y="214" width="10" height="10" rx="1" ry="1" fill="#9CE9CD" fill-opacity="0.254"/>
<rect x="388" y="171" width="8" height="8" rx="1" ry="1" fill="#7FE3BE" fill-opacity="0.337"/>
<rect x="265" y="84" width="6" height="6" rx="1" ry="1" fill="#9FEACE" fill-opacity="0.238"/>
<rect x="467" y="26" width="8" height="8" rx="1" ry="1" fill="#69DEB3" fill-opacity="0.396"/>
<rect x="354" y="94" width="8" height="8" rx="1" ry="1" fill="#88E5C3" fill-opacity="0.300"/>
<rect x="110" y="144" width="11" height="11" rx="1" ry="1" fill="#C3F2E0" fill-opacity="0.166"/>
<rect x="450" y="12" width="8" height="8" rx="1" ry="1" fill="#6EDFB6" fill-opacity="0.396"/>
<rect x="188" y="104" width="11" height="11" rx="1" ry="1" fill="#B1EED8" fill-opacity="0.208"/>
<rect x="562" y="22" width="7" height="7" rx="1" ry="1" fill="#4ED8A6" fill-opacity="0.410"/>
<rect x="298" y="155" width="10" height="10" rx="1" ry="1" fill="#97E8CA" fill-opacity="0.253"/>
<rect x="639" y="132" width="8" height="8" rx="1" ry="1" fill="#38D39B" fill-opacity="0.462"/>
<rect x="534" y="201" width="10" height="10" rx="1" ry="1" fill="#56DAAA" fill-opacity="0.449"/>
<rect x="342" y="96" width="10" height="10" rx="1" ry="1" fill="#8BE5C5" fill-opacity="0.337"/>
<rect x="39" y="160" width="6" height="6" rx="1" ry="1" fill="#D0F5E7" fill-opacity="0.117"/>
<rect x="391" y="207" width="9" height="9" rx="1" ry="1" fill="#7EE3BE" fill-opacity="0.360"/>
<rect x="547" y="158" width="8" height="8" rx="1" ry="1" fill="#53D9A8" fill-opacity="0.396"/>
<rect x="655" y="58" width="7" height="7" rx="1" ry="1" fill="#34D399" fill-opacity="0.566"/>
<rect x="484" y="72" width="10" height="10" rx="1" ry="1" fill="#64DDB1" fill-opacity="0.419"/>
<rect x="280" y="146" width="10" height="10" rx="1" ry="1" fill="#9BE9CD" fill-opacity="0.253"/>
<rect x="478" y="34" width="6" height="6" rx="1" ry="1" fill="#66DDB2" fill-opacity="0.363"/>
<rect x="91" y="238" width="8" height="8" rx="1" ry="1" fill="#C7F2E2" fill-opacity="0.141"/>
<rect x="62" y="47" width="11" height="11" rx="1" ry="1" fill="#CCF4E5" fill-opacity="0.127"/>
<rect x="389" y="136" width="7" height="7" rx="1" ry="1" fill="#7FE3BE" fill-opacity="0.340"/>
<rect x="516" y="139" width="9" height="9" rx="1" ry="1" fill="#5BDBAD" fill-opacity="0.454"/>
<rect x="229" y="114" width="6" height="6" rx="1" ry="1" fill="#A8ECD3" fill-opacity="0.211"/>
<rect x="532" y="76" width="7" height="7" rx="1" ry="1" fill="#57DAAA" fill-opacity="0.477"/>
<rect x="139" y="152" width="7" height="7" rx="1" ry="1" fill="#2FBB88" fill-opacity="0.175"/>
<rect x="660" y="0" width="60" height="280" fill="url(#edgeGlow)"/>
</svg>