<svg xmlns="http://www.w3.org/2000/svg" width="720" height="280" viewBox="0 0 720 280">
      <defs>
        <radialGradient id="vignette" cx="50%" cy="50%" r="75%">
          <stop offset="0%" stop-color="#ffffff" stop-opacity="1"/>
          <stop offset="100%" stop-color="#ffffff" stop-opacity="0.7"/>
        </radialGradient>
        <linearGradient id="edgeGlow" x1="0%" y1="0%" x2="100%" y2="0%">
          <stop offset="0%" stop-color="#ffffff" stop-opacity="0"/>
          <stop offset="100%" stop-color="#ffffff" stop-opacity="0.45"/>
        </linearGradient>
      </defs>
    <rect x="0" y="0" width="720" height="280" fill="url(#vignette)"/>
<rect x="202" y="185" width="6" height="6" rx="1" ry="1" fill="#DCD1FD" fill-opacity="0.196"/>
<rect x="425" y="13" width="6" height="6" rx="1" ry="1" fill="#C3B0FB" fill-opacity="0.404"/>
<rect x="348" y="250" width="6" height="6" rx="1" ry="1" fill="#CCBCFC" fill-opacity="0.289"/>
<rect x="653" y="77" width="9" height="9" rx="1" ry="1" fill="#A78BFA" fill-opacity="0.559"/>
<rect x="323" y="47" width="6" height="6" rx="1" ry="1" fill="#CFBFFC" fill-opacity="0.314"/>
<rect x="161" y="242" width="7" height="7" rx="1" ry="1" fill="#E0D6FD" fill-opacity="0.203"/>
<rect x="263" y="134" width="11" height="11" rx="1" ry="1" fill="#D5C8FC" fill-opacity="0.256"/>
<rect x="366" y="137" width="9" height="9" rx="1" ry="1" fill="#CAB9FC" fill-opacity="0.338"/>
<rect x="410" y="41" width="6" height="6" rx="1" ry="1" fill="#957CDE" fill-opacity="0.324"/>
<rect x="674" y="55" width="6" height="6" rx="1" ry="1" fill="#A78BFA" fill-opacity="0.468"/>
<rect x="590" y="85" width="10" height="10" rx="1" ry="1" fill="#AF95FA" fill-opacity="0.456"/>
<rect x="40" y="38" width="6" height="6" rx="1" ry="1" fill="#EAE4FD" fill-opacity="0.119"/>
<rect x="493" y="241" width="11" height="11" rx="1" ry="1" fill="#BBA5FB" fill-opacity="0.372"/>
<rect x="179" y="69" width="10" height="10" rx="1" ry="1" fill="#DED4FD" fill-opacity="0.199"/>
<rect x="173" y="56" width="10" height="10" rx="1" ry="1" fill="#DFD4FD" fill-opacity="0.214"/>
<rect x="424" y="19" width="7" height="7" rx="1" ry="1" fill="#C3B0FB" fill-opacity="0.385"/>
<rect x="294" y="86" width="6" height="6" rx="1" ry="1" fill="#D2C4FC" fill-opacity="0.279"/>
<rect x="461" y="3" width="9" height="9" rx="1" ry="1" fill="#BFAAFB" fill-opacity="0.432"/>
<rect x="373" y="169" width="8" height="8" rx="1" ry="1" fill="#C9B8FB" fill-opacity="0.289"/>
<rect x="531" y="62" width="7" height="7" rx="1" ry="1" fill="#B69FFA" fill-opacity="0.415"/>
<rect x="644" y="163" width="7" height="7" rx="1" ry="1" fill="#A88CFA" fill-opacity="0.446"/>
<rect x="710" y="249" width="9" height="9" rx="1" ry="1" fill="#957CDE" fill-opacity="0.621"/>
<rect x="651" y="94" width="11" height="11" rx="1" ry="1" fill="#A78BFA" fill-opacity="0.468"/>
<rect x="698" y="234" width="11" height="11" rx="1" ry="1" fill="#A78BFA" fill-opacity="0.609"/>
<rect x="273" y="208" width="10" height="10" rx="1" ry="1" fill="#D4C7FC" fill-opacity="0.244"/>
<rect x="631" y="158" width="11" height="11" rx="1" ry="1" fill="#A98EFA" fill-opacity="0.535"/>
<rect x="146" y="148" width="6" height="6" rx="1" ry="1" fill="#E1D8FD" fill-opacity="0.175"/>
<rect x="341" y="265" width="8" height="8" rx="1" ry="1" fill="#CDBDFC" fill-opacity="0.308"/>
<rect x="592" y="101" width="6" height="6" rx="1" ry="1" fill="#AE95FA" fill-opacity="0.503"/>
<rect x="212" y="0" width="6" height="6" rx="1" ry="1" fill="#DBCFFC" fill-opacity="0.226"/>
<rect x="329" y="223" width="8" height="8" rx="1" ry="1" fill="#CEBFFC" fill-opacity="0.295"/>
<rect x="652" y="165" width="8" height="8" rx="1" ry="1" fill="#A78BFA" fill-opacity="0.574"/>
<rect x="370" y="12" width="11" height="11" rx="1" ry="1" fill="#C9B8FB" fill-opacity="0.296"/>
<rect x="254" y="61" width="10" height="10" rx="1" ry="1" fill="#D6C9FC" fill-opacity="0.262"/>
<rect x="588" y="143" width="11" height="11" rx="1" ry="1" fill="#AF95FA" fill-opacity="0.521"/>
<rect x="331" y="190" width="9" height="9" rx="1" ry="1" fill="#CEBEFC" fill-opacity="0.283"/>
<rect x="136" y="245" width="10" height="10" rx="1" ry="1" fill="#E2D9FD" fill-opacity="0.184"/>
<rect x="8" y="246" width="11" height="11" rx="1" ry="1" fill="#EDE7FD" fill-opacity="0.103"/>
<rect x="591" y="85" width="7" height="7" rx="1" ry="1" fill="#AE95FA" fill-opacity="0.532"/>
<rect x="150" y="218" width="6" height="6" rx="1" ry="1" fill="#E1D7FD" fill-opacity="0.195"/>
<rect x="508" y="67" width="9" height="9" rx="1" ry="1" fill="#B9A3FB" fill-opacity="0.467"/>
<rect x="714" y="184" width="7" height="7" rx="1" ry="1" fill="#A78BFA" fill-opacity="0.518"/>
<rect x="371" y="142" width="8" height="8" rx="1" ry="1" fill="#C9B8FB" fill-opacity="0.288"/>
<rect x="601" y="5" width="9" height="9" rx="1" ry="1" fill="#AD93FA" fill-opacity="0.490"/>
<rect x="525" y="151" width="6" height="6" rx="1" ry="1" fill="#B7A0FA" fill-opacity="0.423"/>
<rect x="205" y="118" width="9" height="9" rx="1" ry="1" fill="#DBD0FD" fill-opacity="0.222"/>
<rect x="639" y="215" width="7" height="7" rx="1" ry="1" fill="#A88DFA" fill-opacity="0.450"/>
<rect x="324" y="269" width="7" height="7" rx="1" ry="1" fill="#CFBFFC" fill-opacity="0.275"/>
<rect x="127" y="81" width="7" height="7" rx="1" ry="1" fill="#E3DAFD" fill-opacity="0.175"/>
<rect x="175" y="144" width="10" height="10" rx="1" ry="1" fill="#DED4FD" fill-opacity="0.212"/>
<rect x="390" y="26" width="11" height="11" rx="1" ry="1" fill="#C7B5FB" fill-opacity="0.351"/>
<rect x="72" y="47" width="6" height="6" rx="1" ry="1" fill="#E8E1FD" fill-opacity="0.134"/>
<rect x="111" y="44" width="10" height="10" rx="1" ry="1" fill="#E4DCFD" fill-opacity="0.155"/>
<rect x="666" y="10" width="8" height="8" rx="1" ry="1" fill="#957CDE" fill-opacity="0.462"/>
<rect x="597" y="182" width="10" height="10" rx="1" ry="1" fill="#AE94FA" fill-opacity="0.499"/>
<rect x="651" y="101" width="11" height="11" rx="1" ry="1" fill="#957CDE" fill-opacity="0.498"/>
<rect x="630" y="198" width="9" height="9" rx="1" ry="1" fill="#A98EFA" fill-opacity="0.469"/>
<rect x="427" y="15" width="9" height="9" rx="1" ry="1" fill="#C3B0FB" fill-opacity="0.360"/>
<rect x="239" y="137" width="10" height="10" rx="1" ry="1" fill="#D8CCFC" fill-opacity="0.225"/>
<rect x="602" y="268" width="10" height="10" rx="1" ry="1" fill="#AD93FA" fill-opacity="0.476"/>
<rect x="373" y="238" width="8" height="8" rx="1" ry="1" fill="#C9B8FB" fill-opacity="0.324"/>
<rect x="55" y="265" width="9" height="9" rx="1" ry="1" fill="#E9E3FD" fill-opacity="0.130"/>
<rect x="443" y="190" width="11" height="11" rx="1" ry="1" fill="#C1ADFB" fill-opacity="0.363"/>
<rect x="534" y="55" width="9" height="9" rx="1" ry="1" fill="#B69EFA" fill-opacity="0.390"/>
<rect x="189" y="254" width="11" height="11" rx="1" ry="1" fill="#DDD2FD" fill-opacity="0.206"/>
<rect x="655" y="210" width="6" height="6" rx="1" ry="1" fill="#A78BFA" fill-opacity="0.451"/>
<rect x="240" y="15" width="8" height="8" rx="1" ry="1" fill="#D8CBFC" fill-opacity="0.225"/>
<rect x="111" y="179" width="10" height="10" rx="1" ry="1" fill="#E4DCFD" fill-opacity="0.162"/>
<rect x="241" y="185" width="7" height="7" rx="1" ry="1" fill="#D8CBFC" fill-opacity="0.227"/>
<rect x="113" y="267" width="9" height="9" rx="1" ry="1" fill="#E4DCFD" fill-opacity="0.165"/>
<rect x="700" y="46" width="6" height="6" rx="1" ry="1" fill="#A78BFA" fill-opacity="0.522"/>
<rect x="506" y="221" width="7" height="7" rx="1" ry="1" fill="#B9A3FB" fill-opacity="0.388"/>
<rect x="324" y="127" width="6" height="6" rx="1" ry="1" fill="#CFBFFC" fill-opacity="0.328"/>
<rect x="261" y="210" width="8" height="8" rx="1" ry="1" fill="#D5C8FC" fill-opacity="0.242"/>
<rect x="154" y="82" width="9" height="9" rx="1" ry="1" fill="#E0D7FD" fill-opacity="0.190"/>
<rect x="298" y="220" width="10" height="10" rx="1" ry="1" fill="#D1C3FC" fill-opacity="0.249"/>
<rect x="703" y="139" width="6" height="6" rx="1" ry="1" fill="#A78BFA" fill-opacity="0.506"/>
<rect x="383" y="75" width="7" height="7" rx="1" ry="1" fill="#C8B6FB" fill-opacity="0.359"/>
<rect x="608" y="225" width="8" height="8" rx="1" ry="1" fill="#AC92FA" fill-opacity="0.426"/>
<rect x="691" y="184" width="10" height="10" rx="1" ry="1" fill="#A78BFA" fill-opacity="0.555"/>
<rect x="486" y="211" width="7" height="7" rx="1" ry="1" fill="#BBA6FB" fill-opacity="0.402"/>
<rect x="171" y="34" width="7" height="7" rx="1" ry="1" fill="#DFD5FD" fill-opacity="0.212"/>
<rect x="326" y="233" width="9" height="9" rx="1" ry="1" fill="#CEBFFC" fill-opacity="0.307"/>
<rect x="75" y="229" width="9" height="9" rx="1" ry="1" fill="#E8E0FD" fill-opacity="0.143"/>
<rect x="496" y="218" width="8" height="8" rx="1" ry="1" fill="#BAA5FB" fill-opacity="0.377"/>
<rect x="646" y="269" width="11" height="11" rx="1" ry="1" fill="#A78CFA" fill-opacity="0.528"/>
<rect x="426" y="182" width="9" height="9" rx="1" ry="1" fill="#C3B0FB" fill-opacity="0.408"/>
<rect x="401" y="162" width="9" height="9" rx="1" ry="1" fill="#C6B4FB" fill-opacity="0.371"/>
<rect x="288" y="216" width="9" height="9" rx="1" ry="1" fill="#D3C5FC" fill-opacity="0.297"/>
<rect x="437" y="254" width="7" height="7" rx="1" ry="1" fill="#C1AEFB" fill-opacity="0.393"/>
<rect x="121" y="99" width="9" height="9" rx="1" ry="1" fill="#E4DBFD" fill-opacity="0.162"/>
<rect x="21" y="36" width="9" height="9" rx="1" ry="1" fill="#ECE6FD" fill-opacity="0.111"/>
<rect x="78" y="195" width="10" height="10" rx="1" ry="1" fill="#E7E0FD" fill-opacity="0.145"/>
<rect x="572" y="160" width="6" height="6" rx="1" ry="1" fill="#B198FA" fill-opacity="0.434"/>
<rect x="469" y="150" width="6" height="6" rx="1" ry="1" fill="#BEA9FB" fill-opacity="0.349"/>
<rect x="57" y="30" width="10" height="10" rx="1" ry="1" fill="#E9E2FD" fill-opacity="0.126"/>
<rect x="368" y="100" width="8" height="8" rx="1" ry="1" fill="#CAB9FB" fill-opacity="0.350"/>
<rect x="608" y="166" width="11" height="11" rx="1" ry="1" fill="#AC92FA" fill-opacity="0.516"/>
<rect x="599" y="123" width="9" height="9" rx="1" ry="1" fill="#AD94FA" fill-opacity="0.459"/>
<rect x="649" y="124" width="8" height="8" rx="1" ry="1" fill="#A78BFA" fill-opacity="0.495"/>
<rect x="699" y="110" width="11" height="11" rx="1" ry="1" fill="#A78BFA" fill-opacity="0.590"/>
<rect x="36" y="25" width="6" height="6" rx="1" ry="1" fill="#EBE4FD" fill-opacity="0.119"/>
<rect x="463" y="21" width="6" height="6" rx="1" ry="1" fill="#BEAAFB" fill-opacity="0.348"/>
<rect x="574" y="245" width="7" height="7" rx="1" ry="1" fill="#B198FA" fill-opacity="0.495"/>
<rect x="286" y="41" width="10" height="10" rx="1" ry="1" fill="#D3C5FC" fill-opacity="0.255"/>
<rect x="431" y="36" width="7" height="7" rx="1" ry="1" fill="#C2AFFB" fill-opacity="0.346"/>
<rect x="581" y="82" width="10" height="10" rx="1" ry="1" fill="#B097FA" fill-opacity="0.449"/>
<rect x="553" y="158" width="9" height="9" rx="1" ry="1" fill="#B39BFA" fill-opacity="0.460"/>
<rect x="538" y="47" width="11" height="11" rx="1" ry="1" fill="#B59EFA" fill-opacity="0.455"/>
<rect x="26" y="261" width="8" height="8" rx="1" ry="1" fill="#EBE5FD" fill-opacity="0.112"/>
<rect x="470" y="192" width="8" height="8" rx="1" ry="1" fill="#BDA9FB" fill-opacity="0.350"/>
<rect x="510" y="271" width="9" height="9" rx="1" ry="1" fill="#B9A2FB" fill-opacity="0.465"/>
<rect x="635" y="146" width="7" height="7" rx="1" ry="1" fill="#A98EFA" fill-opacity="0.457"/>
<rect x="211" y="257" width="9" height="9" rx="1" ry="1" fill="#DBCFFC" fill-opacity="0.206"/>
<rect x="512" y="269" width="6" height="6" rx="1" ry="1" fill="#B8A2FB" fill-opacity="0.442"/>
<rect x="106" y="222" width="11" height="11" rx="1" ry="1" fill="#E5DDFD" fill-opacity="0.155"/>
<rect x="366" y="93" width="7" height="7" rx="1" ry="1" fill="#CAB9FC" fill-opacity="0.329"/>
<rect x="703" y="71" width="9" height="9" rx="1" ry="1" fill="#A78BFA" fill-opacity="0.583"/>
<rect x="714" y="153" width="11" height="11" rx="1" ry="1" fill="#A78BFA" fill-opacity="0.510"/>
<rect x="268" y="120" width="11" height="11" rx="1" ry="1" fill="#D5C7FC" fill-opacity="0.237"/>
<rect x="537" y="169" width="9" height="9" rx="1" ry="1" fill="#B59EFA" fill-opacity="0.446"/>
<rect x="677" y="0" width="8" height="8" rx="1" ry="1" fill="#A78BFA" fill-opacity="0.559"/>
<rect x="140" y="114" width="8" height="8" rx="1" ry="1" fill="#E2D9FD" fill-opacity="0.164"/>
<rect x="494" y="141" width="11" height="11" rx="1" ry="1" fill="#BBA5FB" fill-opacity="0.405"/>
<rect x="272" y="72" width="7" height="7" rx="1" ry="1" fill="#D4C7FC" fill-opacity="0.260"/>
<rect x="529" y="155" width="6" height="6" rx="1" ry="1" fill="#B69FFA" fill-opacity="0.472"/>
<rect x="449" y="209" width="8" height="8" rx="1" ry="1" fill="#C0ACFB" fill-opacity="0.349"/>
<rect x="243" y="29" width="11" height="11" rx="1" ry="1" fill="#D7CBFC" fill-opacity="0.262"/>
<rect x="474" y="153" width="11" height="11" rx="1" ry="1" fill="#BDA8FB" fill-opacity="0.433"/>
<rect x="599" y="78" width="6" height="6" rx="1" ry="1" fill="#AD94FA" fill-opacity="0.465"/>
<rect x="701" y="236" width="7" height="7" rx="1" ry="1" fill="#957CDE" fill-opacity="0.630"/>
<rect x="250" y="233" width="6" height="6" rx="1" ry="1" fill="#D7CAFC" fill-opacity="0.263"/>
<rect x="317" y="224" width="8" height="8" rx="1" ry="1" fill="#CFC0FC" fill-opacity="0.295"/>
<rect x="471" y="247" width="8" height="8" rx="1" ry="1" fill="#BDA9FB" fill-opacity="0.407"/>
<rect x="79" y="160" width="8" height="8" rx="1" ry="1" fill="#E7E0FD" fill-opacity="0.147"/>
<rect x="62" y="22" width="6" height="6" rx="1" ry="1" fill="#E9E2FD" fill-opacity="0.129"/>
<rect x="708" y="187" width="11" height="11" rx="1" ry="1" fill="#A78BFA" fill-opacity="0.492"/>
<rect x="229" y="100" width="8" height="8" rx="1" ry="1" fill="#D9CDFC" fill-opacity="0.247"/>
<rect x="347" y="257" width="10" height="10" rx="1" ry="1" fill="#CCBCFC" fill-opacity="0.312"/>
<rect x="225" y="25" width="10" height="10" rx="1" ry="1" fill="#D9CDFC" fill-opacity="0.247"/>
<rect x="195" y="19" width="9" height="9" rx="1" ry="1" fill="#DCD2FD" fill-opacity="0.230"/>
<rect x="680" y="83" width="10" height="10" rx="1" ry="1" fill="#A78BFA" fill-opacity="0.530"/>
<rect x="632" y="193" width="7" height="7" rx="1" ry="1" fill="#A98EFA" fill-opacity="0.523"/>
<rect x="447" y="19" width="11" height="11" rx="1" ry="1" fill="#C0ACFB" fill-opacity="0.332"/>
<rect x="557" y="161" width="11" height="11" rx="1" ry="1" fill="#B39BFA" fill-opacity="0.474"/>
<rect x="85" y="170" width="6" height="6" rx="1" ry="1" fill="#E7DFFD" fill-opacity="0.143"/>
<rect x="258" y="107" width="10" height="10" rx="1" ry="1" fill="#D6C9FC" fill-opacity="0.231"/>
<rect x="662" y="17" width="6" height="6" rx="1" ry="1" fill="#A78BFA" fill-opacity="0.558"/>
<rect x="316" y="79" width="7" height="7" rx="1" ry="1" fill="#CFC0FC" fill-opacity="0.277"/>
<rect x="143" y="84" width="10" height="10" rx="1" ry="1" fill="#E2D8FD" fill-opacity="0.174"/>
<rect x="509" y="39" width="9" height="9" rx="1" ry="1" fill="#B9A2FB" fill-opacity="0.424"/>
<rect x="263" y="21" width="7" height="7" rx="1" ry="1" fill="#D5C8FC" fill-opacity="0.241"/>
<rect x="419" y="141" width="11" height="11" rx="1" ry="1" fill="#C4B1FB" fill-opacity="0.401"/>
<rect x="330" y="143" width="10" height="10" rx="1" ry="1" fill="#CEBEFC" fill-opacity="0.326"/>
<rect x="297" y="116" width="10" height="10" rx="1" ry="1" fill="#D2C3FC" fill-opacity="0.268"/>
<rect x="537" y="119" width="10" height="10" rx="1" ry="1" fill="#B59EFA" fill-opacity="0.396"/>
<rect x="638" y="163" width="8" height="8" rx="1" ry="1" fill="#A88DFA" fill-opacity="0.511"/>
<rect x="570" y="170" width="10" height="10" rx="1" ry="1" fill="#B198FA" fill-opacity="0.522"/>
<rect x="531" y="163" width="11" height="11" rx="1" ry="1" fill="#B69FFA" fill-opacity="0.482"/>
<rect x="452" y="188" width="9" height="9" rx="1" ry="1" fill="#C0ACFB" fill-opacity="0.396"/>
<rect x="131" y="237" width="11" height="11" rx="1" ry="1" fill="#E3DAFD" fill-opacity="0.166"/>
<rect x="571" y="147" width="7" height="7" rx="1" ry="1" fill="#B198FA" fill-opacity="0.414"/>
<rect x="200" y="43" width="6" height="6" rx="1" ry="1" fill="#DCD1FD" fill-opacity="0.208"/>
<rect x="240" y="187" width="8" height="8" rx="1" ry="1" fill="#D8CBFC" fill-opacity="0.219"/>
<rect x="133" y="260" width="6" height="6" rx="1" ry="1" fill="#E2DAFD" fill-opacity="0.184"/>
<rect x="484" y="127" width="8" height="8" rx="1" ry="1" fill="#BCA6FB" fill-opacity="0.368"/>
<rect x="47" y="61" width="8" height="8" rx="1" ry="1" fill="#EAE3FD" fill-opacity="0.125"/>
<rect x="372" y="79" width="6" height="6" rx="1" ry="1" fill="#C9B8FB" fill-opacity="0.320"/>
<rect x="410" y="97" width="8" height="8" rx="1" ry="1" fill="#C5B2FB" fill-opacity="0.315"/>
<rect x="440" y="98" width="11" height="11" rx="1" ry="1" fill="#C1ADFB" fill-opacity="0.383"/>
<rect x="110" y="45" width="8" height="8" rx="1" ry="1" fill="#E5DCFD" fill-opacity="0.149"/>
<rect x="554" y="62" width="6" height="6" rx="1" ry="1" fill="#B39BFA" fill-opacity="0.492"/>
<rect x="372" y="150" width="6" height="6" rx="1" ry="1" fill="#C9B8FB" fill-opacity="0.319"/>
<rect x="215" y="170" width="9" height="9" rx="1" ry="1" fill="#957CDE" fill-opacity="0.210"/>
<rect x="671" y="49" width="10" height="10" rx="1" ry="1" fill="#A78BFA" fill-opacity="0.556"/>
<rect x="556" y="71" width="11" height="11" rx="1" ry="1" fill="#B39BFA" fill-opacity="0.470"/>
<rect x="572" y="141" width="8" height="8" rx="1" ry="1" fill="#B198FA" fill-opacity="0.431"/>
<rect x="607" y="91" width="11" height="11" rx="1" ry="1" fill="#AC92FA" fill-opacity="0.505"/>
<rect x="161" y="62" width="7" height="7" rx="1" ry="1" fill="#E0D6FD" fill-opacity="0.193"/>
<rect x="414" y="22" width="6" height="6" rx="1" ry="1" fill="#C4B2FB" fill-opacity="0.371"/>
<rect x="577" y="216" width="10" height="10" rx="1" ry="1" fill="#B097FA" fill-opacity="0.451"/>
<rect x="633" y="132" width="10" height="10" rx="1" ry="1" fill="#A98EFA" fill-opacity="0.555"/>
<rect x="373" y="272" width="7" height="7" rx="1" ry="1" fill="#C9B8FB" fill-opacity="0.325"/>
<rect x="490" y="238" width="10" height="10" rx="1" ry="1" fill="#BBA6FB" fill-opacity="0.384"/>
<rect x="281" y="220" width="8" height="8" rx="1" ry="1" fill="#D3C6FC" fill-opacity="0.263"/>
<rect x="349" y="246" width="7" height="7" rx="1" ry="1" fill="#CCBCFC" fill-opacity="0.307"/>
<rect x="513" y="103" width="7" height="7" rx="1" ry="1" fill="#B8A2FB" fill-opacity="0.378"/>
<rect x="95" y="266" width="9" height="9" rx="1" ry="1" fill="#E6DEFD" fill-opacity="0.150"/>
<rect x="706" y="216" width="8" height="8" rx="1" ry="1" fill="#A78BFA" fill-opacity="0.623"/>
<rect x="77" y="1" width="11" height="11" rx="1" ry="1" fill="#E7E0FD" fill-opacity="0.146"/>
<rect x="594" y="22" width="11" height="11" rx="1" ry="1" fill="#AE94FA" fill-opacity="0.499"/>
<rect x="623" y="171" width="6" height="6" rx="1" ry="1" fill="#957CDE" fill-opacity="0.438"/>
<rect x="607" y="58" width="9" height="9" rx="1" ry="1" fill="#AC92FA" fill-opacity="0.487"/>
<rect x="629" y="7" width="9" height="9" rx="1" ry="1" fill="#AA8FFA" fill-opacity="0.461"/>
<rect x="126" y="102" width="11" height="11" rx="1" ry="1" fill="#E3DAFD" fill-opacity="0.179"/>
<rect x="470" y="148" width="10" height="10" rx="1" ry="1" fill="#BDA9FB" fill-opacity="0.431"/>
<rect x="325" y="129" width="9" height="9" rx="1" ry="1" fill="#957CDE" fill-opacity="0.324"/>
<rect x="690" y="246" width="8" height="8" rx="1" ry="1" fill="#A78BFA" fill-opacity="0.561"/>
<rect x="63" y="157" width="10" height="10" rx="1" ry="1" fill="#E9E2FD" fill-opacity="0.135"/>
<rect x="479" y="71" width="9" height="9" rx="1" ry="1" fill="#BCA7FB" fill-opacity="0.393"/>
<rect x="276" y="173" width="9" height="9" rx="1" ry="1" fill="#D4C6FC" fill-opacity="0.276"/>
<rect x="289" y="209" width="6" height="6" rx="1" ry="1" fill="#D2C4FC" fill-opacity="0.271"/>
<rect x="374" y="195" width="10" height="10" rx="1" ry="1" fill="#C9B8FB" fill-opacity="0.297"/>
<rect x="575" y="88" width="10" height="10" rx="1" ry="1" fill="#957CDE" fill-opacity="0.469"/>
<rect x="298" y="57" width="6" height="6" rx="1" ry="1" fill="#D1C3FC" fill-opacity="0.259"/>
<rect x="62" y="220" width="8" height="8" rx="1" ry="1" fill="#E9E2FD" fill-opacity="0.130"/>
<rect x="625" y="76" width="10" height="10" rx="1" ry="1" fill="#AA8FFA" fill-opacity="0.570"/>
<rect x="400" y="194" width="8" height="8" rx="1" ry="1" fill="#C6B4FB" fill-opacity="0.379"/>
<rect x="642" y="172" width="7" height="7" rx="1" ry="1" fill="#A88CFA" fill-opacity="0.460"/>
<rect x="387" y="158" width="10" height="10" rx="1" ry="1" fill="#C7B6FB" fill-opacity="0.305"/>
<rect x="495" y="185" width="8" height="8" rx="1" ry="1" fill="#BAA5FB" fill-opacity="0.426"/>
<rect x="120" y="196" width="11" height="11" rx="1" ry="1" fill="#E4DBFD" fill-opacity="0.175"/>
<rect x="660" y="93" width="8" height="8" rx="1" ry="1" fill="#A78BFA" fill-opacity="0.471"/>
<rect x="130" y="76" width="10" height="10" rx="1" ry="1" fill="#E3DAFD" fill-opacity="0.178"/>
<rect x="121" y="114" width="11" height="11" rx="1" ry="1" fill="#E4DBFD" fill-opacity="0.176"/>
<rect x="262" y="268" width="9" height="9" rx="1" ry="1" fill="#D5C8FC" fill-opacity="0.242"/>
<rect x="180" y="121" width="8" height="8" rx="1" ry="1" fill="#DED4FD" fill-opacity="0.211"/>
<rect x="123" y="72" width="11" height="11" rx="1" ry="1" fill="#E3DBFD" fill-opacity="0.161"/>
<rect x="370" y="195" width="10" height="10" rx="1" ry="1" fill="#C9B8FB" fill-opacity="0.314"/>
<rect x="392" y="205" width="7" height="7" rx="1" ry="1" fill="#C7B5FB" fill-opacity="0.316"/>
<rect x="281" y="238" width="11" height="11" rx="1" ry="1" fill="#D3C6FC" fill-opacity="0.284"/>
<rect x="407" y="90" width="11" height="11" rx="1" ry="1" fill="#C5B3FB" fill-opacity="0.315"/>
<rect x="242" y="208" width="11" height="11" rx="1" ry="1" fill="#D7CBFC" fill-opacity="0.258"/>
<rect x="268" y="229" width="11" height="11" rx="1" ry="1" fill="#D5C7FC" fill-opacity="0.283"/>
<rect x="512" y="49" width="6" height="6" rx="1" ry="1" fill="#B8A2FB" fill-opacity="0.390"/>
<rect x="235" y="233" width="11" height="11" rx="1" ry="1" fill="#D8CCFC" fill-opacity="0.221"/>
<rect x="650" y="115" width="7" height="7" rx="1" ry="1" fill="#A78BFA" fill-opacity="0.481"/>
<rect x="669" y="37" width="8" height="8" rx="1" ry="1" fill="#A78BFA" fill-opacity="0.456"/>
<rect x="654" y="248" width="6" height="6" rx="1" ry="1" fill="#A78BFA" fill-opacity="0.575"/>
<rect x="451" y="153" width="11" height="11" rx="1" ry="1" fill="#C0ACFB" fill-opacity="0.421"/>
<rect x="145" y="22" width="10" height="10" rx="1" ry="1" fill="#E1D8FD" fill-opacity="0.194"/>
<rect x="608" y="91" width="10" height="10" rx="1" ry="1" fill="#AC92FA" fill-opacity="0.479"/>
<rect x="602" y="121" width="8" height="8" rx="1" ry="1" fill="#AD93FA" fill-opacity="0.542"/>
<rect x="561" y="235" width="10" height="10" rx="1" ry="1" fill="#B29AFA" fill-opacity="0.436"/>
<rect x="108" y="234" width="11" height="11" rx="1" ry="1" fill="#E5DDFD" fill-opacity="0.165"/>
<rect x="2" y="209" width="10" height="10" rx="1" ry="1" fill="#EDE7FD" fill-opacity="0.101"/>
<rect x="540" y="175" width="10" height="10" rx="1" ry="1" fill="#B59DFA" fill-opacity="0.477"/>
<rect x="172" y="186" width="6" height="6" rx="1" ry="1" fill="#DFD5FD" fill-opacity="0.204"/>
<rect x="107" y="262" width="11" height="11" rx="1" ry="1" fill="#E5DDFD" fill-opacity="0.153"/>
<rect x="676" y="190" width="8" height="8" rx="1" ry="1" fill="#A78BFA" fill-opacity="0.563"/>
<rect x="655" y="205" width="11" height="11" rx="1" ry="1" fill="#A78BFA" fill-opacity="0.586"/>
<rect x="652" y="47" width="11" height="11" rx="1" ry="1" fill="#A78BFA" fill-opacity="0.464"/>
<rect x="439" y="15" width="9" height="9" rx="1" ry="1" fill="#C1AEFB" fill-opacity="0.394"/>
<rect x="471" y="25" width="11" height="11" rx="1" ry="1" fill="#BDA9FB" fill-opacity="0.346"/>
<rect x="569" y="104" width="7" height="7" rx="1" ry="1" fill="#B199FA" fill-opacity="0.478"/>
<rect x="576" y="66" width="6" height="6" rx="1" ry="1" fill="#B097FA" fill-opacity="0.434"/>
<rect x="172" y="203" width="6" height="6" rx="1" ry="1" fill="#DFD5FD" fill-opacity="0.197"/>
<rect x="583" y="250" width="7" height="7" rx="1" ry="1" fill="#AF96FA" fill-opacity="0.410"/>
<rect x="518" y="33" width="10" height="10" rx="1" ry="1" fill="#B8A1FA" fill-opacity="0.468"/>
<rect x="647" y="138" width="10" height="10" rx="1" ry="1" fill="#A78BFA" fill-opacity="0.587"/>
<rect x="467" y="114" width="8" height="8" rx="1" ry="1" fill="#BEA9FB" fill-opacity="0.370"/>
<rect x="567" y="216" width="11" height="11" rx="1" ry="1" fill="#B199FA" fill-opacity="0.477"/>
<rect x="416" y="208" width="11" height="11" rx="1" ry="1" fill="#C4B1FB" fill-opacity="0.334"/>
<rect x="641" y="75" width="10" height="10" rx="1" ry="1" fill="#957CDE" fill-opacity="0.496"/>
<rect x="386" y="25" width="6" height="6" rx="1" ry="1" fill="#C7B6FB" fill-opacity="0.304"/>
<rect x="472" y="103" width="7" height="7" rx="1" ry="1" fill="#BDA8FB" fill-opacity="0.375"/>
<rect x="331" y="2" width="6" height="6" rx="1" ry="1" fill="#CEBEFC" fill-opacity="0.313"/>
<rect x="129" y="184" width="9" height="9" rx="1" ry="1" fill="#E3DAFD" fill-opacity="0.168"/>
<rect x="630" y="216" width="10" height="10" rx="1" ry="1" fill="#A98EFA" fill-opacity="0.500"/>
<rect x="539" y="145" width="8" height="8" rx="1" ry="1" fill="#B59EFA" fill-opacity="0.433"/>
<rect x="421" y="88" width="10" height="10" rx="1" ry="1" fill="#C3B0FB" fill-opacity="0.346"/>
<rect x="703" y="40" width="10" height="10" rx="1" ry="1" fill="#A78BFA" fill-opacity="0.592"/>
<rect x="500" y="153" width="7" height="7" rx="1" ry="1" fill="#BAA4FB" fill-opacity="0.358"/>
<rect x="638" y="130" width="6" height="6" rx="1" ry="1" fill="#A88DFA" fill-opacity="0.503"/>
<rect x="586" y="26" width="10" height="10" rx="1" ry="1" fill="#AF96FA" fill-opacity="0.449"/>
<rect x="492" y="216" width="9" height="9" rx="1" ry="1" fill="#BBA5FB" fill-opacity="0.436"/>
<rect x="499" y="195" width="9" height="9" rx="1" ry="1" fill="#BAA4FB" fill-opacity="0.452"/>
<rect x="362" y="178" width="11" height="11" rx="1" ry="1" fill="#CABAFC" fill-opacity="0.336"/>
<rect x="346" y="265" width="10" height="10" rx="1" ry="1" fill="#CCBCFC" fill-opacity="0.280"/>
<rect x="415" y="95" width="11" height="11" rx="1" ry="1" fill="#C4B1FB" fill-opacity="0.342"/>
<rect x="351" y="53" width="9" height="9" rx="1" ry="1" fill="#CBBBFC" fill-opacity="0.315"/>
<rect x="458" y="227" width="10" height="10" rx="1" ry="1" fill="#BFABFB" fill-opacity="0.434"/>
<rect x="616" y="65" width="8" height="8" rx="1" ry="1" fill="#AB91FA" fill-opacity="0.536"/>
<rect x="228" y="215" width="9" height="9" rx="1" ry="1" fill="#D9CDFC" fill-opacity="0.241"/>
<rect x="483" y="271" width="10" height="10" rx="1" ry="1" fill="#BCA7FB" fill-opacity="0.433"/>
<rect x="619" y="5" width="7" height="7" rx="1" ry="1" fill="#AB90FA" fill-opacity="0.441"/>
<rect x="354" y="6" width="11" height="11" rx="1" ry="1" fill="#CBBBFC" fill-opacity="0.296"/>
<rect x="694" y="86" width="11" height="11" rx="1" ry="1" fill="#A78BFA" fill-opacity="0.512"/>
<rect x="660" y="143" width="9" height="9" rx="1" ry="1" fill="#A78BFA" fill-opacity="0.588"/>
<rect x="187" y="220" width="9" height="9" rx="1" ry="1" fill="#DDD3FD" fill-opacity="0.213"/>
<rect x="388" y="185" width="9" height="9" rx="1" ry="1" fill="#C7B6FB" fill-opacity="0.316"/>
<rect x="449" y="8" width="11" height="11" rx="1" ry="1" fill="#C0ACFB" fill-opacity="0.425"/>
<rect x="689" y="39" width="6" height="6" rx="1" ry="1" fill="#A78BFA" fill-opacity="0.518"/>
<rect x="517" y="222" width="7" height="7" rx="1" ry="1" fill="#957CDE" fill-opacity="0.376"/>
<rect x="385" y="231" width="9" height="9" rx="1" ry="1" fill="#C8B6FB" fill-opacity="0.356"/>
<rect x="303" y="260" width="8" height="8" rx="1" ry="1" fill="#D1C2FC" fill-opacity="0.292"/>
<rect x="574" y="242" width="8" height="8" rx="1" ry="1" fill="#B198FA" fill-opacity="0.488"/>
<rect x="537" y="127" width="11" height="11" rx="1" ry="1" fill="#B59EFA" fill-opacity="0.480"/>
<rect x="710" y="268" width="6" height="6" rx="1" ry="1" fill="#957CDE" fill-opacity="0.480"/>
<rect x="367" y="94" width="11" height="11" rx="1" ry="1" fill="#CAB9FB" fill-opacity="0.285"/>
<rect x="228" y="120" width="6" height="6" rx="1" ry="1" fill="#D9CDFC" fill-opacity="0.230"/>
<rect x="319" y="94" width="10" height="10" rx="1" ry="1" fill="#CFC0FC" fill-opacity="0.264"/>
<rect x="247" y="140" width="6" height="6" rx="1" ry="1" fill="#D7CAFC" fill-opacity="0.243"/>
<rect x="209" y="63" width="11" height="11" rx="1" ry="1" fill="#DBD0FC" fill-opacity="0.226"/>
<rect x="138" y="224" width="8" height="8" rx="1" ry="1" fill="#E2D9FD" fill-opacity="0.176"/>
<rect x="479" y="60" width="9" height="9" rx="1" ry="1" fill="#BCA7FB" fill-opacity="0.396"/>
<rect x="599" y="89" width="10" height="10" rx="1" ry="1" fill="#AD94FA" fill-opacity="0.531"/>
<rect x="586" y="204" width="9" height="9" rx="1" ry="1" fill="#AF96FA" fill-opacity="0.426"/>
<rect x="230" y="235" width="9" height="9" rx="1" ry="1" fill="#D9CDFC" fill-opacity="0.245"/>
<rect x="383" y="194" width="10" height="10" rx="1" ry="1" fill="#C8B6FB" fill-opacity="0.323"/>
<rect x="252" y="213" width="8" height="8" rx="1" ry="1" fill="#D6CAFC" fill-opacity="0.269"/>
<rect x="18" y="165" width="11" height="11" rx="1" ry="1" fill="#ECE6FD" fill-opacity="0.108"/>
<rect x="658" y="85" width="10" height="10" rx="1" ry="1" fill="#A78BFA" fill-opacity="0.578"/>
<rect x="159" y="70" width="8" height="8" rx="1" ry="1" fill="#E0D6FD" fill-opacity="0.175"/>
<rect x="621" y="7" width="11" height="11" rx="1" ry="1" fill="#AB90FA" fill-opacity="0.552"/>
<rect x="386" y="253" width="10" height="10" rx="1" ry="1" fill="#C7B6FB" fill-opacity="0.375"/>
<rect x="150" y="89" width="6" height="6" rx="1" ry="1" fill="#E1D7FD" fill-opacity="0.188"/>
<rect x="46" y="132" width="8" height="8" rx="1" ry="1" fill="#EAE3FD" fill-opacity="0.125"/>
<rect x="168" y="237" width="9" height="9" rx="1" ry="1" fill="#DFD5FD" fill-opacity="0.205"/>
<rect x="275" y="255" width="11" height="11" rx="1" ry="1" fill="#D4C6FC" fill-opacity="0.286"/>
<rect x="631" y="53" width="6" height="6" rx="1" ry="1" fill="#A98EFA" fill-opacity="0.537"/>
<rect x="325" y="183" width="7" height="7" rx="1" ry="1" fill="#CEBFFC" fill-opacity="0.307"/>
<rect x="480" y="185" width="9" height="9" rx="1" ry="1" fill="#BCA7FB" fill-opacity="0.399"/>
<rect x="485" y="44" width="11" height="11" rx="1" ry="1" fill="#BCA6FB" fill-opacity="0.408"/>
<rect x="342" y="210" width="7" height="7" rx="1" ry="1" fill="#CCBDFC" fill-opacity="0.311"/>
<rect x="632" y="47" width="7" height="7" rx="1" ry="1" fill="#A98EFA" fill-opacity="0.454"/>
<rect x="482" y="57" width="6" height="6" rx="1" ry="1" fill="#BCA7FB" fill-opacity="0.400"/>
<rect x="7" y="220" width="7" height="7" rx="1" ry="1" fill="#EDE7FD" fill-opacity="0.103"/>
<rect x="577" y="264" width="8" height="8" rx="1" ry="1" fill="#B097FA" fill-opacity="0.489"/>
<rect x="319" y="128" width="7" height="7" rx="1" ry="1" fill="#CFC0FC" fill-opacity="0.263"/>
<rect x="471" y="12" width="6" height="6" rx="1" ry="1" fill="#BDA9FB" fill-opacity="0.419"/>
<rect x="684" y="213" width="7" height="7" rx="1" ry="1" fill="#A78BFA" fill-opacity="0.483"/>
<rect x="695" y="240" width="9" height="9" rx="1" ry="1" fill="#A78BFA" fill-opacity="0.503"/>
<rect x="272" y="48" width="8" height="8" rx="1" ry="1" fill="#D4C7FC" fill-opacity="0.252"/>
<rect x="498" y="272" width="8" height="8" rx="1" ry="1" fill="#BAA4FB" fill-opacity="0.415"/>
<rect x="559" y="171" width="8" height="8" rx="1" ry="1" fill="#B29AFA" fill-opacity="0.510"/>
<rect x="586" y="197" width="8" height="8" rx="1" ry="1" fill="#AF96FA" fill-opacity="0.516"/>
<rect x="468" y="54" width="7" height="7" rx="1" ry="1" fill="#BEA9FB" fill-opacity="0.365"/>
<rect x="424" y="52" width="8" height="8" rx="1" ry="1" fill="#C3B0FB" fill-opacity="0.338"/>
<rect x="634" y="30" width="6" height="6" rx="1" ry="1" fill="#A98EFA" fill-opacity="0.441"/>
<rect x="354" y="38" width="8" height="8" rx="1" ry="1" fill="#CBBBFC" fill-opacity="0.349"/>
<rect x="614" y="185" width="9" height="9" rx="1" ry="1" fill="#AB91FA" fill-opacity="0.427"/>
<rect x="528" y="139" width="10" height="10" rx="1" ry="1" fill="#B69FFA" fill-opacity="0.375"/>
<rect x="358" y="223" width="10" height="10" rx="1" ry="1" fill="#CBBAFC" fill-opacity="0.312"/>
<rect x="535" y="196" width="7" height="7" rx="1" ry="1" fill="#B59EFA" fill-opacity="0.394"/>
<rect x="663" y="74" width="9" height="9" rx="1" ry="1" fill="#A78BFA" fill-opacity="0.544"/>
<rect x="90" y="105" width="7" height="7" rx="1" ry="1" fill="#E6DFFD" fill-opacity="0.143"/>
<rect x="274" y="135" width="6" height="6" rx="1" ry="1" fill="#D4C7FC" fill-opacity="0.235"/>
<rect x="678" y="104" width="8" height="8" rx="1" ry="1" fill="#A78BFA" fill-opacity="0.605"/>
<rect x="450" y="171" width="7" height="7" rx="1" ry="1" fill="#C0ACFB" fill-opacity="0.382"/>
<rect x="566" y="106" width="9" height="9" rx="1" ry="1" fill="#B299FA" fill-opacity="0.466"/>
<rect x="382" y="181" width="7" height="7" rx="1" ry="1" fill="#C8B7FB" fill-opacity="0.329"/>
<rect x="620" y="252" width="11" height="11" rx="1" ry="1" fill="#AB90FA" fill-opacity="0.547"/>
<rect x="116" y="177" width="10" height="10" rx="1" ry="1" fill="#E4DCFD" fill-opacity="0.159"/>
<rect x="675" y="202" width="9" height="9" rx="1" ry="1" fill="#A78BFA" fill-opacity="0.531"/>
<rect x="280" y="222" width="7" height="7" rx="1" ry="1" fill="#D3C6FC" fill-opacity="0.275"/>
<rect x="250" y="232" width="10" height="10" rx="1" ry="1" fill="#D7CAFC" fill-opacity="0.241"/>
<rect x="657" y="250" width="8" height="8" rx="1" ry="1" fill="#A78BFA" fill-opacity="0.515"/>
<rect x="523" y="57" width="11" height="11" rx="1" ry="1" fill="#B7A0FA" fill-opacity="0.486"/>
<rect x="385" y="212" width="11" height="11" rx="1" ry="1" fill="#C8B6FB" fill-opacity="0.345"/>
<rect x="142" y="250" width="6" height="6" rx="1" ry="1" fill="#E2D8FD" fill-opacity="0.171"/>
<rect x="658" y="98" width="7" height="7" rx="1" ry="1" fill="#A78BFA" fill-opacity="0.451"/>
<rect x="543" y="181" width="6" height="6" rx="1" ry="1" fill="#B49DFA" fill-opacity="0.466"/>
<rect x="269" y="123" width="7" height="7" rx="1" ry="1" fill="#D5C7FC" fill-opacity="0.232"/>
<rect x="319" y="255" width="9" height="9" rx="1" ry="1" fill="#CFC0FC" fill-opacity="0.263"/>
<rect x="506" y="128" width="6" height="6" rx="1" ry="1" fill="#B9A3FB" fill-opacity="0.472"/>
<rect x="592" y="222" width="9" height="9" rx="1" ry="1" fill="#957CDE" fill-opacity="0.451"/>
<rect x="514" y="91" width="7" height="7" rx="1" ry="1" fill="#B8A2FA" fill-opacity="0.383"/>
<rect x="338" y="184" width="8" height="8" rx="1" ry="1" fill="#CDBDFC" fill-opacity="0.282"/>
<rect x="471" y="141" width="7" height="7" rx="1" ry="1" fill="#BDA9FB" fill-opacity="0.362"/>
<rect x="711" y="142" width="9" height="9" rx="1" ry="1" fill="#A78BFA" fill-opacity="0.586"/>
<rect x="705" y="152" width="7" height="7" rx="1" ry="1" fill="#957CDE" fill-opacity="0.630"/>
<rect x="631" y="14" width="10" height="10" rx="1" ry="1" fill="#A98EFA" fill-opacity="0.487"/>
<rect x="266" y="71" width="11" height="11" rx="1" ry="1" fill="#D5C8FC" fill-opacity="0.262"/>
<rect x="41" y="45" width="11" height="11" rx="1" ry="1" fill="#EAE4FD" fill-opacity="0.117"/>
<rect x="388" y="47" width="7" height="7" rx="1" ry="1" fill="#C7B6FB" fill-opacity="0.314"/>
<rect x="556" y="151" width="11" height="11" rx="1" ry="1" fill="#B39BFA" fill-opacity="0.483"/>
<rect x="613" y="231" width="8" height="8" rx="1" ry="1" fill="#AC91FA" fill-opacity="0.500"/>
<rect x="210" y="177" width="10" height="10" rx="1" ry="1" fill="#DBD0FC" fill-opacity="0.223"/>
<rect x="699" y="215" width="9" height="9" rx="1" ry="1" fill="#A78BFA" fill-opacity="0.590"/>
<rect x="132" y="157" width="9" height="9" rx="1" ry="1" fill="#E3DAFD" fill-opacity="0.166"/>
<rect x="121" y="145" width="11" height="11" rx="1" ry="1" fill="#E4DBFD" fill-opacity="0.155"/>
<rect x="330" y="186" width="10" height="10" rx="1" ry="1" fill="#CEBEFC" fill-opacity="0.280"/>
<rect x="558" y="204" width="9" height="9" rx="1" ry="1" fill="#B39AFA" fill-opacity="0.458"/>
<rect x="489" y="183" width="10" height="10" rx="1" ry="1" fill="#BBA6FB" fill-opacity="0.353"/>
<rect x="77" y="260" width="7" height="7" rx="1" ry="1" fill="#E7E0FD" fill-opacity="0.143"/>
<rect x="683" y="222" width="10" height="10" rx="1" ry="1" fill="#A78BFA" fill-opacity="0.496"/>
<rect x="380" y="49" width="10" height="10" rx="1" ry="1" fill="#C8B7FB" fill-opacity="0.295"/>
<rect x="512" y="56" width="8" height="8" rx="1" ry="1" fill="#B8A2FB" fill-opacity="0.367"/>
<rect x="386" y="200" width="8" height="8" rx="1" ry="1" fill="#C7B6FB" fill-opacity="0.307"/>
<rect x="709" y="43" width="7" height="7" rx="1" ry="1" fill="#A78BFA" fill-opacity="0.575"/>
<rect x="624" y="53" width="6" height="6" rx="1" ry="1" fill="#AA8FFA" fill-opacity="0.444"/>
<rect x="660" y="77" width="8" height="8" rx="1" ry="1" fill="#A78BFA" fill-opacity="0.551"/>
<rect x="597" y="174" width="11" height="11" rx="1" ry="1" fill="#AE94FA" fill-opacity="0.431"/>
<rect x="530" y="168" width="6" height="6" rx="1" ry="1" fill="#B69FFA" fill-opacity="0.401"/>
<rect x="565" y="21" width="11" height="11" rx="1" ry="1" fill="#B299FA" fill-opacity="0.475"/>
<rect x="511" y="170" width="6" height="6" rx="1" ry="1" fill="#B8A2FB" fill-opacity="0.439"/>
<rect x="675" y="45" width="6" height="6" rx="1" ry="1" fill="#A78BFA" fill-opacity="0.511"/>
<rect x="427" y="27" width="7" height="7" rx="1" ry="1" fill="#C3B0FB" fill-opacity="0.392"/>
<rect x="271" y="25" width="8" height="8" rx="1" ry="1" fill="#D4C7FC" fill-opacity="0.240"/>
<rect x="179" y="42" width="10" height="10" rx="1" ry="1" fill="#DED4FD" fill-opacity="0.202"/>
<rect x="445" y="174" width="11" height="11" rx="1" ry="1" fill="#C0ADFB" fill-opacity="0.339"/>
<rect x="412" y="256" width="7" height="7" rx="1" ry="1" fill="#C4B2FB" fill-opacity="0.323"/>
<rect x="365" y="91" width="11" height="11" rx="1" ry="1" fill="#CAB9FC" fill-opacity="0.338"/>
<rect x="691" y="118" width="10" height="10" rx="1" ry="1" fill="#A78BFA" fill-opacity="0.551"/>
<rect x="361" y="33" width="6" height="6" rx="1" ry="1" fill="#CABAFC" fill-opacity="0.337"/>
<rect x="47" y="140" width="11" height="11" rx="1" ry="1" fill="#EAE3FD" fill-opacity="0.125"/>
<rect x="576" y="114" width="7" height="7" rx="1" ry="1" fill="#B097FA" fill-opacity="0.455"/>
<rect x="426" y="257" width="11" height="11" rx="1" ry="1" fill="#C3B0FB" fill-opacity="0.380"/>
<rect x="340" y="58" width="6" height="6" rx="1" ry="1" fill="#CDBDFC" fill-opacity="0.281"/>
<rect x="437" y="107" width="11" height="11" rx="1" ry="1" fill="#C1AEFB" fill-opacity="0.388"/>
<rect x="630" y="218" width="7" height="7" rx="1" ry="1" fill="#A98EFA" fill-opacity="0.544"/>
<rect x="440" y="249" width="7" height="7" rx="1" ry="1" fill="#C1ADFB" fill-opacity="0.411"/>
<rect x="538" y="121" width="8" height="8" rx="1" ry="1" fill="#B59EFA" fill-opacity="0.485"/>
<rect x="663" y="129" width="8" height="8" rx="1" ry="1" fill="#A78BFA" fill-opacity="0.596"/>
<rect x="178" y="252" width="7" height="7" rx="1" ry="1" fill="#DED4FD" fill-opacity="0.195"/>
<rect x="460" y="243" width="10" height="10" rx="1" ry="1" fill="#BFAAFB" fill-opacity="0.403"/>
<rect x="250" y="184" width="6" height="6" rx="1" ry="1" fill="#D7CAFC" fill-opacity="0.232"/>
<rect x="393" y="203" width="11" height="11" rx="1" ry="1" fill="#C7B5FB" fill-opacity="0.303"/>
<rect x="143" y="108" width="9" height="9" rx="1" ry="1" fill="#E2D8FD" fill-opacity="0.184"/>
<rect x="399" y="79" width="7" height="7" rx="1" ry="1" fill="#C6B4FB" fill-opacity="0.386"/>
<rect x="178" y="124" width="7" height="7" rx="1" ry="1" fill="#DED4FD" fill-opacity="0.194"/>
<rect x="238" y="190" width="10" height="10" rx="1" ry="1" fill="#D8CCFC" fill-opacity="0.260"/>
<rect x="402" y="75" width="8" height="8" rx="1" ry="1" fill="#C6B3FB" fill-opacity="0.348"/>
<rect x="625" y="64" width="9" height="9" rx="1" ry="1" fill="#AA8FFA" fill-opacity="0.547"/>
<rect x="655" y="14" width="7" height="7" rx="1" ry="1" fill="#A78BFA" fill-opacity="0.589"/>
<rect x="288" y="188" width="6" height="6" rx="1" ry="1" fill="#D3C5FC" fill-opacity="0.289"/>
<rect x="612" y="4" width="8" height="8" rx="1" ry="1" fill="#AC91FA" fill-opacity="0.429"/>
<rect x="713" y="151" width="9" height="9" rx="1" ry="1" fill="#A78BFA" fill-opacity="0.530"/>
<rect x="449" y="247" width="7" height="7" rx="1" ry="1" fill="#C0ACFB" fill-opacity="0.332"/>
<rect x="660" y="0" width="60" height="280" fill="url(#edgeGlow)"/>
</svg>