<svg xmlns="http://www.w3.org/2000/svg" width="720" height="280" viewBox="0 0 720 280">
      <defs>
        <radialGradient id="vignette" cx="50%" cy="50%" r="75%">
          <stop offset="0%" stop-color="#ffffff" stop-opacity="1"/>
          <stop offset="100%" stop-color="#ffffff" stop-opacity="0.7"/>
        </radialGradient>
        <linearGradient id="edgeGlow" x1="0%" y1="0%" x2="100%" y2="0%">
          <stop offset="0%" stop-color="#ffffff" stop-opacity="0"/>
          <stop offset="100%" stop-color="#ffffff" stop-opacity="0.45"/>
        </linearGradient>
      </defs>
    <rect x="0" y="0" width="720" height="280" fill="url(#vignette)"/>
<rect x="637" y="146" width="8" height="8" rx="1" ry="1" fill="#FB9440" fill-opacity="0.575"/>
<rect x="630" y="261" width="7" height="7" rx="1" ry="1" fill="#FB9542" fill-opacity="0.498"/>
<rect x="707" y="1" width="6" height="6" rx="1" ry="1" fill="#FB923C" fill-opacity="0.624"/>
<rect x="194" y="54" width="11" height="11" rx="1" ry="1" fill="#FDD4B3" fill-opacity="0.214"/>
<rect x="584" y="146" width="8" height="8" rx="1" ry="1" fill="#FB9C4F" fill-opacity="0.422"/>
<rect x="23" y="99" width="8" height="8" rx="1" ry="1" fill="#FEE7D5" fill-opacity="0.112"/>
<rect x="547" y="184" width="8" height="8" rx="1" ry="1" fill="#FBA259" fill-opacity="0.432"/>
<rect x="579" y="21" width="6" height="6" rx="1" ry="1" fill="#FB9D50" fill-opacity="0.488"/>
<rect x="637" y="44" width="11" height="11" rx="1" ry="1" fill="#FB9440" fill-opacity="0.565"/>
<rect x="250" y="116" width="7" height="7" rx="1" ry="1" fill="#FDCDA6" fill-opacity="0.262"/>
<rect x="523" y="174" width="9" height="9" rx="1" ry="1" fill="#FBA660" fill-opacity="0.446"/>
<rect x="665" y="68" width="11" height="11" rx="1" ry="1" fill="#FB923C" fill-opacity="0.585"/>
<rect x="602" y="5" width="9" height="9" rx="1" ry="1" fill="#FB9A4A" fill-opacity="0.463"/>
<rect x="284" y="202" width="11" height="11" rx="1" ry="1" fill="#FDC99E" fill-opacity="0.292"/>
<rect x="515" y="44" width="10" height="10" rx="1" ry="1" fill="#FBA762" fill-opacity="0.477"/>
<rect x="674" y="172" width="8" height="8" rx="1" ry="1" fill="#FB923C" fill-opacity="0.461"/>
<rect x="403" y="6" width="8" height="8" rx="1" ry="1" fill="#FCB880" fill-opacity="0.361"/>
<rect x="371" y="218" width="7" height="7" rx="1" ry="1" fill="#FCBC88" fill-opacity="0.334"/>
<rect x="84" y="129" width="9" height="9" rx="1" ry="1" fill="#FDE1CA" fill-opacity="0.140"/>
<rect x="68" y="174" width="8" height="8" rx="1" ry="1" fill="#FDE3CD" fill-opacity="0.137"/>
<rect x="475" y="248" width="9" height="9" rx="1" ry="1" fill="#FCAD6D" fill-opacity="0.425"/>
<rect x="320" y="51" width="11" height="11" rx="1" ry="1" fill="#FCC495" fill-opacity="0.289"/>
<rect x="336" y="243" width="8" height="8" rx="1" ry="1" fill="#FCC191" fill-opacity="0.309"/>
<rect x="417" y="31" width="10" height="10" rx="1" ry="1" fill="#FCB67C" fill-opacity="0.318"/>
<rect x="590" y="65" width="7" height="7" rx="1" ry="1" fill="#FB9B4D" fill-opacity="0.525"/>
<rect x="569" y="5" width="11" height="11" rx="1" ry="1" fill="#FB9F53" fill-opacity="0.449"/>
<rect x="519" y="173" width="8" height="8" rx="1" ry="1" fill="#FBA661" fill-opacity="0.454"/>
<rect x="674" y="266" width="6" height="6" rx="1" ry="1" fill="#FB923C" fill-opacity="0.472"/>
<rect x="210" y="150" width="9" height="9" rx="1" ry="1" fill="#FDD2AF" fill-opacity="0.226"/>
<rect x="543" y="156" width="9" height="9" rx="1" ry="1" fill="#FBA35A" fill-opacity="0.425"/>
<rect x="615" y="127" width="7" height="7" rx="1" ry="1" fill="#FB9846" fill-opacity="0.509"/>
<rect x="230" y="52" width="11" height="11" rx="1" ry="1" fill="#FDD0AB" fill-opacity="0.227"/>
<rect x="717" y="232" width="8" height="8" rx="1" ry="1" fill="#DE8236" fill-opacity="0.569"/>
<rect x="353" y="64" width="6" height="6" rx="1" ry="1" fill="#FCBF8D" fill-opacity="0.288"/>
<rect x="583" y="75" width="7" height="7" rx="1" ry="1" fill="#FB9D4F" fill-opacity="0.509"/>
<rect x="688" y="83" width="10" height="10" rx="1" ry="1" fill="#FB923C" fill-opacity="0.606"/>
<rect x="268" y="43" width="10" height="10" rx="1" ry="1" fill="#FDCBA2" fill-opacity="0.264"/>
<rect x="583" y="8" width="8" height="8" rx="1" ry="1" fill="#FB9D4F" fill-opacity="0.420"/>
<rect x="105" y="103" width="10" height="10" rx="1" ry="1" fill="#FDDFC6" fill-opacity="0.148"/>
<rect x="385" y="34" width="8" height="8" rx="1" ry="1" fill="#FCBA85" fill-opacity="0.307"/>
<rect x="693" y="61" width="11" height="11" rx="1" ry="1" fill="#DE8236" fill-opacity="0.539"/>
<rect x="274" y="190" width="11" height="11" rx="1" ry="1" fill="#FDCAA0" fill-opacity="0.288"/>
<rect x="632" y="28" width="8" height="8" rx="1" ry="1" fill="#FB9541" fill-opacity="0.491"/>
<rect x="632" y="70" width="6" height="6" rx="1" ry="1" fill="#FB9541" fill-opacity="0.501"/>
<rect x="65" y="27" width="6" height="6" rx="1" ry="1" fill="#FDE3CE" fill-opacity="0.128"/>
<rect x="663" y="211" width="8" height="8" rx="1" ry="1" fill="#FB923C" fill-opacity="0.545"/>
<rect x="466" y="53" width="9" height="9" rx="1" ry="1" fill="#FCAE6F" fill-opacity="0.407"/>
<rect x="426" y="148" width="7" height="7" rx="1" ry="1" fill="#FCB47A" fill-opacity="0.385"/>
<rect x="410" y="141" width="6" height="6" rx="1" ry="1" fill="#FCB77E" fill-opacity="0.310"/>
<rect x="292" y="216" width="8" height="8" rx="1" ry="1" fill="#FCC79C" fill-opacity="0.264"/>
<rect x="627" y="106" width="11" height="11" rx="1" ry="1" fill="#FB9643" fill-opacity="0.437"/>
<rect x="566" y="180" width="10" height="10" rx="1" ry="1" fill="#FB9F54" fill-opacity="0.423"/>
<rect x="241" y="85" width="6" height="6" rx="1" ry="1" fill="#FDCEA8" fill-opacity="0.262"/>
<rect x="570" y="158" width="7" height="7" rx="1" ry="1" fill="#FB9F53" fill-opacity="0.446"/>
<rect x="195" y="134" width="8" height="8" rx="1" ry="1" fill="#FDD4B3" fill-opacity="0.195"/>
<rect x="648" y="17" width="7" height="7" rx="1" ry="1" fill="#FB923D" fill-opacity="0.559"/>
<rect x="307" y="112" width="10" height="10" rx="1" ry="1" fill="#FCC598" fill-opacity="0.261"/>
<rect x="361" y="225" width="6" height="6" rx="1" ry="1" fill="#FCBE8B" fill-opacity="0.298"/>
<rect x="501" y="177" width="7" height="7" rx="1" ry="1" fill="#FBA966" fill-opacity="0.425"/>
<rect x="349" y="39" width="11" height="11" rx="1" ry="1" fill="#FCC08E" fill-opacity="0.301"/>
<rect x="188" y="206" width="11" height="11" rx="1" ry="1" fill="#FDD5B4" fill-opacity="0.222"/>
<rect x="408" y="180" width="6" height="6" rx="1" ry="1" fill="#FCB77F" fill-opacity="0.375"/>
<rect x="504" y="22" width="6" height="6" rx="1" ry="1" fill="#FBA965" fill-opacity="0.364"/>
<rect x="443" y="149" width="7" height="7" rx="1" ry="1" fill="#FCB276" fill-opacity="0.329"/>
<rect x="153" y="104" width="11" height="11" rx="1" ry="1" fill="#FDD9BC" fill-opacity="0.186"/>
<rect x="492" y="18" width="7" height="7" rx="1" ry="1" fill="#FBAB68" fill-opacity="0.412"/>
<rect x="607" y="17" width="7" height="7" rx="1" ry="1" fill="#FB9949" fill-opacity="0.455"/>
<rect x="497" y="189" width="9" height="9" rx="1" ry="1" fill="#FBAA67" fill-opacity="0.395"/>
<rect x="613" y="97" width="11" height="11" rx="1" ry="1" fill="#FB9847" fill-opacity="0.556"/>
<rect x="709" y="93" width="11" height="11" rx="1" ry="1" fill="#FB923C" fill-opacity="0.481"/>
<rect x="375" y="191" width="9" height="9" rx="1" ry="1" fill="#FCBC87" fill-opacity="0.345"/>
<rect x="451" y="114" width="9" height="9" rx="1" ry="1" fill="#FCB173" fill-opacity="0.422"/>
<rect x="409" y="187" width="7" height="7" rx="1" ry="1" fill="#FCB77E" fill-opacity="0.372"/>
<rect x="256" y="93" width="11" height="11" rx="1" ry="1" fill="#FDCCA5" fill-opacity="0.260"/>
<rect x="375" y="73" width="7" height="7" rx="1" ry="1" fill="#DE8236" fill-opacity="0.326"/>
<rect x="603" y="157" width="8" height="8" rx="1" ry="1" fill="#FB994A" fill-opacity="0.515"/>
<rect x="216" y="10" width="8" height="8" rx="1" ry="1" fill="#FDD2AE" fill-opacity="0.218"/>
<rect x="600" y="27" width="11" height="11" rx="1" ry="1" fill="#FB9A4A" fill-opacity="0.525"/>
<rect x="34" y="245" width="9" height="9" rx="1" ry="1" fill="#FEE6D3" fill-opacity="0.115"/>
<rect x="453" y="10" width="9" height="9" rx="1" ry="1" fill="#FCB073" fill-opacity="0.400"/>
<rect x="481" y="272" width="7" height="7" rx="1" ry="1" fill="#FBAC6B" fill-opacity="0.431"/>
<rect x="579" y="103" width="11" height="11" rx="1" ry="1" fill="#FB9D50" fill-opacity="0.520"/>
<rect x="55" y="144" width="10" height="10" rx="1" ry="1" fill="#FEE4CF" fill-opacity="0.131"/>
<rect x="165" y="41" width="11" height="11" rx="1" ry="1" fill="#FDD8BA" fill-opacity="0.180"/>
<rect x="478" y="44" width="7" height="7" rx="1" ry="1" fill="#FBAD6C" fill-opacity="0.407"/>
<rect x="308" y="271" width="9" height="9" rx="1" ry="1" fill="#FCC598" fill-opacity="0.266"/>
<rect x="587" y="235" width="10" height="10" rx="1" ry="1" fill="#FB9C4E" fill-opacity="0.491"/>
<rect x="304" y="51" width="11" height="11" rx="1" ry="1" fill="#FCC699" fill-opacity="0.255"/>
<rect x="588" y="198" width="11" height="11" rx="1" ry="1" fill="#FB9C4E" fill-opacity="0.494"/>
<rect x="607" y="99" width="6" height="6" rx="1" ry="1" fill="#FB9949" fill-opacity="0.525"/>
<rect x="396" y="161" width="9" height="9" rx="1" ry="1" fill="#FCB982" fill-opacity="0.345"/>
<rect x="371" y="5" width="10" height="10" rx="1" ry="1" fill="#FCBC88" fill-opacity="0.325"/>
<rect x="344" y="18" width="8" height="8" rx="1" ry="1" fill="#FCC08F" fill-opacity="0.299"/>
<rect x="644" y="61" width="8" height="8" rx="1" ry="1" fill="#FB933E" fill-opacity="0.461"/>
<rect x="594" y="112" width="6" height="6" rx="1" ry="1" fill="#FB9B4C" fill-opacity="0.432"/>
<rect x="105" y="119" width="9" height="9" rx="1" ry="1" fill="#FDDFC6" fill-opacity="0.157"/>
<rect x="418" y="127" width="9" height="9" rx="1" ry="1" fill="#FCB67C" fill-opacity="0.382"/>
<rect x="198" y="164" width="7" height="7" rx="1" ry="1" fill="#FDD4B2" fill-opacity="0.226"/>
<rect x="556" y="124" width="11" height="11" rx="1" ry="1" fill="#FBA157" fill-opacity="0.492"/>
<rect x="282" y="139" width="8" height="8" rx="1" ry="1" fill="#DE8236" fill-opacity="0.275"/>
<rect x="221" y="79" width="6" height="6" rx="1" ry="1" fill="#FDD1AD" fill-opacity="0.243"/>
<rect x="583" y="223" width="10" height="10" rx="1" ry="1" fill="#FB9D4F" fill-opacity="0.490"/>
<rect x="529" y="45" width="7" height="7" rx="1" ry="1" fill="#FBA55E" fill-opacity="0.489"/>
<rect x="637" y="60" width="7" height="7" rx="1" ry="1" fill="#FB9440" fill-opacity="0.502"/>
<rect x="632" y="55" width="6" height="6" rx="1" ry="1" fill="#FB9541" fill-opacity="0.513"/>
<rect x="538" y="15" width="10" height="10" rx="1" ry="1" fill="#FBA45C" fill-opacity="0.451"/>
<rect x="141" y="11" width="11" height="11" rx="1" ry="1" fill="#FDDBBF" fill-opacity="0.177"/>
<rect x="474" y="163" width="10" height="10" rx="1" ry="1" fill="#FCAD6D" fill-opacity="0.350"/>
<rect x="665" y="53" width="6" height="6" rx="1" ry="1" fill="#FB923C" fill-opacity="0.590"/>
<rect x="616" y="53" width="8" height="8" rx="1" ry="1" fill="#FB9746" fill-opacity="0.536"/>
<rect x="654" y="235" width="7" height="7" rx="1" ry="1" fill="#FB923C" fill-opacity="0.499"/>
<rect x="450" y="30" width="8" height="8" rx="1" ry="1" fill="#FCB174" fill-opacity="0.377"/>
<rect x="460" y="109" width="6" height="6" rx="1" ry="1" fill="#FCAF71" fill-opacity="0.417"/>
<rect x="79" y="253" width="7" height="7" rx="1" ry="1" fill="#FDE2CB" fill-opacity="0.145"/>
<rect x="301" y="113" width="8" height="8" rx="1" ry="1" fill="#FCC69A" fill-opacity="0.292"/>
<rect x="484" y="61" width="8" height="8" rx="1" ry="1" fill="#FBAC6B" fill-opacity="0.434"/>
<rect x="294" y="49" width="7" height="7" rx="1" ry="1" fill="#FCC79C" fill-opacity="0.251"/>
<rect x="167" y="51" width="6" height="6" rx="1" ry="1" fill="#FDD8B9" fill-opacity="0.205"/>
<rect x="173" y="184" width="6" height="6" rx="1" ry="1" fill="#DE8236" fill-opacity="0.212"/>
<rect x="354" y="133" width="11" height="11" rx="1" ry="1" fill="#FCBF8D" fill-opacity="0.350"/>
<rect x="654" y="164" width="7" height="7" rx="1" ry="1" fill="#FB923C" fill-opacity="0.556"/>
<rect x="251" y="234" width="9" height="9" rx="1" ry="1" fill="#FDCDA6" fill-opacity="0.242"/>
<rect x="669" y="150" width="10" height="10" rx="1" ry="1" fill="#FB923C" fill-opacity="0.523"/>
<rect x="464" y="70" width="10" height="10" rx="1" ry="1" fill="#FCAF70" fill-opacity="0.360"/>
<rect x="466" y="222" width="8" height="8" rx="1" ry="1" fill="#FCAE6F" fill-opacity="0.375"/>
<rect x="717" y="2" width="7" height="7" rx="1" ry="1" fill="#FB923C" fill-opacity="0.529"/>
<rect x="313" y="134" width="9" height="9" rx="1" ry="1" fill="#FCC597" fill-opacity="0.278"/>
<rect x="495" y="77" width="8" height="8" rx="1" ry="1" fill="#FBAA68" fill-opacity="0.377"/>
<rect x="687" y="64" width="7" height="7" rx="1" ry="1" fill="#FB923C" fill-opacity="0.581"/>
<rect x="376" y="81" width="11" height="11" rx="1" ry="1" fill="#FCBC87" fill-opacity="0.365"/>
<rect x="548" y="112" width="7" height="7" rx="1" ry="1" fill="#FBA259" fill-opacity="0.492"/>
<rect x="186" y="78" width="10" height="10" rx="1" ry="1" fill="#DE8236" fill-opacity="0.193"/>
<rect x="82" y="63" width="7" height="7" rx="1" ry="1" fill="#FDE1CB" fill-opacity="0.142"/>
<rect x="288" y="26" width="6" height="6" rx="1" ry="1" fill="#FDC89D" fill-opacity="0.266"/>
<rect x="88" y="266" width="11" height="11" rx="1" ry="1" fill="#FDE1C9" fill-opacity="0.145"/>
<rect x="627" y="130" width="8" height="8" rx="1" ry="1" fill="#FB9643" fill-opacity="0.500"/>
<rect x="459" y="218" width="7" height="7" rx="1" ry="1" fill="#FCB071" fill-opacity="0.411"/>
<rect x="607" y="195" width="9" height="9" rx="1" ry="1" fill="#FB9949" fill-opacity="0.523"/>
<rect x="362" y="2" width="7" height="7" rx="1" ry="1" fill="#FCBE8B" fill-opacity="0.287"/>
<rect x="622" y="249" width="9" height="9" rx="1" ry="1" fill="#FB9644" fill-opacity="0.429"/>
<rect x="103" y="117" width="7" height="7" rx="1" ry="1" fill="#FDDFC6" fill-opacity="0.150"/>
<rect x="628" y="99" width="9" height="9" rx="1" ry="1" fill="#DE8236" fill-opacity="0.434"/>
<rect x="238" y="219" width="9" height="9" rx="1" ry="1" fill="#FDCFA9" fill-opacity="0.256"/>
<rect x="494" y="247" width="7" height="7" rx="1" ry="1" fill="#DE8236" fill-opacity="0.462"/>
<rect x="334" y="68" width="11" height="11" rx="1" ry="1" fill="#FCC292" fill-opacity="0.319"/>
<rect x="57" y="234" width="9" height="9" rx="1" ry="1" fill="#FEE4CF" fill-opacity="0.133"/>
<rect x="590" y="158" width="11" height="11" rx="1" ry="1" fill="#FB9B4D" fill-opacity="0.422"/>
<rect x="709" y="86" width="9" height="9" rx="1" ry="1" fill="#FB923C" fill-opacity="0.529"/>
<rect x="357" y="125" width="10" height="10" rx="1" ry="1" fill="#FCBE8C" fill-opacity="0.299"/>
<rect x="263" y="243" width="9" height="9" rx="1" ry="1" fill="#FDCBA3" fill-opacity="0.262"/>
<rect x="396" y="180" width="9" height="9" rx="1" ry="1" fill="#FCB982" fill-opacity="0.374"/>
<rect x="459" y="171" width="7" height="7" rx="1" ry="1" fill="#FCB071" fill-opacity="0.400"/>
<rect x="622" y="259" width="9" height="9" rx="1" ry="1" fill="#FB9644" fill-opacity="0.461"/>
<rect x="299" y="118" width="7" height="7" rx="1" ry="1" fill="#FCC79A" fill-opacity="0.266"/>
<rect x="570" y="87" width="9" height="9" rx="1" ry="1" fill="#FB9F53" fill-opacity="0.515"/>
<rect x="208" y="251" width="7" height="7" rx="1" ry="1" fill="#FDD3B0" fill-opacity="0.202"/>
<rect x="386" y="111" width="7" height="7" rx="1" ry="1" fill="#FCBA84" fill-opacity="0.350"/>
<rect x="416" y="223" width="9" height="9" rx="1" ry="1" fill="#FCB67D" fill-opacity="0.398"/>
<rect x="339" y="26" width="8" height="8" rx="1" ry="1" fill="#FCC190" fill-opacity="0.307"/>
<rect x="612" y="186" width="8" height="8" rx="1" ry="1" fill="#FB9847" fill-opacity="0.509"/>
<rect x="479" y="258" width="8" height="8" rx="1" ry="1" fill="#FBAD6C" fill-opacity="0.439"/>
<rect x="115" y="229" width="10" height="10" rx="1" ry="1" fill="#FDDEC4" fill-opacity="0.163"/>
<rect x="630" y="163" width="6" height="6" rx="1" ry="1" fill="#FB9542" fill-opacity="0.527"/>
<rect x="107" y="267" width="11" height="11" rx="1" ry="1" fill="#FDDFC6" fill-opacity="0.157"/>
<rect x="249" y="88" width="9" height="9" rx="1" ry="1" fill="#FDCDA6" fill-opacity="0.226"/>
<rect x="549" y="260" width="10" height="10" rx="1" ry="1" fill="#FBA259" fill-opacity="0.446"/>
<rect x="203" y="256" width="9" height="9" rx="1" ry="1" fill="#FDD3B1" fill-opacity="0.222"/>
<rect x="491" y="137" width="8" height="8" rx="1" ry="1" fill="#FBAB69" fill-opacity="0.406"/>
<rect x="309" y="66" width="8" height="8" rx="1" ry="1" fill="#FCC598" fill-opacity="0.290"/>
<rect x="509" y="81" width="7" height="7" rx="1" ry="1" fill="#FBA864" fill-opacity="0.377"/>
<rect x="684" y="239" width="8" height="8" rx="1" ry="1" fill="#FB923C" fill-opacity="0.471"/>
<rect x="440" y="113" width="6" height="6" rx="1" ry="1" fill="#FCB276" fill-opacity="0.378"/>
<rect x="553" y="259" width="8" height="8" rx="1" ry="1" fill="#FBA158" fill-opacity="0.403"/>
<rect x="178" y="198" width="8" height="8" rx="1" ry="1" fill="#FDD6B7" fill-opacity="0.199"/>
<rect x="217" y="175" width="11" height="11" rx="1" ry="1" fill="#FDD1AE" fill-opacity="0.247"/>
<rect x="336" y="112" width="11" height="11" rx="1" ry="1" fill="#FCC191" fill-opacity="0.314"/>
<rect x="347" y="242" width="7" height="7" rx="1" ry="1" fill="#FCC08E" fill-opacity="0.313"/>
<rect x="383" y="90" width="11" height="11" rx="1" ry="1" fill="#FCBB85" fill-opacity="0.310"/>
<rect x="233" y="80" width="8" height="8" rx="1" ry="1" fill="#FDCFAA" fill-opacity="0.237"/>
<rect x="504" y="73" width="9" height="9" rx="1" ry="1" fill="#DE8236" fill-opacity="0.371"/>
<rect x="71" y="110" width="6" height="6" rx="1" ry="1" fill="#FDE3CD" fill-opacity="0.142"/>
<rect x="609" y="209" width="11" height="11" rx="1" ry="1" fill="#FB9848" fill-opacity="0.474"/>
<rect x="219" y="164" width="8" height="8" rx="1" ry="1" fill="#FDD1AD" fill-opacity="0.239"/>
<rect x="212" y="46" width="6" height="6" rx="1" ry="1" fill="#FDD2AF" fill-opacity="0.211"/>
<rect x="372" y="90" width="8" height="8" rx="1" ry="1" fill="#FCBC88" fill-opacity="0.326"/>
<rect x="349" y="196" width="6" height="6" rx="1" ry="1" fill="#FCC08E" fill-opacity="0.279"/>
<rect x="389" y="23" width="10" height="10" rx="1" ry="1" fill="#FCBA84" fill-opacity="0.354"/>
<rect x="613" y="22" width="7" height="7" rx="1" ry="1" fill="#FB9847" fill-opacity="0.494"/>
<rect x="231" y="134" width="11" height="11" rx="1" ry="1" fill="#FDD0AB" fill-opacity="0.257"/>
<rect x="407" y="76" width="10" height="10" rx="1" ry="1" fill="#FCB77F" fill-opacity="0.382"/>
<rect x="696" y="124" width="11" height="11" rx="1" ry="1" fill="#DE8236" fill-opacity="0.510"/>
<rect x="38" y="213" width="6" height="6" rx="1" ry="1" fill="#FEE6D2" fill-opacity="0.116"/>
<rect x="487" y="243" width="9" height="9" rx="1" ry="1" fill="#FBAB6A" fill-opacity="0.455"/>
<rect x="22" y="187" width="9" height="9" rx="1" ry="1" fill="#FEE7D5" fill-opacity="0.109"/>
<rect x="664" y="194" width="9" height="9" rx="1" ry="1" fill="#FB923C" fill-opacity="0.546"/>
<rect x="475" y="94" width="6" height="6" rx="1" ry="1" fill="#FCAD6D" fill-opacity="0.421"/>
<rect x="667" y="32" width="7" height="7" rx="1" ry="1" fill="#FB923C" fill-opacity="0.511"/>
<rect x="85" y="248" width="7" height="7" rx="1" ry="1" fill="#FDE1CA" fill-opacity="0.143"/>
<rect x="533" y="74" width="8" height="8" rx="1" ry="1" fill="#FBA45D" fill-opacity="0.450"/>
<rect x="560" y="142" width="9" height="9" rx="1" ry="1" fill="#FBA056" fill-opacity="0.490"/>
<rect x="580" y="38" width="6" height="6" rx="1" ry="1" fill="#DE8236" fill-opacity="0.422"/>
<rect x="518" y="46" width="10" height="10" rx="1" ry="1" fill="#FBA761" fill-opacity="0.442"/>
<rect x="712" y="6" width="7" height="7" rx="1" ry="1" fill="#FB923C" fill-opacity="0.543"/>
<rect x="676" y="66" width="6" height="6" rx="1" ry="1" fill="#FB923C" fill-opacity="0.508"/>
<rect x="501" y="75" width="7" height="7" rx="1" ry="1" fill="#FBA966" fill-opacity="0.398"/>
<rect x="553" y="60" width="6" height="6" rx="1" ry="1" fill="#FBA158" fill-opacity="0.447"/>
<rect x="331" y="47" width="8" height="8" rx="1" ry="1" fill="#FCC292" fill-opacity="0.325"/>
<rect x="647" y="103" width="10" height="10" rx="1" ry="1" fill="#FB923D" fill-opacity="0.559"/>
<rect x="38" y="180" width="9" height="9" rx="1" ry="1" fill="#FEE6D2" fill-opacity="0.120"/>
<rect x="137" y="256" width="11" height="11" rx="1" ry="1" fill="#FDDBC0" fill-opacity="0.178"/>
<rect x="626" y="248" width="8" height="8" rx="1" ry="1" fill="#FB9643" fill-opacity="0.496"/>
<rect x="416" y="110" width="6" height="6" rx="1" ry="1" fill="#FCB67D" fill-opacity="0.395"/>
<rect x="657" y="31" width="6" height="6" rx="1" ry="1" fill="#FB923C" fill-opacity="0.544"/>
<rect x="518" y="79" width="11" height="11" rx="1" ry="1" fill="#FBA761" fill-opacity="0.479"/>
<rect x="335" y="29" width="9" height="9" rx="1" ry="1" fill="#FCC291" fill-opacity="0.309"/>
<rect x="447" y="265" width="8" height="8" rx="1" ry="1" fill="#DE8236" fill-opacity="0.343"/>
<rect x="454" y="182" width="7" height="7" rx="1" ry="1" fill="#FCB073" fill-opacity="0.332"/>
<rect x="92" y="267" width="11" height="11" rx="1" ry="1" fill="#FDE0C9" fill-opacity="0.153"/>
<rect x="98" y="224" width="6" height="6" rx="1" ry="1" fill="#FDE0C7" fill-opacity="0.149"/>
<rect x="697" y="8" width="9" height="9" rx="1" ry="1" fill="#FB923C" fill-opacity="0.474"/>
<rect x="413" y="149" width="11" height="11" rx="1" ry="1" fill="#FCB67D" fill-opacity="0.330"/>
<rect x="163" y="25" width="10" height="10" rx="1" ry="1" fill="#FDD8BA" fill-opacity="0.207"/>
<rect x="646" y="52" width="10" height="10" rx="1" ry="1" fill="#FB933D" fill-opacity="0.448"/>
<rect x="689" y="96" width="8" height="8" rx="1" ry="1" fill="#FB923C" fill-opacity="0.500"/>
<rect x="647" y="105" width="7" height="7" rx="1" ry="1" fill="#FB923D" fill-opacity="0.581"/>
<rect x="617" y="264" width="11" height="11" rx="1" ry="1" fill="#FB9746" fill-opacity="0.508"/>
<rect x="188" y="63" width="6" height="6" rx="1" ry="1" fill="#FDD5B4" fill-opacity="0.221"/>
<rect x="269" y="67" width="6" height="6" rx="1" ry="1" fill="#FDCBA2" fill-opacity="0.241"/>
<rect x="672" y="43" width="6" height="6" rx="1" ry="1" fill="#FB923C" fill-opacity="0.542"/>
<rect x="331" y="18" width="8" height="8" rx="1" ry="1" fill="#FCC292" fill-opacity="0.308"/>
<rect x="656" y="99" width="6" height="6" rx="1" ry="1" fill="#FB923C" fill-opacity="0.518"/>
<rect x="315" y="176" width="6" height="6" rx="1" ry="1" fill="#FCC496" fill-opacity="0.302"/>
<rect x="286" y="145" width="11" height="11" rx="1" ry="1" fill="#FDC89E" fill-opacity="0.262"/>
<rect x="688" y="194" width="10" height="10" rx="1" ry="1" fill="#FB923C" fill-opacity="0.563"/>
<rect x="31" y="159" width="9" height="9" rx="1" ry="1" fill="#FEE6D3" fill-opacity="0.114"/>
<rect x="330" y="133" width="7" height="7" rx="1" ry="1" fill="#FCC293" fill-opacity="0.307"/>
<rect x="439" y="22" width="10" height="10" rx="1" ry="1" fill="#DE8236" fill-opacity="0.412"/>
<rect x="577" y="25" width="6" height="6" rx="1" ry="1" fill="#FB9D51" fill-opacity="0.483"/>
<rect x="271" y="185" width="9" height="9" rx="1" ry="1" fill="#FDCAA1" fill-opacity="0.287"/>
<rect x="516" y="113" width="10" height="10" rx="1" ry="1" fill="#FBA762" fill-opacity="0.460"/>
<rect x="422" y="60" width="10" height="10" rx="1" ry="1" fill="#FCB57B" fill-opacity="0.399"/>
<rect x="53" y="13" width="8" height="8" rx="1" ry="1" fill="#FEE4D0" fill-opacity="0.130"/>
<rect x="585" y="72" width="7" height="7" rx="1" ry="1" fill="#FB9C4F" fill-opacity="0.476"/>
<rect x="651" y="251" width="6" height="6" rx="1" ry="1" fill="#FB923C" fill-opacity="0.475"/>
<rect x="452" y="164" width="10" height="10" rx="1" ry="1" fill="#FCB173" fill-opacity="0.370"/>
<rect x="267" y="215" width="11" height="11" rx="1" ry="1" fill="#FDCBA2" fill-opacity="0.271"/>
<rect x="647" y="267" width="11" height="11" rx="1" ry="1" fill="#FB923D" fill-opacity="0.556"/>
<rect x="572" y="48" width="8" height="8" rx="1" ry="1" fill="#FB9E52" fill-opacity="0.408"/>
<rect x="624" y="30" width="7" height="7" rx="1" ry="1" fill="#FB9644" fill-opacity="0.463"/>
<rect x="582" y="14" width="10" height="10" rx="1" ry="1" fill="#FB9D50" fill-opacity="0.535"/>
<rect x="254" y="182" width="9" height="9" rx="1" ry="1" fill="#FDCDA5" fill-opacity="0.267"/>
<rect x="69" y="179" width="8" height="8" rx="1" ry="1" fill="#FDE3CD" fill-opacity="0.130"/>
<rect x="534" y="87" width="7" height="7" rx="1" ry="1" fill="#FBA45D" fill-opacity="0.381"/>
<rect x="55" y="187" width="9" height="9" rx="1" ry="1" fill="#FEE4CF" fill-opacity="0.127"/>
<rect x="470" y="125" width="6" height="6" rx="1" ry="1" fill="#DE8236" fill-opacity="0.348"/>
<rect x="574" y="58" width="9" height="9" rx="1" ry="1" fill="#FB9E52" fill-opacity="0.439"/>
<rect x="150" y="149" width="10" height="10" rx="1" ry="1" fill="#FDDABD" fill-opacity="0.179"/>
<rect x="366" y="5" width="7" height="7" rx="1" ry="1" fill="#FCBD8A" fill-opacity="0.287"/>
<rect x="515" y="153" width="7" height="7" rx="1" ry="1" fill="#FBA762" fill-opacity="0.451"/>
<rect x="462" y="116" width="8" height="8" rx="1" ry="1" fill="#FCAF70" fill-opacity="0.341"/>
<rect x="568" y="248" width="6" height="6" rx="1" ry="1" fill="#FB9F53" fill-opacity="0.504"/>
<rect x="618" y="70" width="6" height="6" rx="1" ry="1" fill="#DE8236" fill-opacity="0.555"/>
<rect x="714" y="99" width="10" height="10" rx="1" ry="1" fill="#FB923C" fill-opacity="0.636"/>
<rect x="392" y="204" width="9" height="9" rx="1" ry="1" fill="#FCB983" fill-opacity="0.346"/>
<rect x="87" y="182" width="11" height="11" rx="1" ry="1" fill="#FDE1CA" fill-opacity="0.138"/>
<rect x="393" y="101" width="8" height="8" rx="1" ry="1" fill="#FCB983" fill-opacity="0.316"/>
<rect x="332" y="232" width="6" height="6" rx="1" ry="1" fill="#FCC292" fill-opacity="0.279"/>
<rect x="248" y="231" width="7" height="7" rx="1" ry="1" fill="#FDCDA7" fill-opacity="0.225"/>
<rect x="69" y="200" width="11" height="11" rx="1" ry="1" fill="#FDE3CD" fill-opacity="0.130"/>
<rect x="704" y="240" width="6" height="6" rx="1" ry="1" fill="#FB923C" fill-opacity="0.525"/>
<rect x="395" y="34" width="8" height="8" rx="1" ry="1" fill="#FCB982" fill-opacity="0.357"/>
<rect x="104" y="19" width="6" height="6" rx="1" ry="1" fill="#FDDFC6" fill-opacity="0.149"/>
<rect x="633" y="12" width="6" height="6" rx="1" ry="1" fill="#FB9541" fill-opacity="0.559"/>
<rect x="156" y="54" width="7" height="7" rx="1" ry="1" fill="#FDD9BB" fill-opacity="0.194"/>
<rect x="329" y="209" width="6" height="6" rx="1" ry="1" fill="#DE8236" fill-opacity="0.326"/>
<rect x="639" y="143" width="8" height="8" rx="1" ry="1" fill="#FB943F" fill-opacity="0.466"/>
<rect x="524" y="34" width="6" height="6" rx="1" ry="1" fill="#FBA660" fill-opacity="0.376"/>
<rect x="490" y="104" width="10" height="10" rx="1" ry="1" fill="#FBAB69" fill-opacity="0.411"/>
<rect x="668" y="197" width="11" height="11" rx="1" ry="1" fill="#FB923C" fill-opacity="0.598"/>
<rect x="142" y="32" width="10" height="10" rx="1" ry="1" fill="#FDDBBE" fill-opacity="0.180"/>
<rect x="187" y="164" width="6" height="6" rx="1" ry="1" fill="#FDD5B5" fill-opacity="0.203"/>
<rect x="575" y="252" width="6" height="6" rx="1" ry="1" fill="#FB9E52" fill-opacity="0.444"/>
<rect x="580" y="26" width="9" height="9" rx="1" ry="1" fill="#FB9D50" fill-opacity="0.419"/>
<rect x="302" y="184" width="9" height="9" rx="1" ry="1" fill="#FCC69A" fill-opacity="0.303"/>
<rect x="469" y="99" width="8" height="8" rx="1" ry="1" fill="#FCAE6F" fill-opacity="0.428"/>
<rect x="67" y="228" width="9" height="9" rx="1" ry="1" fill="#FDE3CD" fill-opacity="0.138"/>
<rect x="490" y="44" width="7" height="7" rx="1" ry="1" fill="#FBAB69" fill-opacity="0.412"/>
<rect x="537" y="164" width="11" height="11" rx="1" ry="1" fill="#FBA45C" fill-opacity="0.462"/>
<rect x="452" y="251" width="8" height="8" rx="1" ry="1" fill="#FCB173" fill-opacity="0.398"/>
<rect x="570" y="19" width="11" height="11" rx="1" ry="1" fill="#FB9F53" fill-opacity="0.424"/>
<rect x="49" y="234" width="6" height="6" rx="1" ry="1" fill="#FEE5D1" fill-opacity="0.121"/>
<rect x="82" y="172" width="7" height="7" rx="1" ry="1" fill="#FDE1CB" fill-opacity="0.144"/>
<rect x="366" y="166" width="8" height="8" rx="1" ry="1" fill="#FCBD8A" fill-opacity="0.339"/>
<rect x="259" y="36" width="8" height="8" rx="1" ry="1" fill="#FDCCA4" fill-opacity="0.238"/>
<rect x="685" y="119" width="10" height="10" rx="1" ry="1" fill="#FB923C" fill-opacity="0.483"/>
<rect x="701" y="122" width="11" height="11" rx="1" ry="1" fill="#FB923C" fill-opacity="0.558"/>
<rect x="523" y="262" width="6" height="6" rx="1" ry="1" fill="#FBA660" fill-opacity="0.445"/>
<rect x="337" y="241" width="8" height="8" rx="1" ry="1" fill="#FCC191" fill-opacity="0.331"/>
<rect x="465" y="69" width="10" height="10" rx="1" ry="1" fill="#FCAF70" fill-opacity="0.401"/>
<rect x="341" y="39" width="10" height="10" rx="1" ry="1" fill="#FCC190" fill-opacity="0.312"/>
<rect x="715" y="87" width="6" height="6" rx="1" ry="1" fill="#FB923C" fill-opacity="0.504"/>
<rect x="616" y="220" width="6" height="6" rx="1" ry="1" fill="#FB9746" fill-opacity="0.475"/>
<rect x="667" y="120" width="6" height="6" rx="1" ry="1" fill="#FB923C" fill-opacity="0.511"/>
<rect x="691" y="122" width="10" height="10" rx="1" ry="1" fill="#FB923C" fill-opacity="0.517"/>
<rect x="707" y="206" width="8" height="8" rx="1" ry="1" fill="#DE8236" fill-opacity="0.537"/>
<rect x="717" y="54" width="11" height="11" rx="1" ry="1" fill="#FB923C" fill-opacity="0.594"/>
<rect x="479" y="192" width="6" height="6" rx="1" ry="1" fill="#FBAD6C" fill-opacity="0.393"/>
<rect x="672" y="64" width="11" height="11" rx="1" ry="1" fill="#FB923C" fill-opacity="0.528"/>
<rect x="553" y="146" width="10" height="10" rx="1" ry="1" fill="#FBA158" fill-opacity="0.431"/>
<rect x="216" y="18" width="6" height="6" rx="1" ry="1" fill="#FDD2AE" fill-opacity="0.218"/>
<rect x="257" y="101" width="7" height="7" rx="1" ry="1" fill="#FDCCA5" fill-opacity="0.243"/>
<rect x="85" y="268" width="11" height="11" rx="1" ry="1" fill="#FDE1CA" fill-opacity="0.141"/>
<rect x="134" y="217" width="10" height="10" rx="1" ry="1" fill="#FDDCC0" fill-opacity="0.163"/>
<rect x="507" y="102" width="11" height="11" rx="1" ry="1" fill="#FBA864" fill-opacity="0.455"/>
<rect x="270" y="223" width="6" height="6" rx="1" ry="1" fill="#FDCAA1" fill-opacity="0.244"/>
<rect x="585" y="143" width="6" height="6" rx="1" ry="1" fill="#FB9C4F" fill-opacity="0.485"/>
<rect x="536" y="96" width="9" height="9" rx="1" ry="1" fill="#FBA45C" fill-opacity="0.385"/>
<rect x="198" y="27" width="9" height="9" rx="1" ry="1" fill="#FDD4B2" fill-opacity="0.232"/>
<rect x="226" y="206" width="11" height="11" rx="1" ry="1" fill="#FDD0AC" fill-opacity="0.225"/>
<rect x="591" y="233" width="7" height="7" rx="1" ry="1" fill="#DE8236" fill-opacity="0.482"/>
<rect x="113" y="107" width="8" height="8" rx="1" ry="1" fill="#FDDEC4" fill-opacity="0.169"/>
<rect x="689" y="230" width="9" height="9" rx="1" ry="1" fill="#FB923C" fill-opacity="0.616"/>
<rect x="529" y="205" width="7" height="7" rx="1" ry="1" fill="#FBA55E" fill-opacity="0.457"/>
<rect x="579" y="125" width="10" height="10" rx="1" ry="1" fill="#DE8236" fill-opacity="0.523"/>
<rect x="92" y="216" width="9" height="9" rx="1" ry="1" fill="#FDE0C9" fill-opacity="0.155"/>
<rect x="244" y="44" width="7" height="7" rx="1" ry="1" fill="#FDCEA8" fill-opacity="0.222"/>
<rect x="633" y="216" width="6" height="6" rx="1" ry="1" fill="#FB9541" fill-opacity="0.519"/>
<rect x="248" y="156" width="7" height="7" rx="1" ry="1" fill="#FDCDA7" fill-opacity="0.238"/>
<rect x="482" y="200" width="10" height="10" rx="1" ry="1" fill="#FBAC6B" fill-opacity="0.385"/>
<rect x="374" y="38" width="11" height="11" rx="1" ry="1" fill="#FCBC88" fill-opacity="0.333"/>
<rect x="135" y="71" width="10" height="10" rx="1" ry="1" fill="#FDDCC0" fill-opacity="0.169"/>
<rect x="487" y="271" width="6" height="6" rx="1" ry="1" fill="#FBAB6A" fill-opacity="0.389"/>
<rect x="118" y="71" width="10" height="10" rx="1" ry="1" fill="#FDDEC3" fill-opacity="0.173"/>
<rect x="613" y="241" width="6" height="6" rx="1" ry="1" fill="#FB9847" fill-opacity="0.520"/>
<rect x="68" y="222" width="9" height="9" rx="1" ry="1" fill="#FDE3CD" fill-opacity="0.132"/>
<rect x="187" y="33" width="6" height="6" rx="1" ry="1" fill="#FDD5B5" fill-opacity="0.196"/>
<rect x="652" y="252" width="7" height="7" rx="1" ry="1" fill="#FB923C" fill-opacity="0.510"/>
<rect x="458" y="201" width="8" height="8" rx="1" ry="1" fill="#FCB072" fill-opacity="0.403"/>
<rect x="353" y="139" width="7" height="7" rx="1" ry="1" fill="#FCBF8D" fill-opacity="0.286"/>
<rect x="112" y="264" width="6" height="6" rx="1" ry="1" fill="#FDDEC5" fill-opacity="0.158"/>
<rect x="648" y="74" width="10" height="10" rx="1" ry="1" fill="#FB923D" fill-opacity="0.540"/>
<rect x="391" y="251" width="6" height="6" rx="1" ry="1" fill="#FCBA83" fill-opacity="0.309"/>
<rect x="396" y="261" width="11" height="11" rx="1" ry="1" fill="#DE8236" fill-opacity="0.331"/>
<rect x="153" y="212" width="11" height="11" rx="1" ry="1" fill="#FDD9BC" fill-opacity="0.174"/>
<rect x="718" y="262" width="6" height="6" rx="1" ry="1" fill="#FB923C" fill-opacity="0.580"/>
<rect x="634" y="149" width="6" height="6" rx="1" ry="1" fill="#FB9441" fill-opacity="0.508"/>
<rect x="621" y="101" width="9" height="9" rx="1" ry="1" fill="#FB9745" fill-opacity="0.482"/>
<rect x="37" y="5" width="9" height="9" rx="1" ry="1" fill="#FEE6D3" fill-opacity="0.117"/>
<rect x="96" y="17" width="11" height="11" rx="1" ry="1" fill="#FDE0C8" fill-opacity="0.155"/>
<rect x="294" y="43" width="6" height="6" rx="1" ry="1" fill="#FCC79C" fill-opacity="0.285"/>
<rect x="324" y="205" width="10" height="10" rx="1" ry="1" fill="#FCC394" fill-opacity="0.265"/>
<rect x="658" y="104" width="10" height="10" rx="1" ry="1" fill="#FB923C" fill-opacity="0.511"/>
<rect x="613" y="114" width="9" height="9" rx="1" ry="1" fill="#FB9847" fill-opacity="0.426"/>
<rect x="640" y="232" width="10" height="10" rx="1" ry="1" fill="#FB943F" fill-opacity="0.528"/>
<rect x="554" y="213" width="10" height="10" rx="1" ry="1" fill="#FBA157" fill-opacity="0.461"/>
<rect x="15" y="194" width="7" height="7" rx="1" ry="1" fill="#FEE8D6" fill-opacity="0.108"/>
<rect x="200" y="124" width="11" height="11" rx="1" ry="1" fill="#FDD4B2" fill-opacity="0.220"/>
<rect x="425" y="81" width="11" height="11" rx="1" ry="1" fill="#FCB57A" fill-opacity="0.319"/>
<rect x="552" y="133" width="10" height="10" rx="1" ry="1" fill="#FBA158" fill-opacity="0.445"/>
<rect x="86" y="171" width="10" height="10" rx="1" ry="1" fill="#FDE1CA" fill-opacity="0.140"/>
<rect x="149" y="51" width="8" height="8" rx="1" ry="1" fill="#FDDABD" fill-opacity="0.186"/>
<rect x="636" y="74" width="6" height="6" rx="1" ry="1" fill="#FB9440" fill-opacity="0.493"/>
<rect x="703" y="254" width="8" height="8" rx="1" ry="1" fill="#FB923C" fill-opacity="0.553"/>
<rect x="476" y="245" width="10" height="10" rx="1" ry="1" fill="#FCAD6D" fill-opacity="0.405"/>
<rect x="375" y="108" width="8" height="8" rx="1" ry="1" fill="#FCBC87" fill-opacity="0.344"/>
<rect x="684" y="117" width="6" height="6" rx="1" ry="1" fill="#FB923C" fill-opacity="0.573"/>
<rect x="597" y="172" width="11" height="11" rx="1" ry="1" fill="#FB9A4B" fill-opacity="0.544"/>
<rect x="546" y="174" width="11" height="11" rx="1" ry="1" fill="#FBA25A" fill-opacity="0.473"/>
<rect x="409" y="212" width="6" height="6" rx="1" ry="1" fill="#FCB77E" fill-opacity="0.368"/>
<rect x="259" y="216" width="6" height="6" rx="1" ry="1" fill="#FDCCA4" fill-opacity="0.263"/>
<rect x="458" y="48" width="10" height="10" rx="1" ry="1" fill="#FCB072" fill-opacity="0.393"/>
<rect x="188" y="110" width="8" height="8" rx="1" ry="1" fill="#DE8236" fill-opacity="0.202"/>
<rect x="99" y="31" width="9" height="9" rx="1" ry="1" fill="#FDE0C7" fill-opacity="0.155"/>
<rect x="535" y="235" width="10" height="10" rx="1" ry="1" fill="#FBA45D" fill-opacity="0.450"/>
<rect x="459" y="113" width="7" height="7" rx="1" ry="1" fill="#FCB071" fill-opacity="0.388"/>
<rect x="567" y="218" width="6" height="6" rx="1" ry="1" fill="#FB9F54" fill-opacity="0.518"/>
<rect x="631" y="119" width="10" height="10" rx="1" ry="1" fill="#FB9542" fill-opacity="0.454"/>
<rect x="268" y="243" width="11" height="11" rx="1" ry="1" fill="#FDCBA2" fill-opacity="0.247"/>
<rect x="24" y="197" width="10" height="10" rx="1" ry="1" fill="#FEE7D5" fill-opacity="0.111"/>
<rect x="230" y="140" width="9" height="9" rx="1" ry="1" fill="#FDD0AB" fill-opacity="0.221"/>
<rect x="117" y="269" width="11" height="11" rx="1" ry="1" fill="#FDDEC4" fill-opacity="0.171"/>
<rect x="666" y="255" width="9" height="9" rx="1" ry="1" fill="#FB923C" fill-opacity="0.579"/>
<rect x="454" y="86" width="10" height="10" rx="1" ry="1" fill="#FCB073" fill-opacity="0.380"/>
<rect x="704" y="264" width="11" height="11" rx="1" ry="1" fill="#FB923C" fill-opacity="0.605"/>
<rect x="648" y="236" width="8" height="8" rx="1" ry="1" fill="#FB923D" fill-opacity="0.517"/>
<rect x="636" y="186" width="9" height="9" rx="1" ry="1" fill="#FB9440" fill-opacity="0.529"/>
<rect x="404" y="252" width="11" height="11" rx="1" ry="1" fill="#FCB880" fill-opacity="0.357"/>
<rect x="626" y="71" width="11" height="11" rx="1" ry="1" fill="#FB9643" fill-opacity="0.496"/>
<rect x="536" y="172" width="8" height="8" rx="1" ry="1" fill="#FBA45C" fill-opacity="0.452"/>
<rect x="109" y="179" width="6" height="6" rx="1" ry="1" fill="#FDDFC5" fill-opacity="0.154"/>
<rect x="465" y="37" width="11" height="11" rx="1" ry="1" fill="#FCAF70" fill-opacity="0.368"/>
<rect x="717" y="10" width="9" height="9" rx="1" ry="1" fill="#FB923C" fill-opacity="0.573"/>
<rect x="498" y="154" width="7" height="7" rx="1" ry="1" fill="#FBAA67" fill-opacity="0.387"/>
<rect x="601" y="44" width="9" height="9" rx="1" ry="1" fill="#FB9A4A" fill-opacity="0.481"/>
<rect x="346" y="8" width="7" height="7" rx="1" ry="1" fill="#FCC08F" fill-opacity="0.313"/>
<rect x="685" y="188" width="8" height="8" rx="1" ry="1" fill="#FB923C" fill-opacity="0.612"/>
<rect x="157" y="246" width="10" height="10" rx="1" ry="1" fill="#FDD9BB" fill-opacity="0.198"/>
<rect x="468" y="44" width="8" height="8" rx="1" ry="1" fill="#FCAE6F" fill-opacity="0.419"/>
<rect x="150" y="79" width="9" height="9" rx="1" ry="1" fill="#FDDABD" fill-opacity="0.192"/>
<rect x="659" y="204" width="8" height="8" rx="1" ry="1" fill="#FB923C" fill-opacity="0.482"/>
<rect x="593" y="50" width="8" height="8" rx="1" ry="1" fill="#FB9B4C" fill-opacity="0.539"/>
<rect x="355" y="250" width="10" height="10" rx="1" ry="1" fill="#FCBF8C" fill-opacity="0.283"/>
<rect x="385" y="190" width="6" height="6" rx="1" ry="1" fill="#FCBA85" fill-opacity="0.341"/>
<rect x="646" y="49" width="7" height="7" rx="1" ry="1" fill="#FB933D" fill-opacity="0.480"/>
<rect x="439" y="143" width="6" height="6" rx="1" ry="1" fill="#FCB377" fill-opacity="0.397"/>
<rect x="342" y="104" width="7" height="7" rx="1" ry="1" fill="#FCC190" fill-opacity="0.310"/>
<rect x="656" y="249" width="6" height="6" rx="1" ry="1" fill="#FB923C" fill-opacity="0.520"/>
<rect x="429" y="212" width="6" height="6" rx="1" ry="1" fill="#FCB479" fill-opacity="0.332"/>
<rect x="340" y="222" width="7" height="7" rx="1" ry="1" fill="#FCC190" fill-opacity="0.286"/>
<rect x="487" y="78" width="10" height="10" rx="1" ry="1" fill="#FBAB6A" fill-opacity="0.412"/>
<rect x="324" y="13" width="7" height="7" rx="1" ry="1" fill="#FCC394" fill-opacity="0.295"/>
<rect x="692" y="175" width="9" height="9" rx="1" ry="1" fill="#FB923C" fill-opacity="0.569"/>
<rect x="272" y="263" width="8" height="8" rx="1" ry="1" fill="#FDCAA1" fill-opacity="0.262"/>
<rect x="332" y="211" width="11" height="11" rx="1" ry="1" fill="#FCC292" fill-opacity="0.314"/>
<rect x="585" y="12" width="7" height="7" rx="1" ry="1" fill="#FB9C4F" fill-opacity="0.431"/>
<rect x="642" y="251" width="7" height="7" rx="1" ry="1" fill="#FB933F" fill-opacity="0.493"/>
<rect x="403" y="137" width="9" height="9" rx="1" ry="1" fill="#FCB880" fill-opacity="0.373"/>
<rect x="322" y="168" width="10" height="10" rx="1" ry="1" fill="#FCC395" fill-opacity="0.279"/>
<rect x="206" y="209" width="7" height="7" rx="1" ry="1" fill="#FDD3B0" fill-opacity="0.227"/>
<rect x="168" y="55" width="10" height="10" rx="1" ry="1" fill="#FDD8B9" fill-opacity="0.187"/>
<rect x="660" y="0" width="60" height="280" fill="url(#edgeGlow)"/>
</svg>