<svg xmlns="http://www.w3.org/2000/svg" width="720" height="280" viewBox="0 0 720 280">
      <defs>
        <radialGradient id="vignette" cx="50%" cy="50%" r="75%">
          <stop offset="0%" stop-color="#ffffff" stop-opacity="1"/>
          <stop offset="100%" stop-color="#ffffff" stop-opacity="0.7"/>
        </radialGradient>
        <linearGradient id="edgeGlow" x1="0%" y1="0%" x2="100%" y2="0%">
          <stop offset="0%" stop-color="#ffffff" stop-opacity="0"/>
          <stop offset="100%" stop-color="#ffffff" stop-opacity="0.45"/>
        </linearGradient>
      </defs>
    <rect x="0" y="0" width="720" height="280" fill="url(#vignette)"/>
<rect x="74" y="61" width="8" height="8" rx="1" ry="1" fill="#FCEBCE" fill-opacity="0.142"/>
<rect x="35" y="193" width="6" height="6" rx="1" ry="1" fill="#FCEDD4" fill-opacity="0.119"/>
<rect x="187" y="76" width="10" height="10" rx="1" ry="1" fill="#FBE2B7" fill-opacity="0.213"/>
<rect x="174" y="249" width="8" height="8" rx="1" ry="1" fill="#FBE3BA" fill-opacity="0.183"/>
<rect x="513" y="102" width="11" height="11" rx="1" ry="1" fill="#F7C267" fill-opacity="0.380"/>
<rect x="355" y="254" width="6" height="6" rx="1" ry="1" fill="#F9D290" fill-opacity="0.311"/>
<rect x="28" y="74" width="7" height="7" rx="1" ry="1" fill="#FCEED5" fill-opacity="0.112"/>
<rect x="457" y="157" width="10" height="10" rx="1" ry="1" fill="#F7C876" fill-opacity="0.347"/>
<rect x="587" y="6" width="10" height="10" rx="1" ry="1" fill="#F5BA54" fill-opacity="0.430"/>
<rect x="183" y="29" width="7" height="7" rx="1" ry="1" fill="#FBE2B8" fill-opacity="0.192"/>
<rect x="404" y="29" width="7" height="7" rx="1" ry="1" fill="#F8CD84" fill-opacity="0.309"/>
<rect x="132" y="64" width="9" height="9" rx="1" ry="1" fill="#FBE6C2" fill-opacity="0.172"/>
<rect x="437" y="145" width="10" height="10" rx="1" ry="1" fill="#F8CA7B" fill-opacity="0.347"/>
<rect x="463" y="114" width="9" height="9" rx="1" ry="1" fill="#F7C775" fill-opacity="0.366"/>
<rect x="651" y="135" width="11" height="11" rx="1" ry="1" fill="#F5B342" fill-opacity="0.454"/>
<rect x="669" y="242" width="6" height="6" rx="1" ry="1" fill="#F5B342" fill-opacity="0.540"/>
<rect x="580" y="258" width="9" height="9" rx="1" ry="1" fill="#F6BB55" fill-opacity="0.456"/>
<rect x="531" y="39" width="11" height="11" rx="1" ry="1" fill="#F6C063" fill-opacity="0.381"/>
<rect x="128" y="192" width="9" height="9" rx="1" ry="1" fill="#FBE7C3" fill-opacity="0.163"/>
<rect x="366" y="77" width="6" height="6" rx="1" ry="1" fill="#F9D18D" fill-opacity="0.327"/>
<rect x="658" y="75" width="8" height="8" rx="1" ry="1" fill="#F5B342" fill-opacity="0.573"/>
<rect x="282" y="37" width="8" height="8" rx="1" ry="1" fill="#FAD9A1" fill-opacity="0.293"/>
<rect x="505" y="253" width="11" height="11" rx="1" ry="1" fill="#F7C36A" fill-opacity="0.414"/>
<rect x="548" y="119" width="10" height="10" rx="1" ry="1" fill="#F6BE5E" fill-opacity="0.503"/>
<rect x="1" y="7" width="8" height="8" rx="1" ry="1" fill="#FCEFD9" fill-opacity="0.100"/>
<rect x="648" y="116" width="7" height="7" rx="1" ry="1" fill="#D99F3C" fill-opacity="0.537"/>
<rect x="376" y="214" width="11" height="11" rx="1" ry="1" fill="#F8D08B" fill-opacity="0.313"/>
<rect x="455" y="185" width="11" height="11" rx="1" ry="1" fill="#F7C877" fill-opacity="0.377"/>
<rect x="127" y="209" width="6" height="6" rx="1" ry="1" fill="#FBE7C3" fill-opacity="0.171"/>
<rect x="433" y="255" width="10" height="10" rx="1" ry="1" fill="#F8CA7C" fill-opacity="0.364"/>
<rect x="704" y="108" width="9" height="9" rx="1" ry="1" fill="#F5B342" fill-opacity="0.488"/>
<rect x="445" y="176" width="9" height="9" rx="1" ry="1" fill="#F7C979" fill-opacity="0.341"/>
<rect x="583" y="250" width="6" height="6" rx="1" ry="1" fill="#D99F3C" fill-opacity="0.431"/>
<rect x="528" y="72" width="10" height="10" rx="1" ry="1" fill="#F6C063" fill-opacity="0.431"/>
<rect x="441" y="40" width="11" height="11" rx="1" ry="1" fill="#F8C97A" fill-opacity="0.338"/>
<rect x="673" y="128" width="8" height="8" rx="1" ry="1" fill="#D99F3C" fill-opacity="0.575"/>
<rect x="513" y="179" width="10" height="10" rx="1" ry="1" fill="#F7C267" fill-opacity="0.395"/>
<rect x="217" y="57" width="8" height="8" rx="1" ry="1" fill="#FADFB0" fill-opacity="0.214"/>
<rect x="654" y="259" width="7" height="7" rx="1" ry="1" fill="#F5B342" fill-opacity="0.561"/>
<rect x="145" y="156" width="7" height="7" rx="1" ry="1" fill="#FBE5C0" fill-opacity="0.175"/>
<rect x="66" y="139" width="6" height="6" rx="1" ry="1" fill="#FCEBCF" fill-opacity="0.136"/>
<rect x="508" y="242" width="9" height="9" rx="1" ry="1" fill="#F7C269" fill-opacity="0.468"/>
<rect x="340" y="104" width="10" height="10" rx="1" ry="1" fill="#F9D494" fill-opacity="0.273"/>
<rect x="29" y="143" width="8" height="8" rx="1" ry="1" fill="#FCEED5" fill-opacity="0.112"/>
<rect x="293" y="46" width="8" height="8" rx="1" ry="1" fill="#F9D89F" fill-opacity="0.270"/>
<rect x="590" y="156" width="9" height="9" rx="1" ry="1" fill="#F5B953" fill-opacity="0.473"/>
<rect x="475" y="247" width="6" height="6" rx="1" ry="1" fill="#F7C671" fill-opacity="0.350"/>
<rect x="667" y="152" width="7" height="7" rx="1" ry="1" fill="#F5B342" fill-opacity="0.472"/>
<rect x="491" y="116" width="10" height="10" rx="1" ry="1" fill="#F7C46D" fill-opacity="0.451"/>
<rect x="581" y="264" width="11" height="11" rx="1" ry="1" fill="#F6BA55" fill-opacity="0.422"/>
<rect x="576" y="33" width="7" height="7" rx="1" ry="1" fill="#F6BB57" fill-opacity="0.406"/>
<rect x="719" y="71" width="9" height="9" rx="1" ry="1" fill="#F5B342" fill-opacity="0.563"/>
<rect x="637" y="16" width="10" height="10" rx="1" ry="1" fill="#F5B446" fill-opacity="0.545"/>
<rect x="594" y="148" width="6" height="6" rx="1" ry="1" fill="#F5B952" fill-opacity="0.491"/>
<rect x="685" y="210" width="7" height="7" rx="1" ry="1" fill="#F5B342" fill-opacity="0.620"/>
<rect x="438" y="95" width="8" height="8" rx="1" ry="1" fill="#D99F3C" fill-opacity="0.326"/>
<rect x="301" y="245" width="8" height="8" rx="1" ry="1" fill="#F9D79D" fill-opacity="0.294"/>
<rect x="344" y="254" width="10" height="10" rx="1" ry="1" fill="#F9D393" fill-opacity="0.342"/>
<rect x="658" y="63" width="7" height="7" rx="1" ry="1" fill="#D99F3C" fill-opacity="0.578"/>
<rect x="650" y="186" width="9" height="9" rx="1" ry="1" fill="#F5B342" fill-opacity="0.458"/>
<rect x="383" y="200" width="10" height="10" rx="1" ry="1" fill="#F8CF89" fill-opacity="0.354"/>
<rect x="304" y="89" width="11" height="11" rx="1" ry="1" fill="#F9D79C" fill-opacity="0.277"/>
<rect x="663" y="262" width="11" height="11" rx="1" ry="1" fill="#F5B342" fill-opacity="0.571"/>
<rect x="518" y="103" width="9" height="9" rx="1" ry="1" fill="#F6C166" fill-opacity="0.417"/>
<rect x="224" y="34" width="6" height="6" rx="1" ry="1" fill="#FADEAF" fill-opacity="0.250"/>
<rect x="563" y="89" width="6" height="6" rx="1" ry="1" fill="#F6BC5A" fill-opacity="0.482"/>
<rect x="379" y="77" width="8" height="8" rx="1" ry="1" fill="#F8D08A" fill-opacity="0.329"/>
<rect x="322" y="32" width="7" height="7" rx="1" ry="1" fill="#F9D598" fill-opacity="0.311"/>
<rect x="532" y="246" width="8" height="8" rx="1" ry="1" fill="#D99F3C" fill-opacity="0.473"/>
<rect x="550" y="91" width="10" height="10" rx="1" ry="1" fill="#F6BE5E" fill-opacity="0.503"/>
<rect x="640" y="271" width="7" height="7" rx="1" ry="1" fill="#F5B445" fill-opacity="0.468"/>
<rect x="401" y="68" width="10" height="10" rx="1" ry="1" fill="#F8CD84" fill-opacity="0.371"/>
<rect x="510" y="263" width="11" height="11" rx="1" ry="1" fill="#F7C268" fill-opacity="0.418"/>
<rect x="488" y="19" width="10" height="10" rx="1" ry="1" fill="#F7C46E" fill-opacity="0.380"/>
<rect x="271" y="175" width="7" height="7" rx="1" ry="1" fill="#FADAA4" fill-opacity="0.284"/>
<rect x="328" y="243" width="10" height="10" rx="1" ry="1" fill="#F9D596" fill-opacity="0.294"/>
<rect x="561" y="183" width="11" height="11" rx="1" ry="1" fill="#F6BD5B" fill-opacity="0.400"/>
<rect x="205" y="237" width="11" height="11" rx="1" ry="1" fill="#FBE0B3" fill-opacity="0.220"/>
<rect x="285" y="66" width="8" height="8" rx="1" ry="1" fill="#FAD9A1" fill-opacity="0.259"/>
<rect x="225" y="135" width="10" height="10" rx="1" ry="1" fill="#FADEAF" fill-opacity="0.239"/>
<rect x="632" y="198" width="10" height="10" rx="1" ry="1" fill="#F5B547" fill-opacity="0.521"/>
<rect x="398" y="60" width="10" height="10" rx="1" ry="1" fill="#F8CE85" fill-opacity="0.306"/>
<rect x="445" y="158" width="9" height="9" rx="1" ry="1" fill="#F7C979" fill-opacity="0.357"/>
<rect x="110" y="206" width="7" height="7" rx="1" ry="1" fill="#FCE8C7" fill-opacity="0.156"/>
<rect x="16" y="83" width="9" height="9" rx="1" ry="1" fill="#FCEFD7" fill-opacity="0.108"/>
<rect x="531" y="219" width="11" height="11" rx="1" ry="1" fill="#F6C063" fill-opacity="0.465"/>
<rect x="572" y="217" width="9" height="9" rx="1" ry="1" fill="#F6BB58" fill-opacity="0.418"/>
<rect x="588" y="194" width="8" height="8" rx="1" ry="1" fill="#D99F3C" fill-opacity="0.501"/>
<rect x="643" y="158" width="10" height="10" rx="1" ry="1" fill="#F5B444" fill-opacity="0.510"/>
<rect x="124" y="246" width="10" height="10" rx="1" ry="1" fill="#FBE7C4" fill-opacity="0.175"/>
<rect x="496" y="125" width="10" height="10" rx="1" ry="1" fill="#F7C46C" fill-opacity="0.453"/>
<rect x="456" y="130" width="10" height="10" rx="1" ry="1" fill="#F7C876" fill-opacity="0.342"/>
<rect x="54" y="54" width="7" height="7" rx="1" ry="1" fill="#FCECD1" fill-opacity="0.128"/>
<rect x="490" y="152" width="7" height="7" rx="1" ry="1" fill="#F7C46E" fill-opacity="0.385"/>
<rect x="431" y="137" width="8" height="8" rx="1" ry="1" fill="#F8CA7D" fill-opacity="0.362"/>
<rect x="547" y="29" width="10" height="10" rx="1" ry="1" fill="#F6BE5E" fill-opacity="0.465"/>
<rect x="159" y="53" width="6" height="6" rx="1" ry="1" fill="#FBE4BD" fill-opacity="0.197"/>
<rect x="378" y="232" width="11" height="11" rx="1" ry="1" fill="#F8D08A" fill-opacity="0.363"/>
<rect x="714" y="7" width="7" height="7" rx="1" ry="1" fill="#F5B342" fill-opacity="0.531"/>
<rect x="217" y="39" width="10" height="10" rx="1" ry="1" fill="#FADFB0" fill-opacity="0.206"/>
<rect x="450" y="71" width="7" height="7" rx="1" ry="1" fill="#F7C878" fill-opacity="0.359"/>
<rect x="571" y="220" width="9" height="9" rx="1" ry="1" fill="#F6BC58" fill-opacity="0.497"/>
<rect x="426" y="38" width="11" height="11" rx="1" ry="1" fill="#F8CB7E" fill-opacity="0.330"/>
<rect x="615" y="53" width="8" height="8" rx="1" ry="1" fill="#F5B74C" fill-opacity="0.543"/>
<rect x="261" y="171" width="11" height="11" rx="1" ry="1" fill="#FADBA6" fill-opacity="0.238"/>
<rect x="331" y="191" width="7" height="7" rx="1" ry="1" fill="#F9D496" fill-opacity="0.281"/>
<rect x="240" y="64" width="9" height="9" rx="1" ry="1" fill="#FADDAB" fill-opacity="0.223"/>
<rect x="207" y="28" width="6" height="6" rx="1" ry="1" fill="#FAE0B3" fill-opacity="0.236"/>
<rect x="640" y="47" width="10" height="10" rx="1" ry="1" fill="#F5B445" fill-opacity="0.474"/>
<rect x="674" y="164" width="7" height="7" rx="1" ry="1" fill="#F5B342" fill-opacity="0.459"/>
<rect x="99" y="116" width="8" height="8" rx="1" ry="1" fill="#FCE9C9" fill-opacity="0.161"/>
<rect x="589" y="150" width="10" height="10" rx="1" ry="1" fill="#F5BA53" fill-opacity="0.473"/>
<rect x="505" y="81" width="9" height="9" rx="1" ry="1" fill="#F7C36A" fill-opacity="0.427"/>
<rect x="203" y="80" width="11" height="11" rx="1" ry="1" fill="#FBE0B3" fill-opacity="0.215"/>
<rect x="701" y="31" width="6" height="6" rx="1" ry="1" fill="#F5B342" fill-opacity="0.502"/>
<rect x="553" y="215" width="10" height="10" rx="1" ry="1" fill="#F6BD5D" fill-opacity="0.475"/>
<rect x="644" y="259" width="11" height="11" rx="1" ry="1" fill="#F5B344" fill-opacity="0.490"/>
<rect x="275" y="226" width="10" height="10" rx="1" ry="1" fill="#FADAA3" fill-opacity="0.259"/>
<rect x="719" y="236" width="7" height="7" rx="1" ry="1" fill="#F5B342" fill-opacity="0.498"/>
<rect x="631" y="174" width="6" height="6" rx="1" ry="1" fill="#F5B548" fill-opacity="0.532"/>
<rect x="333" y="138" width="10" height="10" rx="1" ry="1" fill="#F9D495" fill-opacity="0.267"/>
<rect x="540" y="80" width="11" height="11" rx="1" ry="1" fill="#F6BF60" fill-opacity="0.413"/>
<rect x="425" y="11" width="9" height="9" rx="1" ry="1" fill="#F8CB7E" fill-opacity="0.330"/>
<rect x="622" y="80" width="9" height="9" rx="1" ry="1" fill="#F5B64A" fill-opacity="0.482"/>
<rect x="686" y="125" width="10" height="10" rx="1" ry="1" fill="#F5B342" fill-opacity="0.540"/>
<rect x="680" y="228" width="9" height="9" rx="1" ry="1" fill="#F5B342" fill-opacity="0.521"/>
<rect x="340" y="202" width="11" height="11" rx="1" ry="1" fill="#F9D494" fill-opacity="0.271"/>
<rect x="272" y="193" width="8" height="8" rx="1" ry="1" fill="#FADAA4" fill-opacity="0.244"/>
<rect x="331" y="206" width="10" height="10" rx="1" ry="1" fill="#F9D496" fill-opacity="0.285"/>
<rect x="393" y="77" width="8" height="8" rx="1" ry="1" fill="#F8CE86" fill-opacity="0.345"/>
<rect x="598" y="31" width="6" height="6" rx="1" ry="1" fill="#F5B951" fill-opacity="0.490"/>
<rect x="628" y="191" width="10" height="10" rx="1" ry="1" fill="#F5B548" fill-opacity="0.434"/>
<rect x="636" y="220" width="11" height="11" rx="1" ry="1" fill="#F5B446" fill-opacity="0.437"/>
<rect x="273" y="34" width="11" height="11" rx="1" ry="1" fill="#FADAA4" fill-opacity="0.285"/>
<rect x="596" y="87" width="11" height="11" rx="1" ry="1" fill="#F5B951" fill-opacity="0.514"/>
<rect x="593" y="200" width="10" height="10" rx="1" ry="1" fill="#F5B952" fill-opacity="0.520"/>
<rect x="120" y="50" width="7" height="7" rx="1" ry="1" fill="#FBE7C5" fill-opacity="0.162"/>
<rect x="160" y="245" width="6" height="6" rx="1" ry="1" fill="#FBE4BD" fill-opacity="0.200"/>
<rect x="644" y="36" width="6" height="6" rx="1" ry="1" fill="#F5B344" fill-opacity="0.523"/>
<rect x="652" y="157" width="9" height="9" rx="1" ry="1" fill="#F5B342" fill-opacity="0.534"/>
<rect x="402" y="128" width="6" height="6" rx="1" ry="1" fill="#F8CD84" fill-opacity="0.353"/>
<rect x="273" y="101" width="11" height="11" rx="1" ry="1" fill="#FADAA4" fill-opacity="0.236"/>
<rect x="398" y="271" width="6" height="6" rx="1" ry="1" fill="#F8CE85" fill-opacity="0.376"/>
<rect x="674" y="125" width="6" height="6" rx="1" ry="1" fill="#F5B342" fill-opacity="0.542"/>
<rect x="114" y="103" width="7" height="7" rx="1" ry="1" fill="#FCE8C6" fill-opacity="0.161"/>
<rect x="711" y="19" width="10" height="10" rx="1" ry="1" fill="#F5B342" fill-opacity="0.519"/>
<rect x="668" y="66" width="6" height="6" rx="1" ry="1" fill="#F5B342" fill-opacity="0.469"/>
<rect x="298" y="126" width="8" height="8" rx="1" ry="1" fill="#F9D89E" fill-opacity="0.306"/>
<rect x="488" y="117" width="9" height="9" rx="1" ry="1" fill="#F7C46E" fill-opacity="0.372"/>
<rect x="597" y="145" width="10" height="10" rx="1" ry="1" fill="#F5B951" fill-opacity="0.429"/>
<rect x="106" y="213" width="10" height="10" rx="1" ry="1" fill="#FCE8C8" fill-opacity="0.158"/>
<rect x="118" y="93" width="9" height="9" rx="1" ry="1" fill="#FBE7C5" fill-opacity="0.161"/>
<rect x="247" y="243" width="11" height="11" rx="1" ry="1" fill="#FADCAA" fill-opacity="0.255"/>
<rect x="256" y="217" width="7" height="7" rx="1" ry="1" fill="#D99F3C" fill-opacity="0.256"/>
<rect x="612" y="90" width="6" height="6" rx="1" ry="1" fill="#F5B74D" fill-opacity="0.528"/>
<rect x="479" y="90" width="8" height="8" rx="1" ry="1" fill="#F7C570" fill-opacity="0.386"/>
<rect x="515" y="6" width="6" height="6" rx="1" ry="1" fill="#F6C267" fill-opacity="0.395"/>
<rect x="227" y="270" width="10" height="10" rx="1" ry="1" fill="#FADEAE" fill-opacity="0.222"/>
<rect x="428" y="39" width="10" height="10" rx="1" ry="1" fill="#F8CB7E" fill-opacity="0.406"/>
<rect x="629" y="264" width="9" height="9" rx="1" ry="1" fill="#F5B548" fill-opacity="0.468"/>
<rect x="58" y="163" width="6" height="6" rx="1" ry="1" fill="#FCECD0" fill-opacity="0.126"/>
<rect x="304" y="4" width="10" height="10" rx="1" ry="1" fill="#F9D79C" fill-opacity="0.256"/>
<rect x="368" y="161" width="7" height="7" rx="1" ry="1" fill="#F8D18D" fill-opacity="0.299"/>
<rect x="640" y="20" width="7" height="7" rx="1" ry="1" fill="#F5B445" fill-opacity="0.452"/>
<rect x="191" y="93" width="6" height="6" rx="1" ry="1" fill="#FBE1B6" fill-opacity="0.214"/>
<rect x="510" y="12" width="10" height="10" rx="1" ry="1" fill="#F7C268" fill-opacity="0.406"/>
<rect x="207" y="219" width="7" height="7" rx="1" ry="1" fill="#FAE0B3" fill-opacity="0.202"/>
<rect x="595" y="244" width="7" height="7" rx="1" ry="1" fill="#F5B951" fill-opacity="0.495"/>
<rect x="345" y="269" width="8" height="8" rx="1" ry="1" fill="#F9D392" fill-opacity="0.282"/>
<rect x="246" y="211" width="10" height="10" rx="1" ry="1" fill="#FADCAA" fill-opacity="0.246"/>
<rect x="612" y="264" width="9" height="9" rx="1" ry="1" fill="#F5B74D" fill-opacity="0.515"/>
<rect x="678" y="229" width="6" height="6" rx="1" ry="1" fill="#F5B342" fill-opacity="0.513"/>
<rect x="607" y="174" width="8" height="8" rx="1" ry="1" fill="#D99F3C" fill-opacity="0.433"/>
<rect x="669" y="57" width="11" height="11" rx="1" ry="1" fill="#F5B342" fill-opacity="0.582"/>
<rect x="188" y="172" width="7" height="7" rx="1" ry="1" fill="#FBE2B7" fill-opacity="0.193"/>
<rect x="234" y="68" width="6" height="6" rx="1" ry="1" fill="#FADEAD" fill-opacity="0.239"/>
<rect x="647" y="225" width="7" height="7" rx="1" ry="1" fill="#F5B343" fill-opacity="0.556"/>
<rect x="546" y="11" width="6" height="6" rx="1" ry="1" fill="#F6BE5F" fill-opacity="0.456"/>
<rect x="400" y="223" width="9" height="9" rx="1" ry="1" fill="#F8CE85" fill-opacity="0.372"/>
<rect x="531" y="72" width="9" height="9" rx="1" ry="1" fill="#F6C063" fill-opacity="0.481"/>
<rect x="544" y="91" width="7" height="7" rx="1" ry="1" fill="#F6BE5F" fill-opacity="0.497"/>
<rect x="438" y="52" width="11" height="11" rx="1" ry="1" fill="#F8CA7B" fill-opacity="0.397"/>
<rect x="386" y="113" width="10" height="10" rx="1" ry="1" fill="#F8CF88" fill-opacity="0.373"/>
<rect x="467" y="252" width="8" height="8" rx="1" ry="1" fill="#F7C774" fill-opacity="0.439"/>
<rect x="54" y="141" width="7" height="7" rx="1" ry="1" fill="#FCECD1" fill-opacity="0.132"/>
<rect x="446" y="50" width="10" height="10" rx="1" ry="1" fill="#F7C979" fill-opacity="0.420"/>
<rect x="392" y="14" width="11" height="11" rx="1" ry="1" fill="#F8CE87" fill-opacity="0.357"/>
<rect x="418" y="184" width="9" height="9" rx="1" ry="1" fill="#F8CC80" fill-opacity="0.382"/>
<rect x="662" y="55" width="10" height="10" rx="1" ry="1" fill="#F5B342" fill-opacity="0.489"/>
<rect x="583" y="223" width="6" height="6" rx="1" ry="1" fill="#F6BA55" fill-opacity="0.439"/>
<rect x="188" y="152" width="8" height="8" rx="1" ry="1" fill="#FBE2B7" fill-opacity="0.192"/>
<rect x="646" y="161" width="11" height="11" rx="1" ry="1" fill="#F5B343" fill-opacity="0.555"/>
<rect x="559" y="38" width="9" height="9" rx="1" ry="1" fill="#F6BD5B" fill-opacity="0.482"/>
<rect x="155" y="21" width="10" height="10" rx="1" ry="1" fill="#FBE4BE" fill-opacity="0.194"/>
<rect x="669" y="115" width="10" height="10" rx="1" ry="1" fill="#F5B342" fill-opacity="0.460"/>
<rect x="482" y="58" width="10" height="10" rx="1" ry="1" fill="#F7C570" fill-opacity="0.402"/>
<rect x="554" y="224" width="6" height="6" rx="1" ry="1" fill="#F6BD5D" fill-opacity="0.444"/>
<rect x="683" y="255" width="7" height="7" rx="1" ry="1" fill="#F5B342" fill-opacity="0.467"/>
<rect x="364" y="235" width="10" height="10" rx="1" ry="1" fill="#F9D18E" fill-opacity="0.317"/>
<rect x="103" y="47" width="10" height="10" rx="1" ry="1" fill="#FCE9C8" fill-opacity="0.159"/>
<rect x="541" y="149" width="9" height="9" rx="1" ry="1" fill="#F6BF60" fill-opacity="0.473"/>
<rect x="436" y="122" width="11" height="11" rx="1" ry="1" fill="#F8CA7C" fill-opacity="0.371"/>
<rect x="195" y="242" width="10" height="10" rx="1" ry="1" fill="#FBE1B5" fill-opacity="0.226"/>
<rect x="617" y="150" width="10" height="10" rx="1" ry="1" fill="#F5B64B" fill-opacity="0.539"/>
<rect x="650" y="83" width="11" height="11" rx="1" ry="1" fill="#F5B342" fill-opacity="0.477"/>
<rect x="220" y="266" width="6" height="6" rx="1" ry="1" fill="#FADFB0" fill-opacity="0.228"/>
<rect x="687" y="215" width="6" height="6" rx="1" ry="1" fill="#F5B342" fill-opacity="0.594"/>
<rect x="551" y="227" width="7" height="7" rx="1" ry="1" fill="#F6BE5D" fill-opacity="0.403"/>
<rect x="250" y="205" width="8" height="8" rx="1" ry="1" fill="#D99F3C" fill-opacity="0.244"/>
<rect x="157" y="183" width="10" height="10" rx="1" ry="1" fill="#FBE4BD" fill-opacity="0.191"/>
<rect x="296" y="58" width="6" height="6" rx="1" ry="1" fill="#F9D89E" fill-opacity="0.302"/>
<rect x="618" y="68" width="11" height="11" rx="1" ry="1" fill="#F5B64B" fill-opacity="0.458"/>
<rect x="526" y="233" width="11" height="11" rx="1" ry="1" fill="#F6C064" fill-opacity="0.473"/>
<rect x="537" y="100" width="9" height="9" rx="1" ry="1" fill="#F6BF61" fill-opacity="0.441"/>
<rect x="376" y="230" width="9" height="9" rx="1" ry="1" fill="#F8D08B" fill-opacity="0.292"/>
<rect x="480" y="130" width="11" height="11" rx="1" ry="1" fill="#F7C570" fill-opacity="0.416"/>
<rect x="444" y="51" width="7" height="7" rx="1" ry="1" fill="#F7C979" fill-opacity="0.398"/>
<rect x="685" y="186" width="9" height="9" rx="1" ry="1" fill="#F5B342" fill-opacity="0.472"/>
<rect x="688" y="1" width="6" height="6" rx="1" ry="1" fill="#D99F3C" fill-opacity="0.522"/>
<rect x="147" y="144" width="6" height="6" rx="1" ry="1" fill="#FBE5BF" fill-opacity="0.174"/>
<rect x="405" y="218" width="11" height="11" rx="1" ry="1" fill="#F8CD83" fill-opacity="0.375"/>
<rect x="455" y="270" width="10" height="10" rx="1" ry="1" fill="#F7C877" fill-opacity="0.348"/>
<rect x="149" y="77" width="6" height="6" rx="1" ry="1" fill="#FBE5BF" fill-opacity="0.179"/>
<rect x="547" y="164" width="7" height="7" rx="1" ry="1" fill="#F6BE5E" fill-opacity="0.389"/>
<rect x="508" y="265" width="8" height="8" rx="1" ry="1" fill="#F7C269" fill-opacity="0.407"/>
<rect x="189" y="252" width="8" height="8" rx="1" ry="1" fill="#FBE2B7" fill-opacity="0.217"/>
<rect x="517" y="267" width="8" height="8" rx="1" ry="1" fill="#D99F3C" fill-opacity="0.435"/>
<rect x="342" y="179" width="10" height="10" rx="1" ry="1" fill="#F9D393" fill-opacity="0.342"/>
<rect x="494" y="211" width="11" height="11" rx="1" ry="1" fill="#D99F3C" fill-opacity="0.379"/>
<rect x="270" y="207" width="11" height="11" rx="1" ry="1" fill="#FADAA4" fill-opacity="0.259"/>
<rect x="694" y="130" width="9" height="9" rx="1" ry="1" fill="#F5B342" fill-opacity="0.598"/>
<rect x="524" y="198" width="9" height="9" rx="1" ry="1" fill="#F6C165" fill-opacity="0.455"/>
<rect x="680" y="196" width="11" height="11" rx="1" ry="1" fill="#F5B342" fill-opacity="0.503"/>
<rect x="513" y="3" width="7" height="7" rx="1" ry="1" fill="#F7C267" fill-opacity="0.417"/>
<rect x="548" y="154" width="6" height="6" rx="1" ry="1" fill="#F6BE5E" fill-opacity="0.419"/>
<rect x="626" y="218" width="11" height="11" rx="1" ry="1" fill="#F5B549" fill-opacity="0.456"/>
<rect x="97" y="60" width="10" height="10" rx="1" ry="1" fill="#FCE9C9" fill-opacity="0.157"/>
<rect x="196" y="225" width="9" height="9" rx="1" ry="1" fill="#FBE1B5" fill-opacity="0.200"/>
<rect x="65" y="211" width="6" height="6" rx="1" ry="1" fill="#FCEBCF" fill-opacity="0.128"/>
<rect x="464" y="160" width="10" height="10" rx="1" ry="1" fill="#F7C774" fill-opacity="0.365"/>
<rect x="207" y="25" width="7" height="7" rx="1" ry="1" fill="#FAE0B3" fill-opacity="0.225"/>
<rect x="622" y="145" width="6" height="6" rx="1" ry="1" fill="#D99F3C" fill-opacity="0.505"/>
<rect x="537" y="244" width="10" height="10" rx="1" ry="1" fill="#F6BF61" fill-opacity="0.403"/>
<rect x="583" y="229" width="9" height="9" rx="1" ry="1" fill="#F6BA55" fill-opacity="0.489"/>
<rect x="501" y="35" width="10" height="10" rx="1" ry="1" fill="#F7C36B" fill-opacity="0.377"/>
<rect x="710" y="137" width="6" height="6" rx="1" ry="1" fill="#F5B342" fill-opacity="0.484"/>
<rect x="51" y="18" width="9" height="9" rx="1" ry="1" fill="#FCECD2" fill-opacity="0.123"/>
<rect x="491" y="98" width="10" height="10" rx="1" ry="1" fill="#F7C46D" fill-opacity="0.410"/>
<rect x="543" y="115" width="10" height="10" rx="1" ry="1" fill="#F6BF5F" fill-opacity="0.474"/>
<rect x="457" y="5" width="6" height="6" rx="1" ry="1" fill="#F7C876" fill-opacity="0.343"/>
<rect x="716" y="123" width="6" height="6" rx="1" ry="1" fill="#F5B342" fill-opacity="0.611"/>
<rect x="683" y="263" width="9" height="9" rx="1" ry="1" fill="#F5B342" fill-opacity="0.512"/>
<rect x="298" y="7" width="11" height="11" rx="1" ry="1" fill="#F9D89E" fill-opacity="0.262"/>
<rect x="369" y="15" width="9" height="9" rx="1" ry="1" fill="#F8D18C" fill-opacity="0.310"/>
<rect x="661" y="158" width="11" height="11" rx="1" ry="1" fill="#F5B342" fill-opacity="0.519"/>
<rect x="441" y="242" width="6" height="6" rx="1" ry="1" fill="#F8C97A" fill-opacity="0.398"/>
<rect x="592" y="21" width="6" height="6" rx="1" ry="1" fill="#F5B952" fill-opacity="0.456"/>
<rect x="572" y="238" width="11" height="11" rx="1" ry="1" fill="#D99F3C" fill-opacity="0.424"/>
<rect x="666" y="61" width="11" height="11" rx="1" ry="1" fill="#F5B342" fill-opacity="0.574"/>
<rect x="504" y="179" width="6" height="6" rx="1" ry="1" fill="#F7C36A" fill-opacity="0.403"/>
<rect x="612" y="269" width="11" height="11" rx="1" ry="1" fill="#F5B74D" fill-opacity="0.430"/>
<rect x="668" y="173" width="7" height="7" rx="1" ry="1" fill="#F5B342" fill-opacity="0.567"/>
<rect x="33" y="106" width="9" height="9" rx="1" ry="1" fill="#FCEED4" fill-opacity="0.114"/>
<rect x="525" y="251" width="7" height="7" rx="1" ry="1" fill="#F6C064" fill-opacity="0.408"/>
<rect x="557" y="150" width="9" height="9" rx="1" ry="1" fill="#F6BD5C" fill-opacity="0.415"/>
<rect x="161" y="55" width="9" height="9" rx="1" ry="1" fill="#FBE4BD" fill-opacity="0.176"/>
<rect x="200" y="205" width="11" height="11" rx="1" ry="1" fill="#FBE1B4" fill-opacity="0.196"/>
<rect x="324" y="227" width="9" height="9" rx="1" ry="1" fill="#F9D597" fill-opacity="0.299"/>
<rect x="431" y="149" width="11" height="11" rx="1" ry="1" fill="#F8CA7D" fill-opacity="0.407"/>
<rect x="468" y="132" width="11" height="11" rx="1" ry="1" fill="#F7C773" fill-opacity="0.400"/>
<rect x="430" y="199" width="11" height="11" rx="1" ry="1" fill="#D99F3C" fill-opacity="0.374"/>
<rect x="291" y="140" width="7" height="7" rx="1" ry="1" fill="#F9D89F" fill-opacity="0.248"/>
<rect x="123" y="31" width="9" height="9" rx="1" ry="1" fill="#FBE7C4" fill-opacity="0.165"/>
<rect x="636" y="233" width="7" height="7" rx="1" ry="1" fill="#D99F3C" fill-opacity="0.472"/>
<rect x="506" y="128" width="9" height="9" rx="1" ry="1" fill="#D99F3C" fill-opacity="0.371"/>
<rect x="548" y="49" width="10" height="10" rx="1" ry="1" fill="#F6BE5E" fill-opacity="0.447"/>
<rect x="49" y="251" width="9" height="9" rx="1" ry="1" fill="#FCEDD2" fill-opacity="0.121"/>
<rect x="447" y="72" width="9" height="9" rx="1" ry="1" fill="#F7C979" fill-opacity="0.392"/>
<rect x="541" y="61" width="7" height="7" rx="1" ry="1" fill="#F6BF60" fill-opacity="0.437"/>
<rect x="188" y="225" width="7" height="7" rx="1" ry="1" fill="#FBE2B7" fill-opacity="0.205"/>
<rect x="334" y="195" width="11" height="11" rx="1" ry="1" fill="#F9D495" fill-opacity="0.320"/>
<rect x="352" y="230" width="6" height="6" rx="1" ry="1" fill="#F9D291" fill-opacity="0.337"/>
<rect x="567" y="179" width="11" height="11" rx="1" ry="1" fill="#F6BC59" fill-opacity="0.470"/>
<rect x="225" y="238" width="6" height="6" rx="1" ry="1" fill="#FADEAF" fill-opacity="0.243"/>
<rect x="45" y="199" width="11" height="11" rx="1" ry="1" fill="#FCEDD3" fill-opacity="0.125"/>
<rect x="173" y="133" width="11" height="11" rx="1" ry="1" fill="#D99F3C" fill-opacity="0.187"/>
<rect x="261" y="38" width="10" height="10" rx="1" ry="1" fill="#FADBA6" fill-opacity="0.268"/>
<rect x="256" y="96" width="11" height="11" rx="1" ry="1" fill="#FADCA8" fill-opacity="0.252"/>
<rect x="153" y="25" width="10" height="10" rx="1" ry="1" fill="#FBE5BE" fill-opacity="0.183"/>
<rect x="115" y="220" width="9" height="9" rx="1" ry="1" fill="#FCE8C6" fill-opacity="0.157"/>
<rect x="55" y="267" width="9" height="9" rx="1" ry="1" fill="#FCECD1" fill-opacity="0.131"/>
<rect x="115" y="139" width="8" height="8" rx="1" ry="1" fill="#FCE8C6" fill-opacity="0.156"/>
<rect x="623" y="43" width="8" height="8" rx="1" ry="1" fill="#F5B64A" fill-opacity="0.557"/>
<rect x="374" y="260" width="8" height="8" rx="1" ry="1" fill="#F8D08B" fill-opacity="0.321"/>
<rect x="513" y="50" width="6" height="6" rx="1" ry="1" fill="#F7C267" fill-opacity="0.417"/>
<rect x="126" y="152" width="10" height="10" rx="1" ry="1" fill="#FBE7C4" fill-opacity="0.168"/>
<rect x="490" y="171" width="9" height="9" rx="1" ry="1" fill="#F7C46E" fill-opacity="0.410"/>
<rect x="582" y="231" width="7" height="7" rx="1" ry="1" fill="#F6BA55" fill-opacity="0.469"/>
<rect x="219" y="119" width="8" height="8" rx="1" ry="1" fill="#FADFB0" fill-opacity="0.209"/>
<rect x="512" y="217" width="11" height="11" rx="1" ry="1" fill="#D99F3C" fill-opacity="0.395"/>
<rect x="353" y="5" width="10" height="10" rx="1" ry="1" fill="#F9D290" fill-opacity="0.331"/>
<rect x="68" y="153" width="10" height="10" rx="1" ry="1" fill="#FCEBCF" fill-opacity="0.131"/>
<rect x="665" y="42" width="11" height="11" rx="1" ry="1" fill="#F5B342" fill-opacity="0.469"/>
<rect x="396" y="269" width="7" height="7" rx="1" ry="1" fill="#F8CE86" fill-opacity="0.347"/>
<rect x="490" y="267" width="9" height="9" rx="1" ry="1" fill="#F7C46E" fill-opacity="0.413"/>
<rect x="579" y="166" width="8" height="8" rx="1" ry="1" fill="#F6BB56" fill-opacity="0.481"/>
<rect x="222" y="149" width="10" height="10" rx="1" ry="1" fill="#FADFAF" fill-opacity="0.239"/>
<rect x="400" y="224" width="6" height="6" rx="1" ry="1" fill="#F8CE85" fill-opacity="0.377"/>
<rect x="516" y="120" width="11" height="11" rx="1" ry="1" fill="#F6C167" fill-opacity="0.466"/>
<rect x="355" y="10" width="9" height="9" rx="1" ry="1" fill="#F9D290" fill-opacity="0.324"/>
<rect x="431" y="78" width="6" height="6" rx="1" ry="1" fill="#F8CA7D" fill-opacity="0.327"/>
<rect x="608" y="231" width="6" height="6" rx="1" ry="1" fill="#F5B74E" fill-opacity="0.554"/>
<rect x="713" y="143" width="11" height="11" rx="1" ry="1" fill="#F5B342" fill-opacity="0.548"/>
<rect x="485" y="270" width="9" height="9" rx="1" ry="1" fill="#F7C56F" fill-opacity="0.358"/>
<rect x="606" y="55" width="10" height="10" rx="1" ry="1" fill="#F5B84E" fill-opacity="0.502"/>
<rect x="612" y="237" width="8" height="8" rx="1" ry="1" fill="#F5B74D" fill-opacity="0.536"/>
<rect x="372" y="45" width="11" height="11" rx="1" ry="1" fill="#F8D08C" fill-opacity="0.287"/>
<rect x="496" y="97" width="8" height="8" rx="1" ry="1" fill="#F7C46C" fill-opacity="0.375"/>
<rect x="716" y="127" width="6" height="6" rx="1" ry="1" fill="#F5B342" fill-opacity="0.610"/>
<rect x="616" y="263" width="11" height="11" rx="1" ry="1" fill="#F5B74C" fill-opacity="0.450"/>
<rect x="569" y="250" width="9" height="9" rx="1" ry="1" fill="#F6BC58" fill-opacity="0.509"/>
<rect x="293" y="198" width="10" height="10" rx="1" ry="1" fill="#F9D89F" fill-opacity="0.274"/>
<rect x="619" y="110" width="6" height="6" rx="1" ry="1" fill="#F5B64B" fill-opacity="0.431"/>
<rect x="656" y="233" width="8" height="8" rx="1" ry="1" fill="#F5B342" fill-opacity="0.560"/>
<rect x="413" y="252" width="9" height="9" rx="1" ry="1" fill="#F8CC81" fill-opacity="0.369"/>
<rect x="244" y="100" width="8" height="8" rx="1" ry="1" fill="#FADDAA" fill-opacity="0.259"/>
<rect x="301" y="71" width="6" height="6" rx="1" ry="1" fill="#F9D79D" fill-opacity="0.288"/>
<rect x="524" y="186" width="7" height="7" rx="1" ry="1" fill="#F6C165" fill-opacity="0.464"/>
<rect x="519" y="104" width="8" height="8" rx="1" ry="1" fill="#F6C166" fill-opacity="0.386"/>
<rect x="705" y="24" width="10" height="10" rx="1" ry="1" fill="#F5B342" fill-opacity="0.477"/>
<rect x="535" y="171" width="6" height="6" rx="1" ry="1" fill="#F6BF62" fill-opacity="0.400"/>
<rect x="223" y="197" width="10" height="10" rx="1" ry="1" fill="#FADFAF" fill-opacity="0.248"/>
<rect x="555" y="234" width="8" height="8" rx="1" ry="1" fill="#F6BD5C" fill-opacity="0.430"/>
<rect x="693" y="94" width="11" height="11" rx="1" ry="1" fill="#F5B342" fill-opacity="0.545"/>
<rect x="696" y="125" width="6" height="6" rx="1" ry="1" fill="#D99F3C" fill-opacity="0.476"/>
<rect x="694" y="152" width="9" height="9" rx="1" ry="1" fill="#F5B342" fill-opacity="0.620"/>
<rect x="390" y="167" width="8" height="8" rx="1" ry="1" fill="#F8CF87" fill-opacity="0.352"/>
<rect x="699" y="7" width="8" height="8" rx="1" ry="1" fill="#F5B342" fill-opacity="0.524"/>
<rect x="11" y="125" width="10" height="10" rx="1" ry="1" fill="#FCEFD8" fill-opacity="0.105"/>
<rect x="602" y="164" width="8" height="8" rx="1" ry="1" fill="#F5B84F" fill-opacity="0.449"/>
<rect x="630" y="146" width="9" height="9" rx="1" ry="1" fill="#F5B548" fill-opacity="0.435"/>
<rect x="485" y="180" width="6" height="6" rx="1" ry="1" fill="#F7C56F" fill-opacity="0.429"/>
<rect x="468" y="151" width="10" height="10" rx="1" ry="1" fill="#F7C773" fill-opacity="0.346"/>
<rect x="595" y="210" width="7" height="7" rx="1" ry="1" fill="#F5B951" fill-opacity="0.455"/>
<rect x="311" y="25" width="10" height="10" rx="1" ry="1" fill="#F9D69B" fill-opacity="0.303"/>
<rect x="642" y="49" width="8" height="8" rx="1" ry="1" fill="#F5B444" fill-opacity="0.575"/>
<rect x="358" y="249" width="10" height="10" rx="1" ry="1" fill="#F9D28F" fill-opacity="0.336"/>
<rect x="676" y="182" width="8" height="8" rx="1" ry="1" fill="#F5B342" fill-opacity="0.496"/>
<rect x="610" y="242" width="10" height="10" rx="1" ry="1" fill="#F5B74D" fill-opacity="0.547"/>
<rect x="468" y="177" width="7" height="7" rx="1" ry="1" fill="#F7C773" fill-opacity="0.344"/>
<rect x="632" y="1" width="8" height="8" rx="1" ry="1" fill="#D99F3C" fill-opacity="0.522"/>
<rect x="374" y="108" width="11" height="11" rx="1" ry="1" fill="#F8D08B" fill-opacity="0.319"/>
<rect x="574" y="190" width="8" height="8" rx="1" ry="1" fill="#F6BB57" fill-opacity="0.456"/>
<rect x="185" y="241" width="7" height="7" rx="1" ry="1" fill="#FBE2B7" fill-opacity="0.205"/>
<rect x="239" y="47" width="10" height="10" rx="1" ry="1" fill="#FADDAB" fill-opacity="0.241"/>
<rect x="660" y="223" width="8" height="8" rx="1" ry="1" fill="#F5B342" fill-opacity="0.579"/>
<rect x="508" y="19" width="11" height="11" rx="1" ry="1" fill="#F7C269" fill-opacity="0.453"/>
<rect x="502" y="153" width="9" height="9" rx="1" ry="1" fill="#F7C36A" fill-opacity="0.393"/>
<rect x="565" y="115" width="9" height="9" rx="1" ry="1" fill="#F6BC5A" fill-opacity="0.501"/>
<rect x="638" y="254" width="6" height="6" rx="1" ry="1" fill="#F5B446" fill-opacity="0.547"/>
<rect x="139" y="47" width="6" height="6" rx="1" ry="1" fill="#FBE6C1" fill-opacity="0.175"/>
<rect x="417" y="101" width="11" height="11" rx="1" ry="1" fill="#F8CC80" fill-opacity="0.344"/>
<rect x="655" y="109" width="6" height="6" rx="1" ry="1" fill="#D99F3C" fill-opacity="0.525"/>
<rect x="354" y="0" width="11" height="11" rx="1" ry="1" fill="#F9D290" fill-opacity="0.351"/>
<rect x="236" y="94" width="11" height="11" rx="1" ry="1" fill="#FADDAC" fill-opacity="0.240"/>
<rect x="193" y="175" width="7" height="7" rx="1" ry="1" fill="#FBE1B6" fill-opacity="0.209"/>
<rect x="207" y="211" width="6" height="6" rx="1" ry="1" fill="#FAE0B3" fill-opacity="0.218"/>
<rect x="258" y="187" width="11" height="11" rx="1" ry="1" fill="#FADBA7" fill-opacity="0.242"/>
<rect x="711" y="115" width="7" height="7" rx="1" ry="1" fill="#F5B342" fill-opacity="0.593"/>
<rect x="84" y="178" width="8" height="8" rx="1" ry="1" fill="#FCEACC" fill-opacity="0.145"/>
<rect x="141" y="234" width="8" height="8" rx="1" ry="1" fill="#FBE6C1" fill-opacity="0.172"/>
<rect x="187" y="63" width="10" height="10" rx="1" ry="1" fill="#FBE2B7" fill-opacity="0.220"/>
<rect x="479" y="70" width="7" height="7" rx="1" ry="1" fill="#F7C570" fill-opacity="0.437"/>
<rect x="581" y="65" width="10" height="10" rx="1" ry="1" fill="#F6BA55" fill-opacity="0.407"/>
<rect x="211" y="75" width="9" height="9" rx="1" ry="1" fill="#FAE0B2" fill-opacity="0.236"/>
<rect x="423" y="181" width="6" height="6" rx="1" ry="1" fill="#F8CB7F" fill-opacity="0.372"/>
<rect x="304" y="181" width="8" height="8" rx="1" ry="1" fill="#F9D79C" fill-opacity="0.274"/>
<rect x="246" y="90" width="11" height="11" rx="1" ry="1" fill="#FADCAA" fill-opacity="0.251"/>
<rect x="717" y="119" width="6" height="6" rx="1" ry="1" fill="#F5B342" fill-opacity="0.625"/>
<rect x="641" y="167" width="6" height="6" rx="1" ry="1" fill="#F5B445" fill-opacity="0.505"/>
<rect x="236" y="242" width="7" height="7" rx="1" ry="1" fill="#FADDAC" fill-opacity="0.225"/>
<rect x="479" y="232" width="7" height="7" rx="1" ry="1" fill="#F7C570" fill-opacity="0.421"/>
<rect x="449" y="224" width="9" height="9" rx="1" ry="1" fill="#F7C878" fill-opacity="0.394"/>
<rect x="192" y="14" width="10" height="10" rx="1" ry="1" fill="#FBE1B6" fill-opacity="0.197"/>
<rect x="297" y="21" width="8" height="8" rx="1" ry="1" fill="#F9D89E" fill-opacity="0.254"/>
<rect x="296" y="261" width="7" height="7" rx="1" ry="1" fill="#F9D89E" fill-opacity="0.281"/>
<rect x="600" y="127" width="10" height="10" rx="1" ry="1" fill="#F5B850" fill-opacity="0.417"/>
<rect x="164" y="209" width="9" height="9" rx="1" ry="1" fill="#FBE4BC" fill-opacity="0.178"/>
<rect x="297" y="196" width="10" height="10" rx="1" ry="1" fill="#F9D89E" fill-opacity="0.281"/>
<rect x="328" y="15" width="9" height="9" rx="1" ry="1" fill="#F9D596" fill-opacity="0.318"/>
<rect x="579" y="111" width="6" height="6" rx="1" ry="1" fill="#F6BB56" fill-opacity="0.464"/>
<rect x="524" y="161" width="7" height="7" rx="1" ry="1" fill="#F6C165" fill-opacity="0.465"/>
<rect x="554" y="87" width="6" height="6" rx="1" ry="1" fill="#F6BD5D" fill-opacity="0.423"/>
<rect x="506" y="63" width="6" height="6" rx="1" ry="1" fill="#F7C369" fill-opacity="0.440"/>
<rect x="352" y="150" width="7" height="7" rx="1" ry="1" fill="#F9D291" fill-opacity="0.306"/>
<rect x="342" y="82" width="11" height="11" rx="1" ry="1" fill="#F9D393" fill-opacity="0.287"/>
<rect x="415" y="72" width="7" height="7" rx="1" ry="1" fill="#F8CC81" fill-opacity="0.342"/>
<rect x="345" y="243" width="9" height="9" rx="1" ry="1" fill="#F9D392" fill-opacity="0.278"/>
<rect x="26" y="26" width="11" height="11" rx="1" ry="1" fill="#FCEED6" fill-opacity="0.112"/>
<rect x="234" y="194" width="7" height="7" rx="1" ry="1" fill="#FADEAD" fill-opacity="0.216"/>
<rect x="298" y="41" width="8" height="8" rx="1" ry="1" fill="#F9D89E" fill-opacity="0.273"/>
<rect x="606" y="163" width="9" height="9" rx="1" ry="1" fill="#F5B84E" fill-opacity="0.440"/>
<rect x="397" y="28" width="11" height="11" rx="1" ry="1" fill="#F8CE85" fill-opacity="0.336"/>
<rect x="677" y="249" width="9" height="9" rx="1" ry="1" fill="#F5B342" fill-opacity="0.587"/>
<rect x="424" y="234" width="10" height="10" rx="1" ry="1" fill="#F8CB7F" fill-opacity="0.327"/>
<rect x="154" y="150" width="9" height="9" rx="1" ry="1" fill="#FBE5BE" fill-opacity="0.182"/>
<rect x="678" y="150" width="6" height="6" rx="1" ry="1" fill="#F5B342" fill-opacity="0.562"/>
<rect x="233" y="234" width="6" height="6" rx="1" ry="1" fill="#FADEAD" fill-opacity="0.249"/>
<rect x="600" y="112" width="9" height="9" rx="1" ry="1" fill="#F5B850" fill-opacity="0.505"/>
<rect x="275" y="126" width="8" height="8" rx="1" ry="1" fill="#FADAA3" fill-opacity="0.274"/>
<rect x="618" y="17" width="8" height="8" rx="1" ry="1" fill="#F5B64B" fill-opacity="0.461"/>
<rect x="137" y="17" width="8" height="8" rx="1" ry="1" fill="#FBE6C1" fill-opacity="0.164"/>
<rect x="625" y="22" width="9" height="9" rx="1" ry="1" fill="#F5B649" fill-opacity="0.474"/>
<rect x="585" y="174" width="10" height="10" rx="1" ry="1" fill="#F5BA54" fill-opacity="0.509"/>
<rect x="676" y="158" width="9" height="9" rx="1" ry="1" fill="#F5B342" fill-opacity="0.602"/>
<rect x="613" y="168" width="10" height="10" rx="1" ry="1" fill="#F5B74C" fill-opacity="0.486"/>
<rect x="243" y="231" width="11" height="11" rx="1" ry="1" fill="#FADDAB" fill-opacity="0.243"/>
<rect x="681" y="51" width="9" height="9" rx="1" ry="1" fill="#F5B342" fill-opacity="0.477"/>
<rect x="660" y="79" width="8" height="8" rx="1" ry="1" fill="#F5B342" fill-opacity="0.543"/>
<rect x="639" y="38" width="10" height="10" rx="1" ry="1" fill="#D99F3C" fill-opacity="0.568"/>
<rect x="660" y="0" width="60" height="280" fill="url(#edgeGlow)"/>
</svg>