<svg xmlns="http://www.w3.org/2000/svg" width="720" height="280" viewBox="0 0 720 280">
      <defs>
        <radialGradient id="vignette" cx="50%" cy="50%" r="75%">
          <stop offset="0%" stop-color="#ffffff" stop-opacity="1"/>
          <stop offset="100%" stop-color="#ffffff" stop-opacity="0.7"/>
        </radialGradient>
        <linearGradient id="edgeGlow" x1="0%" y1="0%" x2="100%" y2="0%">
          <stop offset="0%" stop-color="#ffffff" stop-opacity="0"/>
          <stop offset="100%" stop-color="#ffffff" stop-opacity="0.45"/>
        </linearGradient>
      </defs>
    <rect x="0" y="0" width="720" height="280" fill="url(#vignette)"/>
<rect x="107" y="109" width="10" height="10" rx="1" ry="1" fill="#FBD5E9" fill-opacity="0.149"/>
<rect x="693" y="121" width="8" height="8" rx="1" ry="1" fill="#F472B6" fill-opacity="0.470"/>
<rect x="465" y="181" width="9" height="9" rx="1" ry="1" fill="#F697C9" fill-opacity="0.339"/>
<rect x="519" y="100" width="7" height="7" rx="1" ry="1" fill="#F68DC4" fill-opacity="0.478"/>
<rect x="170" y="2" width="11" height="11" rx="1" ry="1" fill="#FBCCE4" fill-opacity="0.188"/>
<rect x="648" y="5" width="9" height="9" rx="1" ry="1" fill="#F472B6" fill-opacity="0.521"/>
<rect x="357" y="182" width="11" height="11" rx="1" ry="1" fill="#F8ACD4" fill-opacity="0.324"/>
<rect x="523" y="27" width="9" height="9" rx="1" ry="1" fill="#F68CC3" fill-opacity="0.457"/>
<rect x="680" y="220" width="11" height="11" rx="1" ry="1" fill="#F472B6" fill-opacity="0.601"/>
<rect x="606" y="191" width="8" height="8" rx="1" ry="1" fill="#F47BBA" fill-opacity="0.516"/>
<rect x="30" y="256" width="11" height="11" rx="1" ry="1" fill="#FCDFEE" fill-opacity="0.113"/>
<rect x="689" y="156" width="11" height="11" rx="1" ry="1" fill="#F472B6" fill-opacity="0.506"/>
<rect x="346" y="205" width="9" height="9" rx="1" ry="1" fill="#F8AED5" fill-opacity="0.292"/>
<rect x="49" y="28" width="9" height="9" rx="1" ry="1" fill="#FCDDED" fill-opacity="0.129"/>
<rect x="629" y="89" width="9" height="9" rx="1" ry="1" fill="#F476B8" fill-opacity="0.482"/>
<rect x="523" y="103" width="7" height="7" rx="1" ry="1" fill="#D866A2" fill-opacity="0.408"/>
<rect x="458" y="17" width="10" height="10" rx="1" ry="1" fill="#D866A2" fill-opacity="0.360"/>
<rect x="401" y="194" width="8" height="8" rx="1" ry="1" fill="#F7A3CF" fill-opacity="0.363"/>
<rect x="440" y="193" width="11" height="11" rx="1" ry="1" fill="#F79CCC" fill-opacity="0.369"/>
<rect x="586" y="229" width="11" height="11" rx="1" ry="1" fill="#F57FBD" fill-opacity="0.496"/>
<rect x="484" y="23" width="10" height="10" rx="1" ry="1" fill="#F694C7" fill-opacity="0.421"/>
<rect x="155" y="2" width="11" height="11" rx="1" ry="1" fill="#FBCEE5" fill-opacity="0.173"/>
<rect x="666" y="127" width="8" height="8" rx="1" ry="1" fill="#F472B6" fill-opacity="0.521"/>
<rect x="130" y="97" width="6" height="6" rx="1" ry="1" fill="#FBD2E7" fill-opacity="0.167"/>
<rect x="476" y="27" width="10" height="10" rx="1" ry="1" fill="#F695C8" fill-opacity="0.363"/>
<rect x="555" y="133" width="8" height="8" rx="1" ry="1" fill="#F585C0" fill-opacity="0.467"/>
<rect x="332" y="245" width="9" height="9" rx="1" ry="1" fill="#F8B0D6" fill-opacity="0.280"/>
<rect x="137" y="69" width="8" height="8" rx="1" ry="1" fill="#FBD1E7" fill-opacity="0.176"/>
<rect x="712" y="163" width="8" height="8" rx="1" ry="1" fill="#F472B6" fill-opacity="0.540"/>
<rect x="505" y="4" width="6" height="6" rx="1" ry="1" fill="#F68FC5" fill-opacity="0.379"/>
<rect x="481" y="117" width="6" height="6" rx="1" ry="1" fill="#D866A2" fill-opacity="0.407"/>
<rect x="372" y="201" width="8" height="8" rx="1" ry="1" fill="#F8A9D2" fill-opacity="0.365"/>
<rect x="25" y="249" width="8" height="8" rx="1" ry="1" fill="#FCE0EF" fill-opacity="0.113"/>
<rect x="272" y="46" width="6" height="6" rx="1" ry="1" fill="#F9BBDB" fill-opacity="0.239"/>
<rect x="388" y="40" width="6" height="6" rx="1" ry="1" fill="#F8A6D1" fill-opacity="0.300"/>
<rect x="334" y="143" width="10" height="10" rx="1" ry="1" fill="#F8B0D6" fill-opacity="0.313"/>
<rect x="442" y="124" width="9" height="9" rx="1" ry="1" fill="#F79CCB" fill-opacity="0.418"/>
<rect x="391" y="59" width="8" height="8" rx="1" ry="1" fill="#F8A5D0" fill-opacity="0.313"/>
<rect x="301" y="271" width="6" height="6" rx="1" ry="1" fill="#F9B6D9" fill-opacity="0.304"/>
<rect x="618" y="88" width="6" height="6" rx="1" ry="1" fill="#F479B9" fill-opacity="0.511"/>
<rect x="499" y="33" width="10" height="10" rx="1" ry="1" fill="#F691C6" fill-opacity="0.435"/>
<rect x="521" y="244" width="9" height="9" rx="1" ry="1" fill="#D866A2" fill-opacity="0.427"/>
<rect x="531" y="269" width="7" height="7" rx="1" ry="1" fill="#F58AC2" fill-opacity="0.493"/>
<rect x="185" y="172" width="6" height="6" rx="1" ry="1" fill="#FAC9E3" fill-opacity="0.193"/>
<rect x="224" y="180" width="11" height="11" rx="1" ry="1" fill="#FAC3E0" fill-opacity="0.233"/>
<rect x="589" y="219" width="9" height="9" rx="1" ry="1" fill="#F57FBC" fill-opacity="0.449"/>
<rect x="180" y="83" width="11" height="11" rx="1" ry="1" fill="#FACAE3" fill-opacity="0.194"/>
<rect x="652" y="67" width="9" height="9" rx="1" ry="1" fill="#F472B6" fill-opacity="0.459"/>
<rect x="318" y="16" width="8" height="8" rx="1" ry="1" fill="#F9B3D7" fill-opacity="0.297"/>
<rect x="469" y="181" width="6" height="6" rx="1" ry="1" fill="#F696C9" fill-opacity="0.348"/>
<rect x="705" y="87" width="10" height="10" rx="1" ry="1" fill="#F472B6" fill-opacity="0.492"/>
<rect x="376" y="216" width="7" height="7" rx="1" ry="1" fill="#F8A8D2" fill-opacity="0.362"/>
<rect x="199" y="140" width="7" height="7" rx="1" ry="1" fill="#FAC7E2" fill-opacity="0.207"/>
<rect x="455" y="176" width="11" height="11" rx="1" ry="1" fill="#F799CA" fill-opacity="0.368"/>
<rect x="629" y="38" width="7" height="7" rx="1" ry="1" fill="#F476B8" fill-opacity="0.525"/>
<rect x="534" y="19" width="10" height="10" rx="1" ry="1" fill="#F58AC2" fill-opacity="0.492"/>
<rect x="447" y="110" width="11" height="11" rx="1" ry="1" fill="#F79BCB" fill-opacity="0.356"/>
<rect x="620" y="250" width="7" height="7" rx="1" ry="1" fill="#F478B9" fill-opacity="0.550"/>
<rect x="672" y="85" width="6" height="6" rx="1" ry="1" fill="#F472B6" fill-opacity="0.463"/>
<rect x="688" y="154" width="7" height="7" rx="1" ry="1" fill="#F472B6" fill-opacity="0.538"/>
<rect x="672" y="95" width="9" height="9" rx="1" ry="1" fill="#F472B6" fill-opacity="0.477"/>
<rect x="262" y="163" width="9" height="9" rx="1" ry="1" fill="#F9BDDC" fill-opacity="0.241"/>
<rect x="20" y="187" width="6" height="6" rx="1" ry="1" fill="#FCE1EF" fill-opacity="0.109"/>
<rect x="541" y="179" width="7" height="7" rx="1" ry="1" fill="#F588C1" fill-opacity="0.425"/>
<rect x="515" y="135" width="6" height="6" rx="1" ry="1" fill="#F68DC4" fill-opacity="0.433"/>
<rect x="200" y="7" width="7" height="7" rx="1" ry="1" fill="#FAC7E2" fill-opacity="0.226"/>
<rect x="511" y="152" width="6" height="6" rx="1" ry="1" fill="#F68EC4" fill-opacity="0.465"/>
<rect x="482" y="110" width="10" height="10" rx="1" ry="1" fill="#F694C7" fill-opacity="0.369"/>
<rect x="658" y="97" width="9" height="9" rx="1" ry="1" fill="#F472B6" fill-opacity="0.500"/>
<rect x="714" y="259" width="11" height="11" rx="1" ry="1" fill="#F472B6" fill-opacity="0.489"/>
<rect x="499" y="34" width="10" height="10" rx="1" ry="1" fill="#F691C6" fill-opacity="0.451"/>
<rect x="388" y="85" width="8" height="8" rx="1" ry="1" fill="#F8A6D1" fill-opacity="0.296"/>
<rect x="629" y="41" width="9" height="9" rx="1" ry="1" fill="#F476B8" fill-opacity="0.507"/>
<rect x="511" y="115" width="9" height="9" rx="1" ry="1" fill="#F68EC4" fill-opacity="0.411"/>
<rect x="452" y="57" width="7" height="7" rx="1" ry="1" fill="#F79ACA" fill-opacity="0.350"/>
<rect x="316" y="235" width="6" height="6" rx="1" ry="1" fill="#F9B3D7" fill-opacity="0.307"/>
<rect x="626" y="245" width="9" height="9" rx="1" ry="1" fill="#F477B8" fill-opacity="0.501"/>
<rect x="570" y="85" width="11" height="11" rx="1" ry="1" fill="#F582BE" fill-opacity="0.401"/>
<rect x="660" y="22" width="7" height="7" rx="1" ry="1" fill="#F472B6" fill-opacity="0.551"/>
<rect x="326" y="255" width="7" height="7" rx="1" ry="1" fill="#F8B1D7" fill-opacity="0.323"/>
<rect x="361" y="49" width="6" height="6" rx="1" ry="1" fill="#F8ABD3" fill-opacity="0.336"/>
<rect x="468" y="190" width="10" height="10" rx="1" ry="1" fill="#F697C9" fill-opacity="0.421"/>
<rect x="688" y="202" width="10" height="10" rx="1" ry="1" fill="#F472B6" fill-opacity="0.517"/>
<rect x="686" y="132" width="8" height="8" rx="1" ry="1" fill="#F472B6" fill-opacity="0.483"/>
<rect x="379" y="191" width="9" height="9" rx="1" ry="1" fill="#F8A8D1" fill-opacity="0.308"/>
<rect x="589" y="4" width="11" height="11" rx="1" ry="1" fill="#F57FBC" fill-opacity="0.429"/>
<rect x="686" y="205" width="7" height="7" rx="1" ry="1" fill="#F472B6" fill-opacity="0.579"/>
<rect x="633" y="48" width="6" height="6" rx="1" ry="1" fill="#F476B8" fill-opacity="0.557"/>
<rect x="544" y="56" width="9" height="9" rx="1" ry="1" fill="#F588C1" fill-opacity="0.430"/>
<rect x="178" y="136" width="10" height="10" rx="1" ry="1" fill="#FACBE4" fill-opacity="0.200"/>
<rect x="574" y="44" width="8" height="8" rx="1" ry="1" fill="#F582BE" fill-opacity="0.428"/>
<rect x="621" y="252" width="7" height="7" rx="1" ry="1" fill="#F478B9" fill-opacity="0.524"/>
<rect x="427" y="234" width="7" height="7" rx="1" ry="1" fill="#F79FCD" fill-opacity="0.367"/>
<rect x="549" y="232" width="9" height="9" rx="1" ry="1" fill="#F587C0" fill-opacity="0.418"/>
<rect x="397" y="208" width="6" height="6" rx="1" ry="1" fill="#F7A4D0" fill-opacity="0.323"/>
<rect x="683" y="188" width="6" height="6" rx="1" ry="1" fill="#F472B6" fill-opacity="0.597"/>
<rect x="270" y="9" width="8" height="8" rx="1" ry="1" fill="#F9BBDC" fill-opacity="0.263"/>
<rect x="690" y="174" width="11" height="11" rx="1" ry="1" fill="#F472B6" fill-opacity="0.568"/>
<rect x="480" y="64" width="10" height="10" rx="1" ry="1" fill="#F694C8" fill-opacity="0.377"/>
<rect x="197" y="76" width="7" height="7" rx="1" ry="1" fill="#FAC8E2" fill-opacity="0.227"/>
<rect x="623" y="22" width="11" height="11" rx="1" ry="1" fill="#F478B9" fill-opacity="0.479"/>
<rect x="108" y="165" width="7" height="7" rx="1" ry="1" fill="#FBD5E9" fill-opacity="0.165"/>
<rect x="656" y="12" width="11" height="11" rx="1" ry="1" fill="#F472B6" fill-opacity="0.490"/>
<rect x="648" y="72" width="11" height="11" rx="1" ry="1" fill="#F472B6" fill-opacity="0.527"/>
<rect x="586" y="11" width="8" height="8" rx="1" ry="1" fill="#F57FBD" fill-opacity="0.491"/>
<rect x="495" y="192" width="9" height="9" rx="1" ry="1" fill="#D866A2" fill-opacity="0.413"/>
<rect x="540" y="107" width="8" height="8" rx="1" ry="1" fill="#F588C1" fill-opacity="0.409"/>
<rect x="603" y="177" width="7" height="7" rx="1" ry="1" fill="#F47CBB" fill-opacity="0.430"/>
<rect x="298" y="106" width="11" height="11" rx="1" ry="1" fill="#F9B6D9" fill-opacity="0.304"/>
<rect x="244" y="14" width="8" height="8" rx="1" ry="1" fill="#FAC0DE" fill-opacity="0.222"/>
<rect x="177" y="172" width="11" height="11" rx="1" ry="1" fill="#FACBE4" fill-opacity="0.217"/>
<rect x="307" y="163" width="9" height="9" rx="1" ry="1" fill="#F9B5D8" fill-opacity="0.274"/>
<rect x="382" y="250" width="11" height="11" rx="1" ry="1" fill="#D866A2" fill-opacity="0.323"/>
<rect x="381" y="235" width="10" height="10" rx="1" ry="1" fill="#F8A7D1" fill-opacity="0.337"/>
<rect x="487" y="242" width="7" height="7" rx="1" ry="1" fill="#F693C7" fill-opacity="0.414"/>
<rect x="319" y="91" width="6" height="6" rx="1" ry="1" fill="#F9B3D7" fill-opacity="0.317"/>
<rect x="381" y="167" width="6" height="6" rx="1" ry="1" fill="#F8A7D1" fill-opacity="0.336"/>
<rect x="361" y="43" width="10" height="10" rx="1" ry="1" fill="#F8ABD3" fill-opacity="0.298"/>
<rect x="660" y="254" width="8" height="8" rx="1" ry="1" fill="#D866A2" fill-opacity="0.541"/>
<rect x="598" y="119" width="11" height="11" rx="1" ry="1" fill="#F47DBB" fill-opacity="0.546"/>
<rect x="97" y="139" width="9" height="9" rx="1" ry="1" fill="#FBD7EA" fill-opacity="0.155"/>
<rect x="363" y="104" width="8" height="8" rx="1" ry="1" fill="#F8ABD3" fill-opacity="0.340"/>
<rect x="217" y="269" width="9" height="9" rx="1" ry="1" fill="#FAC4E0" fill-opacity="0.246"/>
<rect x="170" y="235" width="11" height="11" rx="1" ry="1" fill="#FBCCE4" fill-opacity="0.207"/>
<rect x="611" y="202" width="6" height="6" rx="1" ry="1" fill="#F47ABA" fill-opacity="0.553"/>
<rect x="592" y="88" width="8" height="8" rx="1" ry="1" fill="#F47EBC" fill-opacity="0.534"/>
<rect x="108" y="39" width="10" height="10" rx="1" ry="1" fill="#FBD5E9" fill-opacity="0.149"/>
<rect x="400" y="236" width="8" height="8" rx="1" ry="1" fill="#F7A4CF" fill-opacity="0.349"/>
<rect x="636" y="162" width="8" height="8" rx="1" ry="1" fill="#F475B7" fill-opacity="0.522"/>
<rect x="604" y="143" width="7" height="7" rx="1" ry="1" fill="#F47CBB" fill-opacity="0.475"/>
<rect x="143" y="260" width="8" height="8" rx="1" ry="1" fill="#FBD0E6" fill-opacity="0.175"/>
<rect x="258" y="229" width="10" height="10" rx="1" ry="1" fill="#F9BDDD" fill-opacity="0.235"/>
<rect x="118" y="67" width="11" height="11" rx="1" ry="1" fill="#FBD4E8" fill-opacity="0.166"/>
<rect x="216" y="113" width="8" height="8" rx="1" ry="1" fill="#FAC4E0" fill-opacity="0.232"/>
<rect x="217" y="176" width="6" height="6" rx="1" ry="1" fill="#FAC4E0" fill-opacity="0.206"/>
<rect x="288" y="129" width="6" height="6" rx="1" ry="1" fill="#F9B8DA" fill-opacity="0.297"/>
<rect x="534" y="25" width="8" height="8" rx="1" ry="1" fill="#D866A2" fill-opacity="0.427"/>
<rect x="491" y="181" width="11" height="11" rx="1" ry="1" fill="#F692C6" fill-opacity="0.387"/>
<rect x="379" y="203" width="11" height="11" rx="1" ry="1" fill="#F8A8D1" fill-opacity="0.337"/>
<rect x="292" y="38" width="7" height="7" rx="1" ry="1" fill="#F9B7DA" fill-opacity="0.283"/>
<rect x="236" y="102" width="9" height="9" rx="1" ry="1" fill="#FAC1DF" fill-opacity="0.227"/>
<rect x="278" y="105" width="11" height="11" rx="1" ry="1" fill="#D866A2" fill-opacity="0.241"/>
<rect x="391" y="21" width="11" height="11" rx="1" ry="1" fill="#F8A5D0" fill-opacity="0.358"/>
<rect x="573" y="0" width="11" height="11" rx="1" ry="1" fill="#F582BE" fill-opacity="0.426"/>
<rect x="426" y="245" width="6" height="6" rx="1" ry="1" fill="#F79FCD" fill-opacity="0.354"/>
<rect x="422" y="166" width="8" height="8" rx="1" ry="1" fill="#F79FCD" fill-opacity="0.323"/>
<rect x="678" y="255" width="7" height="7" rx="1" ry="1" fill="#F472B6" fill-opacity="0.508"/>
<rect x="376" y="76" width="9" height="9" rx="1" ry="1" fill="#F8A8D2" fill-opacity="0.369"/>
<rect x="531" y="265" width="6" height="6" rx="1" ry="1" fill="#F58AC2" fill-opacity="0.483"/>
<rect x="336" y="193" width="7" height="7" rx="1" ry="1" fill="#F8AFD6" fill-opacity="0.295"/>
<rect x="189" y="191" width="7" height="7" rx="1" ry="1" fill="#FAC9E3" fill-opacity="0.206"/>
<rect x="495" y="141" width="9" height="9" rx="1" ry="1" fill="#F691C6" fill-opacity="0.451"/>
<rect x="249" y="25" width="9" height="9" rx="1" ry="1" fill="#FABFDE" fill-opacity="0.253"/>
<rect x="308" y="100" width="7" height="7" rx="1" ry="1" fill="#F9B4D8" fill-opacity="0.303"/>
<rect x="704" y="121" width="11" height="11" rx="1" ry="1" fill="#F472B6" fill-opacity="0.600"/>
<rect x="327" y="205" width="7" height="7" rx="1" ry="1" fill="#F8B1D6" fill-opacity="0.310"/>
<rect x="596" y="208" width="8" height="8" rx="1" ry="1" fill="#F47DBC" fill-opacity="0.517"/>
<rect x="546" y="61" width="10" height="10" rx="1" ry="1" fill="#F587C1" fill-opacity="0.387"/>
<rect x="231" y="228" width="9" height="9" rx="1" ry="1" fill="#FAC2DF" fill-opacity="0.237"/>
<rect x="105" y="72" width="8" height="8" rx="1" ry="1" fill="#FBD6E9" fill-opacity="0.152"/>
<rect x="136" y="192" width="6" height="6" rx="1" ry="1" fill="#FBD1E7" fill-opacity="0.186"/>
<rect x="687" y="26" width="10" height="10" rx="1" ry="1" fill="#F472B6" fill-opacity="0.618"/>
<rect x="258" y="43" width="8" height="8" rx="1" ry="1" fill="#F9BDDD" fill-opacity="0.236"/>
<rect x="585" y="17" width="11" height="11" rx="1" ry="1" fill="#F57FBD" fill-opacity="0.436"/>
<rect x="367" y="71" width="6" height="6" rx="1" ry="1" fill="#D866A2" fill-opacity="0.331"/>
<rect x="301" y="118" width="6" height="6" rx="1" ry="1" fill="#F9B6D9" fill-opacity="0.276"/>
<rect x="67" y="124" width="6" height="6" rx="1" ry="1" fill="#FCDBEC" fill-opacity="0.137"/>
<rect x="226" y="114" width="10" height="10" rx="1" ry="1" fill="#FAC3E0" fill-opacity="0.238"/>
<rect x="250" y="212" width="7" height="7" rx="1" ry="1" fill="#FABFDD" fill-opacity="0.225"/>
<rect x="525" y="202" width="6" height="6" rx="1" ry="1" fill="#F68BC3" fill-opacity="0.374"/>
<rect x="291" y="172" width="9" height="9" rx="1" ry="1" fill="#F9B8DA" fill-opacity="0.284"/>
<rect x="343" y="34" width="9" height="9" rx="1" ry="1" fill="#F8AED5" fill-opacity="0.323"/>
<rect x="545" y="223" width="7" height="7" rx="1" ry="1" fill="#F587C1" fill-opacity="0.494"/>
<rect x="159" y="38" width="7" height="7" rx="1" ry="1" fill="#FBCEE5" fill-opacity="0.196"/>
<rect x="662" y="44" width="10" height="10" rx="1" ry="1" fill="#F472B6" fill-opacity="0.566"/>
<rect x="578" y="107" width="6" height="6" rx="1" ry="1" fill="#D866A2" fill-opacity="0.442"/>
<rect x="246" y="208" width="8" height="8" rx="1" ry="1" fill="#FABFDE" fill-opacity="0.236"/>
<rect x="273" y="211" width="8" height="8" rx="1" ry="1" fill="#F9BBDB" fill-opacity="0.233"/>
<rect x="611" y="117" width="6" height="6" rx="1" ry="1" fill="#F47ABA" fill-opacity="0.530"/>
<rect x="543" y="205" width="10" height="10" rx="1" ry="1" fill="#F588C1" fill-opacity="0.458"/>
<rect x="513" y="108" width="6" height="6" rx="1" ry="1" fill="#F68EC4" fill-opacity="0.409"/>
<rect x="460" y="77" width="9" height="9" rx="1" ry="1" fill="#F798CA" fill-opacity="0.390"/>
<rect x="549" y="15" width="7" height="7" rx="1" ry="1" fill="#F587C0" fill-opacity="0.451"/>
<rect x="663" y="7" width="11" height="11" rx="1" ry="1" fill="#F472B6" fill-opacity="0.563"/>
<rect x="558" y="169" width="7" height="7" rx="1" ry="1" fill="#F585C0" fill-opacity="0.457"/>
<rect x="463" y="107" width="8" height="8" rx="1" ry="1" fill="#F698C9" fill-opacity="0.409"/>
<rect x="486" y="158" width="9" height="9" rx="1" ry="1" fill="#F693C7" fill-opacity="0.419"/>
<rect x="701" y="170" width="7" height="7" rx="1" ry="1" fill="#F472B6" fill-opacity="0.556"/>
<rect x="465" y="255" width="11" height="11" rx="1" ry="1" fill="#F697C9" fill-opacity="0.435"/>
<rect x="587" y="106" width="7" height="7" rx="1" ry="1" fill="#F57FBC" fill-opacity="0.494"/>
<rect x="291" y="261" width="11" height="11" rx="1" ry="1" fill="#F9B8DA" fill-opacity="0.246"/>
<rect x="286" y="146" width="7" height="7" rx="1" ry="1" fill="#F9B8DA" fill-opacity="0.272"/>
<rect x="295" y="162" width="10" height="10" rx="1" ry="1" fill="#F9B7D9" fill-opacity="0.267"/>
<rect x="476" y="165" width="11" height="11" rx="1" ry="1" fill="#F695C8" fill-opacity="0.406"/>
<rect x="385" y="228" width="7" height="7" rx="1" ry="1" fill="#D866A2" fill-opacity="0.362"/>
<rect x="489" y="84" width="9" height="9" rx="1" ry="1" fill="#F693C7" fill-opacity="0.369"/>
<rect x="687" y="136" width="10" height="10" rx="1" ry="1" fill="#F472B6" fill-opacity="0.556"/>
<rect x="112" y="47" width="11" height="11" rx="1" ry="1" fill="#FBD5E9" fill-opacity="0.161"/>
<rect x="646" y="141" width="9" height="9" rx="1" ry="1" fill="#F473B6" fill-opacity="0.446"/>
<rect x="445" y="98" width="10" height="10" rx="1" ry="1" fill="#F79BCB" fill-opacity="0.402"/>
<rect x="462" y="264" width="9" height="9" rx="1" ry="1" fill="#F698C9" fill-opacity="0.341"/>
<rect x="246" y="224" width="7" height="7" rx="1" ry="1" fill="#FABFDE" fill-opacity="0.244"/>
<rect x="544" y="225" width="7" height="7" rx="1" ry="1" fill="#F588C1" fill-opacity="0.475"/>
<rect x="609" y="8" width="6" height="6" rx="1" ry="1" fill="#F47ABA" fill-opacity="0.446"/>
<rect x="626" y="164" width="7" height="7" rx="1" ry="1" fill="#F477B8" fill-opacity="0.487"/>
<rect x="683" y="265" width="6" height="6" rx="1" ry="1" fill="#F472B6" fill-opacity="0.607"/>
<rect x="606" y="45" width="7" height="7" rx="1" ry="1" fill="#F47BBA" fill-opacity="0.445"/>
<rect x="264" y="57" width="11" height="11" rx="1" ry="1" fill="#F9BCDC" fill-opacity="0.229"/>
<rect x="500" y="145" width="9" height="9" rx="1" ry="1" fill="#F690C5" fill-opacity="0.369"/>
<rect x="599" y="56" width="11" height="11" rx="1" ry="1" fill="#F47DBB" fill-opacity="0.459"/>
<rect x="646" y="19" width="11" height="11" rx="1" ry="1" fill="#F473B6" fill-opacity="0.563"/>
<rect x="227" y="257" width="6" height="6" rx="1" ry="1" fill="#FAC3DF" fill-opacity="0.232"/>
<rect x="551" y="129" width="8" height="8" rx="1" ry="1" fill="#F586C0" fill-opacity="0.470"/>
<rect x="64" y="118" width="7" height="7" rx="1" ry="1" fill="#FCDBEC" fill-opacity="0.134"/>
<rect x="83" y="252" width="7" height="7" rx="1" ry="1" fill="#FCD9EB" fill-opacity="0.148"/>
<rect x="375" y="230" width="10" height="10" rx="1" ry="1" fill="#F8A8D2" fill-opacity="0.318"/>
<rect x="281" y="228" width="10" height="10" rx="1" ry="1" fill="#F9B9DB" fill-opacity="0.251"/>
<rect x="272" y="272" width="11" height="11" rx="1" ry="1" fill="#F9BBDB" fill-opacity="0.265"/>
<rect x="637" y="253" width="7" height="7" rx="1" ry="1" fill="#F475B7" fill-opacity="0.467"/>
<rect x="206" y="180" width="11" height="11" rx="1" ry="1" fill="#FAC6E1" fill-opacity="0.201"/>
<rect x="670" y="199" width="6" height="6" rx="1" ry="1" fill="#F472B6" fill-opacity="0.486"/>
<rect x="445" y="139" width="9" height="9" rx="1" ry="1" fill="#F79BCB" fill-opacity="0.377"/>
<rect x="489" y="272" width="8" height="8" rx="1" ry="1" fill="#F693C7" fill-opacity="0.450"/>
<rect x="130" y="73" width="8" height="8" rx="1" ry="1" fill="#FBD2E7" fill-opacity="0.168"/>
<rect x="664" y="116" width="6" height="6" rx="1" ry="1" fill="#F472B6" fill-opacity="0.496"/>
<rect x="406" y="250" width="6" height="6" rx="1" ry="1" fill="#F7A2CF" fill-opacity="0.363"/>
<rect x="204" y="112" width="11" height="11" rx="1" ry="1" fill="#FAC6E1" fill-opacity="0.212"/>
<rect x="506" y="89" width="8" height="8" rx="1" ry="1" fill="#F68FC5" fill-opacity="0.447"/>
<rect x="534" y="34" width="6" height="6" rx="1" ry="1" fill="#F58AC2" fill-opacity="0.415"/>
<rect x="545" y="4" width="9" height="9" rx="1" ry="1" fill="#F587C1" fill-opacity="0.434"/>
<rect x="352" y="245" width="8" height="8" rx="1" ry="1" fill="#F8ADD4" fill-opacity="0.342"/>
<rect x="91" y="134" width="11" height="11" rx="1" ry="1" fill="#FBD8EA" fill-opacity="0.154"/>
<rect x="254" y="10" width="9" height="9" rx="1" ry="1" fill="#F9BEDD" fill-opacity="0.231"/>
<rect x="623" y="213" width="8" height="8" rx="1" ry="1" fill="#F478B9" fill-opacity="0.480"/>
<rect x="355" y="268" width="7" height="7" rx="1" ry="1" fill="#F8ACD4" fill-opacity="0.311"/>
<rect x="647" y="207" width="6" height="6" rx="1" ry="1" fill="#F473B6" fill-opacity="0.566"/>
<rect x="571" y="5" width="9" height="9" rx="1" ry="1" fill="#F582BE" fill-opacity="0.455"/>
<rect x="593" y="78" width="7" height="7" rx="1" ry="1" fill="#F47EBC" fill-opacity="0.449"/>
<rect x="438" y="37" width="9" height="9" rx="1" ry="1" fill="#F79CCC" fill-opacity="0.351"/>
<rect x="337" y="39" width="11" height="11" rx="1" ry="1" fill="#F8AFD5" fill-opacity="0.335"/>
<rect x="340" y="146" width="10" height="10" rx="1" ry="1" fill="#F8AFD5" fill-opacity="0.333"/>
<rect x="429" y="2" width="6" height="6" rx="1" ry="1" fill="#F79ECD" fill-opacity="0.378"/>
<rect x="410" y="59" width="10" height="10" rx="1" ry="1" fill="#F7A2CE" fill-opacity="0.315"/>
<rect x="366" y="80" width="11" height="11" rx="1" ry="1" fill="#F8AAD3" fill-opacity="0.324"/>
<rect x="441" y="269" width="6" height="6" rx="1" ry="1" fill="#F79CCB" fill-opacity="0.395"/>
<rect x="149" y="65" width="6" height="6" rx="1" ry="1" fill="#FBCFE6" fill-opacity="0.193"/>
<rect x="97" y="54" width="11" height="11" rx="1" ry="1" fill="#FBD7EA" fill-opacity="0.157"/>
<rect x="595" y="172" width="9" height="9" rx="1" ry="1" fill="#F47DBC" fill-opacity="0.521"/>
<rect x="541" y="179" width="11" height="11" rx="1" ry="1" fill="#F588C1" fill-opacity="0.452"/>
<rect x="267" y="9" width="9" height="9" rx="1" ry="1" fill="#F9BCDC" fill-opacity="0.282"/>
<rect x="282" y="32" width="8" height="8" rx="1" ry="1" fill="#F9B9DB" fill-opacity="0.252"/>
<rect x="586" y="6" width="7" height="7" rx="1" ry="1" fill="#D866A2" fill-opacity="0.537"/>
<rect x="652" y="263" width="8" height="8" rx="1" ry="1" fill="#F472B6" fill-opacity="0.473"/>
<rect x="326" y="243" width="10" height="10" rx="1" ry="1" fill="#F8B1D7" fill-opacity="0.302"/>
<rect x="629" y="8" width="8" height="8" rx="1" ry="1" fill="#F476B8" fill-opacity="0.487"/>
<rect x="607" y="77" width="11" height="11" rx="1" ry="1" fill="#F47BBA" fill-opacity="0.550"/>
<rect x="568" y="252" width="9" height="9" rx="1" ry="1" fill="#F583BE" fill-opacity="0.428"/>
<rect x="224" y="116" width="9" height="9" rx="1" ry="1" fill="#FAC3E0" fill-opacity="0.252"/>
<rect x="241" y="145" width="7" height="7" rx="1" ry="1" fill="#FAC0DE" fill-opacity="0.240"/>
<rect x="670" y="109" width="10" height="10" rx="1" ry="1" fill="#F472B6" fill-opacity="0.566"/>
<rect x="661" y="122" width="11" height="11" rx="1" ry="1" fill="#F472B6" fill-opacity="0.584"/>
<rect x="535" y="136" width="9" height="9" rx="1" ry="1" fill="#F589C2" fill-opacity="0.396"/>
<rect x="461" y="102" width="9" height="9" rx="1" ry="1" fill="#F798C9" fill-opacity="0.407"/>
<rect x="673" y="233" width="8" height="8" rx="1" ry="1" fill="#F472B6" fill-opacity="0.561"/>
<rect x="138" y="58" width="7" height="7" rx="1" ry="1" fill="#FBD1E7" fill-opacity="0.182"/>
<rect x="326" y="90" width="6" height="6" rx="1" ry="1" fill="#F8B1D7" fill-opacity="0.270"/>
<rect x="695" y="107" width="6" height="6" rx="1" ry="1" fill="#F472B6" fill-opacity="0.551"/>
<rect x="700" y="71" width="8" height="8" rx="1" ry="1" fill="#F472B6" fill-opacity="0.618"/>
<rect x="10" y="90" width="6" height="6" rx="1" ry="1" fill="#FCE2F0" fill-opacity="0.105"/>
<rect x="115" y="100" width="10" height="10" rx="1" ry="1" fill="#FBD4E9" fill-opacity="0.169"/>
<rect x="666" y="149" width="9" height="9" rx="1" ry="1" fill="#F472B6" fill-opacity="0.501"/>
<rect x="270" y="136" width="9" height="9" rx="1" ry="1" fill="#D866A2" fill-opacity="0.235"/>
<rect x="651" y="154" width="9" height="9" rx="1" ry="1" fill="#F472B6" fill-opacity="0.488"/>
<rect x="427" y="125" width="6" height="6" rx="1" ry="1" fill="#D866A2" fill-opacity="0.336"/>
<rect x="712" y="175" width="6" height="6" rx="1" ry="1" fill="#F472B6" fill-opacity="0.568"/>
<rect x="425" y="60" width="9" height="9" rx="1" ry="1" fill="#F79FCD" fill-opacity="0.344"/>
<rect x="308" y="152" width="6" height="6" rx="1" ry="1" fill="#F9B4D8" fill-opacity="0.270"/>
<rect x="52" y="202" width="6" height="6" rx="1" ry="1" fill="#FCDDED" fill-opacity="0.124"/>
<rect x="589" y="237" width="6" height="6" rx="1" ry="1" fill="#F57FBC" fill-opacity="0.459"/>
<rect x="671" y="24" width="11" height="11" rx="1" ry="1" fill="#D866A2" fill-opacity="0.587"/>
<rect x="622" y="224" width="9" height="9" rx="1" ry="1" fill="#F478B9" fill-opacity="0.446"/>
<rect x="652" y="218" width="8" height="8" rx="1" ry="1" fill="#F472B6" fill-opacity="0.556"/>
<rect x="153" y="162" width="9" height="9" rx="1" ry="1" fill="#FBCFE6" fill-opacity="0.173"/>
<rect x="632" y="216" width="9" height="9" rx="1" ry="1" fill="#F476B8" fill-opacity="0.548"/>
<rect x="598" y="172" width="9" height="9" rx="1" ry="1" fill="#F47DBB" fill-opacity="0.532"/>
<rect x="416" y="128" width="8" height="8" rx="1" ry="1" fill="#F7A1CE" fill-opacity="0.392"/>
<rect x="606" y="131" width="11" height="11" rx="1" ry="1" fill="#F47BBA" fill-opacity="0.504"/>
<rect x="588" y="35" width="6" height="6" rx="1" ry="1" fill="#F57FBC" fill-opacity="0.445"/>
<rect x="389" y="60" width="11" height="11" rx="1" ry="1" fill="#F8A6D1" fill-opacity="0.377"/>
<rect x="679" y="33" width="11" height="11" rx="1" ry="1" fill="#F472B6" fill-opacity="0.590"/>
<rect x="216" y="107" width="11" height="11" rx="1" ry="1" fill="#D866A2" fill-opacity="0.220"/>
<rect x="479" y="188" width="11" height="11" rx="1" ry="1" fill="#F694C8" fill-opacity="0.423"/>
<rect x="347" y="141" width="9" height="9" rx="1" ry="1" fill="#F8ADD5" fill-opacity="0.303"/>
<rect x="687" y="103" width="7" height="7" rx="1" ry="1" fill="#F472B6" fill-opacity="0.523"/>
<rect x="108" y="59" width="10" height="10" rx="1" ry="1" fill="#FBD5E9" fill-opacity="0.155"/>
<rect x="175" y="241" width="11" height="11" rx="1" ry="1" fill="#FACBE4" fill-opacity="0.211"/>
<rect x="692" y="20" width="8" height="8" rx="1" ry="1" fill="#F472B6" fill-opacity="0.504"/>
<rect x="344" y="35" width="6" height="6" rx="1" ry="1" fill="#D866A2" fill-opacity="0.299"/>
<rect x="474" y="150" width="7" height="7" rx="1" ry="1" fill="#F695C8" fill-opacity="0.402"/>
<rect x="650" y="47" width="8" height="8" rx="1" ry="1" fill="#F472B6" fill-opacity="0.553"/>
<rect x="561" y="250" width="9" height="9" rx="1" ry="1" fill="#F584BF" fill-opacity="0.402"/>
<rect x="437" y="205" width="7" height="7" rx="1" ry="1" fill="#F79DCC" fill-opacity="0.345"/>
<rect x="529" y="135" width="6" height="6" rx="1" ry="1" fill="#F58BC3" fill-opacity="0.459"/>
<rect x="264" y="86" width="6" height="6" rx="1" ry="1" fill="#F9BCDC" fill-opacity="0.236"/>
<rect x="165" y="149" width="10" height="10" rx="1" ry="1" fill="#FBCDE5" fill-opacity="0.187"/>
<rect x="431" y="15" width="7" height="7" rx="1" ry="1" fill="#F79ECC" fill-opacity="0.369"/>
<rect x="629" y="122" width="6" height="6" rx="1" ry="1" fill="#F476B8" fill-opacity="0.454"/>
<rect x="438" y="65" width="7" height="7" rx="1" ry="1" fill="#F79CCC" fill-opacity="0.365"/>
<rect x="131" y="54" width="6" height="6" rx="1" ry="1" fill="#FBD2E7" fill-opacity="0.179"/>
<rect x="433" y="42" width="8" height="8" rx="1" ry="1" fill="#F79DCC" fill-opacity="0.370"/>
<rect x="170" y="184" width="8" height="8" rx="1" ry="1" fill="#FBCCE4" fill-opacity="0.179"/>
<rect x="428" y="121" width="11" height="11" rx="1" ry="1" fill="#F79ECD" fill-opacity="0.353"/>
<rect x="120" y="127" width="7" height="7" rx="1" ry="1" fill="#FBD4E8" fill-opacity="0.169"/>
<rect x="158" y="104" width="7" height="7" rx="1" ry="1" fill="#FBCEE5" fill-opacity="0.197"/>
<rect x="208" y="26" width="6" height="6" rx="1" ry="1" fill="#FAC6E1" fill-opacity="0.233"/>
<rect x="179" y="264" width="10" height="10" rx="1" ry="1" fill="#FACAE4" fill-opacity="0.187"/>
<rect x="137" y="7" width="8" height="8" rx="1" ry="1" fill="#FBD1E7" fill-opacity="0.169"/>
<rect x="336" y="205" width="7" height="7" rx="1" ry="1" fill="#F8AFD6" fill-opacity="0.288"/>
<rect x="486" y="18" width="7" height="7" rx="1" ry="1" fill="#F693C7" fill-opacity="0.439"/>
<rect x="328" y="48" width="8" height="8" rx="1" ry="1" fill="#F8B1D6" fill-opacity="0.280"/>
<rect x="372" y="118" width="6" height="6" rx="1" ry="1" fill="#F8A9D2" fill-opacity="0.313"/>
<rect x="199" y="102" width="8" height="8" rx="1" ry="1" fill="#FAC7E2" fill-opacity="0.209"/>
<rect x="649" y="216" width="9" height="9" rx="1" ry="1" fill="#F472B6" fill-opacity="0.570"/>
<rect x="548" y="226" width="11" height="11" rx="1" ry="1" fill="#F587C1" fill-opacity="0.403"/>
<rect x="378" y="252" width="9" height="9" rx="1" ry="1" fill="#F8A8D2" fill-opacity="0.355"/>
<rect x="404" y="269" width="7" height="7" rx="1" ry="1" fill="#F7A3CF" fill-opacity="0.359"/>
<rect x="171" y="173" width="11" height="11" rx="1" ry="1" fill="#FBCCE4" fill-opacity="0.198"/>
<rect x="606" y="83" width="7" height="7" rx="1" ry="1" fill="#D866A2" fill-opacity="0.506"/>
<rect x="92" y="37" width="10" height="10" rx="1" ry="1" fill="#FBD8EA" fill-opacity="0.142"/>
<rect x="62" y="192" width="7" height="7" rx="1" ry="1" fill="#FCDCEC" fill-opacity="0.133"/>
<rect x="719" y="223" width="7" height="7" rx="1" ry="1" fill="#F472B6" fill-opacity="0.584"/>
<rect x="331" y="64" width="8" height="8" rx="1" ry="1" fill="#F8B0D6" fill-opacity="0.276"/>
<rect x="87" y="46" width="6" height="6" rx="1" ry="1" fill="#FCD8EB" fill-opacity="0.139"/>
<rect x="716" y="123" width="6" height="6" rx="1" ry="1" fill="#F472B6" fill-opacity="0.620"/>
<rect x="508" y="17" width="6" height="6" rx="1" ry="1" fill="#F68FC5" fill-opacity="0.455"/>
<rect x="687" y="182" width="8" height="8" rx="1" ry="1" fill="#F472B6" fill-opacity="0.548"/>
<rect x="118" y="164" width="10" height="10" rx="1" ry="1" fill="#FBD4E8" fill-opacity="0.154"/>
<rect x="703" y="248" width="10" height="10" rx="1" ry="1" fill="#F472B6" fill-opacity="0.512"/>
<rect x="691" y="25" width="9" height="9" rx="1" ry="1" fill="#F472B6" fill-opacity="0.559"/>
<rect x="603" y="2" width="9" height="9" rx="1" ry="1" fill="#F47CBB" fill-opacity="0.521"/>
<rect x="539" y="125" width="6" height="6" rx="1" ry="1" fill="#F589C1" fill-opacity="0.427"/>
<rect x="560" y="11" width="7" height="7" rx="1" ry="1" fill="#F584BF" fill-opacity="0.497"/>
<rect x="181" y="190" width="6" height="6" rx="1" ry="1" fill="#FACAE3" fill-opacity="0.193"/>
<rect x="481" y="133" width="7" height="7" rx="1" ry="1" fill="#F694C7" fill-opacity="0.430"/>
<rect x="452" y="41" width="9" height="9" rx="1" ry="1" fill="#F79ACA" fill-opacity="0.419"/>
<rect x="462" y="131" width="11" height="11" rx="1" ry="1" fill="#F698C9" fill-opacity="0.360"/>
<rect x="696" y="94" width="9" height="9" rx="1" ry="1" fill="#D866A2" fill-opacity="0.487"/>
<rect x="650" y="56" width="9" height="9" rx="1" ry="1" fill="#F472B6" fill-opacity="0.486"/>
<rect x="588" y="57" width="10" height="10" rx="1" ry="1" fill="#F57FBC" fill-opacity="0.417"/>
<rect x="624" y="163" width="7" height="7" rx="1" ry="1" fill="#F477B9" fill-opacity="0.453"/>
<rect x="578" y="180" width="10" height="10" rx="1" ry="1" fill="#F581BD" fill-opacity="0.502"/>
<rect x="390" y="175" width="11" height="11" rx="1" ry="1" fill="#F8A5D0" fill-opacity="0.317"/>
<rect x="439" y="216" width="9" height="9" rx="1" ry="1" fill="#F79CCC" fill-opacity="0.333"/>
<rect x="148" y="29" width="9" height="9" rx="1" ry="1" fill="#FBCFE6" fill-opacity="0.169"/>
<rect x="365" y="101" width="8" height="8" rx="1" ry="1" fill="#F8AAD3" fill-opacity="0.323"/>
<rect x="271" y="14" width="6" height="6" rx="1" ry="1" fill="#F9BBDC" fill-opacity="0.251"/>
<rect x="278" y="142" width="9" height="9" rx="1" ry="1" fill="#F9BADB" fill-opacity="0.238"/>
<rect x="225" y="77" width="8" height="8" rx="1" ry="1" fill="#FAC3E0" fill-opacity="0.234"/>
<rect x="281" y="58" width="7" height="7" rx="1" ry="1" fill="#F9B9DB" fill-opacity="0.245"/>
<rect x="629" y="162" width="11" height="11" rx="1" ry="1" fill="#F476B8" fill-opacity="0.498"/>
<rect x="352" y="250" width="6" height="6" rx="1" ry="1" fill="#F8ADD4" fill-opacity="0.280"/>
<rect x="634" y="208" width="6" height="6" rx="1" ry="1" fill="#F475B8" fill-opacity="0.474"/>
<rect x="319" y="187" width="10" height="10" rx="1" ry="1" fill="#F9B3D7" fill-opacity="0.319"/>
<rect x="414" y="14" width="6" height="6" rx="1" ry="1" fill="#F7A1CE" fill-opacity="0.372"/>
<rect x="318" y="182" width="11" height="11" rx="1" ry="1" fill="#F9B3D7" fill-opacity="0.294"/>
<rect x="283" y="205" width="8" height="8" rx="1" ry="1" fill="#F9B9DA" fill-opacity="0.291"/>
<rect x="380" y="170" width="10" height="10" rx="1" ry="1" fill="#F8A7D1" fill-opacity="0.296"/>
<rect x="466" y="178" width="9" height="9" rx="1" ry="1" fill="#F697C9" fill-opacity="0.375"/>
<rect x="582" y="226" width="9" height="9" rx="1" ry="1" fill="#F580BD" fill-opacity="0.464"/>
<rect x="206" y="63" width="7" height="7" rx="1" ry="1" fill="#FAC6E1" fill-opacity="0.233"/>
<rect x="510" y="244" width="7" height="7" rx="1" ry="1" fill="#F68EC4" fill-opacity="0.446"/>
<rect x="520" y="48" width="10" height="10" rx="1" ry="1" fill="#F68CC3" fill-opacity="0.460"/>
<rect x="599" y="168" width="6" height="6" rx="1" ry="1" fill="#D866A2" fill-opacity="0.533"/>
<rect x="548" y="47" width="8" height="8" rx="1" ry="1" fill="#F587C1" fill-opacity="0.436"/>
<rect x="506" y="81" width="8" height="8" rx="1" ry="1" fill="#F68FC5" fill-opacity="0.436"/>
<rect x="373" y="240" width="8" height="8" rx="1" ry="1" fill="#F8A9D2" fill-opacity="0.300"/>
<rect x="24" y="25" width="8" height="8" rx="1" ry="1" fill="#FCE0EF" fill-opacity="0.110"/>
<rect x="449" y="146" width="9" height="9" rx="1" ry="1" fill="#F79ACB" fill-opacity="0.344"/>
<rect x="499" y="101" width="11" height="11" rx="1" ry="1" fill="#F691C6" fill-opacity="0.422"/>
<rect x="688" y="190" width="6" height="6" rx="1" ry="1" fill="#F472B6" fill-opacity="0.568"/>
<rect x="425" y="202" width="8" height="8" rx="1" ry="1" fill="#F79FCD" fill-opacity="0.335"/>
<rect x="470" y="175" width="8" height="8" rx="1" ry="1" fill="#F696C9" fill-opacity="0.398"/>
<rect x="598" y="200" width="10" height="10" rx="1" ry="1" fill="#F47DBB" fill-opacity="0.509"/>
<rect x="313" y="18" width="8" height="8" rx="1" ry="1" fill="#F9B4D8" fill-opacity="0.271"/>
<rect x="608" y="270" width="9" height="9" rx="1" ry="1" fill="#F47BBA" fill-opacity="0.532"/>
<rect x="253" y="199" width="11" height="11" rx="1" ry="1" fill="#F9BEDD" fill-opacity="0.240"/>
<rect x="696" y="70" width="7" height="7" rx="1" ry="1" fill="#F472B6" fill-opacity="0.528"/>
<rect x="681" y="102" width="7" height="7" rx="1" ry="1" fill="#F472B6" fill-opacity="0.483"/>
<rect x="258" y="206" width="9" height="9" rx="1" ry="1" fill="#F9BDDD" fill-opacity="0.255"/>
<rect x="102" y="122" width="10" height="10" rx="1" ry="1" fill="#FBD6EA" fill-opacity="0.148"/>
<rect x="151" y="163" width="9" height="9" rx="1" ry="1" fill="#FBCFE6" fill-opacity="0.188"/>
<rect x="241" y="86" width="10" height="10" rx="1" ry="1" fill="#FAC0DE" fill-opacity="0.223"/>
<rect x="389" y="31" width="9" height="9" rx="1" ry="1" fill="#F8A6D1" fill-opacity="0.308"/>
<rect x="359" y="160" width="6" height="6" rx="1" ry="1" fill="#F8ABD3" fill-opacity="0.307"/>
<rect x="479" y="258" width="7" height="7" rx="1" ry="1" fill="#F694C8" fill-opacity="0.441"/>
<rect x="261" y="208" width="9" height="9" rx="1" ry="1" fill="#F9BDDC" fill-opacity="0.240"/>
<rect x="655" y="105" width="11" height="11" rx="1" ry="1" fill="#F472B6" fill-opacity="0.474"/>
<rect x="520" y="70" width="11" height="11" rx="1" ry="1" fill="#F68CC3" fill-opacity="0.404"/>
<rect x="327" y="26" width="7" height="7" rx="1" ry="1" fill="#F8B1D6" fill-opacity="0.328"/>
<rect x="254" y="139" width="8" height="8" rx="1" ry="1" fill="#F9BEDD" fill-opacity="0.237"/>
<rect x="700" y="164" width="11" height="11" rx="1" ry="1" fill="#F472B6" fill-opacity="0.584"/>
<rect x="326" y="144" width="7" height="7" rx="1" ry="1" fill="#F8B1D7" fill-opacity="0.270"/>
<rect x="241" y="169" width="11" height="11" rx="1" ry="1" fill="#FAC0DE" fill-opacity="0.221"/>
<rect x="599" y="205" width="7" height="7" rx="1" ry="1" fill="#F47DBB" fill-opacity="0.482"/>
<rect x="15" y="99" width="7" height="7" rx="1" ry="1" fill="#FCE1EF" fill-opacity="0.106"/>
<rect x="222" y="118" width="7" height="7" rx="1" ry="1" fill="#FAC3E0" fill-opacity="0.233"/>
<rect x="269" y="186" width="8" height="8" rx="1" ry="1" fill="#F9BBDC" fill-opacity="0.261"/>
<rect x="566" y="71" width="9" height="9" rx="1" ry="1" fill="#F583BF" fill-opacity="0.490"/>
<rect x="482" y="109" width="10" height="10" rx="1" ry="1" fill="#F694C7" fill-opacity="0.441"/>
<rect x="329" y="260" width="7" height="7" rx="1" ry="1" fill="#F8B1D6" fill-opacity="0.272"/>
<rect x="454" y="41" width="6" height="6" rx="1" ry="1" fill="#F799CA" fill-opacity="0.406"/>
<rect x="488" y="241" width="11" height="11" rx="1" ry="1" fill="#F693C7" fill-opacity="0.449"/>
<rect x="490" y="167" width="11" height="11" rx="1" ry="1" fill="#F692C6" fill-opacity="0.365"/>
<rect x="572" y="120" width="10" height="10" rx="1" ry="1" fill="#F582BE" fill-opacity="0.467"/>
<rect x="521" y="230" width="10" height="10" rx="1" ry="1" fill="#D866A2" fill-opacity="0.413"/>
<rect x="460" y="21" width="9" height="9" rx="1" ry="1" fill="#F798CA" fill-opacity="0.351"/>
<rect x="667" y="61" width="11" height="11" rx="1" ry="1" fill="#F472B6" fill-opacity="0.468"/>
<rect x="371" y="86" width="8" height="8" rx="1" ry="1" fill="#F8A9D2" fill-opacity="0.318"/>
<rect x="654" y="153" width="9" height="9" rx="1" ry="1" fill="#F472B6" fill-opacity="0.459"/>
<rect x="219" y="196" width="10" height="10" rx="1" ry="1" fill="#FAC4E0" fill-opacity="0.232"/>
<rect x="660" y="0" width="60" height="280" fill="url(#edgeGlow)"/>
</svg>