<svg xmlns="http://www.w3.org/2000/svg" width="720" height="280" viewBox="0 0 720 280">
      <defs>
        <radialGradient id="vignette" cx="50%" cy="50%" r="75%">
          <stop offset="0%" stop-color="#ffffff" stop-opacity="1"/>
          <stop offset="100%" stop-color="#ffffff" stop-opacity="0.7"/>
        </radialGradient>
        <linearGradient id="edgeGlow" x1="0%" y1="0%" x2="100%" y2="0%">
          <stop offset="0%" stop-color="#ffffff" stop-opacity="0"/>
          <stop offset="100%" stop-color="#ffffff" stop-opacity="0.45"/>
        </linearGradient>
      </defs>
    <rect x="0" y="0" width="720" height="280" fill="url(#vignette)"/>
<rect x="662" y="227" width="10" height="10" rx="1" ry="1" fill="#60A5FA" fill-opacity="0.456"/>
<rect x="712" y="49" width="10" height="10" rx="1" ry="1" fill="#60A5FA" fill-opacity="0.554"/>
<rect x="524" y="33" width="11" height="11" rx="1" ry="1" fill="#7DB5FA" fill-opacity="0.381"/>
<rect x="169" y="0" width="7" height="7" rx="1" ry="1" fill="#C6DEFD" fill-opacity="0.189"/>
<rect x="538" y="237" width="10" height="10" rx="1" ry="1" fill="#7AB3FA" fill-opacity="0.455"/>
<rect x="561" y="119" width="7" height="7" rx="1" ry="1" fill="#75B0FA" fill-opacity="0.435"/>
<rect x="601" y="231" width="8" height="8" rx="1" ry="1" fill="#6BABFA" fill-opacity="0.423"/>
<rect x="228" y="197" width="11" height="11" rx="1" ry="1" fill="#BBD8FC" fill-opacity="0.217"/>
<rect x="416" y="3" width="8" height="8" rx="1" ry="1" fill="#95C3FB" fill-opacity="0.366"/>
<rect x="571" y="116" width="10" height="10" rx="1" ry="1" fill="#72AFFA" fill-opacity="0.451"/>
<rect x="455" y="171" width="9" height="9" rx="1" ry="1" fill="#8CBEFB" fill-opacity="0.408"/>
<rect x="152" y="252" width="9" height="9" rx="1" ry="1" fill="#C9E0FD" fill-opacity="0.179"/>
<rect x="568" y="151" width="9" height="9" rx="1" ry="1" fill="#73B0FA" fill-opacity="0.505"/>
<rect x="541" y="212" width="10" height="10" rx="1" ry="1" fill="#79B3FA" fill-opacity="0.434"/>
<rect x="632" y="66" width="6" height="6" rx="1" ry="1" fill="#64A7FA" fill-opacity="0.514"/>
<rect x="448" y="23" width="11" height="11" rx="1" ry="1" fill="#8EBFFB" fill-opacity="0.403"/>
<rect x="650" y="97" width="11" height="11" rx="1" ry="1" fill="#60A5FA" fill-opacity="0.468"/>
<rect x="597" y="112" width="10" height="10" rx="1" ry="1" fill="#6CACFA" fill-opacity="0.518"/>
<rect x="451" y="77" width="7" height="7" rx="1" ry="1" fill="#8DBEFB" fill-opacity="0.377"/>
<rect x="122" y="41" width="6" height="6" rx="1" ry="1" fill="#CEE3FD" fill-opacity="0.176"/>
<rect x="307" y="238" width="8" height="8" rx="1" ry="1" fill="#ABCFFC" fill-opacity="0.299"/>
<rect x="443" y="174" width="10" height="10" rx="1" ry="1" fill="#8FBFFB" fill-opacity="0.422"/>
<rect x="673" y="31" width="6" height="6" rx="1" ry="1" fill="#60A5FA" fill-opacity="0.474"/>
<rect x="627" y="159" width="7" height="7" rx="1" ry="1" fill="#65A8FA" fill-opacity="0.490"/>
<rect x="645" y="118" width="8" height="8" rx="1" ry="1" fill="#61A6FA" fill-opacity="0.456"/>
<rect x="427" y="234" width="11" height="11" rx="1" ry="1" fill="#92C1FB" fill-opacity="0.341"/>
<rect x="690" y="215" width="6" height="6" rx="1" ry="1" fill="#5693DE" fill-opacity="0.554"/>
<rect x="350" y="214" width="11" height="11" rx="1" ry="1" fill="#A2CAFC" fill-opacity="0.344"/>
<rect x="651" y="271" width="7" height="7" rx="1" ry="1" fill="#60A5FA" fill-opacity="0.471"/>
<rect x="223" y="136" width="9" height="9" rx="1" ry="1" fill="#BCD9FC" fill-opacity="0.239"/>
<rect x="644" y="186" width="10" height="10" rx="1" ry="1" fill="#62A6FA" fill-opacity="0.522"/>
<rect x="481" y="205" width="11" height="11" rx="1" ry="1" fill="#87BBFB" fill-opacity="0.352"/>
<rect x="649" y="8" width="8" height="8" rx="1" ry="1" fill="#60A5FA" fill-opacity="0.576"/>
<rect x="633" y="217" width="8" height="8" rx="1" ry="1" fill="#64A7FA" fill-opacity="0.560"/>
<rect x="677" y="68" width="9" height="9" rx="1" ry="1" fill="#60A5FA" fill-opacity="0.613"/>
<rect x="712" y="16" width="10" height="10" rx="1" ry="1" fill="#60A5FA" fill-opacity="0.559"/>
<rect x="545" y="156" width="7" height="7" rx="1" ry="1" fill="#78B3FA" fill-opacity="0.497"/>
<rect x="251" y="10" width="8" height="8" rx="1" ry="1" fill="#B6D6FC" fill-opacity="0.235"/>
<rect x="118" y="100" width="11" height="11" rx="1" ry="1" fill="#CEE3FD" fill-opacity="0.163"/>
<rect x="557" y="134" width="6" height="6" rx="1" ry="1" fill="#76B1FA" fill-opacity="0.427"/>
<rect x="227" y="26" width="6" height="6" rx="1" ry="1" fill="#BBD8FC" fill-opacity="0.212"/>
<rect x="695" y="150" width="11" height="11" rx="1" ry="1" fill="#60A5FA" fill-opacity="0.495"/>
<rect x="330" y="46" width="6" height="6" rx="1" ry="1" fill="#A7CDFC" fill-opacity="0.320"/>
<rect x="242" y="152" width="11" height="11" rx="1" ry="1" fill="#B8D7FC" fill-opacity="0.225"/>
<rect x="50" y="181" width="6" height="6" rx="1" ry="1" fill="#D9E9FD" fill-opacity="0.121"/>
<rect x="574" y="85" width="10" height="10" rx="1" ry="1" fill="#72AFFA" fill-opacity="0.411"/>
<rect x="281" y="204" width="9" height="9" rx="1" ry="1" fill="#B0D2FC" fill-opacity="0.250"/>
<rect x="190" y="228" width="7" height="7" rx="1" ry="1" fill="#C2DCFD" fill-opacity="0.197"/>
<rect x="295" y="79" width="11" height="11" rx="1" ry="1" fill="#AED1FC" fill-opacity="0.296"/>
<rect x="432" y="204" width="11" height="11" rx="1" ry="1" fill="#91C1FB" fill-opacity="0.329"/>
<rect x="237" y="27" width="10" height="10" rx="1" ry="1" fill="#B9D7FC" fill-opacity="0.233"/>
<rect x="144" y="209" width="8" height="8" rx="1" ry="1" fill="#CAE1FD" fill-opacity="0.171"/>
<rect x="680" y="227" width="9" height="9" rx="1" ry="1" fill="#60A5FA" fill-opacity="0.509"/>
<rect x="118" y="206" width="7" height="7" rx="1" ry="1" fill="#CEE3FD" fill-opacity="0.164"/>
<rect x="443" y="221" width="7" height="7" rx="1" ry="1" fill="#8FBFFB" fill-opacity="0.374"/>
<rect x="297" y="11" width="6" height="6" rx="1" ry="1" fill="#ADD1FC" fill-opacity="0.281"/>
<rect x="633" y="189" width="8" height="8" rx="1" ry="1" fill="#64A7FA" fill-opacity="0.526"/>
<rect x="108" y="72" width="8" height="8" rx="1" ry="1" fill="#D0E4FD" fill-opacity="0.162"/>
<rect x="621" y="29" width="9" height="9" rx="1" ry="1" fill="#67A9FA" fill-opacity="0.513"/>
<rect x="604" y="186" width="11" height="11" rx="1" ry="1" fill="#6BABFA" fill-opacity="0.482"/>
<rect x="577" y="147" width="8" height="8" rx="1" ry="1" fill="#71AEFA" fill-opacity="0.522"/>
<rect x="90" y="13" width="7" height="7" rx="1" ry="1" fill="#D3E6FD" fill-opacity="0.151"/>
<rect x="47" y="6" width="6" height="6" rx="1" ry="1" fill="#D9E9FD" fill-opacity="0.126"/>
<rect x="337" y="161" width="10" height="10" rx="1" ry="1" fill="#A5CCFC" fill-opacity="0.337"/>
<rect x="437" y="138" width="11" height="11" rx="1" ry="1" fill="#90C0FB" fill-opacity="0.326"/>
<rect x="550" y="212" width="10" height="10" rx="1" ry="1" fill="#77B2FA" fill-opacity="0.467"/>
<rect x="571" y="14" width="10" height="10" rx="1" ry="1" fill="#72AFFA" fill-opacity="0.431"/>
<rect x="289" y="19" width="6" height="6" rx="1" ry="1" fill="#AFD1FC" fill-opacity="0.276"/>
<rect x="251" y="141" width="9" height="9" rx="1" ry="1" fill="#5693DE" fill-opacity="0.244"/>
<rect x="84" y="111" width="11" height="11" rx="1" ry="1" fill="#D4E6FD" fill-opacity="0.143"/>
<rect x="10" y="56" width="9" height="9" rx="1" ry="1" fill="#DEECFD" fill-opacity="0.105"/>
<rect x="143" y="7" width="10" height="10" rx="1" ry="1" fill="#CAE1FD" fill-opacity="0.175"/>
<rect x="94" y="137" width="9" height="9" rx="1" ry="1" fill="#D2E5FD" fill-opacity="0.158"/>
<rect x="588" y="260" width="7" height="7" rx="1" ry="1" fill="#6EADFA" fill-opacity="0.451"/>
<rect x="180" y="186" width="10" height="10" rx="1" ry="1" fill="#C4DDFD" fill-opacity="0.199"/>
<rect x="440" y="230" width="6" height="6" rx="1" ry="1" fill="#8FC0FB" fill-opacity="0.341"/>
<rect x="595" y="179" width="11" height="11" rx="1" ry="1" fill="#5693DE" fill-opacity="0.538"/>
<rect x="606" y="259" width="8" height="8" rx="1" ry="1" fill="#6AABFA" fill-opacity="0.544"/>
<rect x="248" y="165" width="6" height="6" rx="1" ry="1" fill="#B7D6FC" fill-opacity="0.261"/>
<rect x="231" y="198" width="7" height="7" rx="1" ry="1" fill="#BAD8FC" fill-opacity="0.230"/>
<rect x="246" y="230" width="11" height="11" rx="1" ry="1" fill="#B7D6FC" fill-opacity="0.250"/>
<rect x="459" y="203" width="11" height="11" rx="1" ry="1" fill="#8BBDFB" fill-opacity="0.419"/>
<rect x="320" y="172" width="9" height="9" rx="1" ry="1" fill="#A9CEFC" fill-opacity="0.271"/>
<rect x="313" y="144" width="8" height="8" rx="1" ry="1" fill="#AACFFC" fill-opacity="0.295"/>
<rect x="93" y="249" width="10" height="10" rx="1" ry="1" fill="#D2E6FD" fill-opacity="0.149"/>
<rect x="210" y="77" width="9" height="9" rx="1" ry="1" fill="#BEDAFC" fill-opacity="0.215"/>
<rect x="222" y="27" width="9" height="9" rx="1" ry="1" fill="#BCD9FC" fill-opacity="0.215"/>
<rect x="675" y="19" width="6" height="6" rx="1" ry="1" fill="#60A5FA" fill-opacity="0.462"/>
<rect x="712" y="141" width="11" height="11" rx="1" ry="1" fill="#60A5FA" fill-opacity="0.562"/>
<rect x="295" y="238" width="6" height="6" rx="1" ry="1" fill="#AED1FC" fill-opacity="0.259"/>
<rect x="147" y="75" width="11" height="11" rx="1" ry="1" fill="#5693DE" fill-opacity="0.169"/>
<rect x="540" y="255" width="6" height="6" rx="1" ry="1" fill="#79B3FA" fill-opacity="0.440"/>
<rect x="618" y="55" width="7" height="7" rx="1" ry="1" fill="#68A9FA" fill-opacity="0.483"/>
<rect x="310" y="129" width="8" height="8" rx="1" ry="1" fill="#ABCFFC" fill-opacity="0.284"/>
<rect x="501" y="4" width="11" height="11" rx="1" ry="1" fill="#82B8FB" fill-opacity="0.422"/>
<rect x="111" y="114" width="9" height="9" rx="1" ry="1" fill="#D0E4FD" fill-opacity="0.153"/>
<rect x="570" y="29" width="11" height="11" rx="1" ry="1" fill="#73AFFA" fill-opacity="0.518"/>
<rect x="719" y="183" width="11" height="11" rx="1" ry="1" fill="#60A5FA" fill-opacity="0.603"/>
<rect x="207" y="229" width="6" height="6" rx="1" ry="1" fill="#BFDAFC" fill-opacity="0.199"/>
<rect x="668" y="216" width="9" height="9" rx="1" ry="1" fill="#5693DE" fill-opacity="0.584"/>
<rect x="671" y="195" width="9" height="9" rx="1" ry="1" fill="#60A5FA" fill-opacity="0.545"/>
<rect x="394" y="179" width="11" height="11" rx="1" ry="1" fill="#99C5FB" fill-opacity="0.347"/>
<rect x="325" y="46" width="7" height="7" rx="1" ry="1" fill="#A8CDFC" fill-opacity="0.271"/>
<rect x="277" y="24" width="10" height="10" rx="1" ry="1" fill="#5693DE" fill-opacity="0.249"/>
<rect x="507" y="10" width="11" height="11" rx="1" ry="1" fill="#81B7FB" fill-opacity="0.444"/>
<rect x="322" y="251" width="11" height="11" rx="1" ry="1" fill="#A8CEFC" fill-opacity="0.260"/>
<rect x="322" y="268" width="7" height="7" rx="1" ry="1" fill="#5693DE" fill-opacity="0.309"/>
<rect x="592" y="38" width="6" height="6" rx="1" ry="1" fill="#6EACFA" fill-opacity="0.472"/>
<rect x="168" y="37" width="11" height="11" rx="1" ry="1" fill="#C6DEFD" fill-opacity="0.204"/>
<rect x="412" y="38" width="6" height="6" rx="1" ry="1" fill="#95C3FB" fill-opacity="0.320"/>
<rect x="425" y="68" width="7" height="7" rx="1" ry="1" fill="#93C1FB" fill-opacity="0.398"/>
<rect x="547" y="237" width="8" height="8" rx="1" ry="1" fill="#78B2FA" fill-opacity="0.414"/>
<rect x="582" y="49" width="7" height="7" rx="1" ry="1" fill="#70AEFA" fill-opacity="0.416"/>
<rect x="440" y="16" width="11" height="11" rx="1" ry="1" fill="#8FC0FB" fill-opacity="0.395"/>
<rect x="552" y="113" width="7" height="7" rx="1" ry="1" fill="#77B2FA" fill-opacity="0.494"/>
<rect x="520" y="143" width="10" height="10" rx="1" ry="1" fill="#7EB6FA" fill-opacity="0.408"/>
<rect x="295" y="250" width="8" height="8" rx="1" ry="1" fill="#5693DE" fill-opacity="0.259"/>
<rect x="439" y="87" width="7" height="7" rx="1" ry="1" fill="#90C0FB" fill-opacity="0.336"/>
<rect x="641" y="220" width="10" height="10" rx="1" ry="1" fill="#62A6FA" fill-opacity="0.527"/>
<rect x="439" y="60" width="8" height="8" rx="1" ry="1" fill="#90C0FB" fill-opacity="0.387"/>
<rect x="487" y="233" width="9" height="9" rx="1" ry="1" fill="#5693DE" fill-opacity="0.355"/>
<rect x="221" y="174" width="11" height="11" rx="1" ry="1" fill="#BCD9FC" fill-opacity="0.216"/>
<rect x="366" y="88" width="11" height="11" rx="1" ry="1" fill="#9FC9FC" fill-opacity="0.299"/>
<rect x="261" y="149" width="11" height="11" rx="1" ry="1" fill="#B4D5FC" fill-opacity="0.276"/>
<rect x="414" y="54" width="8" height="8" rx="1" ry="1" fill="#95C3FB" fill-opacity="0.390"/>
<rect x="121" y="127" width="6" height="6" rx="1" ry="1" fill="#CEE3FD" fill-opacity="0.175"/>
<rect x="657" y="64" width="9" height="9" rx="1" ry="1" fill="#5693DE" fill-opacity="0.573"/>
<rect x="348" y="266" width="11" height="11" rx="1" ry="1" fill="#A3CBFC" fill-opacity="0.329"/>
<rect x="680" y="33" width="10" height="10" rx="1" ry="1" fill="#60A5FA" fill-opacity="0.464"/>
<rect x="183" y="268" width="7" height="7" rx="1" ry="1" fill="#C3DDFD" fill-opacity="0.207"/>
<rect x="610" y="134" width="7" height="7" rx="1" ry="1" fill="#69AAFA" fill-opacity="0.441"/>
<rect x="622" y="139" width="11" height="11" rx="1" ry="1" fill="#67A9FA" fill-opacity="0.557"/>
<rect x="654" y="141" width="9" height="9" rx="1" ry="1" fill="#60A5FA" fill-opacity="0.459"/>
<rect x="546" y="38" width="6" height="6" rx="1" ry="1" fill="#78B2FA" fill-opacity="0.393"/>
<rect x="442" y="136" width="7" height="7" rx="1" ry="1" fill="#8FBFFB" fill-opacity="0.403"/>
<rect x="609" y="34" width="6" height="6" rx="1" ry="1" fill="#6AAAFA" fill-opacity="0.539"/>
<rect x="612" y="250" width="6" height="6" rx="1" ry="1" fill="#69AAFA" fill-opacity="0.525"/>
<rect x="364" y="98" width="6" height="6" rx="1" ry="1" fill="#A0C9FC" fill-opacity="0.354"/>
<rect x="57" y="147" width="10" height="10" rx="1" ry="1" fill="#D8E9FD" fill-opacity="0.125"/>
<rect x="103" y="203" width="10" height="10" rx="1" ry="1" fill="#D1E5FD" fill-opacity="0.160"/>
<rect x="435" y="213" width="9" height="9" rx="1" ry="1" fill="#91C0FB" fill-opacity="0.344"/>
<rect x="142" y="255" width="11" height="11" rx="1" ry="1" fill="#5693DE" fill-opacity="0.180"/>
<rect x="640" y="152" width="6" height="6" rx="1" ry="1" fill="#62A6FA" fill-opacity="0.517"/>
<rect x="109" y="228" width="11" height="11" rx="1" ry="1" fill="#D0E4FD" fill-opacity="0.167"/>
<rect x="470" y="132" width="6" height="6" rx="1" ry="1" fill="#89BCFB" fill-opacity="0.361"/>
<rect x="413" y="114" width="11" height="11" rx="1" ry="1" fill="#95C3FB" fill-opacity="0.331"/>
<rect x="405" y="200" width="8" height="8" rx="1" ry="1" fill="#97C4FB" fill-opacity="0.338"/>
<rect x="404" y="92" width="8" height="8" rx="1" ry="1" fill="#97C4FB" fill-opacity="0.309"/>
<rect x="564" y="42" width="10" height="10" rx="1" ry="1" fill="#5693DE" fill-opacity="0.509"/>
<rect x="385" y="72" width="7" height="7" rx="1" ry="1" fill="#9BC6FB" fill-opacity="0.326"/>
<rect x="198" y="102" width="8" height="8" rx="1" ry="1" fill="#C0DBFD" fill-opacity="0.206"/>
<rect x="627" y="170" width="9" height="9" rx="1" ry="1" fill="#65A8FA" fill-opacity="0.478"/>
<rect x="81" y="208" width="9" height="9" rx="1" ry="1" fill="#D4E7FD" fill-opacity="0.139"/>
<rect x="601" y="222" width="8" height="8" rx="1" ry="1" fill="#6BABFA" fill-opacity="0.541"/>
<rect x="419" y="44" width="9" height="9" rx="1" ry="1" fill="#94C2FB" fill-opacity="0.327"/>
<rect x="88" y="101" width="9" height="9" rx="1" ry="1" fill="#D3E6FD" fill-opacity="0.143"/>
<rect x="385" y="250" width="10" height="10" rx="1" ry="1" fill="#9BC6FB" fill-opacity="0.306"/>
<rect x="704" y="195" width="6" height="6" rx="1" ry="1" fill="#60A5FA" fill-opacity="0.487"/>
<rect x="398" y="7" width="6" height="6" rx="1" ry="1" fill="#98C5FB" fill-opacity="0.351"/>
<rect x="606" y="152" width="8" height="8" rx="1" ry="1" fill="#6AABFA" fill-opacity="0.519"/>
<rect x="65" y="145" width="6" height="6" rx="1" ry="1" fill="#D7E8FD" fill-opacity="0.134"/>
<rect x="271" y="181" width="8" height="8" rx="1" ry="1" fill="#B2D3FC" fill-opacity="0.272"/>
<rect x="282" y="124" width="8" height="8" rx="1" ry="1" fill="#B0D2FC" fill-opacity="0.286"/>
<rect x="714" y="260" width="7" height="7" rx="1" ry="1" fill="#60A5FA" fill-opacity="0.537"/>
<rect x="609" y="73" width="10" height="10" rx="1" ry="1" fill="#6AAAFA" fill-opacity="0.479"/>
<rect x="683" y="131" width="7" height="7" rx="1" ry="1" fill="#60A5FA" fill-opacity="0.473"/>
<rect x="454" y="157" width="11" height="11" rx="1" ry="1" fill="#8CBEFB" fill-opacity="0.397"/>
<rect x="212" y="163" width="11" height="11" rx="1" ry="1" fill="#BEDAFC" fill-opacity="0.205"/>
<rect x="559" y="164" width="11" height="11" rx="1" ry="1" fill="#75B1FA" fill-opacity="0.459"/>
<rect x="187" y="169" width="8" height="8" rx="1" ry="1" fill="#C2DCFD" fill-opacity="0.217"/>
<rect x="697" y="227" width="11" height="11" rx="1" ry="1" fill="#60A5FA" fill-opacity="0.491"/>
<rect x="644" y="196" width="10" height="10" rx="1" ry="1" fill="#62A6FA" fill-opacity="0.455"/>
<rect x="153" y="178" width="11" height="11" rx="1" ry="1" fill="#C8E0FD" fill-opacity="0.170"/>
<rect x="569" y="72" width="11" height="11" rx="1" ry="1" fill="#73AFFA" fill-opacity="0.511"/>
<rect x="115" y="224" width="10" height="10" rx="1" ry="1" fill="#CFE4FD" fill-opacity="0.154"/>
<rect x="480" y="98" width="10" height="10" rx="1" ry="1" fill="#87BBFB" fill-opacity="0.354"/>
<rect x="635" y="135" width="6" height="6" rx="1" ry="1" fill="#64A7FA" fill-opacity="0.458"/>
<rect x="189" y="78" width="7" height="7" rx="1" ry="1" fill="#5693DE" fill-opacity="0.218"/>
<rect x="150" y="60" width="8" height="8" rx="1" ry="1" fill="#C9E0FD" fill-opacity="0.169"/>
<rect x="151" y="61" width="6" height="6" rx="1" ry="1" fill="#C9E0FD" fill-opacity="0.195"/>
<rect x="478" y="18" width="9" height="9" rx="1" ry="1" fill="#87BBFB" fill-opacity="0.410"/>
<rect x="396" y="120" width="10" height="10" rx="1" ry="1" fill="#99C5FB" fill-opacity="0.373"/>
<rect x="553" y="110" width="11" height="11" rx="1" ry="1" fill="#5693DE" fill-opacity="0.431"/>
<rect x="581" y="233" width="10" height="10" rx="1" ry="1" fill="#70AEFA" fill-opacity="0.460"/>
<rect x="125" y="156" width="11" height="11" rx="1" ry="1" fill="#CDE3FD" fill-opacity="0.161"/>
<rect x="637" y="12" width="6" height="6" rx="1" ry="1" fill="#63A7FA" fill-opacity="0.479"/>
<rect x="327" y="225" width="11" height="11" rx="1" ry="1" fill="#A7CDFC" fill-opacity="0.282"/>
<rect x="306" y="20" width="11" height="11" rx="1" ry="1" fill="#5693DE" fill-opacity="0.263"/>
<rect x="387" y="87" width="6" height="6" rx="1" ry="1" fill="#9BC6FB" fill-opacity="0.363"/>
<rect x="663" y="191" width="7" height="7" rx="1" ry="1" fill="#5693DE" fill-opacity="0.491"/>
<rect x="541" y="66" width="10" height="10" rx="1" ry="1" fill="#5693DE" fill-opacity="0.476"/>
<rect x="563" y="127" width="10" height="10" rx="1" ry="1" fill="#74B0FA" fill-opacity="0.496"/>
<rect x="653" y="268" width="6" height="6" rx="1" ry="1" fill="#60A5FA" fill-opacity="0.482"/>
<rect x="178" y="245" width="6" height="6" rx="1" ry="1" fill="#C4DDFD" fill-opacity="0.188"/>
<rect x="385" y="221" width="7" height="7" rx="1" ry="1" fill="#9BC6FB" fill-opacity="0.322"/>
<rect x="564" y="238" width="6" height="6" rx="1" ry="1" fill="#74B0FA" fill-opacity="0.446"/>
<rect x="705" y="184" width="7" height="7" rx="1" ry="1" fill="#60A5FA" fill-opacity="0.607"/>
<rect x="191" y="17" width="8" height="8" rx="1" ry="1" fill="#5693DE" fill-opacity="0.201"/>
<rect x="708" y="150" width="6" height="6" rx="1" ry="1" fill="#60A5FA" fill-opacity="0.588"/>
<rect x="276" y="24" width="7" height="7" rx="1" ry="1" fill="#B1D3FC" fill-opacity="0.269"/>
<rect x="294" y="175" width="11" height="11" rx="1" ry="1" fill="#AED1FC" fill-opacity="0.280"/>
<rect x="177" y="191" width="11" height="11" rx="1" ry="1" fill="#C4DDFD" fill-opacity="0.214"/>
<rect x="568" y="222" width="10" height="10" rx="1" ry="1" fill="#5693DE" fill-opacity="0.487"/>
<rect x="341" y="45" width="9" height="9" rx="1" ry="1" fill="#A4CBFC" fill-opacity="0.277"/>
<rect x="183" y="148" width="8" height="8" rx="1" ry="1" fill="#C3DDFD" fill-opacity="0.197"/>
<rect x="321" y="137" width="7" height="7" rx="1" ry="1" fill="#A8CEFC" fill-opacity="0.265"/>
<rect x="387" y="107" width="9" height="9" rx="1" ry="1" fill="#9BC6FB" fill-opacity="0.295"/>
<rect x="539" y="24" width="9" height="9" rx="1" ry="1" fill="#7AB3FA" fill-opacity="0.459"/>
<rect x="360" y="209" width="11" height="11" rx="1" ry="1" fill="#A0C9FC" fill-opacity="0.310"/>
<rect x="591" y="38" width="10" height="10" rx="1" ry="1" fill="#6EADFA" fill-opacity="0.515"/>
<rect x="336" y="119" width="10" height="10" rx="1" ry="1" fill="#A5CCFC" fill-opacity="0.319"/>
<rect x="583" y="127" width="9" height="9" rx="1" ry="1" fill="#70AEFA" fill-opacity="0.478"/>
<rect x="654" y="206" width="8" height="8" rx="1" ry="1" fill="#60A5FA" fill-opacity="0.550"/>
<rect x="161" y="111" width="8" height="8" rx="1" ry="1" fill="#C7DFFD" fill-opacity="0.185"/>
<rect x="539" y="128" width="9" height="9" rx="1" ry="1" fill="#7AB3FA" fill-opacity="0.427"/>
<rect x="619" y="17" width="7" height="7" rx="1" ry="1" fill="#67A9FA" fill-opacity="0.488"/>
<rect x="296" y="186" width="8" height="8" rx="1" ry="1" fill="#ADD1FC" fill-opacity="0.273"/>
<rect x="619" y="130" width="10" height="10" rx="1" ry="1" fill="#67A9FA" fill-opacity="0.542"/>
<rect x="665" y="205" width="7" height="7" rx="1" ry="1" fill="#60A5FA" fill-opacity="0.591"/>
<rect x="518" y="138" width="6" height="6" rx="1" ry="1" fill="#7EB6FA" fill-opacity="0.439"/>
<rect x="625" y="25" width="8" height="8" rx="1" ry="1" fill="#66A8FA" fill-opacity="0.522"/>
<rect x="355" y="26" width="6" height="6" rx="1" ry="1" fill="#A1CAFC" fill-opacity="0.283"/>
<rect x="708" y="100" width="11" height="11" rx="1" ry="1" fill="#5693DE" fill-opacity="0.548"/>
<rect x="329" y="134" width="6" height="6" rx="1" ry="1" fill="#A7CDFC" fill-opacity="0.285"/>
<rect x="409" y="182" width="11" height="11" rx="1" ry="1" fill="#96C3FB" fill-opacity="0.348"/>
<rect x="219" y="247" width="11" height="11" rx="1" ry="1" fill="#BCD9FC" fill-opacity="0.219"/>
<rect x="180" y="109" width="7" height="7" rx="1" ry="1" fill="#C4DDFD" fill-opacity="0.208"/>
<rect x="226" y="142" width="10" height="10" rx="1" ry="1" fill="#BBD8FC" fill-opacity="0.233"/>
<rect x="292" y="84" width="11" height="11" rx="1" ry="1" fill="#AED1FC" fill-opacity="0.258"/>
<rect x="316" y="127" width="11" height="11" rx="1" ry="1" fill="#A9CEFC" fill-opacity="0.258"/>
<rect x="532" y="125" width="8" height="8" rx="1" ry="1" fill="#7BB4FA" fill-opacity="0.416"/>
<rect x="91" y="27" width="8" height="8" rx="1" ry="1" fill="#D3E6FD" fill-opacity="0.155"/>
<rect x="310" y="117" width="9" height="9" rx="1" ry="1" fill="#ABCFFC" fill-opacity="0.262"/>
<rect x="253" y="83" width="10" height="10" rx="1" ry="1" fill="#B6D5FC" fill-opacity="0.225"/>
<rect x="34" y="22" width="8" height="8" rx="1" ry="1" fill="#DBEAFD" fill-opacity="0.118"/>
<rect x="37" y="149" width="7" height="7" rx="1" ry="1" fill="#DBEAFD" fill-opacity="0.117"/>
<rect x="496" y="207" width="10" height="10" rx="1" ry="1" fill="#83B9FB" fill-opacity="0.424"/>
<rect x="365" y="6" width="10" height="10" rx="1" ry="1" fill="#9FC9FC" fill-opacity="0.313"/>
<rect x="433" y="29" width="7" height="7" rx="1" ry="1" fill="#91C0FB" fill-opacity="0.377"/>
<rect x="63" y="156" width="7" height="7" rx="1" ry="1" fill="#D7E8FD" fill-opacity="0.134"/>
<rect x="398" y="128" width="8" height="8" rx="1" ry="1" fill="#98C5FB" fill-opacity="0.338"/>
<rect x="645" y="81" width="7" height="7" rx="1" ry="1" fill="#61A6FA" fill-opacity="0.547"/>
<rect x="631" y="31" width="8" height="8" rx="1" ry="1" fill="#65A7FA" fill-opacity="0.499"/>
<rect x="642" y="242" width="6" height="6" rx="1" ry="1" fill="#62A6FA" fill-opacity="0.456"/>
<rect x="664" y="76" width="8" height="8" rx="1" ry="1" fill="#60A5FA" fill-opacity="0.477"/>
<rect x="607" y="170" width="7" height="7" rx="1" ry="1" fill="#6AABFA" fill-opacity="0.442"/>
<rect x="214" y="111" width="9" height="9" rx="1" ry="1" fill="#BDDAFC" fill-opacity="0.222"/>
<rect x="408" y="0" width="6" height="6" rx="1" ry="1" fill="#96C4FB" fill-opacity="0.375"/>
<rect x="146" y="219" width="6" height="6" rx="1" ry="1" fill="#CAE1FD" fill-opacity="0.190"/>
<rect x="427" y="50" width="11" height="11" rx="1" ry="1" fill="#92C1FB" fill-opacity="0.401"/>
<rect x="374" y="239" width="10" height="10" rx="1" ry="1" fill="#9DC8FB" fill-opacity="0.367"/>
<rect x="83" y="232" width="10" height="10" rx="1" ry="1" fill="#D4E6FD" fill-opacity="0.137"/>
<rect x="195" y="27" width="8" height="8" rx="1" ry="1" fill="#C1DCFD" fill-opacity="0.213"/>
<rect x="464" y="163" width="10" height="10" rx="1" ry="1" fill="#8ABDFB" fill-opacity="0.419"/>
<rect x="149" y="193" width="6" height="6" rx="1" ry="1" fill="#C9E0FD" fill-opacity="0.193"/>
<rect x="123" y="163" width="9" height="9" rx="1" ry="1" fill="#CEE3FD" fill-opacity="0.161"/>
<rect x="419" y="153" width="9" height="9" rx="1" ry="1" fill="#94C2FB" fill-opacity="0.342"/>
<rect x="440" y="116" width="9" height="9" rx="1" ry="1" fill="#8FC0FB" fill-opacity="0.339"/>
<rect x="542" y="87" width="7" height="7" rx="1" ry="1" fill="#79B3FA" fill-opacity="0.402"/>
<rect x="214" y="174" width="8" height="8" rx="1" ry="1" fill="#BDDAFC" fill-opacity="0.209"/>
<rect x="682" y="197" width="11" height="11" rx="1" ry="1" fill="#60A5FA" fill-opacity="0.497"/>
<rect x="286" y="213" width="9" height="9" rx="1" ry="1" fill="#AFD2FC" fill-opacity="0.250"/>
<rect x="388" y="81" width="7" height="7" rx="1" ry="1" fill="#9BC6FB" fill-opacity="0.315"/>
<rect x="290" y="180" width="11" height="11" rx="1" ry="1" fill="#AFD1FC" fill-opacity="0.247"/>
<rect x="223" y="86" width="8" height="8" rx="1" ry="1" fill="#BCD9FC" fill-opacity="0.251"/>
<rect x="173" y="176" width="10" height="10" rx="1" ry="1" fill="#C5DEFD" fill-opacity="0.214"/>
<rect x="348" y="113" width="9" height="9" rx="1" ry="1" fill="#A3CBFC" fill-opacity="0.327"/>
<rect x="431" y="112" width="10" height="10" rx="1" ry="1" fill="#91C1FB" fill-opacity="0.389"/>
<rect x="540" y="24" width="6" height="6" rx="1" ry="1" fill="#79B3FA" fill-opacity="0.415"/>
<rect x="102" y="42" width="10" height="10" rx="1" ry="1" fill="#D1E5FD" fill-opacity="0.152"/>
<rect x="695" y="43" width="10" height="10" rx="1" ry="1" fill="#60A5FA" fill-opacity="0.623"/>
<rect x="665" y="254" width="8" height="8" rx="1" ry="1" fill="#60A5FA" fill-opacity="0.597"/>
<rect x="256" y="50" width="10" height="10" rx="1" ry="1" fill="#B5D5FC" fill-opacity="0.269"/>
<rect x="494" y="34" width="9" height="9" rx="1" ry="1" fill="#84B9FB" fill-opacity="0.361"/>
<rect x="263" y="255" width="9" height="9" rx="1" ry="1" fill="#B4D4FC" fill-opacity="0.255"/>
<rect x="382" y="61" width="10" height="10" rx="1" ry="1" fill="#9CC7FB" fill-opacity="0.332"/>
<rect x="352" y="68" width="7" height="7" rx="1" ry="1" fill="#5693DE" fill-opacity="0.342"/>
<rect x="507" y="72" width="9" height="9" rx="1" ry="1" fill="#81B7FB" fill-opacity="0.403"/>
<rect x="310" y="31" width="9" height="9" rx="1" ry="1" fill="#ABCFFC" fill-opacity="0.270"/>
<rect x="662" y="183" width="11" height="11" rx="1" ry="1" fill="#60A5FA" fill-opacity="0.491"/>
<rect x="288" y="166" width="10" height="10" rx="1" ry="1" fill="#AFD2FC" fill-opacity="0.285"/>
<rect x="411" y="208" width="7" height="7" rx="1" ry="1" fill="#96C3FB" fill-opacity="0.371"/>
<rect x="567" y="52" width="9" height="9" rx="1" ry="1" fill="#73B0FA" fill-opacity="0.413"/>
<rect x="613" y="103" width="10" height="10" rx="1" ry="1" fill="#69AAFA" fill-opacity="0.532"/>
<rect x="557" y="42" width="6" height="6" rx="1" ry="1" fill="#76B1FA" fill-opacity="0.506"/>
<rect x="283" y="77" width="8" height="8" rx="1" ry="1" fill="#B0D2FC" fill-opacity="0.259"/>
<rect x="539" y="64" width="11" height="11" rx="1" ry="1" fill="#7AB3FA" fill-opacity="0.439"/>
<rect x="502" y="50" width="10" height="10" rx="1" ry="1" fill="#82B8FB" fill-opacity="0.443"/>
<rect x="504" y="24" width="10" height="10" rx="1" ry="1" fill="#81B8FB" fill-opacity="0.397"/>
<rect x="116" y="255" width="7" height="7" rx="1" ry="1" fill="#CFE3FD" fill-opacity="0.161"/>
<rect x="504" y="71" width="10" height="10" rx="1" ry="1" fill="#81B8FB" fill-opacity="0.451"/>
<rect x="222" y="113" width="9" height="9" rx="1" ry="1" fill="#BCD9FC" fill-opacity="0.219"/>
<rect x="636" y="70" width="10" height="10" rx="1" ry="1" fill="#63A7FA" fill-opacity="0.534"/>
<rect x="318" y="60" width="7" height="7" rx="1" ry="1" fill="#A9CEFC" fill-opacity="0.316"/>
<rect x="543" y="217" width="7" height="7" rx="1" ry="1" fill="#79B3FA" fill-opacity="0.435"/>
<rect x="364" y="269" width="10" height="10" rx="1" ry="1" fill="#A0C9FC" fill-opacity="0.309"/>
<rect x="290" y="215" width="9" height="9" rx="1" ry="1" fill="#AFD1FC" fill-opacity="0.264"/>
<rect x="88" y="102" width="9" height="9" rx="1" ry="1" fill="#D3E6FD" fill-opacity="0.149"/>
<rect x="493" y="105" width="9" height="9" rx="1" ry="1" fill="#84B9FB" fill-opacity="0.444"/>
<rect x="295" y="45" width="11" height="11" rx="1" ry="1" fill="#AED1FC" fill-opacity="0.283"/>
<rect x="250" y="213" width="10" height="10" rx="1" ry="1" fill="#B6D6FC" fill-opacity="0.247"/>
<rect x="304" y="149" width="10" height="10" rx="1" ry="1" fill="#ACD0FC" fill-opacity="0.300"/>
<rect x="464" y="123" width="10" height="10" rx="1" ry="1" fill="#5693DE" fill-opacity="0.396"/>
<rect x="583" y="155" width="10" height="10" rx="1" ry="1" fill="#70AEFA" fill-opacity="0.514"/>
<rect x="606" y="209" width="7" height="7" rx="1" ry="1" fill="#6AABFA" fill-opacity="0.492"/>
<rect x="608" y="171" width="8" height="8" rx="1" ry="1" fill="#6AAAFA" fill-opacity="0.452"/>
<rect x="612" y="105" width="6" height="6" rx="1" ry="1" fill="#69AAFA" fill-opacity="0.534"/>
<rect x="517" y="137" width="7" height="7" rx="1" ry="1" fill="#7FB6FA" fill-opacity="0.470"/>
<rect x="493" y="131" width="8" height="8" rx="1" ry="1" fill="#84B9FB" fill-opacity="0.389"/>
<rect x="280" y="8" width="8" height="8" rx="1" ry="1" fill="#B1D2FC" fill-opacity="0.249"/>
<rect x="667" y="190" width="8" height="8" rx="1" ry="1" fill="#60A5FA" fill-opacity="0.538"/>
<rect x="398" y="156" width="7" height="7" rx="1" ry="1" fill="#98C5FB" fill-opacity="0.348"/>
<rect x="719" y="211" width="11" height="11" rx="1" ry="1" fill="#60A5FA" fill-opacity="0.633"/>
<rect x="37" y="206" width="7" height="7" rx="1" ry="1" fill="#DBEAFD" fill-opacity="0.115"/>
<rect x="183" y="165" width="11" height="11" rx="1" ry="1" fill="#C3DDFD" fill-opacity="0.201"/>
<rect x="561" y="202" width="8" height="8" rx="1" ry="1" fill="#75B0FA" fill-opacity="0.497"/>
<rect x="439" y="192" width="9" height="9" rx="1" ry="1" fill="#90C0FB" fill-opacity="0.364"/>
<rect x="636" y="140" width="11" height="11" rx="1" ry="1" fill="#63A7FA" fill-opacity="0.476"/>
<rect x="488" y="176" width="8" height="8" rx="1" ry="1" fill="#85BAFB" fill-opacity="0.364"/>
<rect x="341" y="250" width="9" height="9" rx="1" ry="1" fill="#A4CBFC" fill-opacity="0.270"/>
<rect x="338" y="105" width="10" height="10" rx="1" ry="1" fill="#A5CCFC" fill-opacity="0.281"/>
<rect x="695" y="142" width="7" height="7" rx="1" ry="1" fill="#5693DE" fill-opacity="0.526"/>
<rect x="537" y="177" width="8" height="8" rx="1" ry="1" fill="#7AB4FA" fill-opacity="0.463"/>
<rect x="440" y="268" width="9" height="9" rx="1" ry="1" fill="#8FC0FB" fill-opacity="0.329"/>
<rect x="175" y="67" width="11" height="11" rx="1" ry="1" fill="#C4DEFD" fill-opacity="0.189"/>
<rect x="697" y="180" width="6" height="6" rx="1" ry="1" fill="#60A5FA" fill-opacity="0.519"/>
<rect x="564" y="73" width="7" height="7" rx="1" ry="1" fill="#74B0FA" fill-opacity="0.481"/>
<rect x="96" y="35" width="6" height="6" rx="1" ry="1" fill="#D2E5FD" fill-opacity="0.147"/>
<rect x="254" y="157" width="8" height="8" rx="1" ry="1" fill="#B6D5FC" fill-opacity="0.261"/>
<rect x="356" y="52" width="11" height="11" rx="1" ry="1" fill="#A1CAFC" fill-opacity="0.344"/>
<rect x="574" y="236" width="11" height="11" rx="1" ry="1" fill="#5693DE" fill-opacity="0.420"/>
<rect x="501" y="248" width="6" height="6" rx="1" ry="1" fill="#82B8FB" fill-opacity="0.439"/>
<rect x="153" y="1" width="11" height="11" rx="1" ry="1" fill="#C8E0FD" fill-opacity="0.199"/>
<rect x="526" y="77" width="9" height="9" rx="1" ry="1" fill="#7DB5FA" fill-opacity="0.400"/>
<rect x="283" y="242" width="9" height="9" rx="1" ry="1" fill="#B0D2FC" fill-opacity="0.239"/>
<rect x="665" y="85" width="10" height="10" rx="1" ry="1" fill="#60A5FA" fill-opacity="0.491"/>
<rect x="286" y="186" width="7" height="7" rx="1" ry="1" fill="#AFD2FC" fill-opacity="0.240"/>
<rect x="573" y="224" width="10" height="10" rx="1" ry="1" fill="#72AFFA" fill-opacity="0.474"/>
<rect x="299" y="135" width="10" height="10" rx="1" ry="1" fill="#ADD0FC" fill-opacity="0.256"/>
<rect x="513" y="165" width="10" height="10" rx="1" ry="1" fill="#7FB7FB" fill-opacity="0.445"/>
<rect x="566" y="250" width="8" height="8" rx="1" ry="1" fill="#73B0FA" fill-opacity="0.398"/>
<rect x="57" y="153" width="6" height="6" rx="1" ry="1" fill="#D8E9FD" fill-opacity="0.131"/>
<rect x="610" y="84" width="7" height="7" rx="1" ry="1" fill="#69AAFA" fill-opacity="0.494"/>
<rect x="354" y="235" width="7" height="7" rx="1" ry="1" fill="#A2CAFC" fill-opacity="0.337"/>
<rect x="479" y="96" width="8" height="8" rx="1" ry="1" fill="#87BBFB" fill-opacity="0.419"/>
<rect x="632" y="198" width="8" height="8" rx="1" ry="1" fill="#64A7FA" fill-opacity="0.540"/>
<rect x="284" y="243" width="8" height="8" rx="1" ry="1" fill="#B0D2FC" fill-opacity="0.261"/>
<rect x="234" y="197" width="8" height="8" rx="1" ry="1" fill="#BAD7FC" fill-opacity="0.225"/>
<rect x="152" y="266" width="9" height="9" rx="1" ry="1" fill="#C9E0FD" fill-opacity="0.171"/>
<rect x="592" y="34" width="7" height="7" rx="1" ry="1" fill="#6EACFA" fill-opacity="0.418"/>
<rect x="244" y="87" width="9" height="9" rx="1" ry="1" fill="#B8D6FC" fill-opacity="0.259"/>
<rect x="561" y="135" width="11" height="11" rx="1" ry="1" fill="#75B0FA" fill-opacity="0.417"/>
<rect x="648" y="25" width="10" height="10" rx="1" ry="1" fill="#61A5FA" fill-opacity="0.541"/>
<rect x="670" y="103" width="8" height="8" rx="1" ry="1" fill="#60A5FA" fill-opacity="0.488"/>
<rect x="255" y="199" width="11" height="11" rx="1" ry="1" fill="#B6D5FC" fill-opacity="0.266"/>
<rect x="673" y="80" width="11" height="11" rx="1" ry="1" fill="#60A5FA" fill-opacity="0.593"/>
<rect x="426" y="153" width="8" height="8" rx="1" ry="1" fill="#92C1FB" fill-opacity="0.381"/>
<rect x="336" y="113" width="10" height="10" rx="1" ry="1" fill="#A5CCFC" fill-opacity="0.307"/>
<rect x="537" y="114" width="11" height="11" rx="1" ry="1" fill="#7AB4FA" fill-opacity="0.415"/>
<rect x="651" y="108" width="7" height="7" rx="1" ry="1" fill="#60A5FA" fill-opacity="0.467"/>
<rect x="447" y="271" width="9" height="9" rx="1" ry="1" fill="#8EBFFB" fill-opacity="0.339"/>
<rect x="71" y="107" width="11" height="11" rx="1" ry="1" fill="#D6E7FD" fill-opacity="0.133"/>
<rect x="318" y="171" width="6" height="6" rx="1" ry="1" fill="#A9CEFC" fill-opacity="0.291"/>
<rect x="705" y="181" width="11" height="11" rx="1" ry="1" fill="#60A5FA" fill-opacity="0.541"/>
<rect x="192" y="176" width="11" height="11" rx="1" ry="1" fill="#C1DCFD" fill-opacity="0.204"/>
<rect x="159" y="155" width="10" height="10" rx="1" ry="1" fill="#C7DFFD" fill-opacity="0.186"/>
<rect x="382" y="135" width="7" height="7" rx="1" ry="1" fill="#9CC7FB" fill-opacity="0.339"/>
<rect x="654" y="172" width="8" height="8" rx="1" ry="1" fill="#60A5FA" fill-opacity="0.561"/>
<rect x="126" y="144" width="9" height="9" rx="1" ry="1" fill="#CDE2FD" fill-opacity="0.159"/>
<rect x="572" y="127" width="7" height="7" rx="1" ry="1" fill="#72AFFA" fill-opacity="0.437"/>
<rect x="484" y="190" width="6" height="6" rx="1" ry="1" fill="#86BAFB" fill-opacity="0.455"/>
<rect x="132" y="30" width="9" height="9" rx="1" ry="1" fill="#CCE2FD" fill-opacity="0.180"/>
<rect x="358" y="255" width="7" height="7" rx="1" ry="1" fill="#A1C9FC" fill-opacity="0.299"/>
<rect x="415" y="154" width="7" height="7" rx="1" ry="1" fill="#95C3FB" fill-opacity="0.347"/>
<rect x="540" y="159" width="7" height="7" rx="1" ry="1" fill="#79B3FA" fill-opacity="0.409"/>
<rect x="529" y="135" width="7" height="7" rx="1" ry="1" fill="#7CB5FA" fill-opacity="0.386"/>
<rect x="226" y="214" width="8" height="8" rx="1" ry="1" fill="#BBD8FC" fill-opacity="0.232"/>
<rect x="627" y="198" width="9" height="9" rx="1" ry="1" fill="#65A8FA" fill-opacity="0.453"/>
<rect x="581" y="202" width="6" height="6" rx="1" ry="1" fill="#5693DE" fill-opacity="0.460"/>
<rect x="621" y="97" width="6" height="6" rx="1" ry="1" fill="#67A9FA" fill-opacity="0.463"/>
<rect x="266" y="47" width="8" height="8" rx="1" ry="1" fill="#B3D4FC" fill-opacity="0.234"/>
<rect x="512" y="266" width="8" height="8" rx="1" ry="1" fill="#80B7FB" fill-opacity="0.472"/>
<rect x="616" y="40" width="8" height="8" rx="1" ry="1" fill="#68A9FA" fill-opacity="0.456"/>
<rect x="433" y="21" width="9" height="9" rx="1" ry="1" fill="#91C0FB" fill-opacity="0.400"/>
<rect x="371" y="239" width="11" height="11" rx="1" ry="1" fill="#9EC8FB" fill-opacity="0.321"/>
<rect x="445" y="142" width="11" height="11" rx="1" ry="1" fill="#8EBFFB" fill-opacity="0.343"/>
<rect x="553" y="158" width="9" height="9" rx="1" ry="1" fill="#76B1FA" fill-opacity="0.417"/>
<rect x="76" y="174" width="9" height="9" rx="1" ry="1" fill="#D5E7FD" fill-opacity="0.146"/>
<rect x="395" y="214" width="7" height="7" rx="1" ry="1" fill="#99C5FB" fill-opacity="0.300"/>
<rect x="314" y="184" width="7" height="7" rx="1" ry="1" fill="#AACFFC" fill-opacity="0.276"/>
<rect x="465" y="78" width="8" height="8" rx="1" ry="1" fill="#8ABDFB" fill-opacity="0.384"/>
<rect x="389" y="155" width="8" height="8" rx="1" ry="1" fill="#9AC6FB" fill-opacity="0.374"/>
<rect x="337" y="176" width="8" height="8" rx="1" ry="1" fill="#A5CCFC" fill-opacity="0.312"/>
<rect x="532" y="181" width="9" height="9" rx="1" ry="1" fill="#7BB4FA" fill-opacity="0.450"/>
<rect x="321" y="57" width="8" height="8" rx="1" ry="1" fill="#A8CEFC" fill-opacity="0.305"/>
<rect x="312" y="252" width="6" height="6" rx="1" ry="1" fill="#AACFFC" fill-opacity="0.297"/>
<rect x="490" y="72" width="10" height="10" rx="1" ry="1" fill="#85B9FB" fill-opacity="0.424"/>
<rect x="278" y="63" width="7" height="7" rx="1" ry="1" fill="#B1D3FC" fill-opacity="0.249"/>
<rect x="288" y="98" width="8" height="8" rx="1" ry="1" fill="#AFD2FC" fill-opacity="0.291"/>
<rect x="596" y="28" width="9" height="9" rx="1" ry="1" fill="#5693DE" fill-opacity="0.482"/>
<rect x="691" y="102" width="8" height="8" rx="1" ry="1" fill="#60A5FA" fill-opacity="0.620"/>
<rect x="306" y="116" width="9" height="9" rx="1" ry="1" fill="#ABCFFC" fill-opacity="0.270"/>
<rect x="572" y="219" width="6" height="6" rx="1" ry="1" fill="#72AFFA" fill-opacity="0.488"/>
<rect x="536" y="157" width="11" height="11" rx="1" ry="1" fill="#5693DE" fill-opacity="0.451"/>
<rect x="621" y="3" width="6" height="6" rx="1" ry="1" fill="#67A9FA" fill-opacity="0.501"/>
<rect x="661" y="134" width="8" height="8" rx="1" ry="1" fill="#60A5FA" fill-opacity="0.506"/>
<rect x="697" y="170" width="10" height="10" rx="1" ry="1" fill="#60A5FA" fill-opacity="0.578"/>
<rect x="522" y="117" width="11" height="11" rx="1" ry="1" fill="#7DB5FA" fill-opacity="0.393"/>
<rect x="635" y="22" width="7" height="7" rx="1" ry="1" fill="#64A7FA" fill-opacity="0.446"/>
<rect x="279" y="168" width="7" height="7" rx="1" ry="1" fill="#B1D3FC" fill-opacity="0.273"/>
<rect x="346" y="9" width="6" height="6" rx="1" ry="1" fill="#A3CBFC" fill-opacity="0.317"/>
<rect x="292" y="123" width="10" height="10" rx="1" ry="1" fill="#AED1FC" fill-opacity="0.282"/>
<rect x="267" y="109" width="9" height="9" rx="1" ry="1" fill="#B3D4FC" fill-opacity="0.267"/>
<rect x="599" y="207" width="7" height="7" rx="1" ry="1" fill="#6CACFA" fill-opacity="0.545"/>
<rect x="416" y="32" width="8" height="8" rx="1" ry="1" fill="#95C3FB" fill-opacity="0.398"/>
<rect x="673" y="115" width="11" height="11" rx="1" ry="1" fill="#60A5FA" fill-opacity="0.535"/>
<rect x="307" y="20" width="10" height="10" rx="1" ry="1" fill="#ABCFFC" fill-opacity="0.278"/>
<rect x="258" y="205" width="6" height="6" rx="1" ry="1" fill="#B5D5FC" fill-opacity="0.267"/>
<rect x="672" y="227" width="11" height="11" rx="1" ry="1" fill="#60A5FA" fill-opacity="0.532"/>
<rect x="677" y="62" width="11" height="11" rx="1" ry="1" fill="#60A5FA" fill-opacity="0.608"/>
<rect x="660" y="0" width="60" height="280" fill="url(#edgeGlow)"/>
</svg>