<svg xmlns="http://www.w3.org/2000/svg" width="720" height="280" viewBox="0 0 720 280">
      <defs>
        <radialGradient id="vignette" cx="50%" cy="50%" r="75%">
          <stop offset="0%" stop-color="#ffffff" stop-opacity="1"/>
          <stop offset="100%" stop-color="#ffffff" stop-opacity="0.7"/>
        </radialGradient>
        <linearGradient id="edgeGlow" x1="0%" y1="0%" x2="100%" y2="0%">
          <stop offset="0%" stop-color="#ffffff" stop-opacity="0"/>
          <stop offset="100%" stop-color="#ffffff" stop-opacity="0.45"/>
        </linearGradient>
      </defs>
    <rect x="0" y="0" width="720" height="280" fill="url(#vignette)"/>
<rect x="709" y="59" width="8" height="8" rx="1" ry="1" fill="#FF6B6B" fill-opacity="0.631"/>
<rect x="282" y="204" width="6" height="6" rx="1" ry="1" fill="#FFB6B6" fill-opacity="0.245"/>
<rect x="237" y="115" width="6" height="6" rx="1" ry="1" fill="#FFBEBE" fill-opacity="0.235"/>
<rect x="432" y="267" width="8" height="8" rx="1" ry="1" fill="#FF9999" fill-opacity="0.413"/>
<rect x="718" y="87" width="10" height="10" rx="1" ry="1" fill="#FF6B6B" fill-opacity="0.601"/>
<rect x="593" y="252" width="9" height="9" rx="1" ry="1" fill="#FF7777" fill-opacity="0.461"/>
<rect x="569" y="225" width="8" height="8" rx="1" ry="1" fill="#FF7C7C" fill-opacity="0.456"/>
<rect x="227" y="204" width="8" height="8" rx="1" ry="1" fill="#FFC0C0" fill-opacity="0.218"/>
<rect x="525" y="197" width="10" height="10" rx="1" ry="1" fill="#FF8686" fill-opacity="0.387"/>
<rect x="387" y="85" width="6" height="6" rx="1" ry="1" fill="#FFA2A2" fill-opacity="0.311"/>
<rect x="268" y="234" width="11" height="11" rx="1" ry="1" fill="#FFB8B8" fill-opacity="0.275"/>
<rect x="348" y="134" width="7" height="7" rx="1" ry="1" fill="#FFA9A9" fill-opacity="0.332"/>
<rect x="525" y="100" width="10" height="10" rx="1" ry="1" fill="#FF8686" fill-opacity="0.447"/>
<rect x="548" y="87" width="11" height="11" rx="1" ry="1" fill="#E26060" fill-opacity="0.444"/>
<rect x="601" y="36" width="7" height="7" rx="1" ry="1" fill="#FF7676" fill-opacity="0.550"/>
<rect x="564" y="19" width="10" height="10" rx="1" ry="1" fill="#FF7E7E" fill-opacity="0.451"/>
<rect x="205" y="203" width="6" height="6" rx="1" ry="1" fill="#FFC3C3" fill-opacity="0.199"/>
<rect x="645" y="155" width="6" height="6" rx="1" ry="1" fill="#FF6C6C" fill-opacity="0.530"/>
<rect x="519" y="105" width="10" height="10" rx="1" ry="1" fill="#FF8787" fill-opacity="0.422"/>
<rect x="401" y="156" width="11" height="11" rx="1" ry="1" fill="#FF9F9F" fill-opacity="0.328"/>
<rect x="372" y="137" width="10" height="10" rx="1" ry="1" fill="#FFA5A5" fill-opacity="0.334"/>
<rect x="644" y="262" width="6" height="6" rx="1" ry="1" fill="#FF6C6C" fill-opacity="0.522"/>
<rect x="675" y="208" width="9" height="9" rx="1" ry="1" fill="#FF6B6B" fill-opacity="0.610"/>
<rect x="200" y="262" width="6" height="6" rx="1" ry="1" fill="#FFC4C4" fill-opacity="0.195"/>
<rect x="419" y="214" width="10" height="10" rx="1" ry="1" fill="#FF9B9B" fill-opacity="0.359"/>
<rect x="503" y="235" width="10" height="10" rx="1" ry="1" fill="#FF8A8A" fill-opacity="0.416"/>
<rect x="72" y="234" width="9" height="9" rx="1" ry="1" fill="#FFD8D8" fill-opacity="0.131"/>
<rect x="235" y="89" width="6" height="6" rx="1" ry="1" fill="#FFBEBE" fill-opacity="0.259"/>
<rect x="218" y="149" width="11" height="11" rx="1" ry="1" fill="#FFC1C1" fill-opacity="0.217"/>
<rect x="718" y="224" width="10" height="10" rx="1" ry="1" fill="#FF6B6B" fill-opacity="0.522"/>
<rect x="297" y="118" width="6" height="6" rx="1" ry="1" fill="#FFB3B3" fill-opacity="0.277"/>
<rect x="579" y="118" width="8" height="8" rx="1" ry="1" fill="#FF7A7A" fill-opacity="0.489"/>
<rect x="662" y="248" width="9" height="9" rx="1" ry="1" fill="#FF6B6B" fill-opacity="0.566"/>
<rect x="32" y="125" width="10" height="10" rx="1" ry="1" fill="#FFDEDE" fill-opacity="0.114"/>
<rect x="410" y="216" width="8" height="8" rx="1" ry="1" fill="#FF9D9D" fill-opacity="0.324"/>
<rect x="701" y="54" width="10" height="10" rx="1" ry="1" fill="#FF6B6B" fill-opacity="0.495"/>
<rect x="694" y="24" width="10" height="10" rx="1" ry="1" fill="#FF6B6B" fill-opacity="0.595"/>
<rect x="174" y="222" width="8" height="8" rx="1" ry="1" fill="#FFC9C9" fill-opacity="0.207"/>
<rect x="590" y="26" width="9" height="9" rx="1" ry="1" fill="#FF7878" fill-opacity="0.463"/>
<rect x="519" y="134" width="7" height="7" rx="1" ry="1" fill="#FF8787" fill-opacity="0.388"/>
<rect x="402" y="2" width="8" height="8" rx="1" ry="1" fill="#FF9F9F" fill-opacity="0.378"/>
<rect x="515" y="125" width="8" height="8" rx="1" ry="1" fill="#FF8888" fill-opacity="0.385"/>
<rect x="522" y="227" width="10" height="10" rx="1" ry="1" fill="#E26060" fill-opacity="0.417"/>
<rect x="202" y="35" width="9" height="9" rx="1" ry="1" fill="#FFC4C4" fill-opacity="0.211"/>
<rect x="437" y="94" width="9" height="9" rx="1" ry="1" fill="#FF9898" fill-opacity="0.403"/>
<rect x="80" y="231" width="7" height="7" rx="1" ry="1" fill="#FFD7D7" fill-opacity="0.140"/>
<rect x="532" y="160" width="10" height="10" rx="1" ry="1" fill="#FF8484" fill-opacity="0.446"/>
<rect x="716" y="108" width="7" height="7" rx="1" ry="1" fill="#FF6B6B" fill-opacity="0.539"/>
<rect x="689" y="134" width="7" height="7" rx="1" ry="1" fill="#FF6B6B" fill-opacity="0.587"/>
<rect x="694" y="150" width="6" height="6" rx="1" ry="1" fill="#FF6B6B" fill-opacity="0.505"/>
<rect x="252" y="175" width="9" height="9" rx="1" ry="1" fill="#FFBBBB" fill-opacity="0.260"/>
<rect x="207" y="272" width="9" height="9" rx="1" ry="1" fill="#FFC3C3" fill-opacity="0.207"/>
<rect x="533" y="258" width="11" height="11" rx="1" ry="1" fill="#FF8484" fill-opacity="0.441"/>
<rect x="517" y="15" width="6" height="6" rx="1" ry="1" fill="#FF8787" fill-opacity="0.420"/>
<rect x="311" y="171" width="7" height="7" rx="1" ry="1" fill="#FFB0B0" fill-opacity="0.266"/>
<rect x="630" y="18" width="10" height="10" rx="1" ry="1" fill="#FF6F6F" fill-opacity="0.553"/>
<rect x="355" y="35" width="6" height="6" rx="1" ry="1" fill="#FFA8A8" fill-opacity="0.307"/>
<rect x="104" y="112" width="7" height="7" rx="1" ry="1" fill="#FFD4D4" fill-opacity="0.163"/>
<rect x="498" y="24" width="6" height="6" rx="1" ry="1" fill="#FF8B8B" fill-opacity="0.425"/>
<rect x="552" y="114" width="9" height="9" rx="1" ry="1" fill="#E26060" fill-opacity="0.390"/>
<rect x="245" y="188" width="6" height="6" rx="1" ry="1" fill="#FFBCBC" fill-opacity="0.225"/>
<rect x="624" y="137" width="11" height="11" rx="1" ry="1" fill="#E26060" fill-opacity="0.460"/>
<rect x="696" y="267" width="8" height="8" rx="1" ry="1" fill="#FF6B6B" fill-opacity="0.585"/>
<rect x="716" y="182" width="9" height="9" rx="1" ry="1" fill="#FF6B6B" fill-opacity="0.617"/>
<rect x="475" y="49" width="7" height="7" rx="1" ry="1" fill="#FF9090" fill-opacity="0.345"/>
<rect x="531" y="252" width="11" height="11" rx="1" ry="1" fill="#E26060" fill-opacity="0.422"/>
<rect x="664" y="165" width="8" height="8" rx="1" ry="1" fill="#FF6B6B" fill-opacity="0.557"/>
<rect x="191" y="155" width="10" height="10" rx="1" ry="1" fill="#FFC6C6" fill-opacity="0.192"/>
<rect x="411" y="139" width="7" height="7" rx="1" ry="1" fill="#FF9D9D" fill-opacity="0.380"/>
<rect x="642" y="1" width="8" height="8" rx="1" ry="1" fill="#FF6D6D" fill-opacity="0.482"/>
<rect x="600" y="178" width="11" height="11" rx="1" ry="1" fill="#FF7676" fill-opacity="0.436"/>
<rect x="139" y="86" width="6" height="6" rx="1" ry="1" fill="#FFCECE" fill-opacity="0.172"/>
<rect x="338" y="13" width="10" height="10" rx="1" ry="1" fill="#FFABAB" fill-opacity="0.292"/>
<rect x="476" y="20" width="7" height="7" rx="1" ry="1" fill="#FF9090" fill-opacity="0.423"/>
<rect x="293" y="257" width="8" height="8" rx="1" ry="1" fill="#FFB4B4" fill-opacity="0.254"/>
<rect x="505" y="202" width="11" height="11" rx="1" ry="1" fill="#FF8A8A" fill-opacity="0.407"/>
<rect x="439" y="54" width="11" height="11" rx="1" ry="1" fill="#E26060" fill-opacity="0.392"/>
<rect x="80" y="270" width="7" height="7" rx="1" ry="1" fill="#FFD7D7" fill-opacity="0.142"/>
<rect x="363" y="248" width="9" height="9" rx="1" ry="1" fill="#E26060" fill-opacity="0.292"/>
<rect x="525" y="164" width="7" height="7" rx="1" ry="1" fill="#FF8686" fill-opacity="0.373"/>
<rect x="715" y="166" width="10" height="10" rx="1" ry="1" fill="#FF6B6B" fill-opacity="0.512"/>
<rect x="230" y="157" width="7" height="7" rx="1" ry="1" fill="#FFBFBF" fill-opacity="0.238"/>
<rect x="483" y="47" width="7" height="7" rx="1" ry="1" fill="#FF8E8E" fill-opacity="0.422"/>
<rect x="690" y="205" width="6" height="6" rx="1" ry="1" fill="#FF6B6B" fill-opacity="0.567"/>
<rect x="277" y="118" width="8" height="8" rx="1" ry="1" fill="#FFB7B7" fill-opacity="0.236"/>
<rect x="384" y="130" width="11" height="11" rx="1" ry="1" fill="#FFA2A2" fill-opacity="0.362"/>
<rect x="498" y="154" width="10" height="10" rx="1" ry="1" fill="#FF8B8B" fill-opacity="0.449"/>
<rect x="478" y="132" width="11" height="11" rx="1" ry="1" fill="#FF8F8F" fill-opacity="0.449"/>
<rect x="497" y="10" width="9" height="9" rx="1" ry="1" fill="#FF8C8C" fill-opacity="0.432"/>
<rect x="398" y="2" width="7" height="7" rx="1" ry="1" fill="#FFA0A0" fill-opacity="0.314"/>
<rect x="626" y="211" width="6" height="6" rx="1" ry="1" fill="#FF7070" fill-opacity="0.471"/>
<rect x="363" y="169" width="6" height="6" rx="1" ry="1" fill="#FFA6A6" fill-opacity="0.299"/>
<rect x="561" y="218" width="6" height="6" rx="1" ry="1" fill="#FF7E7E" fill-opacity="0.412"/>
<rect x="22" y="204" width="6" height="6" rx="1" ry="1" fill="#FFDFDF" fill-opacity="0.109"/>
<rect x="399" y="271" width="11" height="11" rx="1" ry="1" fill="#FF9F9F" fill-opacity="0.387"/>
<rect x="545" y="103" width="9" height="9" rx="1" ry="1" fill="#FF8282" fill-opacity="0.429"/>
<rect x="463" y="77" width="7" height="7" rx="1" ry="1" fill="#FF9292" fill-opacity="0.357"/>
<rect x="425" y="80" width="9" height="9" rx="1" ry="1" fill="#FF9A9A" fill-opacity="0.375"/>
<rect x="425" y="74" width="10" height="10" rx="1" ry="1" fill="#FF9A9A" fill-opacity="0.376"/>
<rect x="323" y="64" width="7" height="7" rx="1" ry="1" fill="#FFAEAE" fill-opacity="0.265"/>
<rect x="622" y="132" width="8" height="8" rx="1" ry="1" fill="#FF7171" fill-opacity="0.550"/>
<rect x="530" y="261" width="11" height="11" rx="1" ry="1" fill="#FF8585" fill-opacity="0.449"/>
<rect x="632" y="99" width="8" height="8" rx="1" ry="1" fill="#FF6F6F" fill-opacity="0.539"/>
<rect x="362" y="196" width="9" height="9" rx="1" ry="1" fill="#FFA7A7" fill-opacity="0.312"/>
<rect x="644" y="49" width="8" height="8" rx="1" ry="1" fill="#FF6C6C" fill-opacity="0.489"/>
<rect x="261" y="1" width="9" height="9" rx="1" ry="1" fill="#FFB9B9" fill-opacity="0.248"/>
<rect x="606" y="200" width="7" height="7" rx="1" ry="1" fill="#FF7575" fill-opacity="0.476"/>
<rect x="502" y="181" width="11" height="11" rx="1" ry="1" fill="#FF8A8A" fill-opacity="0.432"/>
<rect x="563" y="132" width="8" height="8" rx="1" ry="1" fill="#FF7E7E" fill-opacity="0.487"/>
<rect x="380" y="242" width="6" height="6" rx="1" ry="1" fill="#FFA3A3" fill-opacity="0.326"/>
<rect x="517" y="56" width="6" height="6" rx="1" ry="1" fill="#FF8787" fill-opacity="0.386"/>
<rect x="599" y="78" width="11" height="11" rx="1" ry="1" fill="#FF7676" fill-opacity="0.516"/>
<rect x="701" y="245" width="9" height="9" rx="1" ry="1" fill="#FF6B6B" fill-opacity="0.540"/>
<rect x="321" y="117" width="8" height="8" rx="1" ry="1" fill="#FFAEAE" fill-opacity="0.263"/>
<rect x="384" y="259" width="6" height="6" rx="1" ry="1" fill="#FFA2A2" fill-opacity="0.311"/>
<rect x="513" y="184" width="10" height="10" rx="1" ry="1" fill="#FF8888" fill-opacity="0.460"/>
<rect x="498" y="47" width="10" height="10" rx="1" ry="1" fill="#FF8B8B" fill-opacity="0.459"/>
<rect x="431" y="111" width="10" height="10" rx="1" ry="1" fill="#E26060" fill-opacity="0.330"/>
<rect x="705" y="142" width="9" height="9" rx="1" ry="1" fill="#FF6B6B" fill-opacity="0.578"/>
<rect x="157" y="78" width="11" height="11" rx="1" ry="1" fill="#FFCBCB" fill-opacity="0.172"/>
<rect x="439" y="242" width="9" height="9" rx="1" ry="1" fill="#FF9797" fill-opacity="0.412"/>
<rect x="475" y="221" width="9" height="9" rx="1" ry="1" fill="#FF9090" fill-opacity="0.439"/>
<rect x="562" y="255" width="10" height="10" rx="1" ry="1" fill="#FF7E7E" fill-opacity="0.480"/>
<rect x="712" y="88" width="7" height="7" rx="1" ry="1" fill="#E26060" fill-opacity="0.601"/>
<rect x="701" y="35" width="9" height="9" rx="1" ry="1" fill="#FF6B6B" fill-opacity="0.581"/>
<rect x="402" y="50" width="6" height="6" rx="1" ry="1" fill="#FF9F9F" fill-opacity="0.357"/>
<rect x="619" y="27" width="6" height="6" rx="1" ry="1" fill="#FF7272" fill-opacity="0.448"/>
<rect x="470" y="196" width="8" height="8" rx="1" ry="1" fill="#FF9191" fill-opacity="0.363"/>
<rect x="293" y="251" width="9" height="9" rx="1" ry="1" fill="#FFB4B4" fill-opacity="0.275"/>
<rect x="607" y="2" width="9" height="9" rx="1" ry="1" fill="#FF7474" fill-opacity="0.521"/>
<rect x="539" y="193" width="10" height="10" rx="1" ry="1" fill="#FF8383" fill-opacity="0.454"/>
<rect x="692" y="236" width="9" height="9" rx="1" ry="1" fill="#FF6B6B" fill-opacity="0.605"/>
<rect x="662" y="85" width="9" height="9" rx="1" ry="1" fill="#FF6B6B" fill-opacity="0.596"/>
<rect x="596" y="239" width="7" height="7" rx="1" ry="1" fill="#FF7777" fill-opacity="0.491"/>
<rect x="431" y="54" width="9" height="9" rx="1" ry="1" fill="#FF9999" fill-opacity="0.332"/>
<rect x="377" y="220" width="6" height="6" rx="1" ry="1" fill="#E26060" fill-opacity="0.314"/>
<rect x="566" y="36" width="10" height="10" rx="1" ry="1" fill="#E26060" fill-opacity="0.441"/>
<rect x="261" y="113" width="10" height="10" rx="1" ry="1" fill="#FFB9B9" fill-opacity="0.236"/>
<rect x="364" y="238" width="11" height="11" rx="1" ry="1" fill="#FFA6A6" fill-opacity="0.293"/>
<rect x="453" y="12" width="10" height="10" rx="1" ry="1" fill="#E26060" fill-opacity="0.391"/>
<rect x="126" y="92" width="9" height="9" rx="1" ry="1" fill="#FFD0D0" fill-opacity="0.179"/>
<rect x="411" y="94" width="7" height="7" rx="1" ry="1" fill="#FF9D9D" fill-opacity="0.338"/>
<rect x="210" y="236" width="6" height="6" rx="1" ry="1" fill="#FFC3C3" fill-opacity="0.239"/>
<rect x="666" y="166" width="7" height="7" rx="1" ry="1" fill="#FF6B6B" fill-opacity="0.509"/>
<rect x="536" y="131" width="7" height="7" rx="1" ry="1" fill="#FF8383" fill-opacity="0.380"/>
<rect x="533" y="100" width="10" height="10" rx="1" ry="1" fill="#FF8484" fill-opacity="0.469"/>
<rect x="501" y="160" width="7" height="7" rx="1" ry="1" fill="#FF8B8B" fill-opacity="0.423"/>
<rect x="330" y="114" width="10" height="10" rx="1" ry="1" fill="#FFADAD" fill-opacity="0.324"/>
<rect x="89" y="259" width="11" height="11" rx="1" ry="1" fill="#E26060" fill-opacity="0.146"/>
<rect x="508" y="250" width="8" height="8" rx="1" ry="1" fill="#FF8989" fill-opacity="0.424"/>
<rect x="456" y="151" width="11" height="11" rx="1" ry="1" fill="#FF9494" fill-opacity="0.421"/>
<rect x="320" y="82" width="7" height="7" rx="1" ry="1" fill="#FFAFAF" fill-opacity="0.319"/>
<rect x="651" y="54" width="11" height="11" rx="1" ry="1" fill="#FF6B6B" fill-opacity="0.558"/>
<rect x="690" y="89" width="10" height="10" rx="1" ry="1" fill="#FF6B6B" fill-opacity="0.543"/>
<rect x="583" y="269" width="6" height="6" rx="1" ry="1" fill="#FF7A7A" fill-opacity="0.494"/>
<rect x="328" y="180" width="10" height="10" rx="1" ry="1" fill="#FFADAD" fill-opacity="0.311"/>
<rect x="546" y="13" width="9" height="9" rx="1" ry="1" fill="#FF8181" fill-opacity="0.468"/>
<rect x="595" y="65" width="8" height="8" rx="1" ry="1" fill="#FF7777" fill-opacity="0.486"/>
<rect x="480" y="174" width="6" height="6" rx="1" ry="1" fill="#FF8F8F" fill-opacity="0.449"/>
<rect x="12" y="64" width="11" height="11" rx="1" ry="1" fill="#FFE0E0" fill-opacity="0.104"/>
<rect x="467" y="155" width="9" height="9" rx="1" ry="1" fill="#FF9292" fill-opacity="0.435"/>
<rect x="34" y="72" width="6" height="6" rx="1" ry="1" fill="#FFDDDD" fill-opacity="0.117"/>
<rect x="257" y="203" width="6" height="6" rx="1" ry="1" fill="#FFBABA" fill-opacity="0.239"/>
<rect x="639" y="57" width="7" height="7" rx="1" ry="1" fill="#FF6D6D" fill-opacity="0.450"/>
<rect x="704" y="11" width="11" height="11" rx="1" ry="1" fill="#FF6B6B" fill-opacity="0.630"/>
<rect x="586" y="196" width="7" height="7" rx="1" ry="1" fill="#FF7979" fill-opacity="0.481"/>
<rect x="138" y="25" width="8" height="8" rx="1" ry="1" fill="#FFCFCF" fill-opacity="0.165"/>
<rect x="90" y="171" width="11" height="11" rx="1" ry="1" fill="#FFD6D6" fill-opacity="0.149"/>
<rect x="517" y="78" width="11" height="11" rx="1" ry="1" fill="#FF8787" fill-opacity="0.458"/>
<rect x="457" y="175" width="8" height="8" rx="1" ry="1" fill="#FF9494" fill-opacity="0.351"/>
<rect x="601" y="189" width="8" height="8" rx="1" ry="1" fill="#E26060" fill-opacity="0.463"/>
<rect x="658" y="33" width="10" height="10" rx="1" ry="1" fill="#FF6B6B" fill-opacity="0.538"/>
<rect x="702" y="59" width="7" height="7" rx="1" ry="1" fill="#FF6B6B" fill-opacity="0.529"/>
<rect x="371" y="195" width="9" height="9" rx="1" ry="1" fill="#FFA5A5" fill-opacity="0.351"/>
<rect x="569" y="231" width="10" height="10" rx="1" ry="1" fill="#FF7C7C" fill-opacity="0.477"/>
<rect x="380" y="57" width="6" height="6" rx="1" ry="1" fill="#FFA3A3" fill-opacity="0.321"/>
<rect x="662" y="153" width="7" height="7" rx="1" ry="1" fill="#FF6B6B" fill-opacity="0.475"/>
<rect x="468" y="268" width="7" height="7" rx="1" ry="1" fill="#FF9191" fill-opacity="0.406"/>
<rect x="390" y="168" width="10" height="10" rx="1" ry="1" fill="#FFA1A1" fill-opacity="0.355"/>
<rect x="295" y="190" width="6" height="6" rx="1" ry="1" fill="#FFB3B3" fill-opacity="0.286"/>
<rect x="454" y="135" width="9" height="9" rx="1" ry="1" fill="#FF9494" fill-opacity="0.346"/>
<rect x="688" y="169" width="11" height="11" rx="1" ry="1" fill="#FF6B6B" fill-opacity="0.485"/>
<rect x="277" y="137" width="7" height="7" rx="1" ry="1" fill="#FFB7B7" fill-opacity="0.285"/>
<rect x="632" y="246" width="10" height="10" rx="1" ry="1" fill="#FF6F6F" fill-opacity="0.471"/>
<rect x="203" y="161" width="8" height="8" rx="1" ry="1" fill="#FFC4C4" fill-opacity="0.201"/>
<rect x="188" y="257" width="6" height="6" rx="1" ry="1" fill="#FFC6C6" fill-opacity="0.190"/>
<rect x="581" y="135" width="9" height="9" rx="1" ry="1" fill="#FF7A7A" fill-opacity="0.500"/>
<rect x="321" y="24" width="6" height="6" rx="1" ry="1" fill="#FFAEAE" fill-opacity="0.285"/>
<rect x="410" y="107" width="7" height="7" rx="1" ry="1" fill="#FF9D9D" fill-opacity="0.385"/>
<rect x="632" y="215" width="6" height="6" rx="1" ry="1" fill="#FF6F6F" fill-opacity="0.467"/>
<rect x="572" y="133" width="11" height="11" rx="1" ry="1" fill="#FF7C7C" fill-opacity="0.471"/>
<rect x="516" y="267" width="8" height="8" rx="1" ry="1" fill="#FF8888" fill-opacity="0.450"/>
<rect x="466" y="15" width="10" height="10" rx="1" ry="1" fill="#FF9292" fill-opacity="0.420"/>
<rect x="347" y="186" width="9" height="9" rx="1" ry="1" fill="#FFA9A9" fill-opacity="0.345"/>
<rect x="598" y="58" width="8" height="8" rx="1" ry="1" fill="#FF7676" fill-opacity="0.415"/>
<rect x="173" y="86" width="11" height="11" rx="1" ry="1" fill="#FFC9C9" fill-opacity="0.212"/>
<rect x="178" y="224" width="11" height="11" rx="1" ry="1" fill="#FFC8C8" fill-opacity="0.189"/>
<rect x="709" y="268" width="6" height="6" rx="1" ry="1" fill="#FF6B6B" fill-opacity="0.639"/>
<rect x="150" y="111" width="9" height="9" rx="1" ry="1" fill="#FFCDCD" fill-opacity="0.187"/>
<rect x="305" y="71" width="8" height="8" rx="1" ry="1" fill="#FFB1B1" fill-opacity="0.257"/>
<rect x="364" y="35" width="9" height="9" rx="1" ry="1" fill="#FFA6A6" fill-opacity="0.286"/>
<rect x="181" y="139" width="11" height="11" rx="1" ry="1" fill="#FFC7C7" fill-opacity="0.199"/>
<rect x="303" y="204" width="8" height="8" rx="1" ry="1" fill="#FFB2B2" fill-opacity="0.277"/>
<rect x="289" y="77" width="11" height="11" rx="1" ry="1" fill="#FFB4B4" fill-opacity="0.294"/>
<rect x="612" y="223" width="10" height="10" rx="1" ry="1" fill="#E26060" fill-opacity="0.551"/>
<rect x="243" y="176" width="8" height="8" rx="1" ry="1" fill="#FFBDBD" fill-opacity="0.248"/>
<rect x="248" y="149" width="7" height="7" rx="1" ry="1" fill="#FFBCBC" fill-opacity="0.238"/>
<rect x="511" y="90" width="8" height="8" rx="1" ry="1" fill="#FF8989" fill-opacity="0.417"/>
<rect x="45" y="141" width="10" height="10" rx="1" ry="1" fill="#FFDCDC" fill-opacity="0.124"/>
<rect x="328" y="174" width="11" height="11" rx="1" ry="1" fill="#FFADAD" fill-opacity="0.311"/>
<rect x="272" y="104" width="6" height="6" rx="1" ry="1" fill="#FFB7B7" fill-opacity="0.274"/>
<rect x="103" y="80" width="11" height="11" rx="1" ry="1" fill="#FFD4D4" fill-opacity="0.152"/>
<rect x="524" y="40" width="6" height="6" rx="1" ry="1" fill="#FF8686" fill-opacity="0.444"/>
<rect x="718" y="129" width="11" height="11" rx="1" ry="1" fill="#FF6B6B" fill-opacity="0.544"/>
<rect x="132" y="50" width="6" height="6" rx="1" ry="1" fill="#E26060" fill-opacity="0.164"/>
<rect x="472" y="202" width="8" height="8" rx="1" ry="1" fill="#FF9191" fill-opacity="0.352"/>
<rect x="683" y="128" width="11" height="11" rx="1" ry="1" fill="#FF6B6B" fill-opacity="0.480"/>
<rect x="645" y="100" width="7" height="7" rx="1" ry="1" fill="#FF6C6C" fill-opacity="0.560"/>
<rect x="89" y="20" width="7" height="7" rx="1" ry="1" fill="#E26060" fill-opacity="0.144"/>
<rect x="487" y="116" width="9" height="9" rx="1" ry="1" fill="#FF8E8E" fill-opacity="0.368"/>
<rect x="548" y="110" width="8" height="8" rx="1" ry="1" fill="#FF8181" fill-opacity="0.413"/>
<rect x="103" y="104" width="10" height="10" rx="1" ry="1" fill="#FFD4D4" fill-opacity="0.154"/>
<rect x="434" y="63" width="9" height="9" rx="1" ry="1" fill="#FF9898" fill-opacity="0.324"/>
<rect x="634" y="217" width="6" height="6" rx="1" ry="1" fill="#FF6F6F" fill-opacity="0.568"/>
<rect x="106" y="103" width="8" height="8" rx="1" ry="1" fill="#E26060" fill-opacity="0.166"/>
<rect x="327" y="98" width="6" height="6" rx="1" ry="1" fill="#FFADAD" fill-opacity="0.293"/>
<rect x="153" y="257" width="11" height="11" rx="1" ry="1" fill="#FFCCCC" fill-opacity="0.180"/>
<rect x="437" y="125" width="9" height="9" rx="1" ry="1" fill="#FF9898" fill-opacity="0.363"/>
<rect x="546" y="232" width="9" height="9" rx="1" ry="1" fill="#FF8181" fill-opacity="0.470"/>
<rect x="540" y="56" width="9" height="9" rx="1" ry="1" fill="#FF8383" fill-opacity="0.398"/>
<rect x="429" y="223" width="10" height="10" rx="1" ry="1" fill="#FF9999" fill-opacity="0.343"/>
<rect x="598" y="203" width="7" height="7" rx="1" ry="1" fill="#FF7676" fill-opacity="0.518"/>
<rect x="354" y="158" width="8" height="8" rx="1" ry="1" fill="#FFA8A8" fill-opacity="0.291"/>
<rect x="645" y="25" width="7" height="7" rx="1" ry="1" fill="#FF6C6C" fill-opacity="0.519"/>
<rect x="435" y="219" width="6" height="6" rx="1" ry="1" fill="#FF9898" fill-opacity="0.365"/>
<rect x="300" y="195" width="11" height="11" rx="1" ry="1" fill="#FFB2B2" fill-opacity="0.265"/>
<rect x="138" y="28" width="11" height="11" rx="1" ry="1" fill="#FFCFCF" fill-opacity="0.188"/>
<rect x="310" y="242" width="11" height="11" rx="1" ry="1" fill="#FFB0B0" fill-opacity="0.287"/>
<rect x="592" y="203" width="6" height="6" rx="1" ry="1" fill="#FF7878" fill-opacity="0.476"/>
<rect x="434" y="153" width="8" height="8" rx="1" ry="1" fill="#FF9898" fill-opacity="0.341"/>
<rect x="442" y="20" width="7" height="7" rx="1" ry="1" fill="#FF9797" fill-opacity="0.363"/>
<rect x="401" y="87" width="8" height="8" rx="1" ry="1" fill="#FF9F9F" fill-opacity="0.361"/>
<rect x="403" y="121" width="7" height="7" rx="1" ry="1" fill="#E26060" fill-opacity="0.383"/>
<rect x="707" y="15" width="6" height="6" rx="1" ry="1" fill="#FF6B6B" fill-opacity="0.570"/>
<rect x="447" y="180" width="9" height="9" rx="1" ry="1" fill="#FF9696" fill-opacity="0.353"/>
<rect x="333" y="60" width="7" height="7" rx="1" ry="1" fill="#FFACAC" fill-opacity="0.330"/>
<rect x="435" y="207" width="6" height="6" rx="1" ry="1" fill="#FF9898" fill-opacity="0.337"/>
<rect x="250" y="50" width="9" height="9" rx="1" ry="1" fill="#FFBBBB" fill-opacity="0.227"/>
<rect x="357" y="251" width="6" height="6" rx="1" ry="1" fill="#FFA8A8" fill-opacity="0.327"/>
<rect x="434" y="203" width="11" height="11" rx="1" ry="1" fill="#FF9898" fill-opacity="0.406"/>
<rect x="179" y="92" width="9" height="9" rx="1" ry="1" fill="#FFC8C8" fill-opacity="0.190"/>
<rect x="585" y="138" width="11" height="11" rx="1" ry="1" fill="#FF7979" fill-opacity="0.478"/>
<rect x="185" y="213" width="8" height="8" rx="1" ry="1" fill="#FFC7C7" fill-opacity="0.214"/>
<rect x="643" y="231" width="11" height="11" rx="1" ry="1" fill="#FF6D6D" fill-opacity="0.477"/>
<rect x="477" y="240" width="9" height="9" rx="1" ry="1" fill="#FF9090" fill-opacity="0.449"/>
<rect x="228" y="104" width="7" height="7" rx="1" ry="1" fill="#FFBFBF" fill-opacity="0.215"/>
<rect x="419" y="51" width="7" height="7" rx="1" ry="1" fill="#FF9B9B" fill-opacity="0.339"/>
<rect x="704" y="72" width="10" height="10" rx="1" ry="1" fill="#FF6B6B" fill-opacity="0.636"/>
<rect x="615" y="137" width="11" height="11" rx="1" ry="1" fill="#FF7373" fill-opacity="0.497"/>
<rect x="219" y="17" width="8" height="8" rx="1" ry="1" fill="#FFC1C1" fill-opacity="0.247"/>
<rect x="224" y="225" width="7" height="7" rx="1" ry="1" fill="#FFC0C0" fill-opacity="0.233"/>
<rect x="559" y="29" width="7" height="7" rx="1" ry="1" fill="#FF7F7F" fill-opacity="0.500"/>
<rect x="102" y="242" width="10" height="10" rx="1" ry="1" fill="#FFD4D4" fill-opacity="0.160"/>
<rect x="81" y="36" width="6" height="6" rx="1" ry="1" fill="#FFD7D7" fill-opacity="0.149"/>
<rect x="247" y="40" width="7" height="7" rx="1" ry="1" fill="#FFBCBC" fill-opacity="0.257"/>
<rect x="291" y="217" width="10" height="10" rx="1" ry="1" fill="#FFB4B4" fill-opacity="0.291"/>
<rect x="699" y="80" width="6" height="6" rx="1" ry="1" fill="#FF6B6B" fill-opacity="0.614"/>
<rect x="62" y="268" width="9" height="9" rx="1" ry="1" fill="#FFDADA" fill-opacity="0.136"/>
<rect x="491" y="8" width="6" height="6" rx="1" ry="1" fill="#FF8D8D" fill-opacity="0.427"/>
<rect x="357" y="192" width="8" height="8" rx="1" ry="1" fill="#FFA8A8" fill-opacity="0.342"/>
<rect x="243" y="134" width="11" height="11" rx="1" ry="1" fill="#FFBDBD" fill-opacity="0.255"/>
<rect x="605" y="79" width="7" height="7" rx="1" ry="1" fill="#FF7575" fill-opacity="0.438"/>
<rect x="494" y="73" width="8" height="8" rx="1" ry="1" fill="#FF8C8C" fill-opacity="0.366"/>
<rect x="605" y="210" width="9" height="9" rx="1" ry="1" fill="#FF7575" fill-opacity="0.544"/>
<rect x="704" y="129" width="11" height="11" rx="1" ry="1" fill="#FF6B6B" fill-opacity="0.615"/>
<rect x="355" y="20" width="10" height="10" rx="1" ry="1" fill="#FFA8A8" fill-opacity="0.348"/>
<rect x="642" y="5" width="9" height="9" rx="1" ry="1" fill="#FF6D6D" fill-opacity="0.447"/>
<rect x="369" y="159" width="11" height="11" rx="1" ry="1" fill="#FFA5A5" fill-opacity="0.362"/>
<rect x="584" y="21" width="9" height="9" rx="1" ry="1" fill="#E26060" fill-opacity="0.437"/>
<rect x="552" y="258" width="6" height="6" rx="1" ry="1" fill="#FF8080" fill-opacity="0.491"/>
<rect x="284" y="138" width="11" height="11" rx="1" ry="1" fill="#FFB5B5" fill-opacity="0.296"/>
<rect x="363" y="164" width="6" height="6" rx="1" ry="1" fill="#FFA6A6" fill-opacity="0.313"/>
<rect x="353" y="216" width="9" height="9" rx="1" ry="1" fill="#FFA8A8" fill-opacity="0.306"/>
<rect x="265" y="99" width="9" height="9" rx="1" ry="1" fill="#FFB9B9" fill-opacity="0.249"/>
<rect x="368" y="169" width="6" height="6" rx="1" ry="1" fill="#FFA5A5" fill-opacity="0.339"/>
<rect x="719" y="88" width="7" height="7" rx="1" ry="1" fill="#FF6B6B" fill-opacity="0.503"/>
<rect x="706" y="144" width="8" height="8" rx="1" ry="1" fill="#FF6B6B" fill-opacity="0.512"/>
<rect x="695" y="14" width="11" height="11" rx="1" ry="1" fill="#FF6B6B" fill-opacity="0.485"/>
<rect x="569" y="10" width="7" height="7" rx="1" ry="1" fill="#FF7C7C" fill-opacity="0.417"/>
<rect x="528" y="177" width="9" height="9" rx="1" ry="1" fill="#FF8585" fill-opacity="0.406"/>
<rect x="543" y="260" width="7" height="7" rx="1" ry="1" fill="#FF8282" fill-opacity="0.453"/>
<rect x="451" y="65" width="10" height="10" rx="1" ry="1" fill="#FF9595" fill-opacity="0.414"/>
<rect x="536" y="168" width="10" height="10" rx="1" ry="1" fill="#E26060" fill-opacity="0.434"/>
<rect x="314" y="7" width="6" height="6" rx="1" ry="1" fill="#FFB0B0" fill-opacity="0.284"/>
<rect x="280" y="41" width="9" height="9" rx="1" ry="1" fill="#FFB6B6" fill-opacity="0.247"/>
<rect x="312" y="160" width="11" height="11" rx="1" ry="1" fill="#FFB0B0" fill-opacity="0.292"/>
<rect x="454" y="165" width="9" height="9" rx="1" ry="1" fill="#FF9494" fill-opacity="0.395"/>
<rect x="110" y="248" width="10" height="10" rx="1" ry="1" fill="#FFD3D3" fill-opacity="0.154"/>
<rect x="118" y="46" width="11" height="11" rx="1" ry="1" fill="#FFD2D2" fill-opacity="0.155"/>
<rect x="74" y="174" width="11" height="11" rx="1" ry="1" fill="#FFD8D8" fill-opacity="0.140"/>
<rect x="318" y="33" width="8" height="8" rx="1" ry="1" fill="#FFAFAF" fill-opacity="0.265"/>
<rect x="6" y="77" width="7" height="7" rx="1" ry="1" fill="#FFE0E0" fill-opacity="0.102"/>
<rect x="586" y="91" width="9" height="9" rx="1" ry="1" fill="#FF7979" fill-opacity="0.537"/>
<rect x="247" y="88" width="7" height="7" rx="1" ry="1" fill="#FFBCBC" fill-opacity="0.237"/>
<rect x="419" y="219" width="6" height="6" rx="1" ry="1" fill="#FF9B9B" fill-opacity="0.313"/>
<rect x="190" y="189" width="8" height="8" rx="1" ry="1" fill="#FFC6C6" fill-opacity="0.216"/>
<rect x="680" y="224" width="9" height="9" rx="1" ry="1" fill="#FF6B6B" fill-opacity="0.599"/>
<rect x="221" y="171" width="8" height="8" rx="1" ry="1" fill="#FFC1C1" fill-opacity="0.217"/>
<rect x="383" y="3" width="7" height="7" rx="1" ry="1" fill="#FFA2A2" fill-opacity="0.336"/>
<rect x="127" y="191" width="6" height="6" rx="1" ry="1" fill="#FFD0D0" fill-opacity="0.172"/>
<rect x="671" y="50" width="6" height="6" rx="1" ry="1" fill="#FF6B6B" fill-opacity="0.474"/>
<rect x="332" y="18" width="10" height="10" rx="1" ry="1" fill="#FFACAC" fill-opacity="0.282"/>
<rect x="698" y="244" width="7" height="7" rx="1" ry="1" fill="#E26060" fill-opacity="0.488"/>
<rect x="359" y="43" width="6" height="6" rx="1" ry="1" fill="#FFA7A7" fill-opacity="0.316"/>
<rect x="464" y="229" width="10" height="10" rx="1" ry="1" fill="#FF9292" fill-opacity="0.402"/>
<rect x="472" y="118" width="9" height="9" rx="1" ry="1" fill="#FF9191" fill-opacity="0.413"/>
<rect x="417" y="227" width="7" height="7" rx="1" ry="1" fill="#FF9C9C" fill-opacity="0.325"/>
<rect x="158" y="57" width="9" height="9" rx="1" ry="1" fill="#FFCBCB" fill-opacity="0.184"/>
<rect x="261" y="246" width="9" height="9" rx="1" ry="1" fill="#FFB9B9" fill-opacity="0.265"/>
<rect x="143" y="181" width="10" height="10" rx="1" ry="1" fill="#FFCECE" fill-opacity="0.176"/>
<rect x="329" y="205" width="7" height="7" rx="1" ry="1" fill="#FFADAD" fill-opacity="0.308"/>
<rect x="514" y="108" width="11" height="11" rx="1" ry="1" fill="#FF8888" fill-opacity="0.440"/>
<rect x="671" y="35" width="8" height="8" rx="1" ry="1" fill="#FF6B6B" fill-opacity="0.521"/>
<rect x="623" y="244" width="6" height="6" rx="1" ry="1" fill="#FF7171" fill-opacity="0.528"/>
<rect x="144" y="27" width="8" height="8" rx="1" ry="1" fill="#FFCECE" fill-opacity="0.166"/>
<rect x="123" y="215" width="10" height="10" rx="1" ry="1" fill="#FFD1D1" fill-opacity="0.158"/>
<rect x="330" y="142" width="6" height="6" rx="1" ry="1" fill="#FFADAD" fill-opacity="0.306"/>
<rect x="632" y="163" width="11" height="11" rx="1" ry="1" fill="#FF6F6F" fill-opacity="0.559"/>
<rect x="659" y="103" width="10" height="10" rx="1" ry="1" fill="#FF6B6B" fill-opacity="0.451"/>
<rect x="585" y="84" width="9" height="9" rx="1" ry="1" fill="#FF7979" fill-opacity="0.490"/>
<rect x="604" y="18" width="7" height="7" rx="1" ry="1" fill="#FF7575" fill-opacity="0.502"/>
<rect x="34" y="250" width="8" height="8" rx="1" ry="1" fill="#FFDDDD" fill-opacity="0.119"/>
<rect x="197" y="134" width="11" height="11" rx="1" ry="1" fill="#FFC5C5" fill-opacity="0.225"/>
<rect x="614" y="71" width="6" height="6" rx="1" ry="1" fill="#FF7373" fill-opacity="0.445"/>
<rect x="215" y="248" width="8" height="8" rx="1" ry="1" fill="#FFC2C2" fill-opacity="0.202"/>
<rect x="81" y="272" width="6" height="6" rx="1" ry="1" fill="#FFD7D7" fill-opacity="0.139"/>
<rect x="610" y="205" width="11" height="11" rx="1" ry="1" fill="#FF7474" fill-opacity="0.558"/>
<rect x="160" y="260" width="6" height="6" rx="1" ry="1" fill="#FFCBCB" fill-opacity="0.181"/>
<rect x="714" y="39" width="7" height="7" rx="1" ry="1" fill="#FF6B6B" fill-opacity="0.488"/>
<rect x="401" y="149" width="7" height="7" rx="1" ry="1" fill="#FF9F9F" fill-opacity="0.384"/>
<rect x="542" y="103" width="8" height="8" rx="1" ry="1" fill="#FF8282" fill-opacity="0.394"/>
<rect x="37" y="240" width="8" height="8" rx="1" ry="1" fill="#FFDDDD" fill-opacity="0.116"/>
<rect x="330" y="206" width="8" height="8" rx="1" ry="1" fill="#E26060" fill-opacity="0.308"/>
<rect x="654" y="130" width="6" height="6" rx="1" ry="1" fill="#FF6B6B" fill-opacity="0.565"/>
<rect x="277" y="14" width="8" height="8" rx="1" ry="1" fill="#FFB7B7" fill-opacity="0.256"/>
<rect x="486" y="51" width="11" height="11" rx="1" ry="1" fill="#FF8E8E" fill-opacity="0.453"/>
<rect x="578" y="44" width="10" height="10" rx="1" ry="1" fill="#FF7B7B" fill-opacity="0.527"/>
<rect x="63" y="168" width="10" height="10" rx="1" ry="1" fill="#FFDADA" fill-opacity="0.127"/>
<rect x="142" y="179" width="10" height="10" rx="1" ry="1" fill="#FFCECE" fill-opacity="0.167"/>
<rect x="447" y="32" width="7" height="7" rx="1" ry="1" fill="#FF9696" fill-opacity="0.350"/>
<rect x="690" y="41" width="7" height="7" rx="1" ry="1" fill="#FF6B6B" fill-opacity="0.589"/>
<rect x="153" y="112" width="10" height="10" rx="1" ry="1" fill="#FFCCCC" fill-opacity="0.199"/>
<rect x="389" y="234" width="11" height="11" rx="1" ry="1" fill="#FFA1A1" fill-opacity="0.305"/>
<rect x="36" y="256" width="11" height="11" rx="1" ry="1" fill="#FFDDDD" fill-opacity="0.117"/>
<rect x="341" y="100" width="11" height="11" rx="1" ry="1" fill="#FFABAB" fill-opacity="0.289"/>
<rect x="704" y="188" width="9" height="9" rx="1" ry="1" fill="#FF6B6B" fill-opacity="0.592"/>
<rect x="488" y="263" width="11" height="11" rx="1" ry="1" fill="#FF8D8D" fill-opacity="0.446"/>
<rect x="359" y="157" width="9" height="9" rx="1" ry="1" fill="#FFA7A7" fill-opacity="0.324"/>
<rect x="271" y="134" width="8" height="8" rx="1" ry="1" fill="#FFB8B8" fill-opacity="0.241"/>
<rect x="644" y="102" width="10" height="10" rx="1" ry="1" fill="#FF6C6C" fill-opacity="0.549"/>
<rect x="44" y="153" width="6" height="6" rx="1" ry="1" fill="#FFDCDC" fill-opacity="0.122"/>
<rect x="249" y="33" width="9" height="9" rx="1" ry="1" fill="#FFBCBC" fill-opacity="0.267"/>
<rect x="203" y="225" width="7" height="7" rx="1" ry="1" fill="#FFC4C4" fill-opacity="0.207"/>
<rect x="361" y="225" width="10" height="10" rx="1" ry="1" fill="#FFA7A7" fill-opacity="0.311"/>
<rect x="388" y="200" width="10" height="10" rx="1" ry="1" fill="#FFA1A1" fill-opacity="0.324"/>
<rect x="296" y="192" width="10" height="10" rx="1" ry="1" fill="#FFB3B3" fill-opacity="0.252"/>
<rect x="509" y="252" width="10" height="10" rx="1" ry="1" fill="#FF8989" fill-opacity="0.453"/>
<rect x="346" y="107" width="7" height="7" rx="1" ry="1" fill="#FFAAAA" fill-opacity="0.305"/>
<rect x="385" y="90" width="10" height="10" rx="1" ry="1" fill="#FFA2A2" fill-opacity="0.368"/>
<rect x="422" y="201" width="9" height="9" rx="1" ry="1" fill="#FF9B9B" fill-opacity="0.334"/>
<rect x="602" y="228" width="10" height="10" rx="1" ry="1" fill="#FF7575" fill-opacity="0.505"/>
<rect x="294" y="60" width="8" height="8" rx="1" ry="1" fill="#FFB3B3" fill-opacity="0.247"/>
<rect x="254" y="125" width="8" height="8" rx="1" ry="1" fill="#FFBBBB" fill-opacity="0.266"/>
<rect x="339" y="55" width="11" height="11" rx="1" ry="1" fill="#FFABAB" fill-opacity="0.296"/>
<rect x="319" y="77" width="10" height="10" rx="1" ry="1" fill="#FFAFAF" fill-opacity="0.288"/>
<rect x="351" y="26" width="8" height="8" rx="1" ry="1" fill="#FFA9A9" fill-opacity="0.324"/>
<rect x="385" y="179" width="7" height="7" rx="1" ry="1" fill="#FFA2A2" fill-opacity="0.346"/>
<rect x="431" y="125" width="10" height="10" rx="1" ry="1" fill="#FF9999" fill-opacity="0.409"/>
<rect x="488" y="42" width="9" height="9" rx="1" ry="1" fill="#FF8D8D" fill-opacity="0.353"/>
<rect x="434" y="140" width="10" height="10" rx="1" ry="1" fill="#FF9898" fill-opacity="0.387"/>
<rect x="692" y="47" width="11" height="11" rx="1" ry="1" fill="#FF6B6B" fill-opacity="0.626"/>
<rect x="455" y="160" width="7" height="7" rx="1" ry="1" fill="#FF9494" fill-opacity="0.333"/>
<rect x="662" y="227" width="8" height="8" rx="1" ry="1" fill="#FF6B6B" fill-opacity="0.561"/>
<rect x="509" y="179" width="7" height="7" rx="1" ry="1" fill="#FF8989" fill-opacity="0.455"/>
<rect x="570" y="266" width="10" height="10" rx="1" ry="1" fill="#E26060" fill-opacity="0.493"/>
<rect x="610" y="70" width="10" height="10" rx="1" ry="1" fill="#FF7474" fill-opacity="0.537"/>
<rect x="553" y="249" width="11" height="11" rx="1" ry="1" fill="#FF8080" fill-opacity="0.415"/>
<rect x="580" y="44" width="10" height="10" rx="1" ry="1" fill="#FF7A7A" fill-opacity="0.435"/>
<rect x="178" y="181" width="9" height="9" rx="1" ry="1" fill="#FFC8C8" fill-opacity="0.213"/>
<rect x="132" y="193" width="9" height="9" rx="1" ry="1" fill="#FFD0D0" fill-opacity="0.183"/>
<rect x="679" y="76" width="7" height="7" rx="1" ry="1" fill="#FF6B6B" fill-opacity="0.563"/>
<rect x="147" y="253" width="10" height="10" rx="1" ry="1" fill="#FFCDCD" fill-opacity="0.172"/>
<rect x="511" y="220" width="11" height="11" rx="1" ry="1" fill="#FF8989" fill-opacity="0.406"/>
<rect x="321" y="185" width="7" height="7" rx="1" ry="1" fill="#FFAEAE" fill-opacity="0.319"/>
<rect x="645" y="217" width="6" height="6" rx="1" ry="1" fill="#FF6C6C" fill-opacity="0.524"/>
<rect x="194" y="11" width="11" height="11" rx="1" ry="1" fill="#FFC5C5" fill-opacity="0.219"/>
<rect x="370" y="53" width="11" height="11" rx="1" ry="1" fill="#FFA5A5" fill-opacity="0.354"/>
<rect x="130" y="101" width="10" height="10" rx="1" ry="1" fill="#FFD0D0" fill-opacity="0.160"/>
<rect x="388" y="219" width="7" height="7" rx="1" ry="1" fill="#FFA1A1" fill-opacity="0.336"/>
<rect x="308" y="222" width="11" height="11" rx="1" ry="1" fill="#FFB1B1" fill-opacity="0.287"/>
<rect x="573" y="52" width="7" height="7" rx="1" ry="1" fill="#FF7C7C" fill-opacity="0.457"/>
<rect x="68" y="41" width="10" height="10" rx="1" ry="1" fill="#FFD9D9" fill-opacity="0.129"/>
<rect x="143" y="59" width="7" height="7" rx="1" ry="1" fill="#FFCECE" fill-opacity="0.180"/>
<rect x="257" y="215" width="7" height="7" rx="1" ry="1" fill="#FFBABA" fill-opacity="0.250"/>
<rect x="30" y="197" width="11" height="11" rx="1" ry="1" fill="#FFDEDE" fill-opacity="0.115"/>
<rect x="161" y="18" width="9" height="9" rx="1" ry="1" fill="#FFCBCB" fill-opacity="0.184"/>
<rect x="614" y="186" width="10" height="10" rx="1" ry="1" fill="#FF7373" fill-opacity="0.505"/>
<rect x="608" y="3" width="7" height="7" rx="1" ry="1" fill="#FF7474" fill-opacity="0.508"/>
<rect x="455" y="151" width="9" height="9" rx="1" ry="1" fill="#FF9494" fill-opacity="0.391"/>
<rect x="167" y="57" width="11" height="11" rx="1" ry="1" fill="#FFCACA" fill-opacity="0.209"/>
<rect x="50" y="16" width="8" height="8" rx="1" ry="1" fill="#FFDBDB" fill-opacity="0.126"/>
<rect x="557" y="82" width="10" height="10" rx="1" ry="1" fill="#E26060" fill-opacity="0.418"/>
<rect x="630" y="88" width="7" height="7" rx="1" ry="1" fill="#FF6F6F" fill-opacity="0.511"/>
<rect x="582" y="130" width="11" height="11" rx="1" ry="1" fill="#FF7A7A" fill-opacity="0.407"/>
<rect x="526" y="241" width="7" height="7" rx="1" ry="1" fill="#FF8686" fill-opacity="0.482"/>
<rect x="623" y="127" width="9" height="9" rx="1" ry="1" fill="#FF7171" fill-opacity="0.451"/>
<rect x="455" y="242" width="9" height="9" rx="1" ry="1" fill="#FF9494" fill-opacity="0.418"/>
<rect x="167" y="14" width="6" height="6" rx="1" ry="1" fill="#FFCACA" fill-opacity="0.190"/>
<rect x="284" y="230" width="8" height="8" rx="1" ry="1" fill="#FFB5B5" fill-opacity="0.249"/>
<rect x="697" y="222" width="7" height="7" rx="1" ry="1" fill="#FF6B6B" fill-opacity="0.618"/>
<rect x="660" y="0" width="60" height="280" fill="url(#edgeGlow)"/>
</svg>