<svg xmlns="http://www.w3.org/2000/svg" width="720" height="280" viewBox="0 0 720 280">
      <defs>
        <radialGradient id="vignette" cx="50%" cy="50%" r="75%">
          <stop offset="0%" stop-color="#ffffff" stop-opacity="1"/>
          <stop offset="100%" stop-color="#ffffff" stop-opacity="0.7"/>
        </radialGradient>
        <linearGradient id="edgeGlow" x1="0%" y1="0%" x2="100%" y2="0%">
          <stop offset="0%" stop-color="#ffffff" stop-opacity="0"/>
          <stop offset="100%" stop-color="#ffffff" stop-opacity="0.45"/>
        </linearGradient>
      </defs>
    <rect x="0" y="0" width="720" height="280" fill="url(#vignette)"/>
<rect x="495" y="137" width="11" height="11" rx="1" ry="1" fill="#5DD1C6" fill-opacity="0.396"/>
<rect x="681" y="27" width="9" height="9" rx="1" ry="1" fill="#2EC4B6" fill-opacity="0.502"/>
<rect x="453" y="199" width="8" height="8" rx="1" ry="1" fill="#69D4CA" fill-opacity="0.369"/>
<rect x="42" y="0" width="7" height="7" rx="1" ry="1" fill="#CEF1EE" fill-opacity="0.122"/>
<rect x="703" y="184" width="11" height="11" rx="1" ry="1" fill="#2AAEA2" fill-opacity="0.508"/>
<rect x="165" y="7" width="7" height="7" rx="1" ry="1" fill="#B5EAE5" fill-opacity="0.189"/>
<rect x="354" y="210" width="10" height="10" rx="1" ry="1" fill="#84DCD4" fill-opacity="0.319"/>
<rect x="302" y="19" width="11" height="11" rx="1" ry="1" fill="#92E0D9" fill-opacity="0.254"/>
<rect x="690" y="142" width="8" height="8" rx="1" ry="1" fill="#2EC4B6" fill-opacity="0.529"/>
<rect x="70" y="244" width="11" height="11" rx="1" ry="1" fill="#C9EFEC" fill-opacity="0.135"/>
<rect x="313" y="138" width="7" height="7" rx="1" ry="1" fill="#8FDFD8" fill-opacity="0.268"/>
<rect x="286" y="208" width="7" height="7" rx="1" ry="1" fill="#97E1DA" fill-opacity="0.296"/>
<rect x="575" y="221" width="7" height="7" rx="1" ry="1" fill="#45CABE" fill-opacity="0.462"/>
<rect x="605" y="216" width="11" height="11" rx="1" ry="1" fill="#3CC8BB" fill-opacity="0.541"/>
<rect x="306" y="90" width="9" height="9" rx="1" ry="1" fill="#2AAEA2" fill-opacity="0.313"/>
<rect x="365" y="120" width="6" height="6" rx="1" ry="1" fill="#81DBD3" fill-opacity="0.292"/>
<rect x="217" y="200" width="8" height="8" rx="1" ry="1" fill="#A8E6E0" fill-opacity="0.205"/>
<rect x="417" y="54" width="8" height="8" rx="1" ry="1" fill="#73D7CE" fill-opacity="0.321"/>
<rect x="460" y="107" width="9" height="9" rx="1" ry="1" fill="#67D4CA" fill-opacity="0.403"/>
<rect x="616" y="204" width="10" height="10" rx="1" ry="1" fill="#2AAEA2" fill-opacity="0.430"/>
<rect x="406" y="49" width="6" height="6" rx="1" ry="1" fill="#2AAEA2" fill-opacity="0.327"/>
<rect x="77" y="42" width="10" height="10" rx="1" ry="1" fill="#C8EFEB" fill-opacity="0.135"/>
<rect x="374" y="49" width="11" height="11" rx="1" ry="1" fill="#7FDBD2" fill-opacity="0.325"/>
<rect x="84" y="49" width="9" height="9" rx="1" ry="1" fill="#C6EFEB" fill-opacity="0.137"/>
<rect x="292" y="88" width="6" height="6" rx="1" ry="1" fill="#95E1DA" fill-opacity="0.249"/>
<rect x="82" y="123" width="11" height="11" rx="1" ry="1" fill="#C7EFEB" fill-opacity="0.141"/>
<rect x="636" y="16" width="9" height="9" rx="1" ry="1" fill="#33C5B7" fill-opacity="0.519"/>
<rect x="410" y="130" width="6" height="6" rx="1" ry="1" fill="#75D8CE" fill-opacity="0.372"/>
<rect x="718" y="167" width="11" height="11" rx="1" ry="1" fill="#2AAEA2" fill-opacity="0.496"/>
<rect x="708" y="256" width="10" height="10" rx="1" ry="1" fill="#2EC4B6" fill-opacity="0.529"/>
<rect x="627" y="149" width="6" height="6" rx="1" ry="1" fill="#35C6B8" fill-opacity="0.530"/>
<rect x="660" y="219" width="10" height="10" rx="1" ry="1" fill="#2EC4B6" fill-opacity="0.528"/>
<rect x="310" y="198" width="9" height="9" rx="1" ry="1" fill="#90DFD8" fill-opacity="0.260"/>
<rect x="214" y="184" width="6" height="6" rx="1" ry="1" fill="#A9E6E1" fill-opacity="0.228"/>
<rect x="598" y="9" width="11" height="11" rx="1" ry="1" fill="#3EC8BB" fill-opacity="0.516"/>
<rect x="717" y="25" width="8" height="8" rx="1" ry="1" fill="#2EC4B6" fill-opacity="0.484"/>
<rect x="207" y="175" width="10" height="10" rx="1" ry="1" fill="#ABE7E1" fill-opacity="0.217"/>
<rect x="656" y="10" width="7" height="7" rx="1" ry="1" fill="#2EC4B6" fill-opacity="0.455"/>
<rect x="718" y="139" width="9" height="9" rx="1" ry="1" fill="#2EC4B6" fill-opacity="0.579"/>
<rect x="285" y="142" width="11" height="11" rx="1" ry="1" fill="#97E1DA" fill-opacity="0.247"/>
<rect x="592" y="124" width="11" height="11" rx="1" ry="1" fill="#40C9BC" fill-opacity="0.491"/>
<rect x="217" y="39" width="11" height="11" rx="1" ry="1" fill="#A8E6E0" fill-opacity="0.243"/>
<rect x="271" y="144" width="7" height="7" rx="1" ry="1" fill="#9AE2DC" fill-opacity="0.232"/>
<rect x="606" y="222" width="10" height="10" rx="1" ry="1" fill="#3CC8BA" fill-opacity="0.466"/>
<rect x="492" y="168" width="9" height="9" rx="1" ry="1" fill="#5ED1C6" fill-opacity="0.394"/>
<rect x="336" y="52" width="11" height="11" rx="1" ry="1" fill="#89DDD6" fill-opacity="0.324"/>
<rect x="360" y="54" width="9" height="9" rx="1" ry="1" fill="#83DCD3" fill-opacity="0.347"/>
<rect x="696" y="182" width="6" height="6" rx="1" ry="1" fill="#2AAEA2" fill-opacity="0.586"/>
<rect x="295" y="176" width="11" height="11" rx="1" ry="1" fill="#94E0D9" fill-opacity="0.274"/>
<rect x="517" y="107" width="7" height="7" rx="1" ry="1" fill="#2AAEA2" fill-opacity="0.449"/>
<rect x="410" y="106" width="11" height="11" rx="1" ry="1" fill="#75D8CE" fill-opacity="0.392"/>
<rect x="438" y="31" width="7" height="7" rx="1" ry="1" fill="#6DD5CC" fill-opacity="0.413"/>
<rect x="229" y="48" width="8" height="8" rx="1" ry="1" fill="#A5E5DF" fill-opacity="0.216"/>
<rect x="642" y="30" width="6" height="6" rx="1" ry="1" fill="#31C4B7" fill-opacity="0.578"/>
<rect x="531" y="214" width="8" height="8" rx="1" ry="1" fill="#52CEC2" fill-opacity="0.407"/>
<rect x="500" y="61" width="6" height="6" rx="1" ry="1" fill="#2AAEA2" fill-opacity="0.377"/>
<rect x="358" y="148" width="10" height="10" rx="1" ry="1" fill="#83DCD3" fill-opacity="0.304"/>
<rect x="119" y="161" width="9" height="9" rx="1" ry="1" fill="#BFEDE8" fill-opacity="0.156"/>
<rect x="322" y="126" width="9" height="9" rx="1" ry="1" fill="#8DDED7" fill-opacity="0.325"/>
<rect x="349" y="224" width="7" height="7" rx="1" ry="1" fill="#86DCD4" fill-opacity="0.287"/>
<rect x="365" y="133" width="7" height="7" rx="1" ry="1" fill="#81DBD3" fill-opacity="0.286"/>
<rect x="638" y="73" width="8" height="8" rx="1" ry="1" fill="#32C5B7" fill-opacity="0.561"/>
<rect x="564" y="267" width="11" height="11" rx="1" ry="1" fill="#48CBBF" fill-opacity="0.432"/>
<rect x="483" y="161" width="7" height="7" rx="1" ry="1" fill="#60D2C7" fill-opacity="0.366"/>
<rect x="247" y="222" width="7" height="7" rx="1" ry="1" fill="#A1E4DE" fill-opacity="0.244"/>
<rect x="410" y="57" width="6" height="6" rx="1" ry="1" fill="#75D8CE" fill-opacity="0.343"/>
<rect x="514" y="152" width="7" height="7" rx="1" ry="1" fill="#57CFC4" fill-opacity="0.418"/>
<rect x="688" y="191" width="6" height="6" rx="1" ry="1" fill="#2EC4B6" fill-opacity="0.569"/>
<rect x="248" y="99" width="11" height="11" rx="1" ry="1" fill="#A0E4DE" fill-opacity="0.247"/>
<rect x="587" y="32" width="10" height="10" rx="1" ry="1" fill="#41C9BC" fill-opacity="0.538"/>
<rect x="446" y="233" width="9" height="9" rx="1" ry="1" fill="#6BD5CB" fill-opacity="0.392"/>
<rect x="523" y="244" width="7" height="7" rx="1" ry="1" fill="#55CFC3" fill-opacity="0.380"/>
<rect x="554" y="142" width="6" height="6" rx="1" ry="1" fill="#4BCCC0" fill-opacity="0.487"/>
<rect x="236" y="223" width="7" height="7" rx="1" ry="1" fill="#A3E5DF" fill-opacity="0.218"/>
<rect x="372" y="110" width="6" height="6" rx="1" ry="1" fill="#80DBD2" fill-opacity="0.336"/>
<rect x="311" y="147" width="7" height="7" rx="1" ry="1" fill="#90DFD8" fill-opacity="0.262"/>
<rect x="348" y="70" width="6" height="6" rx="1" ry="1" fill="#86DDD4" fill-opacity="0.311"/>
<rect x="680" y="67" width="9" height="9" rx="1" ry="1" fill="#2EC4B6" fill-opacity="0.569"/>
<rect x="219" y="78" width="10" height="10" rx="1" ry="1" fill="#A8E6E0" fill-opacity="0.212"/>
<rect x="63" y="158" width="7" height="7" rx="1" ry="1" fill="#CBF0EC" fill-opacity="0.134"/>
<rect x="187" y="67" width="6" height="6" rx="1" ry="1" fill="#AFE8E3" fill-opacity="0.207"/>
<rect x="446" y="39" width="8" height="8" rx="1" ry="1" fill="#6BD5CB" fill-opacity="0.358"/>
<rect x="611" y="142" width="6" height="6" rx="1" ry="1" fill="#3AC7BA" fill-opacity="0.527"/>
<rect x="238" y="213" width="11" height="11" rx="1" ry="1" fill="#A3E5DE" fill-opacity="0.251"/>
<rect x="509" y="94" width="11" height="11" rx="1" ry="1" fill="#59D0C5" fill-opacity="0.397"/>
<rect x="281" y="233" width="6" height="6" rx="1" ry="1" fill="#98E2DB" fill-opacity="0.281"/>
<rect x="130" y="132" width="6" height="6" rx="1" ry="1" fill="#BDECE7" fill-opacity="0.178"/>
<rect x="190" y="0" width="8" height="8" rx="1" ry="1" fill="#AFE8E3" fill-opacity="0.191"/>
<rect x="477" y="120" width="9" height="9" rx="1" ry="1" fill="#62D2C8" fill-opacity="0.423"/>
<rect x="69" y="34" width="10" height="10" rx="1" ry="1" fill="#C9F0EC" fill-opacity="0.133"/>
<rect x="406" y="204" width="11" height="11" rx="1" ry="1" fill="#76D8CF" fill-opacity="0.380"/>
<rect x="450" y="167" width="6" height="6" rx="1" ry="1" fill="#6AD4CB" fill-opacity="0.357"/>
<rect x="184" y="83" width="8" height="8" rx="1" ry="1" fill="#B0E8E3" fill-opacity="0.208"/>
<rect x="471" y="197" width="7" height="7" rx="1" ry="1" fill="#64D3C8" fill-opacity="0.382"/>
<rect x="704" y="28" width="10" height="10" rx="1" ry="1" fill="#2EC4B6" fill-opacity="0.504"/>
<rect x="594" y="49" width="7" height="7" rx="1" ry="1" fill="#3FC9BC" fill-opacity="0.525"/>
<rect x="699" y="0" width="6" height="6" rx="1" ry="1" fill="#2EC4B6" fill-opacity="0.585"/>
<rect x="489" y="23" width="9" height="9" rx="1" ry="1" fill="#5ED1C7" fill-opacity="0.440"/>
<rect x="583" y="11" width="7" height="7" rx="1" ry="1" fill="#43C9BD" fill-opacity="0.458"/>
<rect x="122" y="77" width="6" height="6" rx="1" ry="1" fill="#BEECE8" fill-opacity="0.165"/>
<rect x="128" y="264" width="8" height="8" rx="1" ry="1" fill="#BDECE8" fill-opacity="0.167"/>
<rect x="353" y="204" width="6" height="6" rx="1" ry="1" fill="#85DCD4" fill-opacity="0.287"/>
<rect x="550" y="112" width="10" height="10" rx="1" ry="1" fill="#4DCCC0" fill-opacity="0.390"/>
<rect x="46" y="55" width="10" height="10" rx="1" ry="1" fill="#CEF1ED" fill-opacity="0.120"/>
<rect x="540" y="151" width="11" height="11" rx="1" ry="1" fill="#50CDC1" fill-opacity="0.489"/>
<rect x="292" y="65" width="8" height="8" rx="1" ry="1" fill="#95E1DA" fill-opacity="0.245"/>
<rect x="709" y="223" width="10" height="10" rx="1" ry="1" fill="#2EC4B6" fill-opacity="0.517"/>
<rect x="302" y="120" width="7" height="7" rx="1" ry="1" fill="#2AAEA2" fill-opacity="0.299"/>
<rect x="596" y="177" width="6" height="6" rx="1" ry="1" fill="#3FC8BC" fill-opacity="0.429"/>
<rect x="702" y="143" width="6" height="6" rx="1" ry="1" fill="#2EC4B6" fill-opacity="0.508"/>
<rect x="390" y="108" width="6" height="6" rx="1" ry="1" fill="#7BD9D0" fill-opacity="0.296"/>
<rect x="268" y="21" width="6" height="6" rx="1" ry="1" fill="#9BE2DC" fill-opacity="0.281"/>
<rect x="325" y="162" width="7" height="7" rx="1" ry="1" fill="#8CDED7" fill-opacity="0.263"/>
<rect x="617" y="70" width="10" height="10" rx="1" ry="1" fill="#38C7B9" fill-opacity="0.464"/>
<rect x="209" y="216" width="6" height="6" rx="1" ry="1" fill="#AAE7E1" fill-opacity="0.230"/>
<rect x="350" y="153" width="11" height="11" rx="1" ry="1" fill="#2AAEA2" fill-opacity="0.347"/>
<rect x="273" y="185" width="10" height="10" rx="1" ry="1" fill="#9AE2DB" fill-opacity="0.254"/>
<rect x="467" y="161" width="10" height="10" rx="1" ry="1" fill="#65D3C9" fill-opacity="0.355"/>
<rect x="718" y="39" width="7" height="7" rx="1" ry="1" fill="#2EC4B6" fill-opacity="0.588"/>
<rect x="157" y="265" width="6" height="6" rx="1" ry="1" fill="#B6EAE5" fill-opacity="0.186"/>
<rect x="709" y="232" width="7" height="7" rx="1" ry="1" fill="#2AAEA2" fill-opacity="0.490"/>
<rect x="521" y="2" width="8" height="8" rx="1" ry="1" fill="#55CFC3" fill-opacity="0.462"/>
<rect x="473" y="172" width="9" height="9" rx="1" ry="1" fill="#2AAEA2" fill-opacity="0.434"/>
<rect x="587" y="232" width="10" height="10" rx="1" ry="1" fill="#41C9BC" fill-opacity="0.481"/>
<rect x="583" y="158" width="6" height="6" rx="1" ry="1" fill="#43C9BD" fill-opacity="0.413"/>
<rect x="44" y="123" width="11" height="11" rx="1" ry="1" fill="#CEF1EE" fill-opacity="0.122"/>
<rect x="471" y="230" width="7" height="7" rx="1" ry="1" fill="#64D3C8" fill-opacity="0.350"/>
<rect x="688" y="162" width="8" height="8" rx="1" ry="1" fill="#2EC4B6" fill-opacity="0.610"/>
<rect x="361" y="213" width="7" height="7" rx="1" ry="1" fill="#2AAEA2" fill-opacity="0.315"/>
<rect x="325" y="195" width="9" height="9" rx="1" ry="1" fill="#8CDED7" fill-opacity="0.319"/>
<rect x="303" y="26" width="10" height="10" rx="1" ry="1" fill="#92E0D9" fill-opacity="0.304"/>
<rect x="494" y="138" width="10" height="10" rx="1" ry="1" fill="#5DD1C6" fill-opacity="0.360"/>
<rect x="292" y="97" width="8" height="8" rx="1" ry="1" fill="#2AAEA2" fill-opacity="0.301"/>
<rect x="402" y="10" width="11" height="11" rx="1" ry="1" fill="#77D8CF" fill-opacity="0.363"/>
<rect x="41" y="33" width="8" height="8" rx="1" ry="1" fill="#CFF1EE" fill-opacity="0.123"/>
<rect x="48" y="140" width="8" height="8" rx="1" ry="1" fill="#CDF1ED" fill-opacity="0.124"/>
<rect x="551" y="113" width="8" height="8" rx="1" ry="1" fill="#4CCCC0" fill-opacity="0.413"/>
<rect x="628" y="192" width="10" height="10" rx="1" ry="1" fill="#35C6B8" fill-opacity="0.508"/>
<rect x="336" y="161" width="9" height="9" rx="1" ry="1" fill="#89DDD6" fill-opacity="0.319"/>
<rect x="437" y="204" width="10" height="10" rx="1" ry="1" fill="#6DD6CC" fill-opacity="0.362"/>
<rect x="557" y="86" width="11" height="11" rx="1" ry="1" fill="#4ACCC0" fill-opacity="0.449"/>
<rect x="213" y="149" width="10" height="10" rx="1" ry="1" fill="#A9E6E1" fill-opacity="0.240"/>
<rect x="488" y="269" width="10" height="10" rx="1" ry="1" fill="#5FD1C7" fill-opacity="0.426"/>
<rect x="429" y="235" width="11" height="11" rx="1" ry="1" fill="#70D6CD" fill-opacity="0.326"/>
<rect x="625" y="2" width="6" height="6" rx="1" ry="1" fill="#36C6B8" fill-opacity="0.527"/>
<rect x="506" y="112" width="6" height="6" rx="1" ry="1" fill="#5AD0C5" fill-opacity="0.468"/>
<rect x="569" y="73" width="11" height="11" rx="1" ry="1" fill="#47CBBE" fill-opacity="0.499"/>
<rect x="679" y="112" width="8" height="8" rx="1" ry="1" fill="#2EC4B6" fill-opacity="0.614"/>
<rect x="302" y="46" width="9" height="9" rx="1" ry="1" fill="#92E0D9" fill-opacity="0.289"/>
<rect x="518" y="195" width="7" height="7" rx="1" ry="1" fill="#56CFC4" fill-opacity="0.430"/>
<rect x="533" y="256" width="10" height="10" rx="1" ry="1" fill="#52CEC2" fill-opacity="0.471"/>
<rect x="198" y="0" width="11" height="11" rx="1" ry="1" fill="#ADE7E2" fill-opacity="0.224"/>
<rect x="489" y="157" width="8" height="8" rx="1" ry="1" fill="#5ED1C7" fill-opacity="0.432"/>
<rect x="284" y="103" width="7" height="7" rx="1" ry="1" fill="#97E1DA" fill-opacity="0.283"/>
<rect x="701" y="234" width="11" height="11" rx="1" ry="1" fill="#2EC4B6" fill-opacity="0.633"/>
<rect x="442" y="175" width="9" height="9" rx="1" ry="1" fill="#6CD5CB" fill-opacity="0.379"/>
<rect x="380" y="20" width="11" height="11" rx="1" ry="1" fill="#7DDAD1" fill-opacity="0.360"/>
<rect x="351" y="18" width="10" height="10" rx="1" ry="1" fill="#85DCD4" fill-opacity="0.287"/>
<rect x="162" y="34" width="8" height="8" rx="1" ry="1" fill="#B5EAE5" fill-opacity="0.189"/>
<rect x="643" y="134" width="10" height="10" rx="1" ry="1" fill="#30C4B7" fill-opacity="0.548"/>
<rect x="595" y="262" width="10" height="10" rx="1" ry="1" fill="#3FC8BC" fill-opacity="0.518"/>
<rect x="196" y="193" width="7" height="7" rx="1" ry="1" fill="#ADE8E2" fill-opacity="0.198"/>
<rect x="336" y="182" width="7" height="7" rx="1" ry="1" fill="#89DDD6" fill-opacity="0.313"/>
<rect x="449" y="129" width="10" height="10" rx="1" ry="1" fill="#6AD5CB" fill-opacity="0.400"/>
<rect x="48" y="78" width="8" height="8" rx="1" ry="1" fill="#CDF1ED" fill-opacity="0.128"/>
<rect x="568" y="46" width="8" height="8" rx="1" ry="1" fill="#2AAEA2" fill-opacity="0.507"/>
<rect x="145" y="29" width="8" height="8" rx="1" ry="1" fill="#B9EBE6" fill-opacity="0.167"/>
<rect x="471" y="42" width="8" height="8" rx="1" ry="1" fill="#64D3C8" fill-opacity="0.417"/>
<rect x="246" y="200" width="7" height="7" rx="1" ry="1" fill="#A1E4DE" fill-opacity="0.235"/>
<rect x="571" y="132" width="9" height="9" rx="1" ry="1" fill="#2AAEA2" fill-opacity="0.519"/>
<rect x="232" y="229" width="9" height="9" rx="1" ry="1" fill="#A4E5DF" fill-opacity="0.237"/>
<rect x="663" y="272" width="11" height="11" rx="1" ry="1" fill="#2EC4B6" fill-opacity="0.515"/>
<rect x="710" y="106" width="9" height="9" rx="1" ry="1" fill="#2EC4B6" fill-opacity="0.607"/>
<rect x="581" y="21" width="8" height="8" rx="1" ry="1" fill="#43CABD" fill-opacity="0.405"/>
<rect x="422" y="115" width="6" height="6" rx="1" ry="1" fill="#72D7CD" fill-opacity="0.404"/>
<rect x="603" y="214" width="9" height="9" rx="1" ry="1" fill="#3DC8BB" fill-opacity="0.510"/>
<rect x="287" y="118" width="9" height="9" rx="1" ry="1" fill="#96E1DA" fill-opacity="0.296"/>
<rect x="553" y="154" width="11" height="11" rx="1" ry="1" fill="#4CCCC0" fill-opacity="0.508"/>
<rect x="232" y="193" width="6" height="6" rx="1" ry="1" fill="#A4E5DF" fill-opacity="0.233"/>
<rect x="375" y="206" width="10" height="10" rx="1" ry="1" fill="#7FDAD2" fill-opacity="0.363"/>
<rect x="315" y="13" width="9" height="9" rx="1" ry="1" fill="#8FDFD8" fill-opacity="0.312"/>
<rect x="246" y="131" width="10" height="10" rx="1" ry="1" fill="#A1E4DE" fill-opacity="0.227"/>
<rect x="671" y="248" width="8" height="8" rx="1" ry="1" fill="#2EC4B6" fill-opacity="0.600"/>
<rect x="189" y="217" width="11" height="11" rx="1" ry="1" fill="#AFE8E3" fill-opacity="0.203"/>
<rect x="296" y="90" width="6" height="6" rx="1" ry="1" fill="#94E0D9" fill-opacity="0.252"/>
<rect x="390" y="216" width="11" height="11" rx="1" ry="1" fill="#7BD9D0" fill-opacity="0.302"/>
<rect x="208" y="55" width="6" height="6" rx="1" ry="1" fill="#AAE7E1" fill-opacity="0.226"/>
<rect x="684" y="215" width="11" height="11" rx="1" ry="1" fill="#2EC4B6" fill-opacity="0.592"/>
<rect x="641" y="218" width="11" height="11" rx="1" ry="1" fill="#2AAEA2" fill-opacity="0.535"/>
<rect x="63" y="223" width="9" height="9" rx="1" ry="1" fill="#CBF0EC" fill-opacity="0.133"/>
<rect x="92" y="210" width="10" height="10" rx="1" ry="1" fill="#C5EEEA" fill-opacity="0.147"/>
<rect x="624" y="35" width="10" height="10" rx="1" ry="1" fill="#36C6B9" fill-opacity="0.563"/>
<rect x="367" y="211" width="7" height="7" rx="1" ry="1" fill="#81DBD3" fill-opacity="0.326"/>
<rect x="100" y="220" width="6" height="6" rx="1" ry="1" fill="#C3EEEA" fill-opacity="0.158"/>
<rect x="404" y="50" width="11" height="11" rx="1" ry="1" fill="#77D8CF" fill-opacity="0.370"/>
<rect x="135" y="81" width="10" height="10" rx="1" ry="1" fill="#BBECE7" fill-opacity="0.181"/>
<rect x="474" y="258" width="7" height="7" rx="1" ry="1" fill="#63D3C8" fill-opacity="0.389"/>
<rect x="397" y="152" width="8" height="8" rx="1" ry="1" fill="#79D9D0" fill-opacity="0.314"/>
<rect x="436" y="159" width="8" height="8" rx="1" ry="1" fill="#6ED6CC" fill-opacity="0.412"/>
<rect x="630" y="234" width="8" height="8" rx="1" ry="1" fill="#34C5B8" fill-opacity="0.524"/>
<rect x="566" y="112" width="8" height="8" rx="1" ry="1" fill="#48CBBF" fill-opacity="0.425"/>
<rect x="318" y="266" width="11" height="11" rx="1" ry="1" fill="#8EDFD7" fill-opacity="0.259"/>
<rect x="673" y="181" width="10" height="10" rx="1" ry="1" fill="#2EC4B6" fill-opacity="0.479"/>
<rect x="620" y="55" width="7" height="7" rx="1" ry="1" fill="#37C6B9" fill-opacity="0.484"/>
<rect x="496" y="211" width="11" height="11" rx="1" ry="1" fill="#5CD1C6" fill-opacity="0.432"/>
<rect x="534" y="104" width="9" height="9" rx="1" ry="1" fill="#51CEC2" fill-opacity="0.488"/>
<rect x="706" y="223" width="9" height="9" rx="1" ry="1" fill="#2EC4B6" fill-opacity="0.546"/>
<rect x="224" y="185" width="9" height="9" rx="1" ry="1" fill="#A6E6E0" fill-opacity="0.241"/>
<rect x="155" y="14" width="7" height="7" rx="1" ry="1" fill="#B7EAE5" fill-opacity="0.197"/>
<rect x="654" y="94" width="6" height="6" rx="1" ry="1" fill="#2EC4B6" fill-opacity="0.482"/>
<rect x="486" y="76" width="9" height="9" rx="1" ry="1" fill="#2AAEA2" fill-opacity="0.412"/>
<rect x="399" y="83" width="9" height="9" rx="1" ry="1" fill="#78D9D0" fill-opacity="0.320"/>
<rect x="286" y="21" width="8" height="8" rx="1" ry="1" fill="#97E1DA" fill-opacity="0.286"/>
<rect x="700" y="255" width="8" height="8" rx="1" ry="1" fill="#2EC4B6" fill-opacity="0.475"/>
<rect x="645" y="9" width="8" height="8" rx="1" ry="1" fill="#30C4B6" fill-opacity="0.553"/>
<rect x="511" y="266" width="11" height="11" rx="1" ry="1" fill="#58D0C4" fill-opacity="0.373"/>
<rect x="169" y="71" width="11" height="11" rx="1" ry="1" fill="#B4E9E4" fill-opacity="0.182"/>
<rect x="247" y="229" width="10" height="10" rx="1" ry="1" fill="#A1E4DE" fill-opacity="0.219"/>
<rect x="326" y="190" width="8" height="8" rx="1" ry="1" fill="#8CDED7" fill-opacity="0.293"/>
<rect x="399" y="168" width="9" height="9" rx="1" ry="1" fill="#78D9D0" fill-opacity="0.336"/>
<rect x="506" y="59" width="10" height="10" rx="1" ry="1" fill="#5AD0C5" fill-opacity="0.402"/>
<rect x="312" y="25" width="11" height="11" rx="1" ry="1" fill="#90DFD8" fill-opacity="0.277"/>
<rect x="167" y="76" width="10" height="10" rx="1" ry="1" fill="#B4EAE5" fill-opacity="0.206"/>
<rect x="657" y="257" width="6" height="6" rx="1" ry="1" fill="#2EC4B6" fill-opacity="0.567"/>
<rect x="286" y="71" width="6" height="6" rx="1" ry="1" fill="#97E1DA" fill-opacity="0.299"/>
<rect x="30" y="59" width="11" height="11" rx="1" ry="1" fill="#D1F2EE" fill-opacity="0.113"/>
<rect x="567" y="111" width="10" height="10" rx="1" ry="1" fill="#47CBBF" fill-opacity="0.473"/>
<rect x="506" y="69" width="8" height="8" rx="1" ry="1" fill="#5AD0C5" fill-opacity="0.428"/>
<rect x="104" y="36" width="10" height="10" rx="1" ry="1" fill="#C2EDE9" fill-opacity="0.152"/>
<rect x="462" y="143" width="10" height="10" rx="1" ry="1" fill="#66D4C9" fill-opacity="0.362"/>
<rect x="63" y="82" width="6" height="6" rx="1" ry="1" fill="#CBF0EC" fill-opacity="0.138"/>
<rect x="491" y="175" width="9" height="9" rx="1" ry="1" fill="#5ED1C6" fill-opacity="0.387"/>
<rect x="325" y="125" width="6" height="6" rx="1" ry="1" fill="#8CDED7" fill-opacity="0.278"/>
<rect x="321" y="55" width="11" height="11" rx="1" ry="1" fill="#8DDFD7" fill-opacity="0.278"/>
<rect x="242" y="58" width="10" height="10" rx="1" ry="1" fill="#A2E4DE" fill-opacity="0.238"/>
<rect x="582" y="49" width="11" height="11" rx="1" ry="1" fill="#43CABD" fill-opacity="0.440"/>
<rect x="556" y="146" width="6" height="6" rx="1" ry="1" fill="#4BCCC0" fill-opacity="0.407"/>
<rect x="642" y="255" width="8" height="8" rx="1" ry="1" fill="#2AAEA2" fill-opacity="0.534"/>
<rect x="675" y="219" width="7" height="7" rx="1" ry="1" fill="#2EC4B6" fill-opacity="0.543"/>
<rect x="80" y="54" width="8" height="8" rx="1" ry="1" fill="#C7EFEB" fill-opacity="0.144"/>
<rect x="458" y="222" width="11" height="11" rx="1" ry="1" fill="#67D4CA" fill-opacity="0.427"/>
<rect x="318" y="127" width="9" height="9" rx="1" ry="1" fill="#8EDFD7" fill-opacity="0.308"/>
<rect x="434" y="259" width="6" height="6" rx="1" ry="1" fill="#6ED6CC" fill-opacity="0.351"/>
<rect x="401" y="42" width="9" height="9" rx="1" ry="1" fill="#78D8CF" fill-opacity="0.339"/>
<rect x="695" y="248" width="8" height="8" rx="1" ry="1" fill="#2EC4B6" fill-opacity="0.530"/>
<rect x="208" y="55" width="10" height="10" rx="1" ry="1" fill="#AAE7E1" fill-opacity="0.221"/>
<rect x="654" y="107" width="8" height="8" rx="1" ry="1" fill="#2EC4B6" fill-opacity="0.472"/>
<rect x="499" y="111" width="11" height="11" rx="1" ry="1" fill="#5CD1C6" fill-opacity="0.397"/>
<rect x="161" y="46" width="6" height="6" rx="1" ry="1" fill="#B6EAE5" fill-opacity="0.197"/>
<rect x="659" y="153" width="7" height="7" rx="1" ry="1" fill="#2EC4B6" fill-opacity="0.550"/>
<rect x="507" y="104" width="6" height="6" rx="1" ry="1" fill="#59D0C5" fill-opacity="0.387"/>
<rect x="322" y="223" width="9" height="9" rx="1" ry="1" fill="#8DDED7" fill-opacity="0.304"/>
<rect x="483" y="176" width="6" height="6" rx="1" ry="1" fill="#60D2C7" fill-opacity="0.417"/>
<rect x="632" y="24" width="8" height="8" rx="1" ry="1" fill="#34C5B8" fill-opacity="0.472"/>
<rect x="67" y="114" width="11" height="11" rx="1" ry="1" fill="#CAF0EC" fill-opacity="0.134"/>
<rect x="513" y="134" width="6" height="6" rx="1" ry="1" fill="#57CFC4" fill-opacity="0.379"/>
<rect x="323" y="120" width="10" height="10" rx="1" ry="1" fill="#8DDED7" fill-opacity="0.325"/>
<rect x="701" y="202" width="7" height="7" rx="1" ry="1" fill="#2EC4B6" fill-opacity="0.492"/>
<rect x="276" y="192" width="9" height="9" rx="1" ry="1" fill="#99E2DB" fill-opacity="0.290"/>
<rect x="151" y="265" width="6" height="6" rx="1" ry="1" fill="#B8EBE6" fill-opacity="0.195"/>
<rect x="360" y="148" width="7" height="7" rx="1" ry="1" fill="#83DCD3" fill-opacity="0.306"/>
<rect x="580" y="131" width="8" height="8" rx="1" ry="1" fill="#44CABD" fill-opacity="0.488"/>
<rect x="288" y="207" width="8" height="8" rx="1" ry="1" fill="#96E1DA" fill-opacity="0.276"/>
<rect x="425" y="44" width="7" height="7" rx="1" ry="1" fill="#71D6CD" fill-opacity="0.366"/>
<rect x="410" y="43" width="11" height="11" rx="1" ry="1" fill="#75D8CE" fill-opacity="0.318"/>
<rect x="551" y="2" width="11" height="11" rx="1" ry="1" fill="#4CCCC0" fill-opacity="0.460"/>
<rect x="20" y="131" width="11" height="11" rx="1" ry="1" fill="#D2F2EF" fill-opacity="0.108"/>
<rect x="149" y="230" width="6" height="6" rx="1" ry="1" fill="#B8EBE6" fill-opacity="0.176"/>
<rect x="415" y="262" width="6" height="6" rx="1" ry="1" fill="#74D7CE" fill-opacity="0.368"/>
<rect x="362" y="238" width="9" height="9" rx="1" ry="1" fill="#82DBD3" fill-opacity="0.311"/>
<rect x="344" y="158" width="8" height="8" rx="1" ry="1" fill="#2AAEA2" fill-opacity="0.294"/>
<rect x="713" y="160" width="11" height="11" rx="1" ry="1" fill="#2EC4B6" fill-opacity="0.608"/>
<rect x="632" y="267" width="9" height="9" rx="1" ry="1" fill="#34C5B8" fill-opacity="0.457"/>
<rect x="379" y="205" width="9" height="9" rx="1" ry="1" fill="#7EDAD1" fill-opacity="0.299"/>
<rect x="245" y="252" width="8" height="8" rx="1" ry="1" fill="#A1E4DE" fill-opacity="0.240"/>
<rect x="584" y="25" width="7" height="7" rx="1" ry="1" fill="#42C9BD" fill-opacity="0.516"/>
<rect x="286" y="234" width="11" height="11" rx="1" ry="1" fill="#97E1DA" fill-opacity="0.281"/>
<rect x="489" y="232" width="7" height="7" rx="1" ry="1" fill="#5ED1C7" fill-opacity="0.369"/>
<rect x="630" y="23" width="6" height="6" rx="1" ry="1" fill="#34C5B8" fill-opacity="0.434"/>
<rect x="402" y="266" width="9" height="9" rx="1" ry="1" fill="#77D8CF" fill-opacity="0.338"/>
<rect x="492" y="249" width="7" height="7" rx="1" ry="1" fill="#5ED1C6" fill-opacity="0.451"/>
<rect x="244" y="1" width="7" height="7" rx="1" ry="1" fill="#A1E4DE" fill-opacity="0.218"/>
<rect x="300" y="193" width="8" height="8" rx="1" ry="1" fill="#93E0D9" fill-opacity="0.283"/>
<rect x="21" y="169" width="9" height="9" rx="1" ry="1" fill="#D2F2EF" fill-opacity="0.108"/>
<rect x="436" y="231" width="11" height="11" rx="1" ry="1" fill="#6ED6CC" fill-opacity="0.413"/>
<rect x="240" y="49" width="7" height="7" rx="1" ry="1" fill="#A2E4DE" fill-opacity="0.219"/>
<rect x="663" y="207" width="9" height="9" rx="1" ry="1" fill="#2EC4B6" fill-opacity="0.460"/>
<rect x="712" y="150" width="11" height="11" rx="1" ry="1" fill="#2EC4B6" fill-opacity="0.518"/>
<rect x="209" y="229" width="10" height="10" rx="1" ry="1" fill="#AAE7E1" fill-opacity="0.223"/>
<rect x="389" y="124" width="9" height="9" rx="1" ry="1" fill="#7BD9D1" fill-opacity="0.361"/>
<rect x="459" y="251" width="7" height="7" rx="1" ry="1" fill="#67D4CA" fill-opacity="0.346"/>
<rect x="680" y="25" width="9" height="9" rx="1" ry="1" fill="#2EC4B6" fill-opacity="0.587"/>
<rect x="602" y="139" width="8" height="8" rx="1" ry="1" fill="#3DC8BB" fill-opacity="0.549"/>
<rect x="152" y="48" width="11" height="11" rx="1" ry="1" fill="#B8EAE6" fill-opacity="0.179"/>
<rect x="711" y="91" width="6" height="6" rx="1" ry="1" fill="#2EC4B6" fill-opacity="0.641"/>
<rect x="676" y="130" width="6" height="6" rx="1" ry="1" fill="#2EC4B6" fill-opacity="0.571"/>
<rect x="389" y="204" width="9" height="9" rx="1" ry="1" fill="#2AAEA2" fill-opacity="0.301"/>
<rect x="393" y="57" width="10" height="10" rx="1" ry="1" fill="#7AD9D0" fill-opacity="0.311"/>
<rect x="560" y="239" width="8" height="8" rx="1" ry="1" fill="#4ACBBF" fill-opacity="0.469"/>
<rect x="430" y="98" width="9" height="9" rx="1" ry="1" fill="#6FD6CD" fill-opacity="0.331"/>
<rect x="315" y="168" width="9" height="9" rx="1" ry="1" fill="#8FDFD8" fill-opacity="0.279"/>
<rect x="448" y="8" width="8" height="8" rx="1" ry="1" fill="#6AD5CB" fill-opacity="0.363"/>
<rect x="624" y="66" width="8" height="8" rx="1" ry="1" fill="#36C6B9" fill-opacity="0.460"/>
<rect x="558" y="267" width="11" height="11" rx="1" ry="1" fill="#4ACCC0" fill-opacity="0.430"/>
<rect x="665" y="130" width="8" height="8" rx="1" ry="1" fill="#2EC4B6" fill-opacity="0.528"/>
<rect x="213" y="125" width="8" height="8" rx="1" ry="1" fill="#A9E6E1" fill-opacity="0.237"/>
<rect x="279" y="91" width="11" height="11" rx="1" ry="1" fill="#98E2DB" fill-opacity="0.281"/>
<rect x="533" y="211" width="6" height="6" rx="1" ry="1" fill="#52CEC2" fill-opacity="0.413"/>
<rect x="625" y="132" width="9" height="9" rx="1" ry="1" fill="#36C6B8" fill-opacity="0.501"/>
<rect x="353" y="189" width="6" height="6" rx="1" ry="1" fill="#85DCD4" fill-opacity="0.277"/>
<rect x="643" y="137" width="10" height="10" rx="1" ry="1" fill="#30C4B7" fill-opacity="0.578"/>
<rect x="189" y="230" width="8" height="8" rx="1" ry="1" fill="#2AAEA2" fill-opacity="0.203"/>
<rect x="473" y="50" width="6" height="6" rx="1" ry="1" fill="#2AAEA2" fill-opacity="0.377"/>
<rect x="455" y="102" width="8" height="8" rx="1" ry="1" fill="#68D4CA" fill-opacity="0.339"/>
<rect x="699" y="18" width="9" height="9" rx="1" ry="1" fill="#2EC4B6" fill-opacity="0.522"/>
<rect x="501" y="63" width="8" height="8" rx="1" ry="1" fill="#5BD0C5" fill-opacity="0.411"/>
<rect x="497" y="262" width="8" height="8" rx="1" ry="1" fill="#5CD1C6" fill-opacity="0.404"/>
<rect x="512" y="195" width="9" height="9" rx="1" ry="1" fill="#2AAEA2" fill-opacity="0.475"/>
<rect x="690" y="27" width="6" height="6" rx="1" ry="1" fill="#2EC4B6" fill-opacity="0.549"/>
<rect x="330" y="194" width="8" height="8" rx="1" ry="1" fill="#8BDED6" fill-opacity="0.317"/>
<rect x="501" y="50" width="11" height="11" rx="1" ry="1" fill="#5BD0C5" fill-opacity="0.389"/>
<rect x="195" y="257" width="10" height="10" rx="1" ry="1" fill="#ADE8E2" fill-opacity="0.224"/>
<rect x="463" y="183" width="10" height="10" rx="1" ry="1" fill="#66D3C9" fill-opacity="0.376"/>
<rect x="642" y="146" width="10" height="10" rx="1" ry="1" fill="#31C4B7" fill-opacity="0.555"/>
<rect x="690" y="127" width="7" height="7" rx="1" ry="1" fill="#2AAEA2" fill-opacity="0.511"/>
<rect x="581" y="230" width="9" height="9" rx="1" ry="1" fill="#2AAEA2" fill-opacity="0.417"/>
<rect x="404" y="209" width="6" height="6" rx="1" ry="1" fill="#77D8CF" fill-opacity="0.333"/>
<rect x="550" y="175" width="7" height="7" rx="1" ry="1" fill="#4DCCC0" fill-opacity="0.505"/>
<rect x="332" y="233" width="7" height="7" rx="1" ry="1" fill="#8ADED6" fill-opacity="0.301"/>
<rect x="571" y="198" width="6" height="6" rx="1" ry="1" fill="#46CABE" fill-opacity="0.430"/>
<rect x="214" y="256" width="6" height="6" rx="1" ry="1" fill="#A9E6E1" fill-opacity="0.211"/>
<rect x="647" y="30" width="7" height="7" rx="1" ry="1" fill="#2FC4B6" fill-opacity="0.459"/>
<rect x="410" y="42" width="10" height="10" rx="1" ry="1" fill="#75D8CE" fill-opacity="0.385"/>
<rect x="605" y="136" width="10" height="10" rx="1" ry="1" fill="#3CC8BB" fill-opacity="0.543"/>
<rect x="584" y="151" width="7" height="7" rx="1" ry="1" fill="#42C9BD" fill-opacity="0.454"/>
<rect x="517" y="191" width="11" height="11" rx="1" ry="1" fill="#56CFC4" fill-opacity="0.380"/>
<rect x="653" y="56" width="6" height="6" rx="1" ry="1" fill="#2EC4B6" fill-opacity="0.476"/>
<rect x="151" y="6" width="7" height="7" rx="1" ry="1" fill="#B8EBE6" fill-opacity="0.194"/>
<rect x="410" y="226" width="9" height="9" rx="1" ry="1" fill="#75D8CE" fill-opacity="0.321"/>
<rect x="406" y="7" width="11" height="11" rx="1" ry="1" fill="#76D8CF" fill-opacity="0.346"/>
<rect x="510" y="185" width="10" height="10" rx="1" ry="1" fill="#58D0C4" fill-opacity="0.375"/>
<rect x="586" y="247" width="6" height="6" rx="1" ry="1" fill="#42C9BD" fill-opacity="0.527"/>
<rect x="714" y="201" width="11" height="11" rx="1" ry="1" fill="#2EC4B6" fill-opacity="0.583"/>
<rect x="688" y="252" width="11" height="11" rx="1" ry="1" fill="#2AAEA2" fill-opacity="0.535"/>
<rect x="167" y="5" width="9" height="9" rx="1" ry="1" fill="#B4EAE5" fill-opacity="0.193"/>
<rect x="568" y="88" width="10" height="10" rx="1" ry="1" fill="#47CBBE" fill-opacity="0.456"/>
<rect x="550" y="5" width="11" height="11" rx="1" ry="1" fill="#4DCCC0" fill-opacity="0.422"/>
<rect x="586" y="150" width="8" height="8" rx="1" ry="1" fill="#42C9BD" fill-opacity="0.415"/>
<rect x="96" y="252" width="6" height="6" rx="1" ry="1" fill="#C4EEEA" fill-opacity="0.151"/>
<rect x="486" y="131" width="9" height="9" rx="1" ry="1" fill="#5FD2C7" fill-opacity="0.408"/>
<rect x="428" y="59" width="8" height="8" rx="1" ry="1" fill="#70D6CD" fill-opacity="0.391"/>
<rect x="172" y="73" width="8" height="8" rx="1" ry="1" fill="#B3E9E4" fill-opacity="0.203"/>
<rect x="314" y="92" width="7" height="7" rx="1" ry="1" fill="#8FDFD8" fill-opacity="0.287"/>
<rect x="607" y="75" width="10" height="10" rx="1" ry="1" fill="#3BC7BA" fill-opacity="0.461"/>
<rect x="325" y="75" width="11" height="11" rx="1" ry="1" fill="#8CDED7" fill-opacity="0.283"/>
<rect x="569" y="225" width="6" height="6" rx="1" ry="1" fill="#47CBBE" fill-opacity="0.483"/>
<rect x="138" y="0" width="10" height="10" rx="1" ry="1" fill="#BBEBE7" fill-opacity="0.177"/>
<rect x="521" y="5" width="9" height="9" rx="1" ry="1" fill="#2AAEA2" fill-opacity="0.436"/>
<rect x="168" y="260" width="11" height="11" rx="1" ry="1" fill="#B4E9E4" fill-opacity="0.196"/>
<rect x="202" y="233" width="6" height="6" rx="1" ry="1" fill="#ACE7E2" fill-opacity="0.216"/>
<rect x="154" y="48" width="11" height="11" rx="1" ry="1" fill="#B7EAE6" fill-opacity="0.184"/>
<rect x="655" y="57" width="8" height="8" rx="1" ry="1" fill="#2EC4B6" fill-opacity="0.526"/>
<rect x="257" y="14" width="10" height="10" rx="1" ry="1" fill="#9EE3DD" fill-opacity="0.243"/>
<rect x="395" y="50" width="8" height="8" rx="1" ry="1" fill="#79D9D0" fill-opacity="0.313"/>
<rect x="367" y="89" width="11" height="11" rx="1" ry="1" fill="#81DBD3" fill-opacity="0.359"/>
<rect x="151" y="241" width="9" height="9" rx="1" ry="1" fill="#B8EBE6" fill-opacity="0.174"/>
<rect x="602" y="192" width="9" height="9" rx="1" ry="1" fill="#3DC8BB" fill-opacity="0.523"/>
<rect x="465" y="124" width="11" height="11" rx="1" ry="1" fill="#65D3C9" fill-opacity="0.400"/>
<rect x="413" y="52" width="8" height="8" rx="1" ry="1" fill="#74D7CE" fill-opacity="0.357"/>
<rect x="211" y="219" width="8" height="8" rx="1" ry="1" fill="#AAE7E1" fill-opacity="0.204"/>
<rect x="446" y="3" width="10" height="10" rx="1" ry="1" fill="#6BD5CB" fill-opacity="0.385"/>
<rect x="352" y="75" width="11" height="11" rx="1" ry="1" fill="#85DCD4" fill-opacity="0.306"/>
<rect x="316" y="216" width="10" height="10" rx="1" ry="1" fill="#8FDFD7" fill-opacity="0.276"/>
<rect x="622" y="238" width="11" height="11" rx="1" ry="1" fill="#2AAEA2" fill-opacity="0.454"/>
<rect x="636" y="193" width="11" height="11" rx="1" ry="1" fill="#2AAEA2" fill-opacity="0.453"/>
<rect x="539" y="125" width="9" height="9" rx="1" ry="1" fill="#50CDC1" fill-opacity="0.444"/>
<rect x="617" y="68" width="8" height="8" rx="1" ry="1" fill="#38C7B9" fill-opacity="0.514"/>
<rect x="579" y="3" width="7" height="7" rx="1" ry="1" fill="#44CABD" fill-opacity="0.451"/>
<rect x="469" y="130" width="8" height="8" rx="1" ry="1" fill="#64D3C9" fill-opacity="0.420"/>
<rect x="478" y="197" width="8" height="8" rx="1" ry="1" fill="#62D2C8" fill-opacity="0.405"/>
<rect x="493" y="160" width="11" height="11" rx="1" ry="1" fill="#5DD1C6" fill-opacity="0.413"/>
<rect x="675" y="158" width="6" height="6" rx="1" ry="1" fill="#2EC4B6" fill-opacity="0.555"/>
<rect x="547" y="232" width="11" height="11" rx="1" ry="1" fill="#4DCDC1" fill-opacity="0.438"/>
<rect x="166" y="170" width="10" height="10" rx="1" ry="1" fill="#B4EAE5" fill-opacity="0.180"/>
<rect x="640" y="55" width="7" height="7" rx="1" ry="1" fill="#31C5B7" fill-opacity="0.454"/>
<rect x="471" y="18" width="7" height="7" rx="1" ry="1" fill="#2AAEA2" fill-opacity="0.414"/>
<rect x="43" y="7" width="8" height="8" rx="1" ry="1" fill="#CEF1EE" fill-opacity="0.124"/>
<rect x="76" y="53" width="6" height="6" rx="1" ry="1" fill="#C8EFEB" fill-opacity="0.139"/>
<rect x="49" y="54" width="7" height="7" rx="1" ry="1" fill="#CDF1ED" fill-opacity="0.121"/>
<rect x="613" y="9" width="10" height="10" rx="1" ry="1" fill="#2AAEA2" fill-opacity="0.445"/>
<rect x="572" y="8" width="8" height="8" rx="1" ry="1" fill="#46CABE" fill-opacity="0.491"/>
<rect x="712" y="75" width="9" height="9" rx="1" ry="1" fill="#2EC4B6" fill-opacity="0.496"/>
<rect x="272" y="216" width="11" height="11" rx="1" ry="1" fill="#9AE2DB" fill-opacity="0.261"/>
<rect x="477" y="98" width="11" height="11" rx="1" ry="1" fill="#62D2C8" fill-opacity="0.375"/>
<rect x="429" y="161" width="7" height="7" rx="1" ry="1" fill="#70D6CD" fill-opacity="0.322"/>
<rect x="112" y="97" width="10" height="10" rx="1" ry="1" fill="#C1EDE9" fill-opacity="0.158"/>
<rect x="681" y="67" width="8" height="8" rx="1" ry="1" fill="#2AAEA2" fill-opacity="0.529"/>
<rect x="215" y="61" width="10" height="10" rx="1" ry="1" fill="#A9E6E0" fill-opacity="0.231"/>
<rect x="595" y="217" width="7" height="7" rx="1" ry="1" fill="#3FC8BC" fill-opacity="0.513"/>
<rect x="282" y="186" width="6" height="6" rx="1" ry="1" fill="#98E1DB" fill-opacity="0.261"/>
<rect x="104" y="156" width="7" height="7" rx="1" ry="1" fill="#C2EDE9" fill-opacity="0.154"/>
<rect x="257" y="243" width="10" height="10" rx="1" ry="1" fill="#9EE3DD" fill-opacity="0.249"/>
<rect x="308" y="31" width="6" height="6" rx="1" ry="1" fill="#91E0D8" fill-opacity="0.257"/>
<rect x="154" y="235" width="10" height="10" rx="1" ry="1" fill="#B7EAE6" fill-opacity="0.181"/>
<rect x="308" y="60" width="6" height="6" rx="1" ry="1" fill="#91E0D8" fill-opacity="0.305"/>
<rect x="526" y="150" width="6" height="6" rx="1" ry="1" fill="#54CEC3" fill-opacity="0.439"/>
<rect x="229" y="223" width="6" height="6" rx="1" ry="1" fill="#A5E5DF" fill-opacity="0.213"/>
<rect x="310" y="239" width="11" height="11" rx="1" ry="1" fill="#90DFD8" fill-opacity="0.262"/>
<rect x="597" y="32" width="8" height="8" rx="1" ry="1" fill="#3EC8BB" fill-opacity="0.481"/>
<rect x="360" y="14" width="10" height="10" rx="1" ry="1" fill="#83DCD3" fill-opacity="0.304"/>
<rect x="404" y="253" width="10" height="10" rx="1" ry="1" fill="#77D8CF" fill-opacity="0.386"/>
<rect x="387" y="19" width="6" height="6" rx="1" ry="1" fill="#7BD9D1" fill-opacity="0.356"/>
<rect x="23" y="152" width="6" height="6" rx="1" ry="1" fill="#D2F2EF" fill-opacity="0.110"/>
<rect x="460" y="16" width="8" height="8" rx="1" ry="1" fill="#67D4CA" fill-opacity="0.341"/>
<rect x="180" y="186" width="11" height="11" rx="1" ry="1" fill="#B1E9E3" fill-opacity="0.214"/>
<rect x="575" y="128" width="10" height="10" rx="1" ry="1" fill="#45CABE" fill-opacity="0.436"/>
<rect x="548" y="5" width="11" height="11" rx="1" ry="1" fill="#4DCCC1" fill-opacity="0.406"/>
<rect x="184" y="28" width="11" height="11" rx="1" ry="1" fill="#B0E8E3" fill-opacity="0.190"/>
<rect x="376" y="196" width="6" height="6" rx="1" ry="1" fill="#7EDAD2" fill-opacity="0.350"/>
<rect x="466" y="238" width="6" height="6" rx="1" ry="1" fill="#65D3C9" fill-opacity="0.407"/>
<rect x="660" y="0" width="60" height="280" fill="url(#edgeGlow)"/>
</svg>